<?xml version="1.0" encoding="UTF-8" standalone="no"?>
<!DOCTYPE svg PUBLIC "-//W3C//DTD SVG 1.1//EN"
 "http://www.w3.org/Graphics/SVG/1.1/DTD/svg11.dtd">
<!-- Generated by graphviz version 7.1.0 (20230121.1956)
 -->
<!-- Title: Sccg.Builtin.Develop.StdSourceImpl&lt; TGroup &gt; Pages: 1 -->
<svg width="284pt" height="104pt"
 viewBox="0.00 0.00 284.00 104.00" xmlns="http://www.w3.org/2000/svg" xmlns:xlink="http://www.w3.org/1999/xlink">
<g id="graph0" class="graph" transform="scale(1 1) rotate(0) translate(4 100)">
<title>Sccg.Builtin.Develop.StdSourceImpl&lt; TGroup &gt;</title>
<!-- Node1 -->
<g id="node1" class="node">
<title>Node1</title>
<g id="a_node1"><a xlink:title="A standard implementation of ISource.">
<polygon fill="#999999" stroke="#666666" points="194.5,-30 71.5,-30 71.5,0 194.5,0 194.5,-30"/>
<text text-anchor="start" x="79.5" y="-18" font-family="Helvetica,sans-Serif" font-size="10.00">Sccg.Builtin.Develop.Std</text>
<text text-anchor="middle" x="133" y="-7" font-family="Helvetica,sans-Serif" font-size="10.00">SourceImpl&lt; TGroup &gt;</text>
</a>
</g>
</g>
<!-- Node2 -->
<g id="node2" class="node">
<title>Node2</title>
<g id="a_node2"><a xlink:href="classSccg_1_1Utility_1_1ObjectStore.html" target="_top" xlink:title=" ">
<polygon fill="white" stroke="#666666" points="120,-96 0,-96 0,-77 120,-77 120,-96"/>
<text text-anchor="middle" x="60" y="-84" font-family="Helvetica,sans-Serif" font-size="10.00">Sccg.Utility.ObjectStore</text>
</a>
</g>
</g>
<!-- Node2&#45;&gt;Node1 -->
<g id="edge1" class="edge">
<title>Node2&#45;&gt;Node1</title>
<path fill="none" stroke="#9a32cd" stroke-dasharray="5,2" d="M77.41,-68.93C89.78,-57.15 106.22,-41.5 118.01,-30.27"/>
<polygon fill="#9a32cd" stroke="#9a32cd" points="75.17,-66.22 70.34,-75.65 80,-71.29 75.17,-66.22"/>
<text text-anchor="middle" x="112" y="-51" font-family="Helvetica,sans-Serif" font-size="10.00"> Store</text>
</g>
<!-- Node3 -->
<g id="node3" class="node">
<title>Node3</title>
<g id="a_node3"><a xlink:href="classSccg_1_1Utility_1_1SingeLinkGraph.html" target="_top" xlink:title=" ">
<polygon fill="white" stroke="#666666" points="276,-96 138,-96 138,-77 276,-77 276,-96"/>
<text text-anchor="middle" x="207" y="-84" font-family="Helvetica,sans-Serif" font-size="10.00">Sccg.Utility.SingeLinkGraph</text>
</a>
</g>
</g>
<!-- Node3&#45;&gt;Node1 -->
<g id="edge2" class="edge">
<title>Node3&#45;&gt;Node1</title>
<path fill="none" stroke="#9a32cd" stroke-dasharray="5,2" d="M189.35,-68.93C176.81,-57.15 160.15,-41.5 148.2,-30.27"/>
<polygon fill="#9a32cd" stroke="#9a32cd" points="186.84,-71.37 196.52,-75.66 191.63,-66.26 186.84,-71.37"/>
<text text-anchor="middle" x="190.5" y="-51" font-family="Helvetica,sans-Serif" font-size="10.00"> Graph</text>
</g>
</g>
</svg>
