<?xml version="1.0" encoding="UTF-8" standalone="no"?>
<!DOCTYPE svg PUBLIC "-//W3C//DTD SVG 1.1//EN"
 "http://www.w3.org/Graphics/SVG/1.1/DTD/svg11.dtd">
<!-- Generated by graphviz version 8.0.1 (20230327.1645)
 -->
<!-- Title: Sccg.Builtin.Sources.AlacrittyColorsSource.Item.Extract Pages: 1 -->
<svg width="336pt" height="56pt"
 viewBox="0.00 0.00 336.00 56.00" xmlns="http://www.w3.org/2000/svg" xmlns:xlink="http://www.w3.org/1999/xlink">
<g id="graph0" class="graph" transform="scale(1 1) rotate(0) translate(4 52)">
<title>Sccg.Builtin.Sources.AlacrittyColorsSource.Item.Extract</title>
<!-- Node1 -->
<g id="node1" class="node">
<title>Node1</title>
<g id="a_node1"><a xlink:title="Extract AlacrittyFormatter.Formattable from this item.">
<polygon fill="#999999" stroke="#666666" points="144,-30 0,-30 0,0 144,0 144,-30"/>
<text text-anchor="start" x="8" y="-18" font-family="Helvetica,sans-Serif" font-size="10.00">Sccg.Builtin.Sources.Alacritty</text>
<text text-anchor="middle" x="72" y="-7" font-family="Helvetica,sans-Serif" font-size="10.00">ColorsSource.Item.Extract</text>
</a>
</g>
</g>
<!-- Node2 -->
<g id="node2" class="node">
<title>Node2</title>
<g id="a_node2"><a xlink:href="classSccg_1_1Builtin_1_1Formatters_1_1AlacrittyFormatter.html#a95e9a5a3c47986e115fd9c9cac507965" target="_top" xlink:title="Formattable item for Alacritty config.">
<polygon fill="white" stroke="#666666" points="328,-30 180,-30 180,0 328,0 328,-30"/>
<text text-anchor="start" x="188" y="-18" font-family="Helvetica,sans-Serif" font-size="10.00">Sccg.Builtin.Formatters.</text>
<text text-anchor="middle" x="254" y="-7" font-family="Helvetica,sans-Serif" font-size="10.00">AlacrittyFormatter.Formattable</text>
</a>
</g>
</g>
<!-- Node1&#45;&gt;Node2 -->
<g id="edge1" class="edge">
<title>Node1&#45;&gt;Node2</title>
<path fill="none" stroke="#63b8ff" d="M144.4,-15C152.36,-15 160.53,-15 168.63,-15"/>
<polygon fill="#63b8ff" stroke="#63b8ff" points="168.62,-18.5 178.62,-15 168.62,-11.5 168.62,-18.5"/>
</g>
<!-- Node2&#45;&gt;Node2 -->
<g id="edge2" class="edge">
<title>Node2&#45;&gt;Node2</title>
<path fill="none" stroke="#63b8ff" d="M222.01,-30.28C214.9,-39.41 225.56,-48 254,-48 270.44,-48 280.94,-45.13 285.5,-40.94"/>
<polygon fill="#63b8ff" stroke="#63b8ff" points="289.03,-41.43 285.99,-31.28 282.03,-41.1 289.03,-41.43"/>
</g>
</g>
</svg>
