<?xml version="1.0" encoding="UTF-8" standalone="no"?>
<!DOCTYPE svg PUBLIC "-//W3C//DTD SVG 1.1//EN"
 "http://www.w3.org/Graphics/SVG/1.1/DTD/svg11.dtd">
<!-- Generated by graphviz version 8.0.1 (20230327.1645)
 -->
<!-- Title: Sccg.Builtin.Sources.NeovimTreesitterHighlightSource.Item Pages: 1 -->
<svg width="157pt" height="203pt"
 viewBox="0.00 0.00 157.00 203.00" xmlns="http://www.w3.org/2000/svg" xmlns:xlink="http://www.w3.org/1999/xlink">
<g id="graph0" class="graph" transform="scale(1 1) rotate(0) translate(4 199)">
<title>Sccg.Builtin.Sources.NeovimTreesitterHighlightSource.Item</title>
<!-- Node1 -->
<g id="node1" class="node">
<title>Node1</title>
<g id="a_node1"><a xlink:title="SourceItem for Neovim Treesitter highlight.">
<polygon fill="#999999" stroke="#666666" points="149,-30 0,-30 0,0 149,0 149,-30"/>
<text text-anchor="start" x="8" y="-18" font-family="Helvetica,sans-Serif" font-size="10.00">Sccg.Builtin.Sources.Neovim</text>
<text text-anchor="middle" x="74.5" y="-7" font-family="Helvetica,sans-Serif" font-size="10.00">TreesitterHighlightSource.Item</text>
</a>
</g>
</g>
<!-- Node2 -->
<g id="node2" class="node">
<title>Node2</title>
<g id="a_node2"><a xlink:href="interfaceSccg_1_1Builtin_1_1Formatters_1_1INeovimSourceItem.html" target="_top" xlink:title="SourceItem for Neovim color scheme.">
<polygon fill="white" stroke="#666666" points="126.5,-85 22.5,-85 22.5,-66 126.5,-66 126.5,-85"/>
<text text-anchor="middle" x="74.5" y="-73" font-family="Helvetica,sans-Serif" font-size="10.00">INeovimSourceItem</text>
</a>
</g>
</g>
<!-- Node2&#45;&gt;Node1 -->
<g id="edge1" class="edge">
<title>Node2&#45;&gt;Node1</title>
<path fill="none" stroke="#63b8ff" d="M74.5,-55.08C74.5,-46.92 74.5,-37.6 74.5,-30.11"/>
<polygon fill="#63b8ff" stroke="#63b8ff" points="71,-54.87 74.5,-64.87 78,-54.87 71,-54.87"/>
</g>
<!-- Node3 -->
<g id="node3" class="node">
<title>Node3</title>
<g id="a_node3"><a xlink:href="interfaceSccg_1_1Builtin_1_1Sources_1_1Internal_1_1INeovimSourceItemBase.html" target="_top" xlink:title="Base SourceItem for Neovim.">
<polygon fill="white" stroke="#666666" points="137.5,-140 11.5,-140 11.5,-121 137.5,-121 137.5,-140"/>
<text text-anchor="middle" x="74.5" y="-128" font-family="Helvetica,sans-Serif" font-size="10.00">INeovimSourceItemBase</text>
</a>
</g>
</g>
<!-- Node3&#45;&gt;Node2 -->
<g id="edge2" class="edge">
<title>Node3&#45;&gt;Node2</title>
<path fill="none" stroke="#63b8ff" d="M74.5,-109.93C74.5,-101.53 74.5,-92.13 74.5,-85.44"/>
<polygon fill="#63b8ff" stroke="#63b8ff" points="71,-109.75 74.5,-119.75 78,-109.75 71,-109.75"/>
</g>
<!-- Node4 -->
<g id="node4" class="node">
<title>Node4</title>
<g id="a_node4"><a xlink:href="interfaceSccg_1_1Core_1_1ISourceItem.html" target="_top" xlink:title="Represents a source item.">
<polygon fill="white" stroke="#666666" points="109.5,-195 39.5,-195 39.5,-176 109.5,-176 109.5,-195"/>
<text text-anchor="middle" x="74.5" y="-183" font-family="Helvetica,sans-Serif" font-size="10.00">ISourceItem</text>
</a>
</g>
</g>
<!-- Node4&#45;&gt;Node3 -->
<g id="edge3" class="edge">
<title>Node4&#45;&gt;Node3</title>
<path fill="none" stroke="#63b8ff" d="M74.5,-164.93C74.5,-156.53 74.5,-147.13 74.5,-140.44"/>
<polygon fill="#63b8ff" stroke="#63b8ff" points="71,-164.75 74.5,-174.75 78,-164.75 71,-164.75"/>
</g>
</g>
</svg>
