<?xml version="1.0" encoding="UTF-8" standalone="no"?>
<!DOCTYPE svg PUBLIC "-//W3C//DTD SVG 1.1//EN"
 "http://www.w3.org/Graphics/SVG/1.1/DTD/svg11.dtd">
<!-- Generated by graphviz version 8.0.1 (20230327.1645)
 -->
<!-- Title: Sccg.Builtin.Sources.AlacrittyColorsSource.Item Pages: 1 -->
<svg width="152pt" height="148pt"
 viewBox="0.00 0.00 152.00 148.00" xmlns="http://www.w3.org/2000/svg" xmlns:xlink="http://www.w3.org/1999/xlink">
<g id="graph0" class="graph" transform="scale(1 1) rotate(0) translate(4 144)">
<title>Sccg.Builtin.Sources.AlacrittyColorsSource.Item</title>
<!-- Node1 -->
<g id="node1" class="node">
<title>Node1</title>
<g id="a_node1"><a xlink:title="SourceItem for Alacritty.">
<polygon fill="#999999" stroke="#666666" points="144,-30 0,-30 0,0 144,0 144,-30"/>
<text text-anchor="start" x="8" y="-18" font-family="Helvetica,sans-Serif" font-size="10.00">Sccg.Builtin.Sources.Alacritty</text>
<text text-anchor="middle" x="72" y="-7" font-family="Helvetica,sans-Serif" font-size="10.00">ColorsSource.Item</text>
</a>
</g>
</g>
<!-- Node2 -->
<g id="node2" class="node">
<title>Node2</title>
<g id="a_node2"><a xlink:href="interfaceSccg_1_1Builtin_1_1Formatters_1_1IAlacrittySourceItem.html" target="_top" xlink:title="SourceItem for Alacritty config.">
<polygon fill="white" stroke="#666666" points="124.5,-85 19.5,-85 19.5,-66 124.5,-66 124.5,-85"/>
<text text-anchor="middle" x="72" y="-73" font-family="Helvetica,sans-Serif" font-size="10.00">IAlacrittySourceItem</text>
</a>
</g>
</g>
<!-- Node2&#45;&gt;Node1 -->
<g id="edge1" class="edge">
<title>Node2&#45;&gt;Node1</title>
<path fill="none" stroke="#63b8ff" d="M72,-55.08C72,-46.92 72,-37.6 72,-30.11"/>
<polygon fill="#63b8ff" stroke="#63b8ff" points="68.5,-54.87 72,-64.87 75.5,-54.87 68.5,-54.87"/>
</g>
<!-- Node3 -->
<g id="node3" class="node">
<title>Node3</title>
<g id="a_node3"><a xlink:href="interfaceSccg_1_1Core_1_1ISourceItem.html" target="_top" xlink:title="Represents a source item.">
<polygon fill="white" stroke="#666666" points="107,-140 37,-140 37,-121 107,-121 107,-140"/>
<text text-anchor="middle" x="72" y="-128" font-family="Helvetica,sans-Serif" font-size="10.00">ISourceItem</text>
</a>
</g>
</g>
<!-- Node3&#45;&gt;Node2 -->
<g id="edge2" class="edge">
<title>Node3&#45;&gt;Node2</title>
<path fill="none" stroke="#63b8ff" d="M72,-109.93C72,-101.53 72,-92.13 72,-85.44"/>
<polygon fill="#63b8ff" stroke="#63b8ff" points="68.5,-109.75 72,-119.75 75.5,-109.75 68.5,-109.75"/>
</g>
</g>
</svg>
