<?xml version="1.0" encoding="UTF-8" standalone="no"?>
<!DOCTYPE svg PUBLIC "-//W3C//DTD SVG 1.1//EN"
 "http://www.w3.org/Graphics/SVG/1.1/DTD/svg11.dtd">
<!-- Generated by graphviz version 7.1.0 (20230121.1956)
 -->
<!-- Title: Sccg.BuilderQuery.GetMetadata Pages: 1 -->
<svg width="326pt" height="134pt"
 viewBox="0.00 0.00 326.00 134.00" xmlns="http://www.w3.org/2000/svg" xmlns:xlink="http://www.w3.org/1999/xlink">
<g id="graph0" class="graph" transform="scale(1 1) rotate(0) translate(4 130)">
<title>Sccg.BuilderQuery.GetMetadata</title>
<!-- Node1 -->
<g id="node1" class="node">
<title>Node1</title>
<g id="a_node1"><a xlink:title="Gets the metadata of the builder.">
<polygon fill="#999999" stroke="#666666" points="318,-72.5 163,-72.5 163,-53.5 318,-53.5 318,-72.5"/>
<text text-anchor="middle" x="240.5" y="-60.5" font-family="Helvetica,sans-Serif" font-size="10.00">Sccg.BuilderQuery.GetMetadata</text>
</a>
</g>
</g>
<!-- Node2 -->
<g id="node2" class="node">
<title>Node2</title>
<g id="a_node2"><a xlink:href="classSccg_1_1Builtin_1_1Formatters_1_1AlacrittyFormatter.html#acd909019cbea9ab15d827f68f9f8198d" target="_top" xlink:title=" ">
<polygon fill="white" stroke="#666666" points="127,-126 0,-126 0,-96 127,-96 127,-126"/>
<text text-anchor="start" x="8" y="-114" font-family="Helvetica,sans-Serif" font-size="10.00">Sccg.Builtin.Formatters.</text>
<text text-anchor="middle" x="63.5" y="-103" font-family="Helvetica,sans-Serif" font-size="10.00">AlacrittyFormatter.Format</text>
</a>
</g>
</g>
<!-- Node1&#45;&gt;Node2 -->
<g id="edge1" class="edge">
<title>Node1&#45;&gt;Node2</title>
<path fill="none" stroke="#63b8ff" d="M192.15,-75.99C170.12,-82.03 143.74,-89.26 120.7,-95.58"/>
<polygon fill="#63b8ff" stroke="#63b8ff" points="193.06,-79.37 201.78,-73.35 191.21,-72.62 193.06,-79.37"/>
</g>
<!-- Node3 -->
<g id="node3" class="node">
<title>Node3</title>
<g id="a_node3"><a xlink:href="classSccg_1_1Builtin_1_1Formatters_1_1VimFormatter.html#a8b77f0d86f6cc179b1997007c6b646e9" target="_top" xlink:title=" ">
<polygon fill="white" stroke="#666666" points="123.5,-78 3.5,-78 3.5,-48 123.5,-48 123.5,-78"/>
<text text-anchor="start" x="11.5" y="-66" font-family="Helvetica,sans-Serif" font-size="10.00">Sccg.Builtin.Formatters.</text>
<text text-anchor="middle" x="63.5" y="-55" font-family="Helvetica,sans-Serif" font-size="10.00">VimFormatter.Format</text>
</a>
</g>
</g>
<!-- Node1&#45;&gt;Node3 -->
<g id="edge2" class="edge">
<title>Node1&#45;&gt;Node3</title>
<path fill="none" stroke="#63b8ff" d="M151.38,-63C142.05,-63 132.72,-63 123.83,-63"/>
<polygon fill="#63b8ff" stroke="#63b8ff" points="151.23,-66.5 161.23,-63 151.23,-59.5 151.23,-66.5"/>
</g>
<!-- Node4 -->
<g id="node4" class="node">
<title>Node4</title>
<g id="a_node4"><a xlink:href="classSccg_1_1Builtin_1_1Writers_1_1TextFileWriter.html#a34c4976132858aebe68aa59a676f63b4" target="_top" xlink:title=" ">
<polygon fill="white" stroke="#666666" points="124.5,-30 2.5,-30 2.5,0 124.5,0 124.5,-30"/>
<text text-anchor="start" x="10.5" y="-18" font-family="Helvetica,sans-Serif" font-size="10.00">Sccg.Builtin.Writers.Text</text>
<text text-anchor="middle" x="63.5" y="-7" font-family="Helvetica,sans-Serif" font-size="10.00">FileWriter.Write</text>
</a>
</g>
</g>
<!-- Node1&#45;&gt;Node4 -->
<g id="edge3" class="edge">
<title>Node1&#45;&gt;Node4</title>
<path fill="none" stroke="#63b8ff" d="M192.15,-50.01C170.12,-43.97 143.74,-36.74 120.7,-30.42"/>
<polygon fill="#63b8ff" stroke="#63b8ff" points="191.21,-53.38 201.78,-52.65 193.06,-46.63 191.21,-53.38"/>
</g>
</g>
</svg>
