<?xml version="1.0" encoding="UTF-8" standalone="no"?>
<!DOCTYPE svg PUBLIC "-//W3C//DTD SVG 1.1//EN"
 "http://www.w3.org/Graphics/SVG/1.1/DTD/svg11.dtd">
<!-- Generated by graphviz version 8.0.1 (20230327.1645)
 -->
<!-- Title: Sccg.Builtin.Sources.VimEditorHighlightSource.Item Pages: 1 -->
<svg width="238pt" height="216pt"
 viewBox="0.00 0.00 237.50 216.00" xmlns="http://www.w3.org/2000/svg" xmlns:xlink="http://www.w3.org/1999/xlink">
<g id="graph0" class="graph" transform="scale(1 1) rotate(0) translate(4 212)">
<title>Sccg.Builtin.Sources.VimEditorHighlightSource.Item</title>
<!-- Node1 -->
<g id="node1" class="node">
<title>Node1</title>
<g id="a_node1"><a xlink:title="SourceItem for Vim editor highlight.">
<polygon fill="#999999" stroke="#666666" points="186,-30 54,-30 54,0 186,0 186,-30"/>
<text text-anchor="start" x="62" y="-18" font-family="Helvetica,sans-Serif" font-size="10.00">Sccg.Builtin.Sources.Vim</text>
<text text-anchor="middle" x="120" y="-7" font-family="Helvetica,sans-Serif" font-size="10.00">EditorHighlightSource.Item</text>
</a>
</g>
</g>
<!-- Node2 -->
<g id="node2" class="node">
<title>Node2</title>
<g id="a_node2"><a xlink:href="interfaceSccg_1_1Builtin_1_1Formatters_1_1IVimSourceItem.html" target="_top" xlink:title="SourceItem for Vim color scheme.">
<polygon fill="white" stroke="#666666" points="117.5,-96 30.5,-96 30.5,-77 117.5,-77 117.5,-96"/>
<text text-anchor="middle" x="74" y="-84" font-family="Helvetica,sans-Serif" font-size="10.00">IVimSourceItem</text>
</a>
</g>
</g>
<!-- Node2&#45;&gt;Node1 -->
<g id="edge1" class="edge">
<title>Node2&#45;&gt;Node1</title>
<path fill="none" stroke="#63b8ff" d="M85.89,-67.54C93.56,-55.94 103.41,-41.06 110.55,-30.27"/>
<polygon fill="#63b8ff" stroke="#63b8ff" points="82.43,-65.43 79.83,-75.7 88.26,-69.29 82.43,-65.43"/>
</g>
<!-- Node3 -->
<g id="node3" class="node">
<title>Node3</title>
<g id="a_node3"><a xlink:href="interfaceSccg_1_1Builtin_1_1Sources_1_1Internal_1_1IVimSourceItemBase.html" target="_top" xlink:title="Base SourceItem for Vim.">
<polygon fill="white" stroke="#666666" points="110,-152 0,-152 0,-133 110,-133 110,-152"/>
<text text-anchor="middle" x="55" y="-140" font-family="Helvetica,sans-Serif" font-size="10.00">IVimSourceItemBase</text>
</a>
</g>
</g>
<!-- Node3&#45;&gt;Node2 -->
<g id="edge2" class="edge">
<title>Node3&#45;&gt;Node2</title>
<path fill="none" stroke="#63b8ff" d="M61.75,-122.3C64.88,-113.41 68.45,-103.28 70.92,-96.25"/>
<polygon fill="#63b8ff" stroke="#63b8ff" points="58.15,-120.99 58.14,-131.58 64.76,-123.31 58.15,-120.99"/>
</g>
<!-- Node4 -->
<g id="node4" class="node">
<title>Node4</title>
<g id="a_node4"><a xlink:href="interfaceSccg_1_1Core_1_1ISourceItem.html" target="_top" xlink:title="Represents a source item.">
<polygon fill="white" stroke="#666666" points="90,-208 20,-208 20,-189 90,-189 90,-208"/>
<text text-anchor="middle" x="55" y="-196" font-family="Helvetica,sans-Serif" font-size="10.00">ISourceItem</text>
</a>
</g>
</g>
<!-- Node4&#45;&gt;Node3 -->
<g id="edge3" class="edge">
<title>Node4&#45;&gt;Node3</title>
<path fill="none" stroke="#63b8ff" d="M55,-177.71C55,-168.96 55,-159.12 55,-152.25"/>
<polygon fill="#63b8ff" stroke="#63b8ff" points="51.5,-177.58 55,-187.58 58.5,-177.58 51.5,-177.58"/>
</g>
<!-- Node5 -->
<g id="node5" class="node">
<title>Node5</title>
<g id="a_node5"><a xlink:href="structSccg_1_1Style.html" target="_top" xlink:title="Represents a style of text.">
<polygon fill="white" stroke="#666666" points="206.5,-96 143.5,-96 143.5,-77 206.5,-77 206.5,-96"/>
<text text-anchor="middle" x="175" y="-84" font-family="Helvetica,sans-Serif" font-size="10.00">Sccg.Style</text>
</a>
</g>
</g>
<!-- Node5&#45;&gt;Node1 -->
<g id="edge4" class="edge">
<title>Node5&#45;&gt;Node1</title>
<path fill="none" stroke="#9a32cd" stroke-dasharray="5,2" d="M161.34,-68.24C152.09,-56.54 140.01,-41.28 131.3,-30.27"/>
<polygon fill="#9a32cd" stroke="#9a32cd" points="159.08,-70.03 168.03,-75.7 164.57,-65.68 159.08,-70.03"/>
<text text-anchor="middle" x="165.5" y="-51" font-family="Helvetica,sans-Serif" font-size="10.00"> Style</text>
</g>
<!-- Node6 -->
<g id="node6" class="node">
<title>Node6</title>
<g id="a_node6"><a xlink:title=" ">
<polygon fill="white" stroke="#666666" points="229.5,-152 128.5,-152 128.5,-133 229.5,-133 229.5,-152"/>
<text text-anchor="middle" x="179" y="-140" font-family="Helvetica,sans-Serif" font-size="10.00">IEquatable&lt; Style &gt;</text>
</a>
</g>
</g>
<!-- Node6&#45;&gt;Node5 -->
<g id="edge5" class="edge">
<title>Node6&#45;&gt;Node5</title>
<path fill="none" stroke="#63b8ff" d="M177.53,-121.71C176.89,-112.96 176.16,-103.12 175.65,-96.25"/>
<polygon fill="#63b8ff" stroke="#63b8ff" points="174.11,-121.87 178.34,-131.58 181.09,-121.35 174.11,-121.87"/>
</g>
</g>
</svg>
