<?xml version="1.0" encoding="UTF-8" standalone="no"?>
<!DOCTYPE svg PUBLIC "-//W3C//DTD SVG 1.1//EN"
 "http://www.w3.org/Graphics/SVG/1.1/DTD/svg11.dtd">
<!-- Generated by graphviz version 8.0.1 (20230327.1645)
 -->
<!-- Title: Sccg.Builtin.Sources.NeovimEditorHighlightSource.Item Pages: 1 -->
<svg width="254pt" height="216pt"
 viewBox="0.00 0.00 253.50 216.00" xmlns="http://www.w3.org/2000/svg" xmlns:xlink="http://www.w3.org/1999/xlink">
<g id="graph0" class="graph" transform="scale(1 1) rotate(0) translate(4 212)">
<title>Sccg.Builtin.Sources.NeovimEditorHighlightSource.Item</title>
<!-- Node1 -->
<g id="node1" class="node">
<title>Node1</title>
<g id="a_node1"><a xlink:title="SourceItem for Neovim&#39;s editor highlight&#45;groups.">
<polygon fill="#999999" stroke="#666666" points="203.5,-30 60.5,-30 60.5,0 203.5,0 203.5,-30"/>
<text text-anchor="start" x="68.5" y="-18" font-family="Helvetica,sans-Serif" font-size="10.00">Sccg.Builtin.Sources.Neovim</text>
<text text-anchor="middle" x="132" y="-7" font-family="Helvetica,sans-Serif" font-size="10.00">EditorHighlightSource.Item</text>
</a>
</g>
</g>
<!-- Node2 -->
<g id="node2" class="node">
<title>Node2</title>
<g id="a_node2"><a xlink:href="interfaceSccg_1_1Builtin_1_1Formatters_1_1INeovimSourceItem.html" target="_top" xlink:title="SourceItem for Neovim color scheme.">
<polygon fill="white" stroke="#666666" points="134,-96 30,-96 30,-77 134,-77 134,-96"/>
<text text-anchor="middle" x="82" y="-84" font-family="Helvetica,sans-Serif" font-size="10.00">INeovimSourceItem</text>
</a>
</g>
</g>
<!-- Node2&#45;&gt;Node1 -->
<g id="edge1" class="edge">
<title>Node2&#45;&gt;Node1</title>
<path fill="none" stroke="#63b8ff" d="M94.67,-67.89C103.05,-56.24 113.89,-41.17 121.73,-30.27"/>
<polygon fill="#63b8ff" stroke="#63b8ff" points="91.33,-65.54 88.33,-75.7 97.01,-69.62 91.33,-65.54"/>
</g>
<!-- Node3 -->
<g id="node3" class="node">
<title>Node3</title>
<g id="a_node3"><a xlink:href="interfaceSccg_1_1Builtin_1_1Sources_1_1Internal_1_1INeovimSourceItemBase.html" target="_top" xlink:title="Base SourceItem for Neovim.">
<polygon fill="white" stroke="#666666" points="126,-152 0,-152 0,-133 126,-133 126,-152"/>
<text text-anchor="middle" x="63" y="-140" font-family="Helvetica,sans-Serif" font-size="10.00">INeovimSourceItemBase</text>
</a>
</g>
</g>
<!-- Node3&#45;&gt;Node2 -->
<g id="edge2" class="edge">
<title>Node3&#45;&gt;Node2</title>
<path fill="none" stroke="#63b8ff" d="M69.75,-122.3C72.88,-113.41 76.45,-103.28 78.92,-96.25"/>
<polygon fill="#63b8ff" stroke="#63b8ff" points="66.15,-120.99 66.14,-131.58 72.76,-123.31 66.15,-120.99"/>
</g>
<!-- Node4 -->
<g id="node4" class="node">
<title>Node4</title>
<g id="a_node4"><a xlink:href="interfaceSccg_1_1Core_1_1ISourceItem.html" target="_top" xlink:title="Represents a source item.">
<polygon fill="white" stroke="#666666" points="98,-208 28,-208 28,-189 98,-189 98,-208"/>
<text text-anchor="middle" x="63" y="-196" font-family="Helvetica,sans-Serif" font-size="10.00">ISourceItem</text>
</a>
</g>
</g>
<!-- Node4&#45;&gt;Node3 -->
<g id="edge3" class="edge">
<title>Node4&#45;&gt;Node3</title>
<path fill="none" stroke="#63b8ff" d="M63,-177.71C63,-168.96 63,-159.12 63,-152.25"/>
<polygon fill="#63b8ff" stroke="#63b8ff" points="59.5,-177.58 63,-187.58 66.5,-177.58 59.5,-177.58"/>
</g>
<!-- Node5 -->
<g id="node5" class="node">
<title>Node5</title>
<g id="a_node5"><a xlink:href="structSccg_1_1Style.html" target="_top" xlink:title="Represents a style of text.">
<polygon fill="white" stroke="#666666" points="222.5,-96 159.5,-96 159.5,-77 222.5,-77 222.5,-96"/>
<text text-anchor="middle" x="191" y="-84" font-family="Helvetica,sans-Serif" font-size="10.00">Sccg.Style</text>
</a>
</g>
</g>
<!-- Node5&#45;&gt;Node1 -->
<g id="edge4" class="edge">
<title>Node5&#45;&gt;Node1</title>
<path fill="none" stroke="#9a32cd" stroke-dasharray="5,2" d="M176.64,-68.58C166.68,-56.85 153.55,-41.39 144.12,-30.27"/>
<polygon fill="#9a32cd" stroke="#9a32cd" points="174.39,-70.34 183.53,-75.7 179.72,-65.81 174.39,-70.34"/>
<text text-anchor="middle" x="179.5" y="-51" font-family="Helvetica,sans-Serif" font-size="10.00"> Style</text>
</g>
<!-- Node6 -->
<g id="node6" class="node">
<title>Node6</title>
<g id="a_node6"><a xlink:title=" ">
<polygon fill="white" stroke="#666666" points="245.5,-152 144.5,-152 144.5,-133 245.5,-133 245.5,-152"/>
<text text-anchor="middle" x="195" y="-140" font-family="Helvetica,sans-Serif" font-size="10.00">IEquatable&lt; Style &gt;</text>
</a>
</g>
</g>
<!-- Node6&#45;&gt;Node5 -->
<g id="edge5" class="edge">
<title>Node6&#45;&gt;Node5</title>
<path fill="none" stroke="#63b8ff" d="M193.53,-121.71C192.89,-112.96 192.16,-103.12 191.65,-96.25"/>
<polygon fill="#63b8ff" stroke="#63b8ff" points="190.11,-121.87 194.34,-131.58 197.09,-121.35 190.11,-121.87"/>
</g>
</g>
</svg>
