<?xml version="1.0" encoding="UTF-8" standalone="no"?>
<!DOCTYPE svg PUBLIC "-//W3C//DTD SVG 1.1//EN"
 "http://www.w3.org/Graphics/SVG/1.1/DTD/svg11.dtd">
<!-- Generated by graphviz version 7.1.0 (20230121.1956)
 -->
<!-- Title: Sccg.Builtin.Formatters.NeovimFormatter.Format Pages: 1 -->
<svg width="324pt" height="76pt"
 viewBox="0.00 0.00 324.00 75.50" xmlns="http://www.w3.org/2000/svg" xmlns:xlink="http://www.w3.org/1999/xlink">
<g id="graph0" class="graph" transform="scale(1 1) rotate(0) translate(4 71.5)">
<title>Sccg.Builtin.Formatters.NeovimFormatter.Format</title>
<!-- Node1 -->
<g id="node1" class="node">
<title>Node1</title>
<g id="a_node1"><a xlink:title=" ">
<polygon fill="#999999" stroke="#666666" points="125,-45.5 0,-45.5 0,-15.5 125,-15.5 125,-45.5"/>
<text text-anchor="start" x="8" y="-33.5" font-family="Helvetica,sans-Serif" font-size="10.00">Sccg.Builtin.Formatters.</text>
<text text-anchor="middle" x="62.5" y="-22.5" font-family="Helvetica,sans-Serif" font-size="10.00">NeovimFormatter.Format</text>
</a>
</g>
</g>
<!-- Node2 -->
<g id="node2" class="node">
<title>Node2</title>
<g id="a_node2"><a xlink:href="classSccg_1_1Builtin_1_1Formatters_1_1VimFormatter.html#ad061407e6ec14d27be9579645b6d0908" target="_top" xlink:title=" ">
<polygon fill="white" stroke="#666666" points="308,-67.5 169,-67.5 169,-37.5 308,-37.5 308,-67.5"/>
<text text-anchor="start" x="177" y="-55.5" font-family="Helvetica,sans-Serif" font-size="10.00">Sccg.Builtin.Formatters.</text>
<text text-anchor="middle" x="238.5" y="-44.5" font-family="Helvetica,sans-Serif" font-size="10.00">VimFormatter.CreateAttrList</text>
</a>
</g>
</g>
<!-- Node1&#45;&gt;Node2 -->
<g id="edge1" class="edge">
<title>Node1&#45;&gt;Node2</title>
<path fill="none" stroke="#63b8ff" d="M125.34,-38.32C135.78,-39.64 146.74,-41.03 157.57,-42.39"/>
<polygon fill="#63b8ff" stroke="#63b8ff" points="156.9,-45.84 167.26,-43.62 157.78,-38.89 156.9,-45.84"/>
</g>
<!-- Node3 -->
<g id="node3" class="node">
<title>Node3</title>
<g id="a_node3"><a xlink:href="classSccg_1_1BuilderQuery.html#adcf97ab9667e39324d2cd972ecccaf6b" target="_top" xlink:title="Gets the metadata.">
<polygon fill="white" stroke="#666666" points="316,-19 161,-19 161,0 316,0 316,-19"/>
<text text-anchor="middle" x="238.5" y="-7" font-family="Helvetica,sans-Serif" font-size="10.00">Sccg.BuilderQuery.GetMetadata</text>
</a>
</g>
</g>
<!-- Node1&#45;&gt;Node3 -->
<g id="edge2" class="edge">
<title>Node1&#45;&gt;Node3</title>
<path fill="none" stroke="#63b8ff" d="M125.34,-23.04C133.1,-22.1 141.16,-21.13 149.24,-20.15"/>
<polygon fill="#63b8ff" stroke="#63b8ff" points="149.63,-23.63 159.13,-18.96 148.79,-16.68 149.63,-23.63"/>
</g>
</g>
</svg>
