<?xml version="1.0" encoding="UTF-8" standalone="no"?>
<!DOCTYPE svg PUBLIC "-//W3C//DTD SVG 1.1//EN"
 "http://www.w3.org/Graphics/SVG/1.1/DTD/svg11.dtd">
<!-- Generated by graphviz version 2.43.0 (0)
 -->
<!-- Title: BuilderQuery.GetMetadata Pages: 1 -->
<svg width="330pt" height="104pt"
 viewBox="0.00 0.00 330.00 104.00" xmlns="http://www.w3.org/2000/svg" xmlns:xlink="http://www.w3.org/1999/xlink">
<g id="graph0" class="graph" transform="scale(1 1) rotate(0) translate(4 100)">
<title>BuilderQuery.GetMetadata</title>
<polygon fill="white" stroke="transparent" points="-4,4 -4,-100 326,-100 326,4 -4,4"/>
<!-- Node1 -->
<g id="node1" class="node">
<title>Node1</title>
<g id="a_node1"><a xlink:title="TODO: doc">
<polygon fill="#bfbfbf" stroke="black" points="176,-38.5 176,-57.5 322,-57.5 322,-38.5 176,-38.5"/>
<text text-anchor="middle" x="249" y="-45.5" font-family="Helvetica,sans-Serif" font-size="10.00">BuilderQuery.GetMetadata</text>
</a>
</g>
</g>
<!-- Node2 -->
<g id="node2" class="node">
<title>Node2</title>
<g id="a_node2"><a xlink:href="classNeovimFormatter.html#a99989cd57ff0bc7f0970e9d3219d82c5" target="_top" xlink:title=" ">
<polygon fill="white" stroke="black" points="0,-76.5 0,-95.5 140,-95.5 140,-76.5 0,-76.5"/>
<text text-anchor="middle" x="70" y="-83.5" font-family="Helvetica,sans-Serif" font-size="10.00">NeovimFormatter.Format</text>
</a>
</g>
</g>
<!-- Node1&#45;&gt;Node2 -->
<g id="edge1" class="edge">
<title>Node1&#45;&gt;Node2</title>
<path fill="none" stroke="midnightblue" d="M193.26,-59.75C168.23,-65.13 138.97,-71.41 115.34,-76.48"/>
<polygon fill="midnightblue" stroke="midnightblue" points="194.29,-63.11 203.34,-57.59 192.82,-56.27 194.29,-63.11"/>
</g>
<!-- Node3 -->
<g id="node3" class="node">
<title>Node3</title>
<g id="a_node3"><a xlink:href="classVimFormatter.html#ac076eb6ab8b224a40714d8078b000e7a" target="_top" xlink:title=" ">
<polygon fill="white" stroke="black" points="9.5,-38.5 9.5,-57.5 130.5,-57.5 130.5,-38.5 9.5,-38.5"/>
<text text-anchor="middle" x="70" y="-45.5" font-family="Helvetica,sans-Serif" font-size="10.00">VimFormatter.Format</text>
</a>
</g>
</g>
<!-- Node1&#45;&gt;Node3 -->
<g id="edge2" class="edge">
<title>Node1&#45;&gt;Node3</title>
<path fill="none" stroke="midnightblue" d="M165.47,-48C153.71,-48 141.81,-48 130.6,-48"/>
<polygon fill="midnightblue" stroke="midnightblue" points="165.75,-51.5 175.75,-48 165.75,-44.5 165.75,-51.5"/>
</g>
<!-- Node4 -->
<g id="node4" class="node">
<title>Node4</title>
<g id="a_node4"><a xlink:href="classTextFileWriter.html#a3f5801e1adcf4d175f8281fdc940498d" target="_top" xlink:title=" ">
<polygon fill="white" stroke="black" points="13.5,-0.5 13.5,-19.5 126.5,-19.5 126.5,-0.5 13.5,-0.5"/>
<text text-anchor="middle" x="70" y="-7.5" font-family="Helvetica,sans-Serif" font-size="10.00">TextFileWriter.Write</text>
</a>
</g>
</g>
<!-- Node1&#45;&gt;Node4 -->
<g id="edge3" class="edge">
<title>Node1&#45;&gt;Node4</title>
<path fill="none" stroke="midnightblue" d="M193.26,-36.25C168.23,-30.87 138.97,-24.59 115.34,-19.52"/>
<polygon fill="midnightblue" stroke="midnightblue" points="192.82,-39.73 203.34,-38.41 194.29,-32.89 192.82,-39.73"/>
</g>
</g>
</svg>
