<?xml version="1.0" encoding="UTF-8" standalone="no"?>
<!DOCTYPE svg PUBLIC "-//W3C//DTD SVG 1.1//EN"
 "http://www.w3.org/Graphics/SVG/1.1/DTD/svg11.dtd">
<!-- Generated by graphviz version 7.1.0 (20230121.1956)
 -->
<!-- Title: Sccg.Builtin.Formatters.VimFormatter.Format Pages: 1 -->
<svg width="319pt" height="76pt"
 viewBox="0.00 0.00 319.00 75.50" xmlns="http://www.w3.org/2000/svg" xmlns:xlink="http://www.w3.org/1999/xlink">
<g id="graph0" class="graph" transform="scale(1 1) rotate(0) translate(4 71.5)">
<title>Sccg.Builtin.Formatters.VimFormatter.Format</title>
<!-- Node1 -->
<g id="node1" class="node">
<title>Node1</title>
<g id="a_node1"><a xlink:title=" ">
<polygon fill="#999999" stroke="#666666" points="120,-45.5 0,-45.5 0,-15.5 120,-15.5 120,-45.5"/>
<text text-anchor="start" x="8" y="-33.5" font-family="Helvetica,sans-Serif" font-size="10.00">Sccg.Builtin.Formatters.</text>
<text text-anchor="middle" x="60" y="-22.5" font-family="Helvetica,sans-Serif" font-size="10.00">VimFormatter.Format</text>
</a>
</g>
</g>
<!-- Node2 -->
<g id="node2" class="node">
<title>Node2</title>
<g id="a_node2"><a xlink:href="classSccg_1_1Builtin_1_1Formatters_1_1VimFormatter.html#ad061407e6ec14d27be9579645b6d0908" target="_top" xlink:title=" ">
<polygon fill="white" stroke="#666666" points="303,-67.5 164,-67.5 164,-37.5 303,-37.5 303,-67.5"/>
<text text-anchor="start" x="172" y="-55.5" font-family="Helvetica,sans-Serif" font-size="10.00">Sccg.Builtin.Formatters.</text>
<text text-anchor="middle" x="233.5" y="-44.5" font-family="Helvetica,sans-Serif" font-size="10.00">VimFormatter.CreateAttrList</text>
</a>
</g>
</g>
<!-- Node1&#45;&gt;Node2 -->
<g id="edge1" class="edge">
<title>Node1&#45;&gt;Node2</title>
<path fill="none" stroke="#63b8ff" d="M120.02,-38.07C130.45,-39.41 141.46,-40.82 152.35,-42.22"/>
<polygon fill="#63b8ff" stroke="#63b8ff" points="151.77,-45.67 162.13,-43.47 152.66,-38.73 151.77,-45.67"/>
</g>
<!-- Node3 -->
<g id="node3" class="node">
<title>Node3</title>
<g id="a_node3"><a xlink:href="classSccg_1_1BuilderQuery.html#adcf97ab9667e39324d2cd972ecccaf6b" target="_top" xlink:title="Gets the metadata.">
<polygon fill="white" stroke="#666666" points="311,-19 156,-19 156,0 311,0 311,-19"/>
<text text-anchor="middle" x="233.5" y="-7" font-family="Helvetica,sans-Serif" font-size="10.00">Sccg.BuilderQuery.GetMetadata</text>
</a>
</g>
</g>
<!-- Node1&#45;&gt;Node3 -->
<g id="edge2" class="edge">
<title>Node1&#45;&gt;Node3</title>
<path fill="none" stroke="#63b8ff" d="M120.02,-23.27C127.88,-22.31 136.07,-21.31 144.3,-20.3"/>
<polygon fill="#63b8ff" stroke="#63b8ff" points="144.5,-23.8 154,-19.11 143.65,-16.85 144.5,-23.8"/>
</g>
</g>
</svg>
