<?xml version="1.0" encoding="UTF-8" standalone="no"?>
<!DOCTYPE svg PUBLIC "-//W3C//DTD SVG 1.1//EN"
 "http://www.w3.org/Graphics/SVG/1.1/DTD/svg11.dtd">
<!-- Generated by graphviz version 7.1.0 (20230121.1956)
 -->
<!-- Title: Sccg.Builtin.Sources.NeovimTreesitterHighlightSource.Item Pages: 1 -->
<svg width="732pt" height="113pt"
 viewBox="0.00 0.00 732.00 112.50" xmlns="http://www.w3.org/2000/svg" xmlns:xlink="http://www.w3.org/1999/xlink">
<g id="graph0" class="graph" transform="scale(1 1) rotate(0) translate(4 108.5)">
<title>Sccg.Builtin.Sources.NeovimTreesitterHighlightSource.Item</title>
<!-- Node1 -->
<g id="node1" class="node">
<title>Node1</title>
<g id="a_node1"><a xlink:title=" ">
<polygon fill="#999999" stroke="#666666" points="724,-73 575,-73 575,-43 724,-43 724,-73"/>
<text text-anchor="start" x="583" y="-61" font-family="Helvetica,sans-Serif" font-size="10.00">Sccg.Builtin.Sources.Neovim</text>
<text text-anchor="middle" x="649.5" y="-50" font-family="Helvetica,sans-Serif" font-size="10.00">TreesitterHighlightSource.Item</text>
</a>
</g>
</g>
<!-- Node2 -->
<g id="node2" class="node">
<title>Node2</title>
<g id="a_node2"><a xlink:href="interfaceSccg_1_1Builtin_1_1Formatters_1_1INeovimSourceItem.html" target="_top" xlink:title=" ">
<polygon fill="white" stroke="#666666" points="441,-104.5 337,-104.5 337,-85.5 441,-85.5 441,-104.5"/>
<text text-anchor="middle" x="389" y="-92.5" font-family="Helvetica,sans-Serif" font-size="10.00">INeovimSourceItem</text>
</a>
</g>
</g>
<!-- Node2&#45;&gt;Node1 -->
<g id="edge1" class="edge">
<title>Node2&#45;&gt;Node1</title>
<path fill="none" stroke="#63b8ff" d="M452.44,-87.25C483.85,-83.23 522.47,-78.1 557,-73 562.73,-72.15 568.66,-71.25 574.62,-70.32"/>
<polygon fill="#63b8ff" stroke="#63b8ff" points="452.2,-83.75 442.72,-88.49 453.08,-90.69 452.2,-83.75"/>
</g>
<!-- Node3 -->
<g id="node3" class="node">
<title>Node3</title>
<g id="a_node3"><a xlink:href="interfaceSccg_1_1Builtin_1_1Sources_1_1Internal_1_1INeovimSourceItemBase.html" target="_top" xlink:title=" ">
<polygon fill="white" stroke="#666666" points="261,-104.5 135,-104.5 135,-85.5 261,-85.5 261,-104.5"/>
<text text-anchor="middle" x="198" y="-92.5" font-family="Helvetica,sans-Serif" font-size="10.00">INeovimSourceItemBase</text>
</a>
</g>
</g>
<!-- Node3&#45;&gt;Node2 -->
<g id="edge2" class="edge">
<title>Node3&#45;&gt;Node2</title>
<path fill="none" stroke="#63b8ff" d="M272.76,-95C294.14,-95 317,-95 336.68,-95"/>
<polygon fill="#63b8ff" stroke="#63b8ff" points="272.92,-91.5 262.92,-95 272.92,-98.5 272.92,-91.5"/>
</g>
<!-- Node4 -->
<g id="node4" class="node">
<title>Node4</title>
<g id="a_node4"><a xlink:href="interfaceSccg_1_1Core_1_1ISourceItem.html" target="_top" xlink:title=" ">
<polygon fill="white" stroke="#666666" points="70,-104.5 0,-104.5 0,-85.5 70,-85.5 70,-104.5"/>
<text text-anchor="middle" x="35" y="-92.5" font-family="Helvetica,sans-Serif" font-size="10.00">ISourceItem</text>
</a>
</g>
</g>
<!-- Node4&#45;&gt;Node3 -->
<g id="edge3" class="edge">
<title>Node4&#45;&gt;Node3</title>
<path fill="none" stroke="#63b8ff" d="M81.65,-95C98.11,-95 116.99,-95 134.63,-95"/>
<polygon fill="#63b8ff" stroke="#63b8ff" points="81.66,-91.5 71.66,-95 81.66,-98.5 81.66,-91.5"/>
</g>
<!-- Node5 -->
<g id="node5" class="node">
<title>Node5</title>
<g id="a_node5"><a xlink:href="structSccg_1_1Style.html" target="_top" xlink:title=" ">
<polygon fill="white" stroke="#666666" points="420.5,-67.5 357.5,-67.5 357.5,-48.5 420.5,-48.5 420.5,-67.5"/>
<text text-anchor="middle" x="389" y="-55.5" font-family="Helvetica,sans-Serif" font-size="10.00">Sccg.Style</text>
</a>
</g>
</g>
<!-- Node5&#45;&gt;Node1 -->
<g id="edge4" class="edge">
<title>Node5&#45;&gt;Node1</title>
<path fill="none" stroke="#9a32cd" stroke-dasharray="5,2" d="M432.22,-58C470.72,-58 528.46,-58 574.59,-58"/>
<polygon fill="#9a32cd" stroke="#9a32cd" points="432.44,-54.5 422.44,-58 432.44,-61.5 432.44,-54.5"/>
<text text-anchor="middle" x="513.5" y="-61" font-family="Helvetica,sans-Serif" font-size="10.00"> Style</text>
</g>
<!-- Node6 -->
<g id="node6" class="node">
<title>Node6</title>
<g id="a_node6"><a xlink:title=" ">
<polygon fill="white" stroke="#666666" points="248.5,-67.5 147.5,-67.5 147.5,-48.5 248.5,-48.5 248.5,-67.5"/>
<text text-anchor="middle" x="198" y="-55.5" font-family="Helvetica,sans-Serif" font-size="10.00">IEquatable&lt; Style &gt;</text>
</a>
</g>
</g>
<!-- Node6&#45;&gt;Node5 -->
<g id="edge5" class="edge">
<title>Node6&#45;&gt;Node5</title>
<path fill="none" stroke="#63b8ff" d="M259.84,-58C292.24,-58 330.73,-58 357.01,-58"/>
<polygon fill="#63b8ff" stroke="#63b8ff" points="260.17,-54.5 250.17,-58 260.17,-61.5 260.17,-54.5"/>
</g>
<!-- Node7 -->
<g id="node7" class="node">
<title>Node7</title>
<g id="a_node7"><a xlink:href="classSccg_1_1Builtin_1_1Sources_1_1VimSyntaxGroupSource.html" target="_top" xlink:title=" ">
<polygon fill="white" stroke="#666666" points="452,-30 326,-30 326,0 452,0 452,-30"/>
<text text-anchor="start" x="334" y="-18" font-family="Helvetica,sans-Serif" font-size="10.00">Sccg.Builtin.Sources.Vim</text>
<text text-anchor="middle" x="389" y="-7" font-family="Helvetica,sans-Serif" font-size="10.00">SyntaxGroupSource</text>
</a>
</g>
</g>
<!-- Node7&#45;&gt;Node1 -->
<g id="edge6" class="edge">
<title>Node7&#45;&gt;Node1</title>
<path fill="none" stroke="#9a32cd" stroke-dasharray="5,2" d="M463.33,-27.2C498.24,-33.01 539.9,-39.94 574.86,-45.75"/>
<polygon fill="#9a32cd" stroke="#9a32cd" points="464.18,-23.79 453.74,-25.6 463.03,-30.7 464.18,-23.79"/>
<text text-anchor="middle" x="513.5" y="-44" font-family="Helvetica,sans-Serif" font-size="10.00"> ToVimSyntaxGroup</text>
</g>
<!-- Node8 -->
<g id="node8" class="node">
<title>Node8</title>
<g id="a_node8"><a xlink:href="classSccg_1_1Core_1_1Source.html" target="_top" xlink:title=" ">
<polygon fill="white" stroke="#666666" points="289,-30 107,-30 107,0 289,0 289,-30"/>
<text text-anchor="start" x="115" y="-18" font-family="Helvetica,sans-Serif" font-size="10.00">Source&lt; VimSyntaxGroupSource.</text>
<text text-anchor="middle" x="198" y="-7" font-family="Helvetica,sans-Serif" font-size="10.00">Group, VimSyntaxGroupSource.Item &gt;</text>
</a>
</g>
</g>
<!-- Node8&#45;&gt;Node7 -->
<g id="edge7" class="edge">
<title>Node8&#45;&gt;Node7</title>
<path fill="none" stroke="#63b8ff" d="M300.83,-15C309.23,-15 317.55,-15 325.53,-15"/>
<polygon fill="#63b8ff" stroke="#63b8ff" points="300.86,-11.5 290.86,-15 300.86,-18.5 300.86,-11.5"/>
</g>
</g>
</svg>
