<?xml version="1.0" encoding="UTF-8" standalone="no"?>
<!DOCTYPE svg PUBLIC "-//W3C//DTD SVG 1.1//EN"
 "http://www.w3.org/Graphics/SVG/1.1/DTD/svg11.dtd">
<!-- Generated by graphviz version 8.0.1 (20230327.1645)
 -->
<!-- Title: Sccg.Builtin.Sources.VimCustomGroupSource.Item Pages: 1 -->
<svg width="262pt" height="203pt"
 viewBox="0.00 0.00 262.00 203.00" xmlns="http://www.w3.org/2000/svg" xmlns:xlink="http://www.w3.org/1999/xlink">
<g id="graph0" class="graph" transform="scale(1 1) rotate(0) translate(4 199)">
<title>Sccg.Builtin.Sources.VimCustomGroupSource.Item</title>
<!-- Node1 -->
<g id="node1" class="node">
<title>Node1</title>
<g id="a_node1"><a xlink:title="SourceItem for Vim/Neovim custom highlight group.">
<polygon fill="#999999" stroke="#666666" points="187.5,-30 58.5,-30 58.5,0 187.5,0 187.5,-30"/>
<text text-anchor="start" x="66.5" y="-18" font-family="Helvetica,sans-Serif" font-size="10.00">Sccg.Builtin.Sources.Vim</text>
<text text-anchor="middle" x="123" y="-7" font-family="Helvetica,sans-Serif" font-size="10.00">CustomGroupSource.Item</text>
</a>
</g>
</g>
<!-- Node2 -->
<g id="node2" class="node">
<title>Node2</title>
<g id="a_node2"><a xlink:href="interfaceSccg_1_1Builtin_1_1Formatters_1_1IVimSourceItem.html" target="_top" xlink:title="SourceItem for Vim color scheme.">
<polygon fill="white" stroke="#666666" points="109.5,-85 22.5,-85 22.5,-66 109.5,-66 109.5,-85"/>
<text text-anchor="middle" x="66" y="-73" font-family="Helvetica,sans-Serif" font-size="10.00">IVimSourceItem</text>
</a>
</g>
</g>
<!-- Node2&#45;&gt;Node1 -->
<g id="edge1" class="edge">
<title>Node2&#45;&gt;Node1</title>
<path fill="none" stroke="#63b8ff" d="M81.93,-58.15C90.52,-49.34 101.02,-38.56 109.25,-30.11"/>
<polygon fill="#63b8ff" stroke="#63b8ff" points="79.88,-55.26 75.41,-64.87 84.9,-60.15 79.88,-55.26"/>
</g>
<!-- Node3 -->
<g id="node3" class="node">
<title>Node3</title>
<g id="a_node3"><a xlink:href="interfaceSccg_1_1Builtin_1_1Sources_1_1Internal_1_1IVimSourceItemBase.html" target="_top" xlink:title="Base SourceItem for Vim.">
<polygon fill="white" stroke="#666666" points="110,-140 0,-140 0,-121 110,-121 110,-140"/>
<text text-anchor="middle" x="55" y="-128" font-family="Helvetica,sans-Serif" font-size="10.00">IVimSourceItemBase</text>
</a>
</g>
</g>
<!-- Node3&#45;&gt;Node2 -->
<g id="edge2" class="edge">
<title>Node3&#45;&gt;Node2</title>
<path fill="none" stroke="#63b8ff" d="M59,-110.22C60.76,-101.74 62.74,-92.21 64.14,-85.44"/>
<polygon fill="#63b8ff" stroke="#63b8ff" points="55.42,-109.25 56.82,-119.75 62.28,-110.67 55.42,-109.25"/>
</g>
<!-- Node4 -->
<g id="node4" class="node">
<title>Node4</title>
<g id="a_node4"><a xlink:href="interfaceSccg_1_1Core_1_1ISourceItem.html" target="_top" xlink:title="Represents a source item.">
<polygon fill="white" stroke="#666666" points="158,-195 88,-195 88,-176 158,-176 158,-195"/>
<text text-anchor="middle" x="123" y="-183" font-family="Helvetica,sans-Serif" font-size="10.00">ISourceItem</text>
</a>
</g>
</g>
<!-- Node4&#45;&gt;Node3 -->
<g id="edge3" class="edge">
<title>Node4&#45;&gt;Node3</title>
<path fill="none" stroke="#63b8ff" d="M103,-168.92C91.07,-159.61 76.34,-148.13 66.36,-140.36"/>
<polygon fill="#63b8ff" stroke="#63b8ff" points="100.43,-172.12 110.46,-175.51 104.73,-166.6 100.43,-172.12"/>
</g>
<!-- Node6 -->
<g id="node6" class="node">
<title>Node6</title>
<g id="a_node6"><a xlink:href="interfaceSccg_1_1Builtin_1_1Sources_1_1Internal_1_1INeovimSourceItemBase.html" target="_top" xlink:title="Base SourceItem for Neovim.">
<polygon fill="white" stroke="#666666" points="254,-140 128,-140 128,-121 254,-121 254,-140"/>
<text text-anchor="middle" x="191" y="-128" font-family="Helvetica,sans-Serif" font-size="10.00">INeovimSourceItemBase</text>
</a>
</g>
</g>
<!-- Node4&#45;&gt;Node6 -->
<g id="edge6" class="edge">
<title>Node4&#45;&gt;Node6</title>
<path fill="none" stroke="#63b8ff" d="M143,-168.92C154.93,-159.61 169.66,-148.13 179.64,-140.36"/>
<polygon fill="#63b8ff" stroke="#63b8ff" points="141.27,-166.6 135.54,-175.51 145.57,-172.12 141.27,-166.6"/>
</g>
<!-- Node5 -->
<g id="node5" class="node">
<title>Node5</title>
<g id="a_node5"><a xlink:href="interfaceSccg_1_1Builtin_1_1Formatters_1_1INeovimSourceItem.html" target="_top" xlink:title="SourceItem for Neovim color scheme.">
<polygon fill="white" stroke="#666666" points="237,-85 133,-85 133,-66 237,-66 237,-85"/>
<text text-anchor="middle" x="185" y="-73" font-family="Helvetica,sans-Serif" font-size="10.00">INeovimSourceItem</text>
</a>
</g>
</g>
<!-- Node5&#45;&gt;Node1 -->
<g id="edge4" class="edge">
<title>Node5&#45;&gt;Node1</title>
<path fill="none" stroke="#63b8ff" d="M167.8,-58.27C158.55,-49.54 147.24,-38.87 138.3,-30.44"/>
<polygon fill="#63b8ff" stroke="#63b8ff" points="164.91,-60.3 174.58,-64.62 169.71,-55.21 164.91,-60.3"/>
</g>
<!-- Node6&#45;&gt;Node5 -->
<g id="edge5" class="edge">
<title>Node6&#45;&gt;Node5</title>
<path fill="none" stroke="#63b8ff" d="M188.78,-109.93C187.83,-101.53 186.77,-92.13 186.01,-85.44"/>
<polygon fill="#63b8ff" stroke="#63b8ff" points="185.41,-110.21 190.01,-119.75 192.36,-109.42 185.41,-110.21"/>
</g>
</g>
</svg>
