<?xml version="1.0" encoding="UTF-8" standalone="no"?>
<!DOCTYPE svg PUBLIC "-//W3C//DTD SVG 1.1//EN"
 "http://www.w3.org/Graphics/SVG/1.1/DTD/svg11.dtd">
<!-- Generated by graphviz version 7.1.0 (20230121.1956)
 -->
<!-- Title: Sccg.Utility.ObjectStore.Save Pages: 1 -->
<svg width="312pt" height="86pt"
 viewBox="0.00 0.00 312.00 86.00" xmlns="http://www.w3.org/2000/svg" xmlns:xlink="http://www.w3.org/1999/xlink">
<g id="graph0" class="graph" transform="scale(1 1) rotate(0) translate(4 82)">
<title>Sccg.Utility.ObjectStore.Save</title>
<!-- Node1 -->
<g id="node1" class="node">
<title>Node1</title>
<g id="a_node1"><a xlink:title=" ">
<polygon fill="#999999" stroke="#666666" points="304,-48.5 159,-48.5 159,-29.5 304,-29.5 304,-48.5"/>
<text text-anchor="middle" x="231.5" y="-36.5" font-family="Helvetica,sans-Serif" font-size="10.00">Sccg.Utility.ObjectStore.Save</text>
</a>
</g>
</g>
<!-- Node1&#45;&gt;Node1 -->
<g id="edge2" class="edge">
<title>Node1&#45;&gt;Node1</title>
<path fill="none" stroke="#63b8ff" d="M261.98,-59.6C258.47,-63.63 248.31,-66.5 231.5,-66.5 201.62,-66.5 192.75,-57.44 204.89,-48.87"/>
<polygon fill="#63b8ff" stroke="#63b8ff" points="265.31,-58.51 258.63,-50.29 258.73,-60.89 265.31,-58.51"/>
</g>
<!-- Node2 -->
<g id="node2" class="node">
<title>Node2</title>
<g id="a_node2"><a xlink:href="classSccg_1_1Builtin_1_1Develop_1_1StdSourceImpl.html#a1ccc64c554e75fb1c62ef54a0148db6e" target="_top" xlink:title=" ">
<polygon fill="white" stroke="#666666" points="123,-78 0,-78 0,-48 123,-48 123,-78"/>
<text text-anchor="start" x="8" y="-66" font-family="Helvetica,sans-Serif" font-size="10.00">Sccg.Builtin.Develop.Std</text>
<text text-anchor="middle" x="61.5" y="-55" font-family="Helvetica,sans-Serif" font-size="10.00">SourceImpl.Link</text>
</a>
</g>
</g>
<!-- Node1&#45;&gt;Node2 -->
<g id="edge1" class="edge">
<title>Node1&#45;&gt;Node2</title>
<path fill="none" stroke="#63b8ff" d="M149.55,-50.56C140.69,-51.83 131.79,-53.1 123.24,-54.32"/>
<polygon fill="#63b8ff" stroke="#63b8ff" points="149.81,-54.06 159.21,-49.18 148.82,-47.13 149.81,-54.06"/>
</g>
<!-- Node3 -->
<g id="node3" class="node">
<title>Node3</title>
<g id="a_node3"><a xlink:href="classSccg_1_1Builtin_1_1Develop_1_1StdSourceImpl.html#a14f4f1215a4fdc41147383c232e9bc52" target="_top" xlink:title=" ">
<polygon fill="white" stroke="#666666" points="123,-30 0,-30 0,0 123,0 123,-30"/>
<text text-anchor="start" x="8" y="-18" font-family="Helvetica,sans-Serif" font-size="10.00">Sccg.Builtin.Develop.Std</text>
<text text-anchor="middle" x="61.5" y="-7" font-family="Helvetica,sans-Serif" font-size="10.00">SourceImpl.Set</text>
</a>
</g>
</g>
<!-- Node1&#45;&gt;Node3 -->
<g id="edge3" class="edge">
<title>Node1&#45;&gt;Node3</title>
<path fill="none" stroke="#63b8ff" d="M149.55,-27.44C140.69,-26.17 131.79,-24.9 123.24,-23.68"/>
<polygon fill="#63b8ff" stroke="#63b8ff" points="148.82,-30.87 159.21,-28.82 149.81,-23.94 148.82,-30.87"/>
</g>
</g>
</svg>
