<?xml version="1.0" encoding="UTF-8" standalone="no"?>
<!DOCTYPE svg PUBLIC "-//W3C//DTD SVG 1.1//EN"
 "http://www.w3.org/Graphics/SVG/1.1/DTD/svg11.dtd">
<!-- Generated by graphviz version 8.0.1 (20230327.1645)
 -->
<!-- Title: Sccg.BuilderQuery.GetMetadata Pages: 1 -->
<svg width="327pt" height="182pt"
 viewBox="0.00 0.00 327.00 182.00" xmlns="http://www.w3.org/2000/svg" xmlns:xlink="http://www.w3.org/1999/xlink">
<g id="graph0" class="graph" transform="scale(1 1) rotate(0) translate(4 178)">
<title>Sccg.BuilderQuery.GetMetadata</title>
<!-- Node1 -->
<g id="node1" class="node">
<title>Node1</title>
<g id="a_node1"><a xlink:title="Gets the metadata of the builder.">
<polygon fill="#999999" stroke="#666666" points="319,-96.5 164,-96.5 164,-77.5 319,-77.5 319,-96.5"/>
<text text-anchor="middle" x="241.5" y="-84.5" font-family="Helvetica,sans-Serif" font-size="10.00">Sccg.BuilderQuery.GetMetadata</text>
</a>
</g>
</g>
<!-- Node2 -->
<g id="node2" class="node">
<title>Node2</title>
<g id="a_node2"><a xlink:href="classSccg_1_1Builtin_1_1Formatters_1_1AlacrittyFormatter.html#acd909019cbea9ab15d827f68f9f8198d" target="_top" xlink:title=" ">
<polygon fill="white" stroke="#666666" points="127.5,-174 0.5,-174 0.5,-144 127.5,-144 127.5,-174"/>
<text text-anchor="start" x="8.5" y="-162" font-family="Helvetica,sans-Serif" font-size="10.00">Sccg.Builtin.Formatters.</text>
<text text-anchor="middle" x="64" y="-151" font-family="Helvetica,sans-Serif" font-size="10.00">AlacrittyFormatter.Format</text>
</a>
</g>
</g>
<!-- Node1&#45;&gt;Node2 -->
<g id="edge1" class="edge">
<title>Node1&#45;&gt;Node2</title>
<path fill="none" stroke="#63b8ff" d="M208.21,-101.18C185.8,-110.92 155.2,-124.02 128,-135 120.95,-137.85 113.41,-140.8 106.1,-143.61"/>
<polygon fill="#63b8ff" stroke="#63b8ff" points="209.43,-104.03 217.2,-96.82 206.63,-97.61 209.43,-104.03"/>
</g>
<!-- Node3 -->
<g id="node3" class="node">
<title>Node3</title>
<g id="a_node3"><a xlink:href="classSccg_1_1Builtin_1_1Formatters_1_1VimFormatter.html#a8b77f0d86f6cc179b1997007c6b646e9" target="_top" xlink:title=" ">
<polygon fill="white" stroke="#666666" points="124,-126 4,-126 4,-96 124,-96 124,-126"/>
<text text-anchor="start" x="12" y="-114" font-family="Helvetica,sans-Serif" font-size="10.00">Sccg.Builtin.Formatters.</text>
<text text-anchor="middle" x="64" y="-103" font-family="Helvetica,sans-Serif" font-size="10.00">VimFormatter.Format</text>
</a>
</g>
</g>
<!-- Node1&#45;&gt;Node3 -->
<g id="edge2" class="edge">
<title>Node1&#45;&gt;Node3</title>
<path fill="none" stroke="#63b8ff" d="M156.71,-98.46C145.77,-99.95 134.76,-101.46 124.34,-102.89"/>
<polygon fill="#63b8ff" stroke="#63b8ff" points="157.16,-101.79 166.6,-96.97 156.21,-94.86 157.16,-101.79"/>
</g>
<!-- Node4 -->
<g id="node4" class="node">
<title>Node4</title>
<g id="a_node4"><a xlink:href="classSccg_1_1Builtin_1_1Formatters_1_1VSCodeFormatter.html#add3fe8b5911eb6e3b2267d101396d304" target="_top" xlink:title=" ">
<polygon fill="white" stroke="#666666" points="128,-78 0,-78 0,-48 128,-48 128,-78"/>
<text text-anchor="start" x="8" y="-66" font-family="Helvetica,sans-Serif" font-size="10.00">Sccg.Builtin.Formatters.</text>
<text text-anchor="middle" x="64" y="-55" font-family="Helvetica,sans-Serif" font-size="10.00">VSCodeFormatter.Format</text>
</a>
</g>
</g>
<!-- Node1&#45;&gt;Node4 -->
<g id="edge3" class="edge">
<title>Node1&#45;&gt;Node4</title>
<path fill="none" stroke="#63b8ff" d="M156.86,-75.56C147.3,-74.26 137.68,-72.94 128.45,-71.68"/>
<polygon fill="#63b8ff" stroke="#63b8ff" points="156.21,-79.14 166.6,-77.03 157.16,-72.21 156.21,-79.14"/>
</g>
<!-- Node5 -->
<g id="node5" class="node">
<title>Node5</title>
<g id="a_node5"><a xlink:href="classSccg_1_1Builtin_1_1Writers_1_1TextFileWriter.html#a34c4976132858aebe68aa59a676f63b4" target="_top" xlink:title=" ">
<polygon fill="white" stroke="#666666" points="125,-30 3,-30 3,0 125,0 125,-30"/>
<text text-anchor="start" x="11" y="-18" font-family="Helvetica,sans-Serif" font-size="10.00">Sccg.Builtin.Writers.Text</text>
<text text-anchor="middle" x="64" y="-7" font-family="Helvetica,sans-Serif" font-size="10.00">FileWriter.Write</text>
</a>
</g>
</g>
<!-- Node1&#45;&gt;Node5 -->
<g id="edge4" class="edge">
<title>Node1&#45;&gt;Node5</title>
<path fill="none" stroke="#63b8ff" d="M208.21,-72.82C185.8,-63.08 155.2,-49.98 128,-39 120.95,-36.15 113.41,-33.2 106.1,-30.39"/>
<polygon fill="#63b8ff" stroke="#63b8ff" points="206.63,-76.39 217.2,-77.18 209.43,-69.97 206.63,-76.39"/>
</g>
</g>
</svg>
