<?xml version="1.0" encoding="UTF-8" standalone="no"?>
<!DOCTYPE svg PUBLIC "-//W3C//DTD SVG 1.1//EN"
 "http://www.w3.org/Graphics/SVG/1.1/DTD/svg11.dtd">
<!-- Generated by graphviz version 7.1.0 (20230121.1956)
 -->
<!-- Title: Sccg.Builtin.Sources.AlacrittyColorsSource.Item.Extract Pages: 1 -->
<svg width="336pt" height="56pt"
 viewBox="0.00 0.00 336.00 56.00" xmlns="http://www.w3.org/2000/svg" xmlns:xlink="http://www.w3.org/1999/xlink">
<g id="graph0" class="graph" transform="scale(1 1) rotate(0) translate(4 52)">
<title>Sccg.Builtin.Sources.AlacrittyColorsSource.Item.Extract</title>
<!-- Node1 -->
<g id="node1" class="node">
<title>Node1</title>
<g id="a_node1"><a xlink:title=" ">
<polygon fill="#999999" stroke="#666666" points="144,-30 0,-30 0,0 144,0 144,-30"/>
<text text-anchor="start" x="8" y="-18" font-family="Helvetica,sans-Serif" font-size="10.00">Sccg.Builtin.Sources.Alacritty</text>
<text text-anchor="middle" x="72" y="-7" font-family="Helvetica,sans-Serif" font-size="10.00">ColorsSource.Item.Extract</text>
</a>
</g>
</g>
<!-- Node2 -->
<g id="node2" class="node">
<title>Node2</title>
<g id="a_node2"><a xlink:href="classSccg_1_1Builtin_1_1Formatters_1_1AlacrittyFormatter.html#a95e9a5a3c47986e115fd9c9cac507965" target="_top" xlink:title=" ">
<polygon fill="white" stroke="#666666" points="328,-30 180,-30 180,0 328,0 328,-30"/>
<text text-anchor="start" x="188" y="-18" font-family="Helvetica,sans-Serif" font-size="10.00">Sccg.Builtin.Formatters.</text>
<text text-anchor="middle" x="254" y="-7" font-family="Helvetica,sans-Serif" font-size="10.00">AlacrittyFormatter.Formattable</text>
</a>
</g>
</g>
<!-- Node1&#45;&gt;Node2 -->
<g id="edge1" class="edge">
<title>Node1&#45;&gt;Node2</title>
<path fill="none" stroke="#63b8ff" d="M144.4,-15C152.27,-15 160.34,-15 168.36,-15"/>
<polygon fill="#63b8ff" stroke="#63b8ff" points="168.11,-18.5 178.11,-15 168.11,-11.5 168.11,-18.5"/>
</g>
<!-- Node2&#45;&gt;Node2 -->
<g id="edge2" class="edge">
<title>Node2&#45;&gt;Node2</title>
<path fill="none" stroke="#63b8ff" d="M222.01,-30.28C214.9,-39.41 225.56,-48 254,-48 269.55,-48 279.79,-45.43 284.71,-41.61"/>
<polygon fill="#63b8ff" stroke="#63b8ff" points="288.17,-42.11 285.82,-31.78 281.22,-41.32 288.17,-42.11"/>
</g>
</g>
</svg>
