<?xml version="1.0" encoding="UTF-8" standalone="no"?>
<!DOCTYPE svg PUBLIC "-//W3C//DTD SVG 1.1//EN"
 "http://www.w3.org/Graphics/SVG/1.1/DTD/svg11.dtd">
<!-- Generated by graphviz version 7.0.5 (20221223.1930)
 -->
<!-- Title: VimSyntaxGroupSource.Item Pages: 1 -->
<svg width="218pt" height="137pt"
 viewBox="0.00 0.00 217.50 137.00" xmlns="http://www.w3.org/2000/svg" xmlns:xlink="http://www.w3.org/1999/xlink">
<g id="graph0" class="graph" transform="scale(1 1) rotate(0) translate(4 133)">
<title>VimSyntaxGroupSource.Item</title>
<!-- Node1 -->
<g id="node1" class="node">
<title>Node1</title>
<g id="a_node1"><a xlink:title=" ">
<polygon fill="#999999" stroke="#666666" points="171.5,-19 29.5,-19 29.5,0 171.5,0 171.5,-19"/>
<text text-anchor="middle" x="100.5" y="-7" font-family="Helvetica,sans-Serif" font-size="10.00">VimSyntaxGroupSource.Item</text>
</a>
</g>
</g>
<!-- Node2 -->
<g id="node2" class="node">
<title>Node2</title>
<g id="a_node2"><a xlink:href="interfaceIVimSourceItem.html" target="_top" xlink:title=" ">
<polygon fill="white" stroke="#666666" points="87,-74 0,-74 0,-55 87,-55 87,-74"/>
<text text-anchor="middle" x="43.5" y="-62" font-family="Helvetica,sans-Serif" font-size="10.00">IVimSourceItem</text>
</a>
</g>
</g>
<!-- Node2&#45;&gt;Node1 -->
<g id="edge1" class="edge">
<title>Node2&#45;&gt;Node1</title>
<path fill="none" stroke="#63b8ff" d="M61.45,-46.81C71.23,-37.72 82.94,-26.82 90.97,-19.36"/>
<polygon fill="#63b8ff" stroke="#63b8ff" points="59.22,-44.11 54.28,-53.48 63.98,-49.23 59.22,-44.11"/>
</g>
<!-- Node3 -->
<g id="node3" class="node">
<title>Node3</title>
<g id="a_node3"><a xlink:href="interfaceISourceItem.html" target="_top" xlink:title=" ">
<polygon fill="white" stroke="#666666" points="135.5,-129 65.5,-129 65.5,-110 135.5,-110 135.5,-129"/>
<text text-anchor="middle" x="100.5" y="-117" font-family="Helvetica,sans-Serif" font-size="10.00">ISourceItem</text>
</a>
</g>
</g>
<!-- Node3&#45;&gt;Node2 -->
<g id="edge2" class="edge">
<title>Node3&#45;&gt;Node2</title>
<path fill="none" stroke="#63b8ff" d="M82.55,-101.81C72.77,-92.72 61.06,-81.82 53.03,-74.36"/>
<polygon fill="#63b8ff" stroke="#63b8ff" points="80.02,-104.23 89.72,-108.48 84.78,-99.11 80.02,-104.23"/>
</g>
<!-- Node4 -->
<g id="node4" class="node">
<title>Node4</title>
<g id="a_node4"><a xlink:href="interfaceINeovimSourceItem.html" target="_top" xlink:title=" ">
<polygon fill="white" stroke="#666666" points="209.5,-74 105.5,-74 105.5,-55 209.5,-55 209.5,-74"/>
<text text-anchor="middle" x="157.5" y="-62" font-family="Helvetica,sans-Serif" font-size="10.00">INeovimSourceItem</text>
</a>
</g>
</g>
<!-- Node3&#45;&gt;Node4 -->
<g id="edge4" class="edge">
<title>Node3&#45;&gt;Node4</title>
<path fill="none" stroke="#63b8ff" d="M118.45,-101.81C128.23,-92.72 139.94,-81.82 147.97,-74.36"/>
<polygon fill="#63b8ff" stroke="#63b8ff" points="116.22,-99.11 111.28,-108.48 120.98,-104.23 116.22,-99.11"/>
</g>
<!-- Node4&#45;&gt;Node1 -->
<g id="edge3" class="edge">
<title>Node4&#45;&gt;Node1</title>
<path fill="none" stroke="#63b8ff" d="M139.55,-46.81C129.77,-37.72 118.06,-26.82 110.03,-19.36"/>
<polygon fill="#63b8ff" stroke="#63b8ff" points="137.02,-49.23 146.72,-53.48 141.78,-44.11 137.02,-49.23"/>
</g>
</g>
</svg>
