<?xml version="1.0" encoding="UTF-8" standalone="no"?>
<!DOCTYPE svg PUBLIC "-//W3C//DTD SVG 1.1//EN"
 "http://www.w3.org/Graphics/SVG/1.1/DTD/svg11.dtd">
<!-- Generated by graphviz version 2.43.0 (0)
 -->
<!-- Title: StdSourceImpl&lt; TGroup &gt; Pages: 1 -->
<svg width="194pt" height="95pt"
 viewBox="0.00 0.00 193.50 95.00" xmlns="http://www.w3.org/2000/svg" xmlns:xlink="http://www.w3.org/1999/xlink">
<g id="graph0" class="graph" transform="scale(1 1) rotate(0) translate(4 91)">
<title>StdSourceImpl&lt; TGroup &gt;</title>
<polygon fill="white" stroke="transparent" points="-4,4 -4,-91 189.5,-91 189.5,4 -4,4"/>
<!-- Node1 -->
<g id="node1" class="node">
<title>Node1</title>
<g id="a_node1"><a xlink:title=" ">
<polygon fill="#bfbfbf" stroke="black" points="25,-0.5 25,-19.5 170,-19.5 170,-0.5 25,-0.5"/>
<text text-anchor="middle" x="97.5" y="-7.5" font-family="Helvetica,sans-Serif" font-size="10.00">StdSourceImpl&lt; TGroup &gt;</text>
</a>
</g>
</g>
<!-- Node2 -->
<g id="node2" class="node">
<title>Node2</title>
<g id="a_node2"><a xlink:href="classSingeLinkGraph.html" target="_top" xlink:title=" ">
<polygon fill="white" stroke="black" points="0,-67.5 0,-86.5 93,-86.5 93,-67.5 0,-67.5"/>
<text text-anchor="middle" x="46.5" y="-74.5" font-family="Helvetica,sans-Serif" font-size="10.00">SingeLinkGraph</text>
</a>
</g>
</g>
<!-- Node2&#45;&gt;Node1 -->
<g id="edge1" class="edge">
<title>Node2&#45;&gt;Node1</title>
<path fill="none" stroke="#9a32cd" stroke-dasharray="5,2" d="M59.63,-59.27C69.57,-46.6 82.83,-29.7 90.73,-19.63"/>
<polygon fill="#9a32cd" stroke="#9a32cd" points="56.8,-57.21 53.38,-67.23 62.3,-61.53 56.8,-57.21"/>
<text text-anchor="middle" x="92" y="-41" font-family="Helvetica,sans-Serif" font-size="10.00"> Graph</text>
</g>
<!-- Node3 -->
<g id="node3" class="node">
<title>Node3</title>
<g id="a_node3"><a xlink:href="classObjectStore.html" target="_top" xlink:title=" ">
<polygon fill="white" stroke="black" points="111.5,-67.5 111.5,-86.5 185.5,-86.5 185.5,-67.5 111.5,-67.5"/>
<text text-anchor="middle" x="148.5" y="-74.5" font-family="Helvetica,sans-Serif" font-size="10.00">ObjectStore</text>
</a>
</g>
</g>
<!-- Node3&#45;&gt;Node1 -->
<g id="edge2" class="edge">
<title>Node3&#45;&gt;Node1</title>
<path fill="none" stroke="#9a32cd" stroke-dasharray="5,2" d="M135.37,-59.27C125.43,-46.6 112.17,-29.7 104.27,-19.63"/>
<polygon fill="#9a32cd" stroke="#9a32cd" points="132.7,-61.53 141.62,-67.23 138.2,-57.21 132.7,-61.53"/>
<text text-anchor="middle" x="140" y="-41" font-family="Helvetica,sans-Serif" font-size="10.00"> Store</text>
</g>
</g>
</svg>
