<?xml version="1.0" encoding="UTF-8" standalone="no"?>
<!DOCTYPE svg PUBLIC "-//W3C//DTD SVG 1.1//EN"
 "http://www.w3.org/Graphics/SVG/1.1/DTD/svg11.dtd">
<!-- Generated by graphviz version 2.43.0 (0)
 -->
<!-- Title: NeovimFormatter.Formattable Pages: 1 -->
<svg width="372pt" height="88pt"
 viewBox="0.00 0.00 372.00 88.00" xmlns="http://www.w3.org/2000/svg" xmlns:xlink="http://www.w3.org/1999/xlink">
<g id="graph0" class="graph" transform="scale(1 1) rotate(0) translate(4 84)">
<title>NeovimFormatter.Formattable</title>
<polygon fill="white" stroke="transparent" points="-4,4 -4,-84 368,-84 368,4 -4,4"/>
<!-- Node1 -->
<g id="node1" class="node">
<title>Node1</title>
<g id="a_node1"><a xlink:title=" ">
<polygon fill="#bfbfbf" stroke="black" points="200,-30 200,-49 364,-49 364,-30 200,-30"/>
<text text-anchor="middle" x="282" y="-37" font-family="Helvetica,sans-Serif" font-size="10.00">NeovimFormatter.Formattable</text>
</a>
</g>
</g>
<!-- Node2 -->
<g id="node2" class="node">
<title>Node2</title>
<g id="a_node2"><a xlink:href="classNeovimEditorHighlightSource_1_1Item.html#a748ea9fd5400f8dab3181edac1d9dbf8" target="_top" xlink:title=" ">
<polygon fill="white" stroke="black" points="0,-49.5 0,-79.5 164,-79.5 164,-49.5 0,-49.5"/>
<text text-anchor="start" x="8" y="-67.5" font-family="Helvetica,sans-Serif" font-size="10.00">NeovimEditorHighlightSource.</text>
<text text-anchor="middle" x="82" y="-56.5" font-family="Helvetica,sans-Serif" font-size="10.00">Item.Extract</text>
</a>
</g>
</g>
<!-- Node1&#45;&gt;Node2 -->
<g id="edge1" class="edge">
<title>Node1&#45;&gt;Node2</title>
<path fill="none" stroke="midnightblue" d="M195.64,-50.28C185.19,-51.6 174.53,-52.94 164.15,-54.25"/>
<polygon fill="midnightblue" stroke="midnightblue" points="196.1,-53.75 205.58,-49.02 195.22,-46.8 196.1,-53.75"/>
</g>
<!-- Node3 -->
<g id="node3" class="node">
<title>Node3</title>
<g id="a_node3"><a xlink:href="classNeovimTreesitterHighlightSource_1_1Item.html#aa5ec7530588c86d07e36ebba944d5307" target="_top" xlink:title=" ">
<polygon fill="white" stroke="black" points="9.5,-0.5 9.5,-30.5 154.5,-30.5 154.5,-0.5 9.5,-0.5"/>
<text text-anchor="start" x="17.5" y="-18.5" font-family="Helvetica,sans-Serif" font-size="10.00">NeovimTreesitterHighlight</text>
<text text-anchor="middle" x="82" y="-7.5" font-family="Helvetica,sans-Serif" font-size="10.00">Source.Item.Extract</text>
</a>
</g>
</g>
<!-- Node1&#45;&gt;Node3 -->
<g id="edge2" class="edge">
<title>Node1&#45;&gt;Node3</title>
<path fill="none" stroke="midnightblue" d="M192.4,-28.76C179.78,-27.23 166.94,-25.67 154.69,-24.19"/>
<polygon fill="midnightblue" stroke="midnightblue" points="192.11,-32.25 202.46,-29.98 192.95,-25.3 192.11,-32.25"/>
</g>
</g>
</svg>
