<?xml version="1.0" encoding="UTF-8" standalone="no"?>
<!DOCTYPE svg PUBLIC "-//W3C//DTD SVG 1.1//EN"
 "http://www.w3.org/Graphics/SVG/1.1/DTD/svg11.dtd">
<!-- Generated by graphviz version 7.1.0 (20230121.1956)
 -->
<!-- Title: Sccg.Builtin.Sources.VimSyntaxGroupSource.Item Pages: 1 -->
<svg width="382pt" height="216pt"
 viewBox="0.00 0.00 381.50 216.00" xmlns="http://www.w3.org/2000/svg" xmlns:xlink="http://www.w3.org/1999/xlink">
<g id="graph0" class="graph" transform="scale(1 1) rotate(0) translate(4 212)">
<title>Sccg.Builtin.Sources.VimSyntaxGroupSource.Item</title>
<!-- Node1 -->
<g id="node1" class="node">
<title>Node1</title>
<g id="a_node1"><a xlink:title="SourceItem for Vim/Neovim syntax group.">
<polygon fill="#999999" stroke="#666666" points="254,-30 128,-30 128,0 254,0 254,-30"/>
<text text-anchor="start" x="136" y="-18" font-family="Helvetica,sans-Serif" font-size="10.00">Sccg.Builtin.Sources.Vim</text>
<text text-anchor="middle" x="191" y="-7" font-family="Helvetica,sans-Serif" font-size="10.00">SyntaxGroupSource.Item</text>
</a>
</g>
</g>
<!-- Node2 -->
<g id="node2" class="node">
<title>Node2</title>
<g id="a_node2"><a xlink:href="interfaceSccg_1_1Builtin_1_1Formatters_1_1IVimSourceItem.html" target="_top" xlink:title="SourceItem for Vim color scheme.">
<polygon fill="white" stroke="#666666" points="115.5,-96 28.5,-96 28.5,-77 115.5,-77 115.5,-96"/>
<text text-anchor="middle" x="72" y="-84" font-family="Helvetica,sans-Serif" font-size="10.00">IVimSourceItem</text>
</a>
</g>
</g>
<!-- Node2&#45;&gt;Node1 -->
<g id="edge1" class="edge">
<title>Node2&#45;&gt;Node1</title>
<path fill="none" stroke="#63b8ff" d="M96.92,-70.94C117.39,-58.99 146.22,-42.15 166.56,-30.27"/>
<polygon fill="#63b8ff" stroke="#63b8ff" points="95.25,-67.87 88.38,-75.93 98.78,-73.91 95.25,-67.87"/>
</g>
<!-- Node3 -->
<g id="node3" class="node">
<title>Node3</title>
<g id="a_node3"><a xlink:href="interfaceSccg_1_1Builtin_1_1Sources_1_1Internal_1_1IVimSourceItemBase.html" target="_top" xlink:title="Base SourceItem for Vim.">
<polygon fill="white" stroke="#666666" points="110,-152 0,-152 0,-133 110,-133 110,-152"/>
<text text-anchor="middle" x="55" y="-140" font-family="Helvetica,sans-Serif" font-size="10.00">IVimSourceItemBase</text>
</a>
</g>
</g>
<!-- Node3&#45;&gt;Node2 -->
<g id="edge2" class="edge">
<title>Node3&#45;&gt;Node2</title>
<path fill="none" stroke="#63b8ff" d="M61.23,-121.71C63.98,-112.96 67.08,-103.12 69.25,-96.25"/>
<polygon fill="#63b8ff" stroke="#63b8ff" points="57.93,-120.55 58.26,-131.14 64.6,-122.65 57.93,-120.55"/>
</g>
<!-- Node4 -->
<g id="node4" class="node">
<title>Node4</title>
<g id="a_node4"><a xlink:href="interfaceSccg_1_1Core_1_1ISourceItem.html" target="_top" xlink:title="Represents a source item.">
<polygon fill="white" stroke="#666666" points="157,-208 87,-208 87,-189 157,-189 157,-208"/>
<text text-anchor="middle" x="122" y="-196" font-family="Helvetica,sans-Serif" font-size="10.00">ISourceItem</text>
</a>
</g>
</g>
<!-- Node4&#45;&gt;Node3 -->
<g id="edge3" class="edge">
<title>Node4&#45;&gt;Node3</title>
<path fill="none" stroke="#63b8ff" d="M102.15,-181.5C90.28,-171.93 75.64,-160.14 65.86,-152.25"/>
<polygon fill="#63b8ff" stroke="#63b8ff" points="99.78,-184.08 109.76,-187.63 104.17,-178.63 99.78,-184.08"/>
</g>
<!-- Node6 -->
<g id="node6" class="node">
<title>Node6</title>
<g id="a_node6"><a xlink:href="interfaceSccg_1_1Builtin_1_1Sources_1_1Internal_1_1INeovimSourceItemBase.html" target="_top" xlink:title="Base SourceItem for Neovim.">
<polygon fill="white" stroke="#666666" points="254,-152 128,-152 128,-133 254,-133 254,-152"/>
<text text-anchor="middle" x="191" y="-140" font-family="Helvetica,sans-Serif" font-size="10.00">INeovimSourceItemBase</text>
</a>
</g>
</g>
<!-- Node4&#45;&gt;Node6 -->
<g id="edge6" class="edge">
<title>Node4&#45;&gt;Node6</title>
<path fill="none" stroke="#63b8ff" d="M142.44,-181.5C154.67,-171.93 169.74,-160.14 179.82,-152.25"/>
<polygon fill="#63b8ff" stroke="#63b8ff" points="140.3,-178.73 134.59,-187.65 144.62,-184.24 140.3,-178.73"/>
</g>
<!-- Node5 -->
<g id="node5" class="node">
<title>Node5</title>
<g id="a_node5"><a xlink:href="interfaceSccg_1_1Builtin_1_1Formatters_1_1INeovimSourceItem.html" target="_top" xlink:title="SourceItem for Neovim color scheme.">
<polygon fill="white" stroke="#666666" points="243,-96 139,-96 139,-77 243,-77 243,-96"/>
<text text-anchor="middle" x="191" y="-84" font-family="Helvetica,sans-Serif" font-size="10.00">INeovimSourceItem</text>
</a>
</g>
</g>
<!-- Node5&#45;&gt;Node1 -->
<g id="edge4" class="edge">
<title>Node5&#45;&gt;Node1</title>
<path fill="none" stroke="#63b8ff" d="M191,-65.39C191,-54.15 191,-40.41 191,-30.27"/>
<polygon fill="#63b8ff" stroke="#63b8ff" points="187.5,-65.18 191,-75.18 194.5,-65.18 187.5,-65.18"/>
</g>
<!-- Node6&#45;&gt;Node5 -->
<g id="edge5" class="edge">
<title>Node6&#45;&gt;Node5</title>
<path fill="none" stroke="#63b8ff" d="M191,-121.11C191,-112.52 191,-102.97 191,-96.25"/>
<polygon fill="#63b8ff" stroke="#63b8ff" points="187.5,-121.07 191,-131.07 194.5,-121.07 187.5,-121.07"/>
</g>
<!-- Node7 -->
<g id="node7" class="node">
<title>Node7</title>
<g id="a_node7"><a xlink:href="structSccg_1_1Style.html" target="_top" xlink:title="Represents a style of text.">
<polygon fill="white" stroke="#666666" points="339.5,-96 276.5,-96 276.5,-77 339.5,-77 339.5,-96"/>
<text text-anchor="middle" x="308" y="-84" font-family="Helvetica,sans-Serif" font-size="10.00">Sccg.Style</text>
</a>
</g>
</g>
<!-- Node7&#45;&gt;Node1 -->
<g id="edge7" class="edge">
<title>Node7&#45;&gt;Node1</title>
<path fill="none" stroke="#9a32cd" stroke-dasharray="5,2" d="M283.49,-70.94C263.37,-58.99 235.02,-42.15 215.03,-30.27"/>
<polygon fill="#9a32cd" stroke="#9a32cd" points="281.5,-73.83 291.88,-75.92 285.07,-67.81 281.5,-73.83"/>
<text text-anchor="middle" x="272.5" y="-51" font-family="Helvetica,sans-Serif" font-size="10.00"> Style</text>
</g>
<!-- Node8 -->
<g id="node8" class="node">
<title>Node8</title>
<g id="a_node8"><a xlink:title=" ">
<polygon fill="white" stroke="#666666" points="373.5,-152 272.5,-152 272.5,-133 373.5,-133 373.5,-152"/>
<text text-anchor="middle" x="323" y="-140" font-family="Helvetica,sans-Serif" font-size="10.00">IEquatable&lt; Style &gt;</text>
</a>
</g>
</g>
<!-- Node8&#45;&gt;Node7 -->
<g id="edge8" class="edge">
<title>Node8&#45;&gt;Node7</title>
<path fill="none" stroke="#63b8ff" d="M317.5,-121.71C315.07,-112.96 312.34,-103.12 310.43,-96.25"/>
<polygon fill="#63b8ff" stroke="#63b8ff" points="314.07,-122.43 320.12,-131.12 320.81,-120.55 314.07,-122.43"/>
</g>
</g>
</svg>
