<?xml version="1.0" encoding="UTF-8" standalone="no"?>
<!DOCTYPE svg PUBLIC "-//W3C//DTD SVG 1.1//EN"
 "http://www.w3.org/Graphics/SVG/1.1/DTD/svg11.dtd">
<!-- Generated by graphviz version 8.0.1 (20230327.1645)
 -->
<!-- Title: Sccg.Builtin.Sources.Ansi16ColorSource.Item Pages: 1 -->
<svg width="596pt" height="140pt"
 viewBox="0.00 0.00 596.00 140.00" xmlns="http://www.w3.org/2000/svg" xmlns:xlink="http://www.w3.org/1999/xlink">
<g id="graph0" class="graph" transform="scale(1 1) rotate(0) translate(4 136)">
<title>Sccg.Builtin.Sources.Ansi16ColorSource.Item</title>
<!-- Node1 -->
<g id="node1" class="node">
<title>Node1</title>
<g id="a_node1"><a xlink:title="SourceItem for 16 ANSI colors.">
<polygon fill="#999999" stroke="#666666" points="588,-81.5 449,-81.5 449,-51.5 588,-51.5 588,-81.5"/>
<text text-anchor="start" x="457" y="-69.5" font-family="Helvetica,sans-Serif" font-size="10.00">Sccg.Builtin.Sources.Ansi16</text>
<text text-anchor="middle" x="518.5" y="-58.5" font-family="Helvetica,sans-Serif" font-size="10.00">ColorSource.Item</text>
</a>
</g>
</g>
<!-- Node2 -->
<g id="node2" class="node">
<title>Node2</title>
<g id="a_node2"><a xlink:href="interfaceSccg_1_1Builtin_1_1Formatters_1_1IVimArrayVariableSourceItem.html" target="_top" xlink:title="SourceItem for Vim color scheme.">
<polygon fill="white" stroke="#666666" points="413,-132 268,-132 268,-113 413,-113 413,-132"/>
<text text-anchor="middle" x="340.5" y="-120" font-family="Helvetica,sans-Serif" font-size="10.00">IVimArrayVariableSourceItem</text>
</a>
</g>
</g>
<!-- Node2&#45;&gt;Node1 -->
<g id="edge1" class="edge">
<title>Node2&#45;&gt;Node1</title>
<path fill="none" stroke="#63b8ff" d="M394.5,-109.8C400.76,-108.11 407.04,-106.33 413,-104.5 434.78,-97.82 458.68,-89.22 478.12,-81.9"/>
<polygon fill="#63b8ff" stroke="#63b8ff" points="393.83,-106.62 385.04,-112.55 395.6,-113.39 393.83,-106.62"/>
</g>
<!-- Node3 -->
<g id="node3" class="node">
<title>Node3</title>
<g id="a_node3"><a xlink:href="interfaceSccg_1_1Builtin_1_1Sources_1_1Internal_1_1IVimSourceItemBase.html" target="_top" xlink:title="Base SourceItem for Vim.">
<polygon fill="white" stroke="#666666" points="224,-132 114,-132 114,-113 224,-113 224,-132"/>
<text text-anchor="middle" x="169" y="-120" font-family="Helvetica,sans-Serif" font-size="10.00">IVimSourceItemBase</text>
</a>
</g>
</g>
<!-- Node3&#45;&gt;Node2 -->
<g id="edge2" class="edge">
<title>Node3&#45;&gt;Node2</title>
<path fill="none" stroke="#63b8ff" d="M235.03,-122.5C245.71,-122.5 256.83,-122.5 267.66,-122.5"/>
<polygon fill="#63b8ff" stroke="#63b8ff" points="235.1,-119 225.1,-122.5 235.1,-126 235.1,-119"/>
</g>
<!-- Node4 -->
<g id="node4" class="node">
<title>Node4</title>
<g id="a_node4"><a xlink:href="interfaceSccg_1_1Core_1_1ISourceItem.html" target="_top" xlink:title="Represents a source item.">
<polygon fill="white" stroke="#666666" points="70,-95 0,-95 0,-76 70,-76 70,-95"/>
<text text-anchor="middle" x="35" y="-83" font-family="Helvetica,sans-Serif" font-size="10.00">ISourceItem</text>
</a>
</g>
</g>
<!-- Node4&#45;&gt;Node3 -->
<g id="edge3" class="edge">
<title>Node4&#45;&gt;Node3</title>
<path fill="none" stroke="#63b8ff" d="M80.55,-97.99C97.46,-102.73 116.48,-108.06 132.45,-112.54"/>
<polygon fill="#63b8ff" stroke="#63b8ff" points="81.91,-94.45 71.34,-95.12 80.02,-101.19 81.91,-94.45"/>
</g>
<!-- Node6 -->
<g id="node6" class="node">
<title>Node6</title>
<g id="a_node6"><a xlink:href="interfaceSccg_1_1Builtin_1_1Sources_1_1Internal_1_1INeovimSourceItemBase.html" target="_top" xlink:title="Base SourceItem for Neovim.">
<polygon fill="white" stroke="#666666" points="232,-95 106,-95 106,-76 232,-76 232,-95"/>
<text text-anchor="middle" x="169" y="-83" font-family="Helvetica,sans-Serif" font-size="10.00">INeovimSourceItemBase</text>
</a>
</g>
</g>
<!-- Node4&#45;&gt;Node6 -->
<g id="edge6" class="edge">
<title>Node4&#45;&gt;Node6</title>
<path fill="none" stroke="#63b8ff" d="M81.17,-85.5C89.07,-85.5 97.43,-85.5 105.7,-85.5"/>
<polygon fill="#63b8ff" stroke="#63b8ff" points="81.34,-82 71.34,-85.5 81.34,-89 81.34,-82"/>
</g>
<!-- Node8 -->
<g id="node8" class="node">
<title>Node8</title>
<g id="a_node8"><a xlink:href="interfaceSccg_1_1Builtin_1_1Formatters_1_1IAlacrittySourceItem.html" target="_top" xlink:title="SourceItem for Alacritty config.">
<polygon fill="white" stroke="#666666" points="221.5,-58 116.5,-58 116.5,-39 221.5,-39 221.5,-58"/>
<text text-anchor="middle" x="169" y="-46" font-family="Helvetica,sans-Serif" font-size="10.00">IAlacrittySourceItem</text>
</a>
</g>
</g>
<!-- Node4&#45;&gt;Node8 -->
<g id="edge9" class="edge">
<title>Node4&#45;&gt;Node8</title>
<path fill="none" stroke="#63b8ff" d="M80.55,-73.01C97.46,-68.27 116.48,-62.94 132.45,-58.46"/>
<polygon fill="#63b8ff" stroke="#63b8ff" points="80.02,-69.81 71.34,-75.88 81.91,-76.55 80.02,-69.81"/>
</g>
<!-- Node5 -->
<g id="node5" class="node">
<title>Node5</title>
<g id="a_node5"><a xlink:href="interfaceSccg_1_1Builtin_1_1Formatters_1_1INeovimVariableSourceItem.html" target="_top" xlink:title="SourceItem for Neovim color scheme.">
<polygon fill="white" stroke="#666666" points="410,-95 271,-95 271,-76 410,-76 410,-95"/>
<text text-anchor="middle" x="340.5" y="-83" font-family="Helvetica,sans-Serif" font-size="10.00">INeovimVariableSourceItem</text>
</a>
</g>
</g>
<!-- Node5&#45;&gt;Node1 -->
<g id="edge4" class="edge">
<title>Node5&#45;&gt;Node1</title>
<path fill="none" stroke="#63b8ff" d="M421.07,-76.91C430.3,-75.91 439.67,-74.9 448.75,-73.92"/>
<polygon fill="#63b8ff" stroke="#63b8ff" points="420.87,-73.52 411.3,-78.07 421.62,-80.48 420.87,-73.52"/>
</g>
<!-- Node6&#45;&gt;Node5 -->
<g id="edge5" class="edge">
<title>Node6&#45;&gt;Node5</title>
<path fill="none" stroke="#63b8ff" d="M242.9,-85.5C252.15,-85.5 261.59,-85.5 270.78,-85.5"/>
<polygon fill="#63b8ff" stroke="#63b8ff" points="243.15,-82 233.15,-85.5 243.15,-89 243.15,-82"/>
</g>
<!-- Node7 -->
<g id="node7" class="node">
<title>Node7</title>
<g id="a_node7"><a xlink:title=" ">
<polygon fill="white" stroke="#666666" points="389.5,-19 291.5,-19 291.5,0 389.5,0 389.5,-19"/>
<text text-anchor="middle" x="340.5" y="-7" font-family="Helvetica,sans-Serif" font-size="10.00">IIterm2SourceItem</text>
</a>
</g>
</g>
<!-- Node7&#45;&gt;Node1 -->
<g id="edge7" class="edge">
<title>Node7&#45;&gt;Node1</title>
<path fill="none" stroke="#63b8ff" d="M382.48,-22.77C408.64,-31.24 442.64,-42.25 469.97,-51.11"/>
<polygon fill="#63b8ff" stroke="#63b8ff" points="383.75,-19.18 373.16,-19.43 381.59,-25.84 383.75,-19.18"/>
</g>
<!-- Node8&#45;&gt;Node1 -->
<g id="edge8" class="edge">
<title>Node8&#45;&gt;Node1</title>
<path fill="none" stroke="#63b8ff" d="M232.27,-51.73C293.18,-54.88 385.75,-59.68 448.79,-62.94"/>
<polygon fill="#63b8ff" stroke="#63b8ff" points="232.82,-48.2 222.65,-51.18 232.45,-55.19 232.82,-48.2"/>
</g>
</g>
</svg>
