<?xml version="1.0" encoding="UTF-8" standalone="no"?>
<!DOCTYPE svg PUBLIC "-//W3C//DTD SVG 1.1//EN"
 "http://www.w3.org/Graphics/SVG/1.1/DTD/svg11.dtd">
<!-- Generated by graphviz version 7.1.0 (20230121.1956)
 -->
<!-- Title: Sccg.BuilderQuery.GetMetadata Pages: 1 -->
<svg width="324pt" height="134pt"
 viewBox="0.00 0.00 324.00 134.00" xmlns="http://www.w3.org/2000/svg" xmlns:xlink="http://www.w3.org/1999/xlink">
<g id="graph0" class="graph" transform="scale(1 1) rotate(0) translate(4 130)">
<title>Sccg.BuilderQuery.GetMetadata</title>
<!-- Node1 -->
<g id="node1" class="node">
<title>Node1</title>
<g id="a_node1"><a xlink:title="Gets the metadata.">
<polygon fill="#999999" stroke="#666666" points="316,-72.5 161,-72.5 161,-53.5 316,-53.5 316,-72.5"/>
<text text-anchor="middle" x="238.5" y="-60.5" font-family="Helvetica,sans-Serif" font-size="10.00">Sccg.BuilderQuery.GetMetadata</text>
</a>
</g>
</g>
<!-- Node2 -->
<g id="node2" class="node">
<title>Node2</title>
<g id="a_node2"><a xlink:href="classSccg_1_1Builtin_1_1Formatters_1_1NeovimFormatter.html#abacdf22b5b6f8f3e33e0d8e203277190" target="_top" xlink:title=" ">
<polygon fill="white" stroke="#666666" points="125,-126 0,-126 0,-96 125,-96 125,-126"/>
<text text-anchor="start" x="8" y="-114" font-family="Helvetica,sans-Serif" font-size="10.00">Sccg.Builtin.Formatters.</text>
<text text-anchor="middle" x="62.5" y="-103" font-family="Helvetica,sans-Serif" font-size="10.00">NeovimFormatter.Format</text>
</a>
</g>
</g>
<!-- Node1&#45;&gt;Node2 -->
<g id="edge1" class="edge">
<title>Node1&#45;&gt;Node2</title>
<path fill="none" stroke="#63b8ff" d="M190.42,-75.99C168.51,-82.03 142.29,-89.26 119.38,-95.58"/>
<polygon fill="#63b8ff" stroke="#63b8ff" points="191.28,-79.38 199.99,-73.35 189.42,-72.63 191.28,-79.38"/>
</g>
<!-- Node3 -->
<g id="node3" class="node">
<title>Node3</title>
<g id="a_node3"><a xlink:href="classSccg_1_1Builtin_1_1Formatters_1_1VimFormatter.html#a477f1b56235bb2c3cedf9bda1ccd9023" target="_top" xlink:title=" ">
<polygon fill="white" stroke="#666666" points="122.5,-78 2.5,-78 2.5,-48 122.5,-48 122.5,-78"/>
<text text-anchor="start" x="10.5" y="-66" font-family="Helvetica,sans-Serif" font-size="10.00">Sccg.Builtin.Formatters.</text>
<text text-anchor="middle" x="62.5" y="-55" font-family="Helvetica,sans-Serif" font-size="10.00">VimFormatter.Format</text>
</a>
</g>
</g>
<!-- Node1&#45;&gt;Node3 -->
<g id="edge2" class="edge">
<title>Node1&#45;&gt;Node3</title>
<path fill="none" stroke="#63b8ff" d="M149.36,-63C140.4,-63 131.47,-63 122.93,-63"/>
<polygon fill="#63b8ff" stroke="#63b8ff" points="149.16,-66.5 159.16,-63 149.16,-59.5 149.16,-66.5"/>
</g>
<!-- Node4 -->
<g id="node4" class="node">
<title>Node4</title>
<g id="a_node4"><a xlink:href="classSccg_1_1Builtin_1_1Writers_1_1TextFileWriter.html#a34c4976132858aebe68aa59a676f63b4" target="_top" xlink:title=" ">
<polygon fill="white" stroke="#666666" points="123.5,-30 1.5,-30 1.5,0 123.5,0 123.5,-30"/>
<text text-anchor="start" x="9.5" y="-18" font-family="Helvetica,sans-Serif" font-size="10.00">Sccg.Builtin.Writers.Text</text>
<text text-anchor="middle" x="62.5" y="-7" font-family="Helvetica,sans-Serif" font-size="10.00">FileWriter.Write</text>
</a>
</g>
</g>
<!-- Node1&#45;&gt;Node4 -->
<g id="edge3" class="edge">
<title>Node1&#45;&gt;Node4</title>
<path fill="none" stroke="#63b8ff" d="M190.42,-50.01C168.51,-43.97 142.29,-36.74 119.38,-30.42"/>
<polygon fill="#63b8ff" stroke="#63b8ff" points="189.42,-53.37 199.99,-52.65 191.28,-46.62 189.42,-53.37"/>
</g>
</g>
</svg>
