<?xml version="1.0" encoding="UTF-8" standalone="no"?>
<!DOCTYPE svg PUBLIC "-//W3C//DTD SVG 1.1//EN"
 "http://www.w3.org/Graphics/SVG/1.1/DTD/svg11.dtd">
<!-- Generated by graphviz version 7.1.0 (20230121.1956)
 -->
<!-- Title: Sccg.Builtin.Sources.VimSyntaxGroupSource.Item Pages: 1 -->
<svg width="318pt" height="160pt"
 viewBox="0.00 0.00 318.00 160.00" xmlns="http://www.w3.org/2000/svg" xmlns:xlink="http://www.w3.org/1999/xlink">
<g id="graph0" class="graph" transform="scale(1 1) rotate(0) translate(4 156)">
<title>Sccg.Builtin.Sources.VimSyntaxGroupSource.Item</title>
<!-- Node1 -->
<g id="node1" class="node">
<title>Node1</title>
<g id="a_node1"><a xlink:title=" ">
<polygon fill="#999999" stroke="#666666" points="220.5,-30 94.5,-30 94.5,0 220.5,0 220.5,-30"/>
<text text-anchor="start" x="102.5" y="-18" font-family="Helvetica,sans-Serif" font-size="10.00">Sccg.Builtin.Sources.Vim</text>
<text text-anchor="middle" x="157.5" y="-7" font-family="Helvetica,sans-Serif" font-size="10.00">SyntaxGroupSource.Item</text>
</a>
</g>
</g>
<!-- Node2 -->
<g id="node2" class="node">
<title>Node2</title>
<g id="a_node2"><a xlink:href="interfaceSccg_1_1Builtin_1_1Formatters_1_1IVimSourceItem.html" target="_top" xlink:title=" ">
<polygon fill="white" stroke="#666666" points="87,-96 0,-96 0,-77 87,-77 87,-96"/>
<text text-anchor="middle" x="43.5" y="-84" font-family="Helvetica,sans-Serif" font-size="10.00">IVimSourceItem</text>
</a>
</g>
</g>
<!-- Node2&#45;&gt;Node1 -->
<g id="edge1" class="edge">
<title>Node2&#45;&gt;Node1</title>
<path fill="none" stroke="#63b8ff" d="M67.65,-70.78C87.24,-58.83 114.69,-42.1 134.09,-30.27"/>
<polygon fill="#63b8ff" stroke="#63b8ff" points="65.95,-67.72 59.23,-75.91 69.59,-73.69 65.95,-67.72"/>
</g>
<!-- Node3 -->
<g id="node3" class="node">
<title>Node3</title>
<g id="a_node3"><a xlink:href="interfaceSccg_1_1Core_1_1ISourceItem.html" target="_top" xlink:title=" ">
<polygon fill="white" stroke="#666666" points="178.5,-152 108.5,-152 108.5,-133 178.5,-133 178.5,-152"/>
<text text-anchor="middle" x="143.5" y="-140" font-family="Helvetica,sans-Serif" font-size="10.00">ISourceItem</text>
</a>
</g>
</g>
<!-- Node3&#45;&gt;Node2 -->
<g id="edge2" class="edge">
<title>Node3&#45;&gt;Node2</title>
<path fill="none" stroke="#63b8ff" d="M117.05,-127.22C98.96,-117.45 75.53,-104.8 60.04,-96.43"/>
<polygon fill="#63b8ff" stroke="#63b8ff" points="115.19,-130.19 125.66,-131.86 118.52,-124.03 115.19,-130.19"/>
</g>
<!-- Node4 -->
<g id="node4" class="node">
<title>Node4</title>
<g id="a_node4"><a xlink:href="interfaceSccg_1_1Builtin_1_1Formatters_1_1INeovimSourceItem.html" target="_top" xlink:title=" ">
<polygon fill="white" stroke="#666666" points="209.5,-96 105.5,-96 105.5,-77 209.5,-77 209.5,-96"/>
<text text-anchor="middle" x="157.5" y="-84" font-family="Helvetica,sans-Serif" font-size="10.00">INeovimSourceItem</text>
</a>
</g>
</g>
<!-- Node3&#45;&gt;Node4 -->
<g id="edge4" class="edge">
<title>Node3&#45;&gt;Node4</title>
<path fill="none" stroke="#63b8ff" d="M148.63,-121.71C150.9,-112.96 153.45,-103.12 155.23,-96.25"/>
<polygon fill="#63b8ff" stroke="#63b8ff" points="145.31,-120.56 146.19,-131.12 152.09,-122.32 145.31,-120.56"/>
</g>
<!-- Node4&#45;&gt;Node1 -->
<g id="edge3" class="edge">
<title>Node4&#45;&gt;Node1</title>
<path fill="none" stroke="#63b8ff" d="M157.5,-65.39C157.5,-54.15 157.5,-40.41 157.5,-30.27"/>
<polygon fill="#63b8ff" stroke="#63b8ff" points="154,-65.18 157.5,-75.18 161,-65.18 154,-65.18"/>
</g>
<!-- Node5 -->
<g id="node5" class="node">
<title>Node5</title>
<g id="a_node5"><a xlink:href="structSccg_1_1Style.html" target="_top" xlink:title=" ">
<polygon fill="white" stroke="#666666" points="291,-96 228,-96 228,-77 291,-77 291,-96"/>
<text text-anchor="middle" x="259.5" y="-84" font-family="Helvetica,sans-Serif" font-size="10.00">Sccg.Style</text>
</a>
</g>
</g>
<!-- Node5&#45;&gt;Node1 -->
<g id="edge5" class="edge">
<title>Node5&#45;&gt;Node1</title>
<path fill="none" stroke="#9a32cd" stroke-dasharray="5,2" d="M237.16,-70.28C219.69,-58.37 195.56,-41.93 178.45,-30.27"/>
<polygon fill="#9a32cd" stroke="#9a32cd" points="235.1,-73.11 245.33,-75.85 239.04,-67.32 235.1,-73.11"/>
<text text-anchor="middle" x="231" y="-51" font-family="Helvetica,sans-Serif" font-size="10.00"> Style</text>
</g>
<!-- Node6 -->
<g id="node6" class="node">
<title>Node6</title>
<g id="a_node6"><a xlink:title=" ">
<polygon fill="white" stroke="#666666" points="310,-152 209,-152 209,-133 310,-133 310,-152"/>
<text text-anchor="middle" x="259.5" y="-140" font-family="Helvetica,sans-Serif" font-size="10.00">IEquatable&lt; Style &gt;</text>
</a>
</g>
</g>
<!-- Node6&#45;&gt;Node5 -->
<g id="edge6" class="edge">
<title>Node6&#45;&gt;Node5</title>
<path fill="none" stroke="#63b8ff" d="M259.5,-121.11C259.5,-112.52 259.5,-102.97 259.5,-96.25"/>
<polygon fill="#63b8ff" stroke="#63b8ff" points="256,-121.07 259.5,-131.07 263,-121.07 256,-121.07"/>
</g>
</g>
</svg>
