<?xml version="1.0" encoding="UTF-8" standalone="no"?>
<!DOCTYPE svg PUBLIC "-//W3C//DTD SVG 1.1//EN"
 "http://www.w3.org/Graphics/SVG/1.1/DTD/svg11.dtd">
<!-- Generated by graphviz version 8.0.1 (20230327.1645)
 -->
<!-- Title: Sccg.Builtin.Sources.NeovimLspDiagnosticHighlightSource.Item Pages: 1 -->
<svg width="178pt" height="203pt"
 viewBox="0.00 0.00 178.00 203.00" xmlns="http://www.w3.org/2000/svg" xmlns:xlink="http://www.w3.org/1999/xlink">
<g id="graph0" class="graph" transform="scale(1 1) rotate(0) translate(4 199)">
<title>Sccg.Builtin.Sources.NeovimLspDiagnosticHighlightSource.Item</title>
<!-- Node1 -->
<g id="node1" class="node">
<title>Node1</title>
<g id="a_node1"><a xlink:title="SourceItem for Neovim LSP diagnostic highlight.">
<polygon fill="#999999" stroke="#666666" points="170,-30 0,-30 0,0 170,0 170,-30"/>
<text text-anchor="start" x="8" y="-18" font-family="Helvetica,sans-Serif" font-size="10.00">Sccg.Builtin.Sources.Neovim</text>
<text text-anchor="middle" x="85" y="-7" font-family="Helvetica,sans-Serif" font-size="10.00">LspDiagnosticHighlightSource.Item</text>
</a>
</g>
</g>
<!-- Node2 -->
<g id="node2" class="node">
<title>Node2</title>
<g id="a_node2"><a xlink:href="interfaceSccg_1_1Builtin_1_1Formatters_1_1INeovimSourceItem.html" target="_top" xlink:title="SourceItem for Neovim color scheme.">
<polygon fill="white" stroke="#666666" points="137,-85 33,-85 33,-66 137,-66 137,-85"/>
<text text-anchor="middle" x="85" y="-73" font-family="Helvetica,sans-Serif" font-size="10.00">INeovimSourceItem</text>
</a>
</g>
</g>
<!-- Node2&#45;&gt;Node1 -->
<g id="edge1" class="edge">
<title>Node2&#45;&gt;Node1</title>
<path fill="none" stroke="#63b8ff" d="M85,-55.08C85,-46.92 85,-37.6 85,-30.11"/>
<polygon fill="#63b8ff" stroke="#63b8ff" points="81.5,-54.87 85,-64.87 88.5,-54.87 81.5,-54.87"/>
</g>
<!-- Node3 -->
<g id="node3" class="node">
<title>Node3</title>
<g id="a_node3"><a xlink:href="interfaceSccg_1_1Builtin_1_1Sources_1_1Internal_1_1INeovimSourceItemBase.html" target="_top" xlink:title="Base SourceItem for Neovim.">
<polygon fill="white" stroke="#666666" points="148,-140 22,-140 22,-121 148,-121 148,-140"/>
<text text-anchor="middle" x="85" y="-128" font-family="Helvetica,sans-Serif" font-size="10.00">INeovimSourceItemBase</text>
</a>
</g>
</g>
<!-- Node3&#45;&gt;Node2 -->
<g id="edge2" class="edge">
<title>Node3&#45;&gt;Node2</title>
<path fill="none" stroke="#63b8ff" d="M85,-109.93C85,-101.53 85,-92.13 85,-85.44"/>
<polygon fill="#63b8ff" stroke="#63b8ff" points="81.5,-109.75 85,-119.75 88.5,-109.75 81.5,-109.75"/>
</g>
<!-- Node4 -->
<g id="node4" class="node">
<title>Node4</title>
<g id="a_node4"><a xlink:href="interfaceSccg_1_1Core_1_1ISourceItem.html" target="_top" xlink:title="Represents a source item.">
<polygon fill="white" stroke="#666666" points="120,-195 50,-195 50,-176 120,-176 120,-195"/>
<text text-anchor="middle" x="85" y="-183" font-family="Helvetica,sans-Serif" font-size="10.00">ISourceItem</text>
</a>
</g>
</g>
<!-- Node4&#45;&gt;Node3 -->
<g id="edge3" class="edge">
<title>Node4&#45;&gt;Node3</title>
<path fill="none" stroke="#63b8ff" d="M85,-164.93C85,-156.53 85,-147.13 85,-140.44"/>
<polygon fill="#63b8ff" stroke="#63b8ff" points="81.5,-164.75 85,-174.75 88.5,-164.75 81.5,-164.75"/>
</g>
</g>
</svg>
