<?xml version="1.0" encoding="UTF-8" standalone="no"?>
<!DOCTYPE svg PUBLIC "-//W3C//DTD SVG 1.1//EN"
 "http://www.w3.org/Graphics/SVG/1.1/DTD/svg11.dtd">
<!-- Generated by graphviz version 7.1.0 (20230121.1956)
 -->
<!-- Title: Sccg.Builtin.Sources.VimEditorHighlightSource.Item Pages: 1 -->
<svg width="203pt" height="160pt"
 viewBox="0.00 0.00 203.00 160.00" xmlns="http://www.w3.org/2000/svg" xmlns:xlink="http://www.w3.org/1999/xlink">
<g id="graph0" class="graph" transform="scale(1 1) rotate(0) translate(4 156)">
<title>Sccg.Builtin.Sources.VimEditorHighlightSource.Item</title>
<!-- Node1 -->
<g id="node1" class="node">
<title>Node1</title>
<g id="a_node1"><a xlink:title=" ">
<polygon fill="#999999" stroke="#666666" points="155.5,-30 23.5,-30 23.5,0 155.5,0 155.5,-30"/>
<text text-anchor="start" x="31.5" y="-18" font-family="Helvetica,sans-Serif" font-size="10.00">Sccg.Builtin.Sources.Vim</text>
<text text-anchor="middle" x="89.5" y="-7" font-family="Helvetica,sans-Serif" font-size="10.00">EditorHighlightSource.Item</text>
</a>
</g>
</g>
<!-- Node2 -->
<g id="node2" class="node">
<title>Node2</title>
<g id="a_node2"><a xlink:href="interfaceSccg_1_1Builtin_1_1Formatters_1_1IVimSourceItem.html" target="_top" xlink:title=" ">
<polygon fill="white" stroke="#666666" points="87,-96 0,-96 0,-77 87,-77 87,-96"/>
<text text-anchor="middle" x="43.5" y="-84" font-family="Helvetica,sans-Serif" font-size="10.00">IVimSourceItem</text>
</a>
</g>
</g>
<!-- Node2&#45;&gt;Node1 -->
<g id="edge1" class="edge">
<title>Node2&#45;&gt;Node1</title>
<path fill="none" stroke="#63b8ff" d="M55.62,-67.19C63.26,-55.64 72.98,-40.95 80.05,-30.27"/>
<polygon fill="#63b8ff" stroke="#63b8ff" points="52.76,-65.16 50.16,-75.44 58.6,-69.03 52.76,-65.16"/>
</g>
<!-- Node3 -->
<g id="node3" class="node">
<title>Node3</title>
<g id="a_node3"><a xlink:href="interfaceSccg_1_1Core_1_1ISourceItem.html" target="_top" xlink:title=" ">
<polygon fill="white" stroke="#666666" points="75.5,-152 5.5,-152 5.5,-133 75.5,-133 75.5,-152"/>
<text text-anchor="middle" x="40.5" y="-140" font-family="Helvetica,sans-Serif" font-size="10.00">ISourceItem</text>
</a>
</g>
</g>
<!-- Node3&#45;&gt;Node2 -->
<g id="edge2" class="edge">
<title>Node3&#45;&gt;Node2</title>
<path fill="none" stroke="#63b8ff" d="M41.63,-121.11C42.11,-112.52 42.64,-102.97 43.01,-96.25"/>
<polygon fill="#63b8ff" stroke="#63b8ff" points="38.14,-120.89 41.08,-131.07 45.13,-121.28 38.14,-120.89"/>
</g>
<!-- Node4 -->
<g id="node4" class="node">
<title>Node4</title>
<g id="a_node4"><a xlink:href="structSccg_1_1Style.html" target="_top" xlink:title=" ">
<polygon fill="white" stroke="#666666" points="173,-96 110,-96 110,-77 173,-77 173,-96"/>
<text text-anchor="middle" x="141.5" y="-84" font-family="Helvetica,sans-Serif" font-size="10.00">Sccg.Style</text>
</a>
</g>
</g>
<!-- Node4&#45;&gt;Node1 -->
<g id="edge3" class="edge">
<title>Node4&#45;&gt;Node1</title>
<path fill="none" stroke="#9a32cd" stroke-dasharray="5,2" d="M128.06,-67.54C119.38,-55.94 108.25,-41.06 100.18,-30.27"/>
<polygon fill="#9a32cd" stroke="#9a32cd" points="125.21,-69.58 134.01,-75.49 130.82,-65.38 125.21,-69.58"/>
<text text-anchor="middle" x="133" y="-51" font-family="Helvetica,sans-Serif" font-size="10.00"> Style</text>
</g>
<!-- Node5 -->
<g id="node5" class="node">
<title>Node5</title>
<g id="a_node5"><a xlink:title=" ">
<polygon fill="white" stroke="#666666" points="195,-152 94,-152 94,-133 195,-133 195,-152"/>
<text text-anchor="middle" x="144.5" y="-140" font-family="Helvetica,sans-Serif" font-size="10.00">IEquatable&lt; Style &gt;</text>
</a>
</g>
</g>
<!-- Node5&#45;&gt;Node4 -->
<g id="edge4" class="edge">
<title>Node5&#45;&gt;Node4</title>
<path fill="none" stroke="#63b8ff" d="M143.37,-121.11C142.89,-112.52 142.36,-102.97 141.99,-96.25"/>
<polygon fill="#63b8ff" stroke="#63b8ff" points="139.87,-121.28 143.92,-131.07 146.86,-120.89 139.87,-121.28"/>
</g>
</g>
</svg>
