<?xml version="1.0" encoding="UTF-8" standalone="no"?>
<!DOCTYPE svg PUBLIC "-//W3C//DTD SVG 1.1//EN"
 "http://www.w3.org/Graphics/SVG/1.1/DTD/svg11.dtd">
<!-- Generated by graphviz version 7.1.0 (20230121.1956)
 -->
<!-- Title: Sccg.Utility.SingeLinkGraph.CreateLink Pages: 1 -->
<svg width="307pt" height="86pt"
 viewBox="0.00 0.00 307.00 86.00" xmlns="http://www.w3.org/2000/svg" xmlns:xlink="http://www.w3.org/1999/xlink">
<g id="graph0" class="graph" transform="scale(1 1) rotate(0) translate(4 82)">
<title>Sccg.Utility.SingeLinkGraph.CreateLink</title>
<!-- Node1 -->
<g id="node1" class="node">
<title>Node1</title>
<g id="a_node1"><a xlink:title=" ">
<polygon fill="#999999" stroke="#666666" points="299,-54 159,-54 159,-24 299,-24 299,-54"/>
<text text-anchor="start" x="167" y="-42" font-family="Helvetica,sans-Serif" font-size="10.00">Sccg.Utility.SingeLinkGraph.</text>
<text text-anchor="middle" x="229" y="-31" font-family="Helvetica,sans-Serif" font-size="10.00">CreateLink</text>
</a>
</g>
</g>
<!-- Node2 -->
<g id="node2" class="node">
<title>Node2</title>
<g id="a_node2"><a xlink:href="classSccg_1_1Builtin_1_1Develop_1_1StdSourceImpl.html#a1ccc64c554e75fb1c62ef54a0148db6e" target="_top" xlink:title="Links the specified groups.">
<polygon fill="white" stroke="#666666" points="123,-78 0,-78 0,-48 123,-48 123,-78"/>
<text text-anchor="start" x="8" y="-66" font-family="Helvetica,sans-Serif" font-size="10.00">Sccg.Builtin.Develop.Std</text>
<text text-anchor="middle" x="61.5" y="-55" font-family="Helvetica,sans-Serif" font-size="10.00">SourceImpl.Link</text>
</a>
</g>
</g>
<!-- Node1&#45;&gt;Node2 -->
<g id="edge1" class="edge">
<title>Node1&#45;&gt;Node2</title>
<path fill="none" stroke="#63b8ff" d="M147.65,-50.65C139.45,-51.84 131.23,-53.03 123.29,-54.18"/>
<polygon fill="#63b8ff" stroke="#63b8ff" points="147.88,-54.16 157.27,-49.26 146.88,-47.23 147.88,-54.16"/>
</g>
<!-- Node3 -->
<g id="node3" class="node">
<title>Node3</title>
<g id="a_node3"><a xlink:href="classSccg_1_1Builtin_1_1Develop_1_1StdSourceImpl.html#a14f4f1215a4fdc41147383c232e9bc52" target="_top" xlink:title="Sets the style of the specified group.">
<polygon fill="white" stroke="#666666" points="123,-30 0,-30 0,0 123,0 123,-30"/>
<text text-anchor="start" x="8" y="-18" font-family="Helvetica,sans-Serif" font-size="10.00">Sccg.Builtin.Develop.Std</text>
<text text-anchor="middle" x="61.5" y="-7" font-family="Helvetica,sans-Serif" font-size="10.00">SourceImpl.Set</text>
</a>
</g>
</g>
<!-- Node1&#45;&gt;Node3 -->
<g id="edge2" class="edge">
<title>Node1&#45;&gt;Node3</title>
<path fill="none" stroke="#63b8ff" d="M147.65,-27.35C139.45,-26.16 131.23,-24.97 123.29,-23.82"/>
<polygon fill="#63b8ff" stroke="#63b8ff" points="146.88,-30.77 157.27,-28.74 147.88,-23.84 146.88,-30.77"/>
</g>
</g>
</svg>
