<?xml version="1.0" encoding="UTF-8" standalone="no"?>
<!DOCTYPE svg PUBLIC "-//W3C//DTD SVG 1.1//EN"
 "http://www.w3.org/Graphics/SVG/1.1/DTD/svg11.dtd">
<!-- Generated by graphviz version 7.1.0 (20230121.1956)
 -->
<!-- Title: Sccg.Builtin.Sources.VimSyntaxGroupSource.Item Pages: 1 -->
<svg width="262pt" height="203pt"
 viewBox="0.00 0.00 262.00 203.00" xmlns="http://www.w3.org/2000/svg" xmlns:xlink="http://www.w3.org/1999/xlink">
<g id="graph0" class="graph" transform="scale(1 1) rotate(0) translate(4 199)">
<title>Sccg.Builtin.Sources.VimSyntaxGroupSource.Item</title>
<!-- Node1 -->
<g id="node1" class="node">
<title>Node1</title>
<g id="a_node1"><a xlink:title="SourceItem for Vim/Neovim syntax group.">
<polygon fill="#999999" stroke="#666666" points="186,-30 60,-30 60,0 186,0 186,-30"/>
<text text-anchor="start" x="68" y="-18" font-family="Helvetica,sans-Serif" font-size="10.00">Sccg.Builtin.Sources.Vim</text>
<text text-anchor="middle" x="123" y="-7" font-family="Helvetica,sans-Serif" font-size="10.00">SyntaxGroupSource.Item</text>
</a>
</g>
</g>
<!-- Node2 -->
<g id="node2" class="node">
<title>Node2</title>
<g id="a_node2"><a xlink:href="interfaceSccg_1_1Builtin_1_1Formatters_1_1IVimSourceItem.html" target="_top" xlink:title="SourceItem for Vim color scheme.">
<polygon fill="white" stroke="#666666" points="109.5,-85 22.5,-85 22.5,-66 109.5,-66 109.5,-85"/>
<text text-anchor="middle" x="66" y="-73" font-family="Helvetica,sans-Serif" font-size="10.00">IVimSourceItem</text>
</a>
</g>
</g>
<!-- Node2&#45;&gt;Node1 -->
<g id="edge1" class="edge">
<title>Node2&#45;&gt;Node1</title>
<path fill="none" stroke="#63b8ff" d="M82.19,-57.88C90.73,-49.11 101.1,-38.48 109.25,-30.11"/>
<polygon fill="#63b8ff" stroke="#63b8ff" points="79.94,-55.18 75.47,-64.78 84.95,-60.06 79.94,-55.18"/>
</g>
<!-- Node3 -->
<g id="node3" class="node">
<title>Node3</title>
<g id="a_node3"><a xlink:href="interfaceSccg_1_1Builtin_1_1Sources_1_1Internal_1_1IVimSourceItemBase.html" target="_top" xlink:title="Base SourceItem for Vim.">
<polygon fill="white" stroke="#666666" points="110,-140 0,-140 0,-121 110,-121 110,-140"/>
<text text-anchor="middle" x="55" y="-128" font-family="Helvetica,sans-Serif" font-size="10.00">IVimSourceItemBase</text>
</a>
</g>
</g>
<!-- Node3&#45;&gt;Node2 -->
<g id="edge2" class="edge">
<title>Node3&#45;&gt;Node2</title>
<path fill="none" stroke="#63b8ff" d="M59.12,-109.64C60.85,-101.31 62.77,-92.05 64.14,-85.44"/>
<polygon fill="#63b8ff" stroke="#63b8ff" points="55.73,-108.76 57.12,-119.27 62.58,-110.19 55.73,-108.76"/>
</g>
<!-- Node4 -->
<g id="node4" class="node">
<title>Node4</title>
<g id="a_node4"><a xlink:href="interfaceSccg_1_1Core_1_1ISourceItem.html" target="_top" xlink:title="Represents a source item.">
<polygon fill="white" stroke="#666666" points="158,-195 88,-195 88,-176 158,-176 158,-195"/>
<text text-anchor="middle" x="123" y="-183" font-family="Helvetica,sans-Serif" font-size="10.00">ISourceItem</text>
</a>
</g>
</g>
<!-- Node4&#45;&gt;Node3 -->
<g id="edge3" class="edge">
<title>Node4&#45;&gt;Node3</title>
<path fill="none" stroke="#63b8ff" d="M102.65,-168.64C90.78,-159.39 76.24,-148.05 66.36,-140.36"/>
<polygon fill="#63b8ff" stroke="#63b8ff" points="100.23,-171.19 110.27,-174.58 104.54,-165.67 100.23,-171.19"/>
</g>
<!-- Node6 -->
<g id="node6" class="node">
<title>Node6</title>
<g id="a_node6"><a xlink:href="interfaceSccg_1_1Builtin_1_1Sources_1_1Internal_1_1INeovimSourceItemBase.html" target="_top" xlink:title="Base SourceItem for Neovim.">
<polygon fill="white" stroke="#666666" points="254,-140 128,-140 128,-121 254,-121 254,-140"/>
<text text-anchor="middle" x="191" y="-128" font-family="Helvetica,sans-Serif" font-size="10.00">INeovimSourceItemBase</text>
</a>
</g>
</g>
<!-- Node4&#45;&gt;Node6 -->
<g id="edge6" class="edge">
<title>Node4&#45;&gt;Node6</title>
<path fill="none" stroke="#63b8ff" d="M143.35,-168.64C155.22,-159.39 169.76,-148.05 179.64,-140.36"/>
<polygon fill="#63b8ff" stroke="#63b8ff" points="141.46,-165.67 135.73,-174.58 145.77,-171.19 141.46,-165.67"/>
</g>
<!-- Node5 -->
<g id="node5" class="node">
<title>Node5</title>
<g id="a_node5"><a xlink:href="interfaceSccg_1_1Builtin_1_1Formatters_1_1INeovimSourceItem.html" target="_top" xlink:title="SourceItem for Neovim color scheme.">
<polygon fill="white" stroke="#666666" points="237,-85 133,-85 133,-66 237,-66 237,-85"/>
<text text-anchor="middle" x="185" y="-73" font-family="Helvetica,sans-Serif" font-size="10.00">INeovimSourceItem</text>
</a>
</g>
</g>
<!-- Node5&#45;&gt;Node1 -->
<g id="edge4" class="edge">
<title>Node5&#45;&gt;Node1</title>
<path fill="none" stroke="#63b8ff" d="M167.23,-57.73C158.09,-49.11 147.06,-38.7 138.3,-30.44"/>
<polygon fill="#63b8ff" stroke="#63b8ff" points="164.81,-60.26 174.48,-64.58 169.61,-55.17 164.81,-60.26"/>
</g>
<!-- Node6&#45;&gt;Node5 -->
<g id="edge5" class="edge">
<title>Node6&#45;&gt;Node5</title>
<path fill="none" stroke="#63b8ff" d="M188.72,-109.35C187.78,-101.1 186.75,-91.97 186.01,-85.44"/>
<polygon fill="#63b8ff" stroke="#63b8ff" points="185.24,-109.7 189.84,-119.24 192.19,-108.91 185.24,-109.7"/>
</g>
</g>
</svg>
