<?xml version="1.0" encoding="UTF-8" standalone="no"?>
<!DOCTYPE svg PUBLIC "-//W3C//DTD SVG 1.1//EN"
 "http://www.w3.org/Graphics/SVG/1.1/DTD/svg11.dtd">
<!-- Generated by graphviz version 8.0.1 (20230327.1645)
 -->
<!-- Title: Sccg.Builtin.Sources.VimSyntaxGroupSource.Item Pages: 1 -->
<svg width="382pt" height="216pt"
 viewBox="0.00 0.00 381.50 216.00" xmlns="http://www.w3.org/2000/svg" xmlns:xlink="http://www.w3.org/1999/xlink">
<g id="graph0" class="graph" transform="scale(1 1) rotate(0) translate(4 212)">
<title>Sccg.Builtin.Sources.VimSyntaxGroupSource.Item</title>
<!-- Node1 -->
<g id="node1" class="node">
<title>Node1</title>
<g id="a_node1"><a xlink:title="SourceItem for Vim/Neovim syntax group.">
<polygon fill="#999999" stroke="#666666" points="254,-30 128,-30 128,0 254,0 254,-30"/>
<text text-anchor="start" x="136" y="-18" font-family="Helvetica,sans-Serif" font-size="10.00">Sccg.Builtin.Sources.Vim</text>
<text text-anchor="middle" x="191" y="-7" font-family="Helvetica,sans-Serif" font-size="10.00">SyntaxGroupSource.Item</text>
</a>
</g>
</g>
<!-- Node2 -->
<g id="node2" class="node">
<title>Node2</title>
<g id="a_node2"><a xlink:href="interfaceSccg_1_1Builtin_1_1Formatters_1_1IVimSourceItem.html" target="_top" xlink:title="SourceItem for Vim color scheme.">
<polygon fill="white" stroke="#666666" points="115.5,-96 28.5,-96 28.5,-77 115.5,-77 115.5,-96"/>
<text text-anchor="middle" x="72" y="-84" font-family="Helvetica,sans-Serif" font-size="10.00">IVimSourceItem</text>
</a>
</g>
</g>
<!-- Node2&#45;&gt;Node1 -->
<g id="edge1" class="edge">
<title>Node2&#45;&gt;Node1</title>
<path fill="none" stroke="#63b8ff" d="M96.36,-71.27C116.86,-59.3 146.04,-42.26 166.56,-30.27"/>
<polygon fill="#63b8ff" stroke="#63b8ff" points="94.94,-68.63 88.07,-76.7 98.47,-74.68 94.94,-68.63"/>
</g>
<!-- Node3 -->
<g id="node3" class="node">
<title>Node3</title>
<g id="a_node3"><a xlink:href="interfaceSccg_1_1Builtin_1_1Sources_1_1Internal_1_1IVimSourceItemBase.html" target="_top" xlink:title="Base SourceItem for Vim.">
<polygon fill="white" stroke="#666666" points="110,-152 0,-152 0,-133 110,-133 110,-152"/>
<text text-anchor="middle" x="55" y="-140" font-family="Helvetica,sans-Serif" font-size="10.00">IVimSourceItemBase</text>
</a>
</g>
</g>
<!-- Node3&#45;&gt;Node2 -->
<g id="edge2" class="edge">
<title>Node3&#45;&gt;Node2</title>
<path fill="none" stroke="#63b8ff" d="M61.04,-122.3C63.84,-113.41 67.03,-103.28 69.25,-96.25"/>
<polygon fill="#63b8ff" stroke="#63b8ff" points="57.47,-120.99 57.81,-131.58 64.15,-123.1 57.47,-120.99"/>
</g>
<!-- Node4 -->
<g id="node4" class="node">
<title>Node4</title>
<g id="a_node4"><a xlink:href="interfaceSccg_1_1Core_1_1ISourceItem.html" target="_top" xlink:title="Represents a source item.">
<polygon fill="white" stroke="#666666" points="157,-208 87,-208 87,-189 157,-189 157,-208"/>
<text text-anchor="middle" x="122" y="-196" font-family="Helvetica,sans-Serif" font-size="10.00">ISourceItem</text>
</a>
</g>
</g>
<!-- Node4&#45;&gt;Node3 -->
<g id="edge3" class="edge">
<title>Node4&#45;&gt;Node3</title>
<path fill="none" stroke="#63b8ff" d="M102.5,-181.79C90.57,-172.17 75.74,-160.22 65.86,-152.25"/>
<polygon fill="#63b8ff" stroke="#63b8ff" points="99.95,-185.03 109.94,-188.58 104.35,-179.58 99.95,-185.03"/>
</g>
<!-- Node6 -->
<g id="node6" class="node">
<title>Node6</title>
<g id="a_node6"><a xlink:href="interfaceSccg_1_1Builtin_1_1Sources_1_1Internal_1_1INeovimSourceItemBase.html" target="_top" xlink:title="Base SourceItem for Neovim.">
<polygon fill="white" stroke="#666666" points="254,-152 128,-152 128,-133 254,-133 254,-152"/>
<text text-anchor="middle" x="191" y="-140" font-family="Helvetica,sans-Serif" font-size="10.00">INeovimSourceItemBase</text>
</a>
</g>
</g>
<!-- Node4&#45;&gt;Node6 -->
<g id="edge6" class="edge">
<title>Node4&#45;&gt;Node6</title>
<path fill="none" stroke="#63b8ff" d="M141.72,-182.07C154.07,-172.4 169.54,-160.3 179.82,-152.25"/>
<polygon fill="#63b8ff" stroke="#63b8ff" points="140.11,-179.66 134.39,-188.58 144.43,-185.18 140.11,-179.66"/>
</g>
<!-- Node5 -->
<g id="node5" class="node">
<title>Node5</title>
<g id="a_node5"><a xlink:href="interfaceSccg_1_1Builtin_1_1Formatters_1_1INeovimSourceItem.html" target="_top" xlink:title="SourceItem for Neovim color scheme.">
<polygon fill="white" stroke="#666666" points="243,-96 139,-96 139,-77 243,-77 243,-96"/>
<text text-anchor="middle" x="191" y="-84" font-family="Helvetica,sans-Serif" font-size="10.00">INeovimSourceItem</text>
</a>
</g>
</g>
<!-- Node5&#45;&gt;Node1 -->
<g id="edge4" class="edge">
<title>Node5&#45;&gt;Node1</title>
<path fill="none" stroke="#63b8ff" d="M191,-65.76C191,-54.45 191,-40.52 191,-30.27"/>
<polygon fill="#63b8ff" stroke="#63b8ff" points="187.5,-65.7 191,-75.7 194.5,-65.7 187.5,-65.7"/>
</g>
<!-- Node6&#45;&gt;Node5 -->
<g id="edge5" class="edge">
<title>Node6&#45;&gt;Node5</title>
<path fill="none" stroke="#63b8ff" d="M191,-121.71C191,-112.96 191,-103.12 191,-96.25"/>
<polygon fill="#63b8ff" stroke="#63b8ff" points="187.5,-121.58 191,-131.58 194.5,-121.58 187.5,-121.58"/>
</g>
<!-- Node7 -->
<g id="node7" class="node">
<title>Node7</title>
<g id="a_node7"><a xlink:href="structSccg_1_1Style.html" target="_top" xlink:title="Represents a style of text.">
<polygon fill="white" stroke="#666666" points="339.5,-96 276.5,-96 276.5,-77 339.5,-77 339.5,-96"/>
<text text-anchor="middle" x="308" y="-84" font-family="Helvetica,sans-Serif" font-size="10.00">Sccg.Style</text>
</a>
</g>
</g>
<!-- Node7&#45;&gt;Node1 -->
<g id="edge7" class="edge">
<title>Node7&#45;&gt;Node1</title>
<path fill="none" stroke="#9a32cd" stroke-dasharray="5,2" d="M283.77,-71.11C263.63,-59.14 235.12,-42.21 215.03,-30.27"/>
<polygon fill="#9a32cd" stroke="#9a32cd" points="281.8,-74.6 292.18,-76.7 285.37,-68.58 281.8,-74.6"/>
<text text-anchor="middle" x="272.5" y="-51" font-family="Helvetica,sans-Serif" font-size="10.00"> Style</text>
</g>
<!-- Node8 -->
<g id="node8" class="node">
<title>Node8</title>
<g id="a_node8"><a xlink:title=" ">
<polygon fill="white" stroke="#666666" points="373.5,-152 272.5,-152 272.5,-133 373.5,-133 373.5,-152"/>
<text text-anchor="middle" x="323" y="-140" font-family="Helvetica,sans-Serif" font-size="10.00">IEquatable&lt; Style &gt;</text>
</a>
</g>
</g>
<!-- Node8&#45;&gt;Node7 -->
<g id="edge8" class="edge">
<title>Node8&#45;&gt;Node7</title>
<path fill="none" stroke="#63b8ff" d="M317.59,-122.01C315.13,-113.19 312.36,-103.2 310.43,-96.25"/>
<polygon fill="#63b8ff" stroke="#63b8ff" points="314.47,-122.88 320.52,-131.58 321.22,-121.01 314.47,-122.88"/>
</g>
</g>
</svg>
