<?xml version="1.0" encoding="UTF-8" standalone="no"?>
<!DOCTYPE svg PUBLIC "-//W3C//DTD SVG 1.1//EN"
 "http://www.w3.org/Graphics/SVG/1.1/DTD/svg11.dtd">
<!-- Generated by graphviz version 7.1.0 (20230121.1956)
 -->
<!-- Title: Sccg.Builtin.Develop.StdSourceImpl.Set Pages: 1 -->
<svg width="312pt" height="94pt"
 viewBox="0.00 0.00 312.00 93.50" xmlns="http://www.w3.org/2000/svg" xmlns:xlink="http://www.w3.org/1999/xlink">
<g id="graph0" class="graph" transform="scale(1 1) rotate(0) translate(4 89.5)">
<title>Sccg.Builtin.Develop.StdSourceImpl.Set</title>
<!-- Node1 -->
<g id="node1" class="node">
<title>Node1</title>
<g id="a_node1"><a xlink:title="Sets the style of the specified group.">
<polygon fill="#999999" stroke="#666666" points="123,-54.5 0,-54.5 0,-24.5 123,-24.5 123,-54.5"/>
<text text-anchor="start" x="8" y="-42.5" font-family="Helvetica,sans-Serif" font-size="10.00">Sccg.Builtin.Develop.Std</text>
<text text-anchor="middle" x="61.5" y="-31.5" font-family="Helvetica,sans-Serif" font-size="10.00">SourceImpl.Set</text>
</a>
</g>
</g>
<!-- Node2 -->
<g id="node2" class="node">
<title>Node2</title>
<g id="a_node2"><a xlink:href="classSccg_1_1Utility_1_1SingeLinkGraph.html#aa9117b90b8e20cb87a0f3a004641976e" target="_top" xlink:title="Create a link from from to to.">
<polygon fill="white" stroke="#666666" points="301.5,-85.5 161.5,-85.5 161.5,-55.5 301.5,-55.5 301.5,-85.5"/>
<text text-anchor="start" x="169.5" y="-73.5" font-family="Helvetica,sans-Serif" font-size="10.00">Sccg.Utility.SingeLinkGraph.</text>
<text text-anchor="middle" x="231.5" y="-62.5" font-family="Helvetica,sans-Serif" font-size="10.00">CreateLink</text>
</a>
</g>
</g>
<!-- Node1&#45;&gt;Node2 -->
<g id="edge1" class="edge">
<title>Node1&#45;&gt;Node2</title>
<path fill="none" stroke="#63b8ff" d="M123.15,-50.69C131.81,-52.29 140.83,-53.95 149.79,-55.61"/>
<polygon fill="#63b8ff" stroke="#63b8ff" points="149.13,-59.05 159.6,-57.42 150.4,-52.16 149.13,-59.05"/>
</g>
<!-- Node3 -->
<g id="node3" class="node">
<title>Node3</title>
<g id="a_node3"><a xlink:href="classSccg_1_1Utility_1_1ObjectStore.html#a06da64733dd49f82e10804407346c6ef" target="_top" xlink:title="Save data to store then return the id.">
<polygon fill="white" stroke="#666666" points="304,-19 159,-19 159,0 304,0 304,-19"/>
<text text-anchor="middle" x="231.5" y="-7" font-family="Helvetica,sans-Serif" font-size="10.00">Sccg.Utility.ObjectStore.Save</text>
</a>
</g>
</g>
<!-- Node1&#45;&gt;Node3 -->
<g id="edge2" class="edge">
<title>Node1&#45;&gt;Node3</title>
<path fill="none" stroke="#63b8ff" d="M123.15,-28.67C136.3,-26.32 150.27,-23.83 163.63,-21.44"/>
<polygon fill="#63b8ff" stroke="#63b8ff" points="163.97,-24.94 173.2,-19.73 162.74,-18.04 163.97,-24.94"/>
</g>
<!-- Node3&#45;&gt;Node3 -->
<g id="edge3" class="edge">
<title>Node3&#45;&gt;Node3</title>
<path fill="none" stroke="#63b8ff" d="M204.89,-19.37C192.75,-27.94 201.62,-37 231.5,-37 248.31,-37 258.47,-34.13 261.98,-30.1"/>
<polygon fill="#63b8ff" stroke="#63b8ff" points="265.31,-29.01 258.63,-20.79 258.73,-31.39 265.31,-29.01"/>
</g>
</g>
</svg>
