<?xml version="1.0" encoding="UTF-8" standalone="no"?>
<!DOCTYPE svg PUBLIC "-//W3C//DTD SVG 1.1//EN"
 "http://www.w3.org/Graphics/SVG/1.1/DTD/svg11.dtd">
<!-- Generated by graphviz version 8.0.1 (20230327.1645)
 -->
<!-- Title: Sccg.Builtin.Develop.StdSourceImpl&lt; TGroup &gt; Pages: 1 -->
<svg width="284pt" height="104pt"
 viewBox="0.00 0.00 284.00 104.00" xmlns="http://www.w3.org/2000/svg" xmlns:xlink="http://www.w3.org/1999/xlink">
<g id="graph0" class="graph" transform="scale(1 1) rotate(0) translate(4 100)">
<title>Sccg.Builtin.Develop.StdSourceImpl&lt; TGroup &gt;</title>
<!-- Node1 -->
<g id="node1" class="node">
<title>Node1</title>
<g id="a_node1"><a xlink:title="A standard implementation of ISource.">
<polygon fill="#999999" stroke="#666666" points="194.5,-30 71.5,-30 71.5,0 194.5,0 194.5,-30"/>
<text text-anchor="start" x="79.5" y="-18" font-family="Helvetica,sans-Serif" font-size="10.00">Sccg.Builtin.Develop.Std</text>
<text text-anchor="middle" x="133" y="-7" font-family="Helvetica,sans-Serif" font-size="10.00">SourceImpl&lt; TGroup &gt;</text>
</a>
</g>
</g>
<!-- Node2 -->
<g id="node2" class="node">
<title>Node2</title>
<g id="a_node2"><a xlink:href="classSccg_1_1Utility_1_1ObjectStore.html" target="_top" xlink:title="A simple object store.">
<polygon fill="white" stroke="#666666" points="120,-96 0,-96 0,-77 120,-77 120,-96"/>
<text text-anchor="middle" x="60" y="-84" font-family="Helvetica,sans-Serif" font-size="10.00">Sccg.Utility.ObjectStore</text>
</a>
</g>
</g>
<!-- Node2&#45;&gt;Node1 -->
<g id="edge1" class="edge">
<title>Node2&#45;&gt;Node1</title>
<path fill="none" stroke="#9a32cd" stroke-dasharray="5,2" d="M77.05,-69.27C89.46,-57.45 106.1,-41.61 118.01,-30.27"/>
<polygon fill="#9a32cd" stroke="#9a32cd" points="75.07,-66.27 70.25,-75.7 79.9,-71.34 75.07,-66.27"/>
<text text-anchor="middle" x="112" y="-51" font-family="Helvetica,sans-Serif" font-size="10.00"> Store</text>
</g>
<!-- Node3 -->
<g id="node3" class="node">
<title>Node3</title>
<g id="a_node3"><a xlink:href="classSccg_1_1Utility_1_1SingeLinkGraph.html" target="_top" xlink:title="Represents a graph that out&#45;degree is 1, in&#45;degree is n.">
<polygon fill="white" stroke="#666666" points="276,-96 138,-96 138,-77 276,-77 276,-96"/>
<text text-anchor="middle" x="207" y="-84" font-family="Helvetica,sans-Serif" font-size="10.00">Sccg.Utility.SingeLinkGraph</text>
</a>
</g>
</g>
<!-- Node3&#45;&gt;Node1 -->
<g id="edge2" class="edge">
<title>Node3&#45;&gt;Node1</title>
<path fill="none" stroke="#9a32cd" stroke-dasharray="5,2" d="M189.72,-69.27C177.14,-57.45 160.26,-41.61 148.2,-30.27"/>
<polygon fill="#9a32cd" stroke="#9a32cd" points="186.94,-71.4 196.63,-75.7 191.73,-66.3 186.94,-71.4"/>
<text text-anchor="middle" x="190.5" y="-51" font-family="Helvetica,sans-Serif" font-size="10.00"> Graph</text>
</g>
</g>
</svg>
