<?xml version="1.0" encoding="UTF-8" standalone="no"?>
<!DOCTYPE svg PUBLIC "-//W3C//DTD SVG 1.1//EN"
 "http://www.w3.org/Graphics/SVG/1.1/DTD/svg11.dtd">
<!-- Generated by graphviz version 2.43.0 (0)
 -->
<!-- Title: ObjectStore.Save Pages: 1 -->
<svg width="255pt" height="66pt"
 viewBox="0.00 0.00 255.00 66.00" xmlns="http://www.w3.org/2000/svg" xmlns:xlink="http://www.w3.org/1999/xlink">
<g id="graph0" class="graph" transform="scale(1 1) rotate(0) translate(4 62)">
<title>ObjectStore.Save</title>
<polygon fill="white" stroke="transparent" points="-4,4 -4,-62 251,-62 251,4 -4,4"/>
<!-- Node1 -->
<g id="node1" class="node">
<title>Node1</title>
<g id="a_node1"><a xlink:title=" ">
<polygon fill="#bfbfbf" stroke="black" points="146,-19.5 146,-38.5 247,-38.5 247,-19.5 146,-19.5"/>
<text text-anchor="middle" x="196.5" y="-26.5" font-family="Helvetica,sans-Serif" font-size="10.00">ObjectStore.Save</text>
</a>
</g>
</g>
<!-- Node2 -->
<g id="node2" class="node">
<title>Node2</title>
<g id="a_node2"><a xlink:href="classStdSourceImpl.html#a68cfdb93df71630e59d377063f0ec31e" target="_top" xlink:title=" ">
<polygon fill="white" stroke="black" points="0,-38.5 0,-57.5 110,-57.5 110,-38.5 0,-38.5"/>
<text text-anchor="middle" x="55" y="-45.5" font-family="Helvetica,sans-Serif" font-size="10.00">StdSourceImpl.Link</text>
</a>
</g>
</g>
<!-- Node1&#45;&gt;Node2 -->
<g id="edge1" class="edge">
<title>Node1&#45;&gt;Node2</title>
<path fill="none" stroke="midnightblue" d="M135.98,-37.11C127.41,-38.27 118.62,-39.47 110.15,-40.62"/>
<polygon fill="midnightblue" stroke="midnightblue" points="136.49,-40.57 145.92,-35.75 135.54,-33.63 136.49,-40.57"/>
</g>
<!-- Node3 -->
<g id="node3" class="node">
<title>Node3</title>
<g id="a_node3"><a xlink:href="classStdSourceImpl.html#a43444fe8a931458960b97034bb553b0f" target="_top" xlink:title=" ">
<polygon fill="white" stroke="black" points="2,-0.5 2,-19.5 108,-19.5 108,-0.5 2,-0.5"/>
<text text-anchor="middle" x="55" y="-7.5" font-family="Helvetica,sans-Serif" font-size="10.00">StdSourceImpl.Set</text>
</a>
</g>
</g>
<!-- Node1&#45;&gt;Node3 -->
<g id="edge2" class="edge">
<title>Node1&#45;&gt;Node3</title>
<path fill="none" stroke="midnightblue" d="M135.73,-20.86C126.59,-19.61 117.21,-18.34 108.25,-17.12"/>
<polygon fill="midnightblue" stroke="midnightblue" points="135.54,-24.37 145.92,-22.25 136.49,-17.43 135.54,-24.37"/>
</g>
</g>
</svg>
