<?xml version="1.0" encoding="UTF-8" standalone="no"?>
<!DOCTYPE svg PUBLIC "-//W3C//DTD SVG 1.1//EN"
 "http://www.w3.org/Graphics/SVG/1.1/DTD/svg11.dtd">
<!-- Generated by graphviz version 8.0.1 (20230327.1645)
 -->
<!-- Title: Sccg.Utility.ObjectStore.Save Pages: 1 -->
<svg width="312pt" height="86pt"
 viewBox="0.00 0.00 312.00 86.00" xmlns="http://www.w3.org/2000/svg" xmlns:xlink="http://www.w3.org/1999/xlink">
<g id="graph0" class="graph" transform="scale(1 1) rotate(0) translate(4 82)">
<title>Sccg.Utility.ObjectStore.Save</title>
<!-- Node1 -->
<g id="node1" class="node">
<title>Node1</title>
<g id="a_node1"><a xlink:title="Save data to store then return the id.">
<polygon fill="#999999" stroke="#666666" points="304,-48.5 159,-48.5 159,-29.5 304,-29.5 304,-48.5"/>
<text text-anchor="middle" x="231.5" y="-36.5" font-family="Helvetica,sans-Serif" font-size="10.00">Sccg.Utility.ObjectStore.Save</text>
</a>
</g>
</g>
<!-- Node1&#45;&gt;Node1 -->
<g id="edge2" class="edge">
<title>Node1&#45;&gt;Node1</title>
<path fill="none" stroke="#63b8ff" d="M262.51,-58.92C259.58,-63.3 249.24,-66.5 231.5,-66.5 201.62,-66.5 192.75,-57.44 204.89,-48.87"/>
<polygon fill="#63b8ff" stroke="#63b8ff" points="265.33,-57.63 258.11,-49.87 258.91,-60.43 265.33,-57.63"/>
</g>
<!-- Node2 -->
<g id="node2" class="node">
<title>Node2</title>
<g id="a_node2"><a xlink:href="classSccg_1_1Builtin_1_1Develop_1_1StdSourceImpl.html#a1ccc64c554e75fb1c62ef54a0148db6e" target="_top" xlink:title="Links the specified groups.">
<polygon fill="white" stroke="#666666" points="123,-78 0,-78 0,-48 123,-48 123,-78"/>
<text text-anchor="start" x="8" y="-66" font-family="Helvetica,sans-Serif" font-size="10.00">Sccg.Builtin.Develop.Std</text>
<text text-anchor="middle" x="61.5" y="-55" font-family="Helvetica,sans-Serif" font-size="10.00">SourceImpl.Link</text>
</a>
</g>
</g>
<!-- Node1&#45;&gt;Node2 -->
<g id="edge1" class="edge">
<title>Node1&#45;&gt;Node2</title>
<path fill="none" stroke="#63b8ff" d="M149.84,-50.52C140.89,-51.8 131.89,-53.09 123.24,-54.32"/>
<polygon fill="#63b8ff" stroke="#63b8ff" points="150.31,-53.85 159.71,-48.97 149.32,-46.92 150.31,-53.85"/>
</g>
<!-- Node3 -->
<g id="node3" class="node">
<title>Node3</title>
<g id="a_node3"><a xlink:href="classSccg_1_1Builtin_1_1Develop_1_1StdSourceImpl.html#a14f4f1215a4fdc41147383c232e9bc52" target="_top" xlink:title="Sets the style of the specified group.">
<polygon fill="white" stroke="#666666" points="123,-30 0,-30 0,0 123,0 123,-30"/>
<text text-anchor="start" x="8" y="-18" font-family="Helvetica,sans-Serif" font-size="10.00">Sccg.Builtin.Develop.Std</text>
<text text-anchor="middle" x="61.5" y="-7" font-family="Helvetica,sans-Serif" font-size="10.00">SourceImpl.Set</text>
</a>
</g>
</g>
<!-- Node1&#45;&gt;Node3 -->
<g id="edge3" class="edge">
<title>Node1&#45;&gt;Node3</title>
<path fill="none" stroke="#63b8ff" d="M149.84,-27.48C140.89,-26.2 131.89,-24.91 123.24,-23.68"/>
<polygon fill="#63b8ff" stroke="#63b8ff" points="149.32,-31.08 159.71,-29.03 150.31,-24.15 149.32,-31.08"/>
</g>
</g>
</svg>
