<?xml version="1.0" encoding="UTF-8" standalone="no"?>
<!DOCTYPE svg PUBLIC "-//W3C//DTD SVG 1.1//EN"
 "http://www.w3.org/Graphics/SVG/1.1/DTD/svg11.dtd">
<!-- Generated by graphviz version 7.1.0 (20230121.1956)
 -->
<!-- Title: Sccg.Builtin.Sources.NeovimLspDiagnosticHighlightSource.Item Pages: 1 -->
<svg width="254pt" height="216pt"
 viewBox="0.00 0.00 253.50 216.00" xmlns="http://www.w3.org/2000/svg" xmlns:xlink="http://www.w3.org/1999/xlink">
<g id="graph0" class="graph" transform="scale(1 1) rotate(0) translate(4 212)">
<title>Sccg.Builtin.Sources.NeovimLspDiagnosticHighlightSource.Item</title>
<!-- Node1 -->
<g id="node1" class="node">
<title>Node1</title>
<g id="a_node1"><a xlink:title=" ">
<polygon fill="#999999" stroke="#666666" points="217,-30 47,-30 47,0 217,0 217,-30"/>
<text text-anchor="start" x="55" y="-18" font-family="Helvetica,sans-Serif" font-size="10.00">Sccg.Builtin.Sources.Neovim</text>
<text text-anchor="middle" x="132" y="-7" font-family="Helvetica,sans-Serif" font-size="10.00">LspDiagnosticHighlightSource.Item</text>
</a>
</g>
</g>
<!-- Node2 -->
<g id="node2" class="node">
<title>Node2</title>
<g id="a_node2"><a xlink:href="interfaceSccg_1_1Builtin_1_1Formatters_1_1INeovimSourceItem.html" target="_top" xlink:title=" ">
<polygon fill="white" stroke="#666666" points="134,-96 30,-96 30,-77 134,-77 134,-96"/>
<text text-anchor="middle" x="82" y="-84" font-family="Helvetica,sans-Serif" font-size="10.00">INeovimSourceItem</text>
</a>
</g>
</g>
<!-- Node2&#45;&gt;Node1 -->
<g id="edge1" class="edge">
<title>Node2&#45;&gt;Node1</title>
<path fill="none" stroke="#63b8ff" d="M94.92,-67.54C103.27,-55.94 113.97,-41.06 121.73,-30.27"/>
<polygon fill="#63b8ff" stroke="#63b8ff" points="92.22,-65.31 89.22,-75.47 97.9,-69.4 92.22,-65.31"/>
</g>
<!-- Node3 -->
<g id="node3" class="node">
<title>Node3</title>
<g id="a_node3"><a xlink:href="interfaceSccg_1_1Builtin_1_1Sources_1_1Internal_1_1INeovimSourceItemBase.html" target="_top" xlink:title=" ">
<polygon fill="white" stroke="#666666" points="126,-152 0,-152 0,-133 126,-133 126,-152"/>
<text text-anchor="middle" x="63" y="-140" font-family="Helvetica,sans-Serif" font-size="10.00">INeovimSourceItemBase</text>
</a>
</g>
</g>
<!-- Node3&#45;&gt;Node2 -->
<g id="edge2" class="edge">
<title>Node3&#45;&gt;Node2</title>
<path fill="none" stroke="#63b8ff" d="M69.86,-122.01C72.96,-113.19 76.48,-103.2 78.92,-96.25"/>
<polygon fill="#63b8ff" stroke="#63b8ff" points="66.66,-120.56 66.64,-131.16 73.26,-122.88 66.66,-120.56"/>
</g>
<!-- Node4 -->
<g id="node4" class="node">
<title>Node4</title>
<g id="a_node4"><a xlink:href="interfaceSccg_1_1Core_1_1ISourceItem.html" target="_top" xlink:title=" ">
<polygon fill="white" stroke="#666666" points="98,-208 28,-208 28,-189 98,-189 98,-208"/>
<text text-anchor="middle" x="63" y="-196" font-family="Helvetica,sans-Serif" font-size="10.00">ISourceItem</text>
</a>
</g>
</g>
<!-- Node4&#45;&gt;Node3 -->
<g id="edge3" class="edge">
<title>Node4&#45;&gt;Node3</title>
<path fill="none" stroke="#63b8ff" d="M63,-177.11C63,-168.52 63,-158.97 63,-152.25"/>
<polygon fill="#63b8ff" stroke="#63b8ff" points="59.5,-177.07 63,-187.07 66.5,-177.07 59.5,-177.07"/>
</g>
<!-- Node5 -->
<g id="node5" class="node">
<title>Node5</title>
<g id="a_node5"><a xlink:href="structSccg_1_1Style.html" target="_top" xlink:title=" ">
<polygon fill="white" stroke="#666666" points="222.5,-96 159.5,-96 159.5,-77 222.5,-77 222.5,-96"/>
<text text-anchor="middle" x="191" y="-84" font-family="Helvetica,sans-Serif" font-size="10.00">Sccg.Style</text>
</a>
</g>
</g>
<!-- Node5&#45;&gt;Node1 -->
<g id="edge4" class="edge">
<title>Node5&#45;&gt;Node1</title>
<path fill="none" stroke="#9a32cd" stroke-dasharray="5,2" d="M176.34,-68.24C166.42,-56.54 153.46,-41.28 144.12,-30.27"/>
<polygon fill="#9a32cd" stroke="#9a32cd" points="173.41,-70.19 182.55,-75.54 178.74,-65.66 173.41,-70.19"/>
<text text-anchor="middle" x="179.5" y="-51" font-family="Helvetica,sans-Serif" font-size="10.00"> Style</text>
</g>
<!-- Node6 -->
<g id="node6" class="node">
<title>Node6</title>
<g id="a_node6"><a xlink:title=" ">
<polygon fill="white" stroke="#666666" points="245.5,-152 144.5,-152 144.5,-133 245.5,-133 245.5,-152"/>
<text text-anchor="middle" x="195" y="-140" font-family="Helvetica,sans-Serif" font-size="10.00">IEquatable&lt; Style &gt;</text>
</a>
</g>
</g>
<!-- Node6&#45;&gt;Node5 -->
<g id="edge5" class="edge">
<title>Node6&#45;&gt;Node5</title>
<path fill="none" stroke="#63b8ff" d="M193.49,-121.11C192.85,-112.52 192.15,-102.97 191.65,-96.25"/>
<polygon fill="#63b8ff" stroke="#63b8ff" points="190,-121.36 194.23,-131.07 196.98,-120.84 190,-121.36"/>
</g>
</g>
</svg>
