<?xml version="1.0" encoding="UTF-8" standalone="no"?>
<!DOCTYPE svg PUBLIC "-//W3C//DTD SVG 1.1//EN"
 "http://www.w3.org/Graphics/SVG/1.1/DTD/svg11.dtd">
<!-- Generated by graphviz version 2.43.0 (0)
 -->
<!-- Title: NeovimFormatter.Format Pages: 1 -->
<svg width="338pt" height="66pt"
 viewBox="0.00 0.00 338.00 66.00" xmlns="http://www.w3.org/2000/svg" xmlns:xlink="http://www.w3.org/1999/xlink">
<g id="graph0" class="graph" transform="scale(1 1) rotate(0) translate(4 62)">
<title>NeovimFormatter.Format</title>
<polygon fill="white" stroke="transparent" points="-4,4 -4,-62 334,-62 334,4 -4,4"/>
<!-- Node1 -->
<g id="node1" class="node">
<title>Node1</title>
<g id="a_node1"><a xlink:title=" ">
<polygon fill="#bfbfbf" stroke="black" points="0,-19.5 0,-38.5 140,-38.5 140,-19.5 0,-19.5"/>
<text text-anchor="middle" x="70" y="-26.5" font-family="Helvetica,sans-Serif" font-size="10.00">NeovimFormatter.Format</text>
</a>
</g>
</g>
<!-- Node2 -->
<g id="node2" class="node">
<title>Node2</title>
<g id="a_node2"><a xlink:href="classVimFormatter.html#af8b1562997d81236df6db2850b94a29b" target="_top" xlink:title=" ">
<polygon fill="white" stroke="black" points="176,-38.5 176,-57.5 330,-57.5 330,-38.5 176,-38.5"/>
<text text-anchor="middle" x="253" y="-45.5" font-family="Helvetica,sans-Serif" font-size="10.00">VimFormatter.CreateAttrList</text>
</a>
</g>
</g>
<!-- Node1&#45;&gt;Node2 -->
<g id="edge1" class="edge">
<title>Node1&#45;&gt;Node2</title>
<path fill="none" stroke="midnightblue" d="M140.2,-36.26C148.6,-37.15 157.25,-38.05 165.85,-38.96"/>
<polygon fill="midnightblue" stroke="midnightblue" points="165.59,-42.45 175.9,-40.01 166.32,-35.49 165.59,-42.45"/>
</g>
<!-- Node3 -->
<g id="node3" class="node">
<title>Node3</title>
<g id="a_node3"><a xlink:href="classBuilderQuery.html#ad0153aa7f0e3afa11f726f509f84adaa" target="_top" xlink:title="TODO: doc">
<polygon fill="white" stroke="black" points="180,-0.5 180,-19.5 326,-19.5 326,-0.5 180,-0.5"/>
<text text-anchor="middle" x="253" y="-7.5" font-family="Helvetica,sans-Serif" font-size="10.00">BuilderQuery.GetMetadata</text>
</a>
</g>
</g>
<!-- Node1&#45;&gt;Node3 -->
<g id="edge2" class="edge">
<title>Node1&#45;&gt;Node3</title>
<path fill="none" stroke="midnightblue" d="M140.2,-21.74C149.83,-20.72 159.8,-19.68 169.64,-18.65"/>
<polygon fill="midnightblue" stroke="midnightblue" points="170.25,-22.1 179.83,-17.58 169.52,-15.14 170.25,-22.1"/>
</g>
</g>
</svg>
