<?xml version="1.0" encoding="UTF-8" standalone="no"?>
<!DOCTYPE svg PUBLIC "-//W3C//DTD SVG 1.1//EN"
 "http://www.w3.org/Graphics/SVG/1.1/DTD/svg11.dtd">
<!-- Generated by graphviz version 8.0.1 (20230327.1645)
 -->
<!-- Title: Sccg.Builtin.Sources.VSCodeEditorThemeColorSource.Item Pages: 1 -->
<svg width="154pt" height="203pt"
 viewBox="0.00 0.00 154.00 203.00" xmlns="http://www.w3.org/2000/svg" xmlns:xlink="http://www.w3.org/1999/xlink">
<g id="graph0" class="graph" transform="scale(1 1) rotate(0) translate(4 199)">
<title>Sccg.Builtin.Sources.VSCodeEditorThemeColorSource.Item</title>
<!-- Node1 -->
<g id="node1" class="node">
<title>Node1</title>
<g id="a_node1"><a xlink:title="SourceItem for VSCode editor theme color.">
<polygon fill="#999999" stroke="#666666" points="146,-30 0,-30 0,0 146,0 146,-30"/>
<text text-anchor="start" x="8" y="-18" font-family="Helvetica,sans-Serif" font-size="10.00">Sccg.Builtin.Sources.VSCode</text>
<text text-anchor="middle" x="73" y="-7" font-family="Helvetica,sans-Serif" font-size="10.00">EditorThemeColorSource.Item</text>
</a>
</g>
</g>
<!-- Node2 -->
<g id="node2" class="node">
<title>Node2</title>
<g id="a_node2"><a xlink:href="interfaceSccg_1_1Builtin_1_1Formatters_1_1IVSCodeColorSourceItem.html" target="_top" xlink:title="SourceItem for VSCode color theme json (colors).">
<polygon fill="white" stroke="#666666" points="137,-85 9,-85 9,-66 137,-66 137,-85"/>
<text text-anchor="middle" x="73" y="-73" font-family="Helvetica,sans-Serif" font-size="10.00">IVSCodeColorSourceItem</text>
</a>
</g>
</g>
<!-- Node2&#45;&gt;Node1 -->
<g id="edge1" class="edge">
<title>Node2&#45;&gt;Node1</title>
<path fill="none" stroke="#63b8ff" d="M73,-55.08C73,-46.92 73,-37.6 73,-30.11"/>
<polygon fill="#63b8ff" stroke="#63b8ff" points="69.5,-54.87 73,-64.87 76.5,-54.87 69.5,-54.87"/>
</g>
<!-- Node3 -->
<g id="node3" class="node">
<title>Node3</title>
<g id="a_node3"><a xlink:href="interfaceSccg_1_1Builtin_1_1Sources_1_1Internal_1_1IVSCodeSourceItemBase.html" target="_top" xlink:title="Base SourceItem for VSCode.">
<polygon fill="white" stroke="#666666" points="137,-140 9,-140 9,-121 137,-121 137,-140"/>
<text text-anchor="middle" x="73" y="-128" font-family="Helvetica,sans-Serif" font-size="10.00">IVSCodeSourceItemBase</text>
</a>
</g>
</g>
<!-- Node3&#45;&gt;Node2 -->
<g id="edge2" class="edge">
<title>Node3&#45;&gt;Node2</title>
<path fill="none" stroke="#63b8ff" d="M73,-109.93C73,-101.53 73,-92.13 73,-85.44"/>
<polygon fill="#63b8ff" stroke="#63b8ff" points="69.5,-109.75 73,-119.75 76.5,-109.75 69.5,-109.75"/>
</g>
<!-- Node4 -->
<g id="node4" class="node">
<title>Node4</title>
<g id="a_node4"><a xlink:href="interfaceSccg_1_1Core_1_1ISourceItem.html" target="_top" xlink:title="Represents a source item.">
<polygon fill="white" stroke="#666666" points="108,-195 38,-195 38,-176 108,-176 108,-195"/>
<text text-anchor="middle" x="73" y="-183" font-family="Helvetica,sans-Serif" font-size="10.00">ISourceItem</text>
</a>
</g>
</g>
<!-- Node4&#45;&gt;Node3 -->
<g id="edge3" class="edge">
<title>Node4&#45;&gt;Node3</title>
<path fill="none" stroke="#63b8ff" d="M73,-164.93C73,-156.53 73,-147.13 73,-140.44"/>
<polygon fill="#63b8ff" stroke="#63b8ff" points="69.5,-164.75 73,-174.75 76.5,-164.75 69.5,-164.75"/>
</g>
</g>
</svg>
