<?xml version="1.0" encoding="UTF-8" standalone="no"?>
<!DOCTYPE svg PUBLIC "-//W3C//DTD SVG 1.1//EN"
 "http://www.w3.org/Graphics/SVG/1.1/DTD/svg11.dtd">
<!-- Generated by graphviz version 7.0.5 (20221223.1930)
 -->
<!-- Title: StdSourceImpl&lt; TGroup &gt; Pages: 1 -->
<svg width="180pt" height="93pt"
 viewBox="0.00 0.00 180.00 93.00" xmlns="http://www.w3.org/2000/svg" xmlns:xlink="http://www.w3.org/1999/xlink">
<g id="graph0" class="graph" transform="scale(1 1) rotate(0) translate(4 89)">
<title>StdSourceImpl&lt; TGroup &gt;</title>
<!-- Node1 -->
<g id="node1" class="node">
<title>Node1</title>
<g id="a_node1"><a xlink:title=" ">
<polygon fill="#999999" stroke="#666666" points="146,-19 16,-19 16,0 146,0 146,-19"/>
<text text-anchor="middle" x="81" y="-7" font-family="Helvetica,sans-Serif" font-size="10.00">StdSourceImpl&lt; TGroup &gt;</text>
</a>
</g>
</g>
<!-- Node2 -->
<g id="node2" class="node">
<title>Node2</title>
<g id="a_node2"><a xlink:href="classObjectStore.html" target="_top" xlink:title=" ">
<polygon fill="white" stroke="#666666" points="68,-85 0,-85 0,-66 68,-66 68,-85"/>
<text text-anchor="middle" x="34" y="-73" font-family="Helvetica,sans-Serif" font-size="10.00">ObjectStore</text>
</a>
</g>
</g>
<!-- Node2&#45;&gt;Node1 -->
<g id="edge1" class="edge">
<title>Node2&#45;&gt;Node1</title>
<path fill="none" stroke="#9a32cd" stroke-dasharray="5,2" d="M47.3,-56.4C56.2,-44.27 67.53,-28.84 74.52,-19.32"/>
<polygon fill="#9a32cd" stroke="#9a32cd" points="44.53,-54.25 41.43,-64.38 50.17,-58.39 44.53,-54.25"/>
<text text-anchor="middle" x="74" y="-40" font-family="Helvetica,sans-Serif" font-size="10.00"> Store</text>
</g>
<!-- Node3 -->
<g id="node3" class="node">
<title>Node3</title>
<g id="a_node3"><a xlink:href="classSingeLinkGraph.html" target="_top" xlink:title=" ">
<polygon fill="white" stroke="#666666" points="172,-85 86,-85 86,-66 172,-66 172,-85"/>
<text text-anchor="middle" x="129" y="-73" font-family="Helvetica,sans-Serif" font-size="10.00">SingeLinkGraph</text>
</a>
</g>
</g>
<!-- Node3&#45;&gt;Node1 -->
<g id="edge2" class="edge">
<title>Node3&#45;&gt;Node1</title>
<path fill="none" stroke="#9a32cd" stroke-dasharray="5,2" d="M115.42,-56.4C106.33,-44.27 94.76,-28.84 87.62,-19.32"/>
<polygon fill="#9a32cd" stroke="#9a32cd" points="112.62,-58.49 121.42,-64.39 118.22,-54.29 112.62,-58.49"/>
<text text-anchor="middle" x="121.5" y="-40" font-family="Helvetica,sans-Serif" font-size="10.00"> Graph</text>
</g>
</g>
</svg>
