<?xml version="1.0" encoding="UTF-8" standalone="no"?>
<!DOCTYPE svg PUBLIC "-//W3C//DTD SVG 1.1//EN"
 "http://www.w3.org/Graphics/SVG/1.1/DTD/svg11.dtd">
<!-- Generated by graphviz version 7.1.0 (20230121.1956)
 -->
<!-- Title: Sccg.BuilderQuery.GetMetadata Pages: 1 -->
<svg width="321pt" height="86pt"
 viewBox="0.00 0.00 321.00 86.00" xmlns="http://www.w3.org/2000/svg" xmlns:xlink="http://www.w3.org/1999/xlink">
<g id="graph0" class="graph" transform="scale(1 1) rotate(0) translate(4 82)">
<title>Sccg.BuilderQuery.GetMetadata</title>
<!-- Node1 -->
<g id="node1" class="node">
<title>Node1</title>
<g id="a_node1"><a xlink:title="Gets the metadata.">
<polygon fill="#999999" stroke="#666666" points="313,-48.5 158,-48.5 158,-29.5 313,-29.5 313,-48.5"/>
<text text-anchor="middle" x="235.5" y="-36.5" font-family="Helvetica,sans-Serif" font-size="10.00">Sccg.BuilderQuery.GetMetadata</text>
</a>
</g>
</g>
<!-- Node2 -->
<g id="node2" class="node">
<title>Node2</title>
<g id="a_node2"><a xlink:href="classSccg_1_1Builtin_1_1Formatters_1_1VimFormatter.html#a8b77f0d86f6cc179b1997007c6b646e9" target="_top" xlink:title=" ">
<polygon fill="white" stroke="#666666" points="121,-78 1,-78 1,-48 121,-48 121,-78"/>
<text text-anchor="start" x="9" y="-66" font-family="Helvetica,sans-Serif" font-size="10.00">Sccg.Builtin.Formatters.</text>
<text text-anchor="middle" x="61" y="-55" font-family="Helvetica,sans-Serif" font-size="10.00">VimFormatter.Format</text>
</a>
</g>
</g>
<!-- Node1&#45;&gt;Node2 -->
<g id="edge1" class="edge">
<title>Node1&#45;&gt;Node2</title>
<path fill="none" stroke="#63b8ff" d="M151.44,-50.56C141.3,-51.97 131.09,-53.39 121.39,-54.74"/>
<polygon fill="#63b8ff" stroke="#63b8ff" points="151.92,-54.02 161.34,-49.18 150.96,-47.09 151.92,-54.02"/>
</g>
<!-- Node3 -->
<g id="node3" class="node">
<title>Node3</title>
<g id="a_node3"><a xlink:href="classSccg_1_1Builtin_1_1Writers_1_1TextFileWriter.html#a34c4976132858aebe68aa59a676f63b4" target="_top" xlink:title=" ">
<polygon fill="white" stroke="#666666" points="122,-30 0,-30 0,0 122,0 122,-30"/>
<text text-anchor="start" x="8" y="-18" font-family="Helvetica,sans-Serif" font-size="10.00">Sccg.Builtin.Writers.Text</text>
<text text-anchor="middle" x="61" y="-7" font-family="Helvetica,sans-Serif" font-size="10.00">FileWriter.Write</text>
</a>
</g>
</g>
<!-- Node1&#45;&gt;Node3 -->
<g id="edge2" class="edge">
<title>Node1&#45;&gt;Node3</title>
<path fill="none" stroke="#63b8ff" d="M151.75,-27.49C141.88,-26.11 131.95,-24.73 122.47,-23.41"/>
<polygon fill="#63b8ff" stroke="#63b8ff" points="150.96,-30.91 161.34,-28.82 151.92,-23.98 150.96,-30.91"/>
</g>
</g>
</svg>
