<?xml version="1.0" encoding="UTF-8" standalone="no"?>
<!DOCTYPE svg PUBLIC "-//W3C//DTD SVG 1.1//EN"
 "http://www.w3.org/Graphics/SVG/1.1/DTD/svg11.dtd">
<!-- Generated by graphviz version 2.43.0 (0)
 -->
<!-- Title: SingeLinkGraph.GetLink Pages: 1 -->
<svg width="329pt" height="78pt"
 viewBox="0.00 0.00 329.00 77.50" xmlns="http://www.w3.org/2000/svg" xmlns:xlink="http://www.w3.org/1999/xlink">
<g id="graph0" class="graph" transform="scale(1 1) rotate(0) translate(4 73.5)">
<title>SingeLinkGraph.GetLink</title>
<polygon fill="white" stroke="transparent" points="-4,4 -4,-73.5 325,-73.5 325,4 -4,4"/>
<!-- Node1 -->
<g id="node1" class="node">
<title>Node1</title>
<g id="a_node1"><a xlink:title=" ">
<polygon fill="#bfbfbf" stroke="black" points="187,-22.5 187,-41.5 321,-41.5 321,-22.5 187,-22.5"/>
<text text-anchor="middle" x="254" y="-29.5" font-family="Helvetica,sans-Serif" font-size="10.00">SingeLinkGraph.GetLink</text>
</a>
</g>
</g>
<!-- Node2 -->
<g id="node2" class="node">
<title>Node2</title>
<g id="a_node2"><a xlink:href="classSingeLinkGraph.html#a969eaf2b3f129714b0b5a4e85394bb3d" target="_top" xlink:title="Get an array of all vertex numbers in topological order. &#160;&#160;Note: This method throws InvalidOperationE...">
<polygon fill="white" stroke="black" points="0,-39 0,-69 151,-69 151,-39 0,-39"/>
<text text-anchor="start" x="8" y="-57" font-family="Helvetica,sans-Serif" font-size="10.00">SingeLinkGraph.Topological</text>
<text text-anchor="middle" x="75.5" y="-46" font-family="Helvetica,sans-Serif" font-size="10.00">OrderList</text>
</a>
</g>
</g>
<!-- Node1&#45;&gt;Node2 -->
<g id="edge1" class="edge">
<title>Node1&#45;&gt;Node2</title>
<path fill="none" stroke="midnightblue" d="M176.84,-41.49C168.31,-42.56 159.62,-43.64 151.1,-44.7"/>
<polygon fill="midnightblue" stroke="midnightblue" points="177.29,-44.96 186.78,-40.25 176.42,-38.02 177.29,-44.96"/>
</g>
<!-- Node3 -->
<g id="node3" class="node">
<title>Node3</title>
<g id="a_node3"><a xlink:href="classSingeLinkGraph.html#ab3271842dda4b35b6cfd3faed24a7d48" target="_top" xlink:title=" ">
<polygon fill="white" stroke="black" points="1.5,-0.5 1.5,-19.5 149.5,-19.5 149.5,-0.5 1.5,-0.5"/>
<text text-anchor="middle" x="75.5" y="-7.5" font-family="Helvetica,sans-Serif" font-size="10.00">SingeLinkGraph.TryGetLink</text>
</a>
</g>
</g>
<!-- Node1&#45;&gt;Node3 -->
<g id="edge2" class="edge">
<title>Node1&#45;&gt;Node3</title>
<path fill="none" stroke="midnightblue" d="M176.71,-22.49C167.72,-21.37 158.56,-20.23 149.61,-19.11"/>
<polygon fill="midnightblue" stroke="midnightblue" points="176.42,-25.98 186.78,-23.75 177.29,-19.04 176.42,-25.98"/>
</g>
</g>
</svg>
