<?xml version="1.0" encoding="UTF-8" standalone="no"?>
<!DOCTYPE svg PUBLIC "-//W3C//DTD SVG 1.1//EN"
 "http://www.w3.org/Graphics/SVG/1.1/DTD/svg11.dtd">
<!-- Generated by graphviz version 7.1.0 (20230121.1956)
 -->
<!-- Title: Sccg.Builtin.Sources.VimSyntaxGroupSource.Item Pages: 1 -->
<svg width="218pt" height="148pt"
 viewBox="0.00 0.00 217.50 148.00" xmlns="http://www.w3.org/2000/svg" xmlns:xlink="http://www.w3.org/1999/xlink">
<g id="graph0" class="graph" transform="scale(1 1) rotate(0) translate(4 144)">
<title>Sccg.Builtin.Sources.VimSyntaxGroupSource.Item</title>
<!-- Node1 -->
<g id="node1" class="node">
<title>Node1</title>
<g id="a_node1"><a xlink:title=" ">
<polygon fill="#999999" stroke="#666666" points="163.5,-30 37.5,-30 37.5,0 163.5,0 163.5,-30"/>
<text text-anchor="start" x="45.5" y="-18" font-family="Helvetica,sans-Serif" font-size="10.00">Sccg.Builtin.Sources.Vim</text>
<text text-anchor="middle" x="100.5" y="-7" font-family="Helvetica,sans-Serif" font-size="10.00">SyntaxGroupSource.Item</text>
</a>
</g>
</g>
<!-- Node2 -->
<g id="node2" class="node">
<title>Node2</title>
<g id="a_node2"><a xlink:href="interfaceSccg_1_1Builtin_1_1Formatters_1_1IVimSourceItem.html" target="_top" xlink:title=" ">
<polygon fill="white" stroke="#666666" points="87,-85 0,-85 0,-66 87,-66 87,-85"/>
<text text-anchor="middle" x="43.5" y="-73" font-family="Helvetica,sans-Serif" font-size="10.00">IVimSourceItem</text>
</a>
</g>
</g>
<!-- Node2&#45;&gt;Node1 -->
<g id="edge1" class="edge">
<title>Node2&#45;&gt;Node1</title>
<path fill="none" stroke="#63b8ff" d="M59.69,-57.88C68.23,-49.11 78.6,-38.48 86.75,-30.11"/>
<polygon fill="#63b8ff" stroke="#63b8ff" points="57.44,-55.18 52.97,-64.78 62.45,-60.06 57.44,-55.18"/>
</g>
<!-- Node3 -->
<g id="node3" class="node">
<title>Node3</title>
<g id="a_node3"><a xlink:href="interfaceSccg_1_1Core_1_1ISourceItem.html" target="_top" xlink:title=" ">
<polygon fill="white" stroke="#666666" points="135.5,-140 65.5,-140 65.5,-121 135.5,-121 135.5,-140"/>
<text text-anchor="middle" x="100.5" y="-128" font-family="Helvetica,sans-Serif" font-size="10.00">ISourceItem</text>
</a>
</g>
</g>
<!-- Node3&#45;&gt;Node2 -->
<g id="edge2" class="edge">
<title>Node3&#45;&gt;Node2</title>
<path fill="none" stroke="#63b8ff" d="M82.55,-112.81C72.77,-103.72 61.06,-92.82 53.03,-85.36"/>
<polygon fill="#63b8ff" stroke="#63b8ff" points="80.02,-115.23 89.72,-119.48 84.78,-110.11 80.02,-115.23"/>
</g>
<!-- Node4 -->
<g id="node4" class="node">
<title>Node4</title>
<g id="a_node4"><a xlink:href="interfaceSccg_1_1Builtin_1_1Formatters_1_1INeovimSourceItem.html" target="_top" xlink:title=" ">
<polygon fill="white" stroke="#666666" points="209.5,-85 105.5,-85 105.5,-66 209.5,-66 209.5,-85"/>
<text text-anchor="middle" x="157.5" y="-73" font-family="Helvetica,sans-Serif" font-size="10.00">INeovimSourceItem</text>
</a>
</g>
</g>
<!-- Node3&#45;&gt;Node4 -->
<g id="edge4" class="edge">
<title>Node3&#45;&gt;Node4</title>
<path fill="none" stroke="#63b8ff" d="M118.45,-112.81C128.23,-103.72 139.94,-92.82 147.97,-85.36"/>
<polygon fill="#63b8ff" stroke="#63b8ff" points="116.22,-110.11 111.28,-119.48 120.98,-115.23 116.22,-110.11"/>
</g>
<!-- Node4&#45;&gt;Node1 -->
<g id="edge3" class="edge">
<title>Node4&#45;&gt;Node1</title>
<path fill="none" stroke="#63b8ff" d="M141.31,-57.88C132.77,-49.11 122.4,-38.48 114.25,-30.11"/>
<polygon fill="#63b8ff" stroke="#63b8ff" points="138.55,-60.06 148.03,-64.78 143.56,-55.18 138.55,-60.06"/>
</g>
</g>
</svg>
