<?xml version="1.0" encoding="UTF-8" standalone="no"?>
<!DOCTYPE svg PUBLIC "-//W3C//DTD SVG 1.1//EN"
 "http://www.w3.org/Graphics/SVG/1.1/DTD/svg11.dtd">
<!-- Generated by graphviz version 8.0.1 (20230327.1645)
 -->
<!-- Title: Sccg.Utility.ObjectStore.Load Pages: 1 -->
<svg width="310pt" height="86pt"
 viewBox="0.00 0.00 310.00 86.00" xmlns="http://www.w3.org/2000/svg" xmlns:xlink="http://www.w3.org/1999/xlink">
<g id="graph0" class="graph" transform="scale(1 1) rotate(0) translate(4 82)">
<title>Sccg.Utility.ObjectStore.Load</title>
<!-- Node1 -->
<g id="node1" class="node">
<title>Node1</title>
<g id="a_node1"><a xlink:title=" ">
<polygon fill="#999999" stroke="#666666" points="302,-48.5 158,-48.5 158,-29.5 302,-29.5 302,-48.5"/>
<text text-anchor="middle" x="230" y="-36.5" font-family="Helvetica,sans-Serif" font-size="10.00">Sccg.Utility.ObjectStore.Load</text>
</a>
</g>
</g>
<!-- Node2 -->
<g id="node2" class="node">
<title>Node2</title>
<g id="a_node2"><a xlink:href="classSccg_1_1Utility_1_1ObjectStore.html#a0be9131d582fee3f5ac4112fc940b556" target="_top" xlink:title="Load data from store with specified id.">
<polygon fill="white" stroke="#666666" points="122,-78 0,-78 0,-48 122,-48 122,-78"/>
<text text-anchor="start" x="8" y="-66" font-family="Helvetica,sans-Serif" font-size="10.00">Sccg.Utility.ObjectStore.</text>
<text text-anchor="middle" x="61" y="-55" font-family="Helvetica,sans-Serif" font-size="10.00">Load&lt; T &gt;</text>
</a>
</g>
</g>
<!-- Node1&#45;&gt;Node2 -->
<g id="edge1" class="edge">
<title>Node1&#45;&gt;Node2</title>
<path fill="none" stroke="#63b8ff" d="M148.82,-50.52C139.92,-51.8 130.97,-53.09 122.38,-54.32"/>
<polygon fill="#63b8ff" stroke="#63b8ff" points="149.23,-53.86 158.63,-48.97 148.23,-46.93 149.23,-53.86"/>
</g>
<!-- Node3 -->
<g id="node3" class="node">
<title>Node3</title>
<g id="a_node3"><a xlink:href="classSccg_1_1Utility_1_1ObjectStore.html#a8c413d245fb1698a0a213d67c82619b6" target="_top" xlink:title="Try to load data from store with specified id.">
<polygon fill="white" stroke="#666666" points="122,-30 0,-30 0,0 122,0 122,-30"/>
<text text-anchor="start" x="8" y="-18" font-family="Helvetica,sans-Serif" font-size="10.00">Sccg.Utility.ObjectStore.</text>
<text text-anchor="middle" x="61" y="-7" font-family="Helvetica,sans-Serif" font-size="10.00">TryLoad&lt; T &gt;</text>
</a>
</g>
</g>
<!-- Node1&#45;&gt;Node3 -->
<g id="edge2" class="edge">
<title>Node1&#45;&gt;Node3</title>
<path fill="none" stroke="#63b8ff" d="M148.82,-27.48C139.92,-26.2 130.97,-24.91 122.38,-23.68"/>
<polygon fill="#63b8ff" stroke="#63b8ff" points="148.23,-31.07 158.63,-29.03 149.23,-24.14 148.23,-31.07"/>
</g>
</g>
</svg>
