<?xml version="1.0" encoding="UTF-8" standalone="no"?>
<!DOCTYPE svg PUBLIC "-//W3C//DTD SVG 1.1//EN"
 "http://www.w3.org/Graphics/SVG/1.1/DTD/svg11.dtd">
<!-- Generated by graphviz version 8.0.1 (20230327.1645)
 -->
<!-- Title: Sccg.Builtin.Sources.TextMateElementSource.Item Pages: 1 -->
<svg width="265pt" height="216pt"
 viewBox="0.00 0.00 265.00 216.00" xmlns="http://www.w3.org/2000/svg" xmlns:xlink="http://www.w3.org/1999/xlink">
<g id="graph0" class="graph" transform="scale(1 1) rotate(0) translate(4 212)">
<title>Sccg.Builtin.Sources.TextMateElementSource.Item</title>
<!-- Node1 -->
<g id="node1" class="node">
<title>Node1</title>
<g id="a_node1"><a xlink:title="SourceItem for TextMate Element.">
<polygon fill="#999999" stroke="#666666" points="204.5,-30 76.5,-30 76.5,0 204.5,0 204.5,-30"/>
<text text-anchor="start" x="84.5" y="-18" font-family="Helvetica,sans-Serif" font-size="10.00">Sccg.Builtin.Sources.Text</text>
<text text-anchor="middle" x="140.5" y="-7" font-family="Helvetica,sans-Serif" font-size="10.00">MateElementSource.Item</text>
</a>
</g>
</g>
<!-- Node2 -->
<g id="node2" class="node">
<title>Node2</title>
<g id="a_node2"><a xlink:href="interfaceSccg_1_1Builtin_1_1Formatters_1_1IVSCodeTokenColorSourceItem.html" target="_top" xlink:title="SourceItem for VSCode color theme json (tokenColors).">
<polygon fill="white" stroke="#666666" points="155,-96 0,-96 0,-77 155,-77 155,-96"/>
<text text-anchor="middle" x="77.5" y="-84" font-family="Helvetica,sans-Serif" font-size="10.00">IVSCodeTokenColorSourceItem</text>
</a>
</g>
</g>
<!-- Node2&#45;&gt;Node1 -->
<g id="edge1" class="edge">
<title>Node2&#45;&gt;Node1</title>
<path fill="none" stroke="#63b8ff" d="M92.84,-68.58C103.47,-56.85 117.49,-41.39 127.56,-30.27"/>
<polygon fill="#63b8ff" stroke="#63b8ff" points="90.6,-65.94 86.48,-75.7 95.79,-70.64 90.6,-65.94"/>
</g>
<!-- Node3 -->
<g id="node3" class="node">
<title>Node3</title>
<g id="a_node3"><a xlink:href="interfaceSccg_1_1Builtin_1_1Sources_1_1Internal_1_1IVSCodeSourceItemBase.html" target="_top" xlink:title="Base SourceItem for VSCode.">
<polygon fill="white" stroke="#666666" points="137.5,-152 9.5,-152 9.5,-133 137.5,-133 137.5,-152"/>
<text text-anchor="middle" x="73.5" y="-140" font-family="Helvetica,sans-Serif" font-size="10.00">IVSCodeSourceItemBase</text>
</a>
</g>
</g>
<!-- Node3&#45;&gt;Node2 -->
<g id="edge2" class="edge">
<title>Node3&#45;&gt;Node2</title>
<path fill="none" stroke="#63b8ff" d="M74.97,-121.71C75.61,-112.96 76.34,-103.12 76.85,-96.25"/>
<polygon fill="#63b8ff" stroke="#63b8ff" points="71.41,-121.35 74.16,-131.58 78.39,-121.87 71.41,-121.35"/>
</g>
<!-- Node4 -->
<g id="node4" class="node">
<title>Node4</title>
<g id="a_node4"><a xlink:href="interfaceSccg_1_1Core_1_1ISourceItem.html" target="_top" xlink:title="Represents a source item.">
<polygon fill="white" stroke="#666666" points="108.5,-208 38.5,-208 38.5,-189 108.5,-189 108.5,-208"/>
<text text-anchor="middle" x="73.5" y="-196" font-family="Helvetica,sans-Serif" font-size="10.00">ISourceItem</text>
</a>
</g>
</g>
<!-- Node4&#45;&gt;Node3 -->
<g id="edge3" class="edge">
<title>Node4&#45;&gt;Node3</title>
<path fill="none" stroke="#63b8ff" d="M73.5,-177.71C73.5,-168.96 73.5,-159.12 73.5,-152.25"/>
<polygon fill="#63b8ff" stroke="#63b8ff" points="70,-177.58 73.5,-187.58 77,-177.58 70,-177.58"/>
</g>
<!-- Node5 -->
<g id="node5" class="node">
<title>Node5</title>
<g id="a_node5"><a xlink:href="structSccg_1_1Style.html" target="_top" xlink:title="Represents a style of text.">
<polygon fill="white" stroke="#666666" points="237,-96 174,-96 174,-77 237,-77 237,-96"/>
<text text-anchor="middle" x="205.5" y="-84" font-family="Helvetica,sans-Serif" font-size="10.00">Sccg.Style</text>
</a>
</g>
</g>
<!-- Node5&#45;&gt;Node1 -->
<g id="edge4" class="edge">
<title>Node5&#45;&gt;Node1</title>
<path fill="none" stroke="#9a32cd" stroke-dasharray="5,2" d="M190,-68.93C178.99,-57.15 164.35,-41.5 153.85,-30.27"/>
<polygon fill="#9a32cd" stroke="#9a32cd" points="186.88,-70.78 196.27,-75.7 191.99,-66 186.88,-70.78"/>
<text text-anchor="middle" x="192" y="-51" font-family="Helvetica,sans-Serif" font-size="10.00"> Style</text>
</g>
<!-- Node6 -->
<g id="node6" class="node">
<title>Node6</title>
<g id="a_node6"><a xlink:title=" ">
<polygon fill="white" stroke="#666666" points="257,-152 156,-152 156,-133 257,-133 257,-152"/>
<text text-anchor="middle" x="206.5" y="-140" font-family="Helvetica,sans-Serif" font-size="10.00">IEquatable&lt; Style &gt;</text>
</a>
</g>
</g>
<!-- Node6&#45;&gt;Node5 -->
<g id="edge5" class="edge">
<title>Node6&#45;&gt;Node5</title>
<path fill="none" stroke="#63b8ff" d="M206.13,-121.71C205.97,-112.96 205.79,-103.12 205.66,-96.25"/>
<polygon fill="#63b8ff" stroke="#63b8ff" points="202.65,-121.65 206.33,-131.58 209.65,-121.52 202.65,-121.65"/>
</g>
</g>
</svg>
