<?xml version="1.0" encoding="UTF-8" standalone="no"?>
<!DOCTYPE svg PUBLIC "-//W3C//DTD SVG 1.1//EN"
 "http://www.w3.org/Graphics/SVG/1.1/DTD/svg11.dtd">
<!-- Generated by graphviz version 8.0.1 (20230327.1645)
 -->
<!-- Title: Sccg.Builtin.Sources.VSCodeEditorThemeColorSource.Item Pages: 1 -->
<svg width="308pt" height="227pt"
 viewBox="0.00 0.00 307.50 227.00" xmlns="http://www.w3.org/2000/svg" xmlns:xlink="http://www.w3.org/1999/xlink">
<g id="graph0" class="graph" transform="scale(1 1) rotate(0) translate(4 223)">
<title>Sccg.Builtin.Sources.VSCodeEditorThemeColorSource.Item</title>
<!-- Node1 -->
<g id="node1" class="node">
<title>Node1</title>
<g id="a_node1"><a xlink:title="SourceItem for VSCode editor theme color.">
<polygon fill="#999999" stroke="#666666" points="216,-30 70,-30 70,0 216,0 216,-30"/>
<text text-anchor="start" x="78" y="-18" font-family="Helvetica,sans-Serif" font-size="10.00">Sccg.Builtin.Sources.VSCode</text>
<text text-anchor="middle" x="143" y="-7" font-family="Helvetica,sans-Serif" font-size="10.00">EditorThemeColorSource.Item</text>
</a>
</g>
</g>
<!-- Node2 -->
<g id="node2" class="node">
<title>Node2</title>
<g id="a_node2"><a xlink:href="interfaceSccg_1_1Builtin_1_1Formatters_1_1IVSCodeColorSourceItem.html" target="_top" xlink:title="SourceItem for VSCode color theme json (colors).">
<polygon fill="white" stroke="#666666" points="128,-101.5 0,-101.5 0,-82.5 128,-82.5 128,-101.5"/>
<text text-anchor="middle" x="64" y="-89.5" font-family="Helvetica,sans-Serif" font-size="10.00">IVSCodeColorSourceItem</text>
</a>
</g>
</g>
<!-- Node2&#45;&gt;Node1 -->
<g id="edge1" class="edge">
<title>Node2&#45;&gt;Node1</title>
<path fill="none" stroke="#63b8ff" d="M81.25,-74.63C95.2,-61.38 114.65,-42.91 127.97,-30.27"/>
<polygon fill="#63b8ff" stroke="#63b8ff" points="79.22,-71.68 74.37,-81.1 84.03,-76.76 79.22,-71.68"/>
</g>
<!-- Node3 -->
<g id="node3" class="node">
<title>Node3</title>
<g id="a_node3"><a xlink:href="interfaceSccg_1_1Builtin_1_1Sources_1_1Internal_1_1IVSCodeSourceItemBase.html" target="_top" xlink:title="Base SourceItem for VSCode.">
<polygon fill="white" stroke="#666666" points="128,-163 0,-163 0,-144 128,-144 128,-163"/>
<text text-anchor="middle" x="64" y="-151" font-family="Helvetica,sans-Serif" font-size="10.00">IVSCodeSourceItemBase</text>
</a>
</g>
</g>
<!-- Node3&#45;&gt;Node2 -->
<g id="edge2" class="edge">
<title>Node3&#45;&gt;Node2</title>
<path fill="none" stroke="#63b8ff" d="M64,-133C64,-122.48 64,-110 64,-101.82"/>
<polygon fill="#63b8ff" stroke="#63b8ff" points="60.5,-132.72 64,-142.72 67.5,-132.72 60.5,-132.72"/>
</g>
<!-- Node4 -->
<g id="node4" class="node">
<title>Node4</title>
<g id="a_node4"><a xlink:href="interfaceSccg_1_1Core_1_1ISourceItem.html" target="_top" xlink:title="Represents a source item.">
<polygon fill="white" stroke="#666666" points="99,-219 29,-219 29,-200 99,-200 99,-219"/>
<text text-anchor="middle" x="64" y="-207" font-family="Helvetica,sans-Serif" font-size="10.00">ISourceItem</text>
</a>
</g>
</g>
<!-- Node4&#45;&gt;Node3 -->
<g id="edge3" class="edge">
<title>Node4&#45;&gt;Node3</title>
<path fill="none" stroke="#63b8ff" d="M64,-188.71C64,-179.96 64,-170.12 64,-163.25"/>
<polygon fill="#63b8ff" stroke="#63b8ff" points="60.5,-188.58 64,-198.58 67.5,-188.58 60.5,-188.58"/>
</g>
<!-- Node5 -->
<g id="node5" class="node">
<title>Node5</title>
<g id="a_node5"><a xlink:title=" ">
<polygon fill="white" stroke="#666666" points="299.5,-107 146.5,-107 146.5,-77 299.5,-77 299.5,-107"/>
<text text-anchor="start" x="154.5" y="-95" font-family="Helvetica,sans-Serif" font-size="10.00">Sccg.Builtin.Sources.VSCode</text>
<text text-anchor="middle" x="223" y="-84" font-family="Helvetica,sans-Serif" font-size="10.00">EditorThemeColorSource.Group</text>
</a>
</g>
</g>
<!-- Node5&#45;&gt;Node1 -->
<g id="edge4" class="edge">
<title>Node5&#45;&gt;Node1</title>
<path fill="none" stroke="#9a32cd" stroke-dasharray="5,2" d="M199.74,-69.2C186.43,-56.72 170.1,-41.4 158.38,-30.42"/>
<polygon fill="#9a32cd" stroke="#9a32cd" points="196.89,-71.25 206.58,-75.54 201.67,-66.15 196.89,-71.25"/>
<text text-anchor="middle" x="202.5" y="-51" font-family="Helvetica,sans-Serif" font-size="10.00"> Group</text>
</g>
</g>
</svg>
