<?xml version="1.0" encoding="UTF-8" standalone="no"?>
<!DOCTYPE svg PUBLIC "-//W3C//DTD SVG 1.1//EN"
 "http://www.w3.org/Graphics/SVG/1.1/DTD/svg11.dtd">
<!-- Generated by graphviz version 7.1.0 (20230121.1956)
 -->
<!-- Title: Sccg.Builtin.Sources.Ansi16ColorSource.Item Pages: 1 -->
<svg width="310pt" height="203pt"
 viewBox="0.00 0.00 310.00 203.00" xmlns="http://www.w3.org/2000/svg" xmlns:xlink="http://www.w3.org/1999/xlink">
<g id="graph0" class="graph" transform="scale(1 1) rotate(0) translate(4 199)">
<title>Sccg.Builtin.Sources.Ansi16ColorSource.Item</title>
<!-- Node1 -->
<g id="node1" class="node">
<title>Node1</title>
<g id="a_node1"><a xlink:title=" ">
<polygon fill="#999999" stroke="#666666" points="222,-30 83,-30 83,0 222,0 222,-30"/>
<text text-anchor="start" x="91" y="-18" font-family="Helvetica,sans-Serif" font-size="10.00">Sccg.Builtin.Sources.Ansi16</text>
<text text-anchor="middle" x="152.5" y="-7" font-family="Helvetica,sans-Serif" font-size="10.00">ColorSource.Item</text>
</a>
</g>
</g>
<!-- Node2 -->
<g id="node2" class="node">
<title>Node2</title>
<g id="a_node2"><a xlink:href="interfaceSccg_1_1Builtin_1_1Formatters_1_1IVimArrayVariableSourceItem.html" target="_top" xlink:title=" ">
<polygon fill="white" stroke="#666666" points="145,-85 0,-85 0,-66 145,-66 145,-85"/>
<text text-anchor="middle" x="72.5" y="-73" font-family="Helvetica,sans-Serif" font-size="10.00">IVimArrayVariableSourceItem</text>
</a>
</g>
</g>
<!-- Node2&#45;&gt;Node1 -->
<g id="edge1" class="edge">
<title>Node2&#45;&gt;Node1</title>
<path fill="none" stroke="#63b8ff" d="M93.61,-59.06C105.73,-50.2 120.87,-39.13 132.75,-30.44"/>
<polygon fill="#63b8ff" stroke="#63b8ff" points="91.88,-55.99 85.87,-64.72 96.01,-61.64 91.88,-55.99"/>
</g>
<!-- Node3 -->
<g id="node3" class="node">
<title>Node3</title>
<g id="a_node3"><a xlink:href="interfaceSccg_1_1Builtin_1_1Sources_1_1Internal_1_1IVimSourceItemBase.html" target="_top" xlink:title=" ">
<polygon fill="white" stroke="#666666" points="139.5,-140 29.5,-140 29.5,-121 139.5,-121 139.5,-140"/>
<text text-anchor="middle" x="84.5" y="-128" font-family="Helvetica,sans-Serif" font-size="10.00">IVimSourceItemBase</text>
</a>
</g>
</g>
<!-- Node3&#45;&gt;Node2 -->
<g id="edge2" class="edge">
<title>Node3&#45;&gt;Node2</title>
<path fill="none" stroke="#63b8ff" d="M80,-109.64C78.12,-101.31 76.02,-92.05 74.52,-85.44"/>
<polygon fill="#63b8ff" stroke="#63b8ff" points="76.56,-110.29 82.18,-119.27 83.39,-108.75 76.56,-110.29"/>
</g>
<!-- Node4 -->
<g id="node4" class="node">
<title>Node4</title>
<g id="a_node4"><a xlink:href="interfaceSccg_1_1Core_1_1ISourceItem.html" target="_top" xlink:title=" ">
<polygon fill="white" stroke="#666666" points="187.5,-195 117.5,-195 117.5,-176 187.5,-176 187.5,-195"/>
<text text-anchor="middle" x="152.5" y="-183" font-family="Helvetica,sans-Serif" font-size="10.00">ISourceItem</text>
</a>
</g>
</g>
<!-- Node4&#45;&gt;Node3 -->
<g id="edge3" class="edge">
<title>Node4&#45;&gt;Node3</title>
<path fill="none" stroke="#63b8ff" d="M132.15,-168.64C120.28,-159.39 105.74,-148.05 95.86,-140.36"/>
<polygon fill="#63b8ff" stroke="#63b8ff" points="129.73,-171.19 139.77,-174.58 134.04,-165.67 129.73,-171.19"/>
</g>
<!-- Node6 -->
<g id="node6" class="node">
<title>Node6</title>
<g id="a_node6"><a xlink:href="interfaceSccg_1_1Builtin_1_1Sources_1_1Internal_1_1INeovimSourceItemBase.html" target="_top" xlink:title=" ">
<polygon fill="white" stroke="#666666" points="289.5,-140 163.5,-140 163.5,-121 289.5,-121 289.5,-140"/>
<text text-anchor="middle" x="226.5" y="-128" font-family="Helvetica,sans-Serif" font-size="10.00">INeovimSourceItemBase</text>
</a>
</g>
</g>
<!-- Node4&#45;&gt;Node6 -->
<g id="edge6" class="edge">
<title>Node4&#45;&gt;Node6</title>
<path fill="none" stroke="#63b8ff" d="M174.26,-168.92C187.25,-159.61 203.28,-148.13 214.13,-140.36"/>
<polygon fill="#63b8ff" stroke="#63b8ff" points="172.38,-165.96 166.28,-174.63 176.45,-171.65 172.38,-165.96"/>
</g>
<!-- Node5 -->
<g id="node5" class="node">
<title>Node5</title>
<g id="a_node5"><a xlink:href="interfaceSccg_1_1Builtin_1_1Formatters_1_1INeovimVariableSourceItem.html" target="_top" xlink:title=" ">
<polygon fill="white" stroke="#666666" points="302,-85 163,-85 163,-66 302,-66 302,-85"/>
<text text-anchor="middle" x="232.5" y="-73" font-family="Helvetica,sans-Serif" font-size="10.00">INeovimVariableSourceItem</text>
</a>
</g>
</g>
<!-- Node5&#45;&gt;Node1 -->
<g id="edge4" class="edge">
<title>Node5&#45;&gt;Node1</title>
<path fill="none" stroke="#63b8ff" d="M211.39,-59.06C199.27,-50.2 184.13,-39.13 172.25,-30.44"/>
<polygon fill="#63b8ff" stroke="#63b8ff" points="208.99,-61.64 219.13,-64.72 213.12,-55.99 208.99,-61.64"/>
</g>
<!-- Node6&#45;&gt;Node5 -->
<g id="edge5" class="edge">
<title>Node6&#45;&gt;Node5</title>
<path fill="none" stroke="#63b8ff" d="M228.78,-109.35C229.72,-101.1 230.75,-91.97 231.49,-85.44"/>
<polygon fill="#63b8ff" stroke="#63b8ff" points="225.31,-108.91 227.66,-119.24 232.26,-109.7 225.31,-108.91"/>
</g>
</g>
</svg>
