<?xml version="1.0" encoding="UTF-8" standalone="no"?>
<!DOCTYPE svg PUBLIC "-//W3C//DTD SVG 1.1//EN"
 "http://www.w3.org/Graphics/SVG/1.1/DTD/svg11.dtd">
<!-- Generated by graphviz version 7.1.0 (20230121.1956)
 -->
<!-- Title: Sccg.Utility.SingeLinkGraph.GetLink Pages: 1 -->
<svg width="324pt" height="86pt"
 viewBox="0.00 0.00 324.00 86.00" xmlns="http://www.w3.org/2000/svg" xmlns:xlink="http://www.w3.org/1999/xlink">
<g id="graph0" class="graph" transform="scale(1 1) rotate(0) translate(4 82)">
<title>Sccg.Utility.SingeLinkGraph.GetLink</title>
<!-- Node1 -->
<g id="node1" class="node">
<title>Node1</title>
<g id="a_node1"><a xlink:title="Get the vertex number that from links to.">
<polygon fill="#999999" stroke="#666666" points="316,-54 176,-54 176,-24 316,-24 316,-54"/>
<text text-anchor="start" x="184" y="-42" font-family="Helvetica,sans-Serif" font-size="10.00">Sccg.Utility.SingeLinkGraph.</text>
<text text-anchor="middle" x="246" y="-31" font-family="Helvetica,sans-Serif" font-size="10.00">GetLink</text>
</a>
</g>
</g>
<!-- Node2 -->
<g id="node2" class="node">
<title>Node2</title>
<g id="a_node2"><a xlink:href="classSccg_1_1Utility_1_1SingeLinkGraph.html#a0e9b3a553d560fb6d4c9a3d650ab1f19" target="_top" xlink:title="Get an array of all vertex numbers in topological order. &#160;&#160;Note: This method throws InvalidOperationE...">
<polygon fill="white" stroke="#666666" points="140,-78 0,-78 0,-48 140,-48 140,-78"/>
<text text-anchor="start" x="8" y="-66" font-family="Helvetica,sans-Serif" font-size="10.00">Sccg.Utility.SingeLinkGraph.</text>
<text text-anchor="middle" x="70" y="-55" font-family="Helvetica,sans-Serif" font-size="10.00">TopologicalOrderList</text>
</a>
</g>
</g>
<!-- Node1&#45;&gt;Node2 -->
<g id="edge1" class="edge">
<title>Node1&#45;&gt;Node2</title>
<path fill="none" stroke="#63b8ff" d="M164.42,-50.11C156.37,-51.23 148.24,-52.35 140.32,-53.44"/>
<polygon fill="#63b8ff" stroke="#63b8ff" points="164.8,-53.59 174.23,-48.76 163.85,-46.66 164.8,-53.59"/>
</g>
<!-- Node3 -->
<g id="node3" class="node">
<title>Node3</title>
<g id="a_node3"><a xlink:href="classSccg_1_1Utility_1_1SingeLinkGraph.html#a6569fc2a11b6bc09505ec7c269d80d28" target="_top" xlink:title="Get the vertex number that from links to.">
<polygon fill="white" stroke="#666666" points="140,-30 0,-30 0,0 140,0 140,-30"/>
<text text-anchor="start" x="8" y="-18" font-family="Helvetica,sans-Serif" font-size="10.00">Sccg.Utility.SingeLinkGraph.</text>
<text text-anchor="middle" x="70" y="-7" font-family="Helvetica,sans-Serif" font-size="10.00">TryGetLink</text>
</a>
</g>
</g>
<!-- Node1&#45;&gt;Node3 -->
<g id="edge2" class="edge">
<title>Node1&#45;&gt;Node3</title>
<path fill="none" stroke="#63b8ff" d="M164.42,-27.89C156.37,-26.77 148.24,-25.65 140.32,-24.56"/>
<polygon fill="#63b8ff" stroke="#63b8ff" points="163.85,-31.34 174.23,-29.24 164.8,-24.41 163.85,-31.34"/>
</g>
</g>
</svg>
