<?xml version="1.0" encoding="UTF-8" standalone="no"?>
<!DOCTYPE svg PUBLIC "-//W3C//DTD SVG 1.1//EN"
 "http://www.w3.org/Graphics/SVG/1.1/DTD/svg11.dtd">
<!-- Generated by graphviz version 7.1.0 (20230121.1956)
 -->
<!-- Title: Graphical Class Hierarchy Pages: 1 -->
<svg width="691pt" height="407pt"
 viewBox="0.00 0.00 691.00 407.00" xmlns="http://www.w3.org/2000/svg" xmlns:xlink="http://www.w3.org/1999/xlink">
<g id="graph0" class="graph" transform="scale(1 1) rotate(0) translate(4 403)">
<title>Graphical Class Hierarchy</title>
<!-- Node0 -->
<g id="node1" class="node">
<title>Node0</title>
<g id="a_node1"><a xlink:title=" ">
<polygon fill="#e0e0e0" stroke="#999999" points="453.5,-393.5 355.5,-393.5 355.5,-374.5 453.5,-374.5 453.5,-393.5"/>
<text text-anchor="middle" x="404.5" y="-381.5" font-family="Helvetica,sans-Serif" font-size="10.00">IIterm2SourceItem</text>
</a>
</g>
</g>
<!-- Node1 -->
<g id="node2" class="node">
<title>Node1</title>
<g id="a_node2"><a xlink:href="classSccg_1_1Builtin_1_1Sources_1_1Ansi16ColorSource_1_1Item.html" target="_top" xlink:title="SourceItem for 16 ANSI colors.">
<polygon fill="white" stroke="#666666" points="667.5,-292 528.5,-292 528.5,-262 667.5,-262 667.5,-292"/>
<text text-anchor="start" x="536.5" y="-280" font-family="Helvetica,sans-Serif" font-size="10.00">Sccg.Builtin.Sources.Ansi16</text>
<text text-anchor="middle" x="598" y="-269" font-family="Helvetica,sans-Serif" font-size="10.00">ColorSource.Item</text>
</a>
</g>
</g>
<!-- Node0&#45;&gt;Node1 -->
<g id="edge1" class="edge">
<title>Node0&#45;&gt;Node1</title>
<path fill="none" stroke="#63b8ff" d="M463.7,-370.52C468.28,-368.86 472.76,-367.03 477,-365 517.55,-345.6 558.41,-311.92 580.43,-292.33"/>
<polygon fill="#63b8ff" stroke="#63b8ff" points="462.77,-367.14 454.37,-373.6 464.97,-373.79 462.77,-367.14"/>
</g>
<!-- Node16 -->
<g id="node3" class="node">
<title>Node16</title>
<g id="a_node3"><a xlink:href="classSccg_1_1Builtin_1_1Sources_1_1Iterm2ColorsSource_1_1Item.html" target="_top" xlink:title="SourceItem for iTerm2.">
<polygon fill="white" stroke="#666666" points="666.5,-399 529.5,-399 529.5,-369 666.5,-369 666.5,-399"/>
<text text-anchor="start" x="537.5" y="-387" font-family="Helvetica,sans-Serif" font-size="10.00">Sccg.Builtin.Sources.Iterm2</text>
<text text-anchor="middle" x="598" y="-376" font-family="Helvetica,sans-Serif" font-size="10.00">ColorsSource.Item</text>
</a>
</g>
</g>
<!-- Node0&#45;&gt;Node16 -->
<g id="edge2" class="edge">
<title>Node0&#45;&gt;Node16</title>
<path fill="none" stroke="#63b8ff" d="M465.13,-384C485.43,-384 508.27,-384 529.16,-384"/>
<polygon fill="#63b8ff" stroke="#63b8ff" points="465.34,-380.5 455.34,-384 465.34,-387.5 465.34,-380.5"/>
</g>
<!-- Node4 -->
<g id="node4" class="node">
<title>Node4</title>
<g id="a_node4"><a xlink:href="interfaceSccg_1_1Core_1_1ISourceItem.html" target="_top" xlink:title="Represents a source item.">
<polygon fill="white" stroke="#666666" points="117,-261.5 0,-261.5 0,-242.5 117,-242.5 117,-261.5"/>
<text text-anchor="middle" x="58.5" y="-249.5" font-family="Helvetica,sans-Serif" font-size="10.00">Sccg.Core.ISourceItem</text>
</a>
</g>
</g>
<!-- Node2 -->
<g id="node5" class="node">
<title>Node2</title>
<g id="a_node5"><a xlink:href="interfaceSccg_1_1Builtin_1_1Formatters_1_1IAlacrittySourceItem.html" target="_top" xlink:title="SourceItem for Alacritty config.">
<polygon fill="white" stroke="#666666" points="284.5,-315 164.5,-315 164.5,-285 284.5,-285 284.5,-315"/>
<text text-anchor="start" x="172.5" y="-303" font-family="Helvetica,sans-Serif" font-size="10.00">Sccg.Builtin.Formatters.</text>
<text text-anchor="middle" x="224.5" y="-292" font-family="Helvetica,sans-Serif" font-size="10.00">IAlacrittySourceItem</text>
</a>
</g>
</g>
<!-- Node4&#45;&gt;Node2 -->
<g id="edge3" class="edge">
<title>Node4&#45;&gt;Node2</title>
<path fill="none" stroke="#63b8ff" d="M104.44,-265.15C124.98,-271.16 149.44,-278.32 170.83,-284.58"/>
<polygon fill="#63b8ff" stroke="#63b8ff" points="105.51,-261.82 94.93,-262.37 103.55,-268.54 105.51,-261.82"/>
</g>
<!-- Node5 -->
<g id="node7" class="node">
<title>Node5</title>
<g id="a_node7"><a xlink:href="interfaceSccg_1_1Builtin_1_1Sources_1_1Internal_1_1INeovimSourceItemBase.html" target="_top" xlink:title="Base SourceItem for Neovim.">
<polygon fill="white" stroke="#666666" points="296,-219 153,-219 153,-189 296,-189 296,-219"/>
<text text-anchor="start" x="161" y="-207" font-family="Helvetica,sans-Serif" font-size="10.00">Sccg.Builtin.Sources.Internal.</text>
<text text-anchor="middle" x="224.5" y="-196" font-family="Helvetica,sans-Serif" font-size="10.00">INeovimSourceItemBase</text>
</a>
</g>
</g>
<!-- Node4&#45;&gt;Node5 -->
<g id="edge6" class="edge">
<title>Node4&#45;&gt;Node5</title>
<path fill="none" stroke="#63b8ff" d="M104.44,-238.85C124.98,-232.84 149.44,-225.68 170.83,-219.42"/>
<polygon fill="#63b8ff" stroke="#63b8ff" points="103.55,-235.46 94.93,-241.63 105.51,-242.18 103.55,-235.46"/>
</g>
<!-- Node13 -->
<g id="node14" class="node">
<title>Node13</title>
<g id="a_node14"><a xlink:href="interfaceSccg_1_1Builtin_1_1Sources_1_1Internal_1_1IVimSourceItemBase.html" target="_top" xlink:title="Base SourceItem for Vim.">
<polygon fill="white" stroke="#666666" points="296,-267 153,-267 153,-237 296,-237 296,-267"/>
<text text-anchor="start" x="161" y="-255" font-family="Helvetica,sans-Serif" font-size="10.00">Sccg.Builtin.Sources.Internal.</text>
<text text-anchor="middle" x="224.5" y="-244" font-family="Helvetica,sans-Serif" font-size="10.00">IVimSourceItemBase</text>
</a>
</g>
</g>
<!-- Node4&#45;&gt;Node13 -->
<g id="edge14" class="edge">
<title>Node4&#45;&gt;Node13</title>
<path fill="none" stroke="#63b8ff" d="M128.76,-252C136.68,-252 144.75,-252 152.69,-252"/>
<polygon fill="#63b8ff" stroke="#63b8ff" points="128.83,-248.5 118.83,-252 128.83,-255.5 128.83,-248.5"/>
</g>
<!-- Node2&#45;&gt;Node1 -->
<g id="edge5" class="edge">
<title>Node2&#45;&gt;Node1</title>
<path fill="none" stroke="#63b8ff" d="M296,-295.64C362.66,-291.51 462.04,-285.36 528.15,-281.26"/>
<polygon fill="#63b8ff" stroke="#63b8ff" points="296.05,-292.13 286.29,-296.24 296.48,-299.11 296.05,-292.13"/>
</g>
<!-- Node3 -->
<g id="node6" class="node">
<title>Node3</title>
<g id="a_node6"><a xlink:href="classSccg_1_1Builtin_1_1Sources_1_1AlacrittyColorsSource_1_1Item.html" target="_top" xlink:title="SourceItem for Alacritty.">
<polygon fill="white" stroke="#666666" points="476.5,-356 332.5,-356 332.5,-326 476.5,-326 476.5,-356"/>
<text text-anchor="start" x="340.5" y="-344" font-family="Helvetica,sans-Serif" font-size="10.00">Sccg.Builtin.Sources.Alacritty</text>
<text text-anchor="middle" x="404.5" y="-333" font-family="Helvetica,sans-Serif" font-size="10.00">ColorsSource.Item</text>
</a>
</g>
</g>
<!-- Node2&#45;&gt;Node3 -->
<g id="edge4" class="edge">
<title>Node2&#45;&gt;Node3</title>
<path fill="none" stroke="#63b8ff" d="M295.85,-316.2C309.24,-319.29 323.22,-322.51 336.5,-325.57"/>
<polygon fill="#63b8ff" stroke="#63b8ff" points="296.78,-312.83 286.25,-313.99 295.21,-319.65 296.78,-312.83"/>
</g>
<!-- Node6 -->
<g id="node8" class="node">
<title>Node6</title>
<g id="a_node8"><a xlink:href="interfaceSccg_1_1Builtin_1_1Formatters_1_1INeovimSourceItem.html" target="_top" xlink:title="SourceItem for Neovim color scheme.">
<polygon fill="white" stroke="#666666" points="464.5,-126 344.5,-126 344.5,-96 464.5,-96 464.5,-126"/>
<text text-anchor="start" x="352.5" y="-114" font-family="Helvetica,sans-Serif" font-size="10.00">Sccg.Builtin.Formatters.</text>
<text text-anchor="middle" x="404.5" y="-103" font-family="Helvetica,sans-Serif" font-size="10.00">INeovimSourceItem</text>
</a>
</g>
</g>
<!-- Node5&#45;&gt;Node6 -->
<g id="edge7" class="edge">
<title>Node5&#45;&gt;Node6</title>
<path fill="none" stroke="#63b8ff" d="M255.01,-181.99C275.76,-167.26 304.59,-148.22 332,-135 338.49,-131.87 345.49,-128.98 352.48,-126.37"/>
<polygon fill="#63b8ff" stroke="#63b8ff" points="253.1,-179.06 247.03,-187.74 257.19,-184.74 253.1,-179.06"/>
</g>
<!-- Node15 -->
<g id="node13" class="node">
<title>Node15</title>
<g id="a_node13"><a xlink:href="interfaceSccg_1_1Builtin_1_1Formatters_1_1INeovimVariableSourceItem.html" target="_top" xlink:title="SourceItem for Neovim color scheme.">
<polygon fill="white" stroke="#666666" points="474,-222 335,-222 335,-192 474,-192 474,-222"/>
<text text-anchor="start" x="343" y="-210" font-family="Helvetica,sans-Serif" font-size="10.00">Sccg.Builtin.Formatters.</text>
<text text-anchor="middle" x="404.5" y="-199" font-family="Helvetica,sans-Serif" font-size="10.00">INeovimVariableSourceItem</text>
</a>
</g>
</g>
<!-- Node5&#45;&gt;Node15 -->
<g id="edge12" class="edge">
<title>Node5&#45;&gt;Node15</title>
<path fill="none" stroke="#63b8ff" d="M307.69,-205.39C316.7,-205.54 325.8,-205.69 334.62,-205.84"/>
<polygon fill="#63b8ff" stroke="#63b8ff" points="307.93,-201.89 297.88,-205.22 307.81,-208.89 307.93,-201.89"/>
</g>
<!-- Node7 -->
<g id="node9" class="node">
<title>Node7</title>
<g id="a_node9"><a xlink:href="classSccg_1_1Builtin_1_1Sources_1_1NeovimEditorHighlightSource_1_1Item.html" target="_top" xlink:title="SourceItem for Neovim&#39;s editor highlight&#45;groups.">
<polygon fill="white" stroke="#666666" points="669.5,-78 526.5,-78 526.5,-48 669.5,-48 669.5,-78"/>
<text text-anchor="start" x="534.5" y="-66" font-family="Helvetica,sans-Serif" font-size="10.00">Sccg.Builtin.Sources.Neovim</text>
<text text-anchor="middle" x="598" y="-55" font-family="Helvetica,sans-Serif" font-size="10.00">EditorHighlightSource.Item</text>
</a>
</g>
</g>
<!-- Node6&#45;&gt;Node7 -->
<g id="edge8" class="edge">
<title>Node6&#45;&gt;Node7</title>
<path fill="none" stroke="#63b8ff" d="M475.76,-93.39C495.3,-88.49 516.35,-83.21 535.35,-78.45"/>
<polygon fill="#63b8ff" stroke="#63b8ff" points="475.1,-89.95 466.25,-95.77 476.8,-96.74 475.1,-89.95"/>
</g>
<!-- Node8 -->
<g id="node10" class="node">
<title>Node8</title>
<g id="a_node10"><a xlink:href="classSccg_1_1Builtin_1_1Sources_1_1NeovimLspDiagnosticHighlightSource_1_1Item.html" target="_top" xlink:title="SourceItem for Neovim LSP diagnostic highlight.">
<polygon fill="white" stroke="#666666" points="683,-30 513,-30 513,0 683,0 683,-30"/>
<text text-anchor="start" x="521" y="-18" font-family="Helvetica,sans-Serif" font-size="10.00">Sccg.Builtin.Sources.Neovim</text>
<text text-anchor="middle" x="598" y="-7" font-family="Helvetica,sans-Serif" font-size="10.00">LspDiagnosticHighlightSource.Item</text>
</a>
</g>
</g>
<!-- Node6&#45;&gt;Node8 -->
<g id="edge9" class="edge">
<title>Node6&#45;&gt;Node8</title>
<path fill="none" stroke="#63b8ff" d="M433.16,-88.94C454.06,-73.17 484.02,-52.44 513,-39 519.88,-35.81 527.28,-32.95 534.73,-30.41"/>
<polygon fill="#63b8ff" stroke="#63b8ff" points="431.23,-86.01 425.42,-94.87 435.49,-91.56 431.23,-86.01"/>
</g>
<!-- Node9 -->
<g id="node11" class="node">
<title>Node9</title>
<g id="a_node11"><a xlink:href="classSccg_1_1Builtin_1_1Sources_1_1NeovimTreesitterHighlightSource_1_1Item.html" target="_top" xlink:title="SourceItem for Neovim Treesitter highlight.">
<polygon fill="white" stroke="#666666" points="672.5,-126 523.5,-126 523.5,-96 672.5,-96 672.5,-126"/>
<text text-anchor="start" x="531.5" y="-114" font-family="Helvetica,sans-Serif" font-size="10.00">Sccg.Builtin.Sources.Neovim</text>
<text text-anchor="middle" x="598" y="-103" font-family="Helvetica,sans-Serif" font-size="10.00">TreesitterHighlightSource.Item</text>
</a>
</g>
</g>
<!-- Node6&#45;&gt;Node9 -->
<g id="edge10" class="edge">
<title>Node6&#45;&gt;Node9</title>
<path fill="none" stroke="#63b8ff" d="M476.26,-111C491.54,-111 507.74,-111 523.14,-111"/>
<polygon fill="#63b8ff" stroke="#63b8ff" points="476.29,-107.5 466.29,-111 476.29,-114.5 476.29,-107.5"/>
</g>
<!-- Node10 -->
<g id="node12" class="node">
<title>Node10</title>
<g id="a_node12"><a xlink:href="classSccg_1_1Builtin_1_1Sources_1_1VimSyntaxGroupSource_1_1Item.html" target="_top" xlink:title="SourceItem for Vim/Neovim syntax group.">
<polygon fill="white" stroke="#666666" points="661,-174 535,-174 535,-144 661,-144 661,-174"/>
<text text-anchor="start" x="543" y="-162" font-family="Helvetica,sans-Serif" font-size="10.00">Sccg.Builtin.Sources.Vim</text>
<text text-anchor="middle" x="598" y="-151" font-family="Helvetica,sans-Serif" font-size="10.00">SyntaxGroupSource.Item</text>
</a>
</g>
</g>
<!-- Node6&#45;&gt;Node10 -->
<g id="edge11" class="edge">
<title>Node6&#45;&gt;Node10</title>
<path fill="none" stroke="#63b8ff" d="M475.76,-128.61C495.3,-133.51 516.35,-138.79 535.35,-143.55"/>
<polygon fill="#63b8ff" stroke="#63b8ff" points="476.8,-125.26 466.25,-126.23 475.1,-132.05 476.8,-125.26"/>
</g>
<!-- Node15&#45;&gt;Node1 -->
<g id="edge13" class="edge">
<title>Node15&#45;&gt;Node1</title>
<path fill="none" stroke="#63b8ff" d="M463.33,-226.18C467.96,-227.79 472.56,-229.41 477,-231 504.19,-240.77 534.58,-252.43 557.97,-261.56"/>
<polygon fill="#63b8ff" stroke="#63b8ff" points="464.55,-222.9 453.95,-222.96 462.27,-229.52 464.55,-222.9"/>
</g>
<!-- Node14 -->
<g id="node15" class="node">
<title>Node14</title>
<g id="a_node15"><a xlink:href="interfaceSccg_1_1Builtin_1_1Formatters_1_1IVimArrayVariableSourceItem.html" target="_top" xlink:title="SourceItem for Vim color scheme.">
<polygon fill="white" stroke="#666666" points="477,-270 332,-270 332,-240 477,-240 477,-270"/>
<text text-anchor="start" x="340" y="-258" font-family="Helvetica,sans-Serif" font-size="10.00">Sccg.Builtin.Formatters.</text>
<text text-anchor="middle" x="404.5" y="-247" font-family="Helvetica,sans-Serif" font-size="10.00">IVimArrayVariableSourceItem</text>
</a>
</g>
</g>
<!-- Node13&#45;&gt;Node14 -->
<g id="edge15" class="edge">
<title>Node13&#45;&gt;Node14</title>
<path fill="none" stroke="#63b8ff" d="M307.65,-253.38C315.68,-253.52 323.8,-253.66 331.72,-253.79"/>
<polygon fill="#63b8ff" stroke="#63b8ff" points="307.93,-249.89 297.88,-253.22 307.81,-256.89 307.93,-249.89"/>
</g>
<!-- Node11 -->
<g id="node16" class="node">
<title>Node11</title>
<g id="a_node16"><a xlink:href="interfaceSccg_1_1Builtin_1_1Formatters_1_1IVimSourceItem.html" target="_top" xlink:title="SourceItem for Vim color scheme.">
<polygon fill="white" stroke="#666666" points="464.5,-174 344.5,-174 344.5,-144 464.5,-144 464.5,-174"/>
<text text-anchor="start" x="352.5" y="-162" font-family="Helvetica,sans-Serif" font-size="10.00">Sccg.Builtin.Formatters.</text>
<text text-anchor="middle" x="404.5" y="-151" font-family="Helvetica,sans-Serif" font-size="10.00">IVimSourceItem</text>
</a>
</g>
</g>
<!-- Node13&#45;&gt;Node11 -->
<g id="edge17" class="edge">
<title>Node13&#45;&gt;Node11</title>
<path fill="none" stroke="#63b8ff" d="M291.04,-231.23C292.74,-230.2 294.4,-229.12 296,-228 316.96,-213.28 311.01,-197.67 332,-183 336.62,-179.77 341.7,-176.96 346.96,-174.5"/>
<polygon fill="#63b8ff" stroke="#63b8ff" points="289.42,-228.12 282.23,-235.9 292.7,-234.31 289.42,-228.12"/>
</g>
<!-- Node14&#45;&gt;Node1 -->
<g id="edge16" class="edge">
<title>Node14&#45;&gt;Node1</title>
<path fill="none" stroke="#63b8ff" d="M488.41,-264.53C501.7,-266.05 515.32,-267.62 528.24,-269.1"/>
<polygon fill="#63b8ff" stroke="#63b8ff" points="489.19,-261.09 478.86,-263.43 488.39,-268.05 489.19,-261.09"/>
</g>
<!-- Node11&#45;&gt;Node10 -->
<g id="edge19" class="edge">
<title>Node11&#45;&gt;Node10</title>
<path fill="none" stroke="#63b8ff" d="M476.19,-159C495.38,-159 516,-159 534.69,-159"/>
<polygon fill="#63b8ff" stroke="#63b8ff" points="476.29,-155.5 466.29,-159 476.29,-162.5 476.29,-155.5"/>
</g>
<!-- Node12 -->
<g id="node17" class="node">
<title>Node12</title>
<g id="a_node17"><a xlink:href="classSccg_1_1Builtin_1_1Sources_1_1VimEditorHighlightSource_1_1Item.html" target="_top" xlink:title="SourceItem for Vim editor highlight.">
<polygon fill="white" stroke="#666666" points="664,-222 532,-222 532,-192 664,-192 664,-222"/>
<text text-anchor="start" x="540" y="-210" font-family="Helvetica,sans-Serif" font-size="10.00">Sccg.Builtin.Sources.Vim</text>
<text text-anchor="middle" x="598" y="-199" font-family="Helvetica,sans-Serif" font-size="10.00">EditorHighlightSource.Item</text>
</a>
</g>
</g>
<!-- Node11&#45;&gt;Node12 -->
<g id="edge18" class="edge">
<title>Node11&#45;&gt;Node12</title>
<path fill="none" stroke="#63b8ff" d="M475.76,-176.61C495.3,-181.51 516.35,-186.79 535.35,-191.55"/>
<polygon fill="#63b8ff" stroke="#63b8ff" points="476.8,-173.26 466.25,-174.23 475.1,-180.05 476.8,-173.26"/>
</g>
</g>
</svg>
