<?xml version="1.0" encoding="UTF-8" standalone="no"?>
<!DOCTYPE svg PUBLIC "-//W3C//DTD SVG 1.1//EN"
 "http://www.w3.org/Graphics/SVG/1.1/DTD/svg11.dtd">
<!-- Generated by graphviz version 8.0.1 (20230327.1645)
 -->
<!-- Title: Graphical Class Hierarchy Pages: 1 -->
<svg width="280pt" height="86pt"
 viewBox="0.00 0.00 280.00 86.00" xmlns="http://www.w3.org/2000/svg" xmlns:xlink="http://www.w3.org/1999/xlink">
<g id="graph0" class="graph" transform="scale(1 1) rotate(0) translate(4 82)">
<title>Graphical Class Hierarchy</title>
<!-- Node0 -->
<g id="node1" class="node">
<title>Node0</title>
<g id="a_node1"><a xlink:href="interfaceSccg_1_1Core_1_1ISource.html" target="_top" xlink:title="Represents a source that provides source items.">
<polygon fill="white" stroke="#666666" points="98,-48.5 0,-48.5 0,-29.5 98,-29.5 98,-48.5"/>
<text text-anchor="middle" x="49" y="-36.5" font-family="Helvetica,sans-Serif" font-size="10.00">Sccg.Core.ISource</text>
</a>
</g>
</g>
<!-- Node1 -->
<g id="node2" class="node">
<title>Node1</title>
<g id="a_node2"><a xlink:href="classSccg_1_1Core_1_1Source.html" target="_top" xlink:title="The base class of the ISource. This class provides some helper methods and standard implementation of...">
<polygon fill="white" stroke="#666666" points="272,-78 134,-78 134,-48 272,-48 272,-78"/>
<text text-anchor="start" x="142" y="-66" font-family="Helvetica,sans-Serif" font-size="10.00">Sccg.Core.Source&lt; TGroup,</text>
<text text-anchor="middle" x="203" y="-55" font-family="Helvetica,sans-Serif" font-size="10.00"> TItem &gt;</text>
</a>
</g>
</g>
<!-- Node0&#45;&gt;Node1 -->
<g id="edge1" class="edge">
<title>Node0&#45;&gt;Node1</title>
<path fill="none" stroke="#63b8ff" d="M108.94,-48.31C117.04,-49.59 125.42,-50.91 133.67,-52.21"/>
<polygon fill="#63b8ff" stroke="#63b8ff" points="109.52,-44.7 99.09,-46.59 108.43,-51.61 109.52,-44.7"/>
</g>
<!-- Node2 -->
<g id="node3" class="node">
<title>Node2</title>
<g id="a_node3"><a xlink:href="classSccg_1_1Core_1_1SourceColorOnly.html" target="_top" xlink:title="The base class of the ISource. This class provides some helper methods and standard implementation of...">
<polygon fill="white" stroke="#666666" points="271.5,-30 134.5,-30 134.5,0 271.5,0 271.5,-30"/>
<text text-anchor="start" x="142.5" y="-18" font-family="Helvetica,sans-Serif" font-size="10.00">Sccg.Core.SourceColorOnly</text>
<text text-anchor="middle" x="203" y="-7" font-family="Helvetica,sans-Serif" font-size="10.00">&lt; TGroup, TItem &gt;</text>
</a>
</g>
</g>
<!-- Node0&#45;&gt;Node2 -->
<g id="edge2" class="edge">
<title>Node0&#45;&gt;Node2</title>
<path fill="none" stroke="#63b8ff" d="M108.83,-29.71C117.15,-28.4 125.75,-27.04 134.22,-25.7"/>
<polygon fill="#63b8ff" stroke="#63b8ff" points="108.43,-26.39 99.09,-31.41 109.52,-33.3 108.43,-26.39"/>
</g>
</g>
</svg>
