<?xml version="1.0" encoding="UTF-8" standalone="no"?>
<!DOCTYPE svg PUBLIC "-//W3C//DTD SVG 1.1//EN"
 "http://www.w3.org/Graphics/SVG/1.1/DTD/svg11.dtd">
<!-- Generated by graphviz version 7.1.0 (20230121.1956)
 -->
<!-- Title: Graphical Class Hierarchy Pages: 1 -->
<svg width="282pt" height="76pt"
 viewBox="0.00 0.00 282.00 75.50" xmlns="http://www.w3.org/2000/svg" xmlns:xlink="http://www.w3.org/1999/xlink">
<g id="graph0" class="graph" transform="scale(1 1) rotate(0) translate(4 71.5)">
<title>Graphical Class Hierarchy</title>
<!-- Node0 -->
<g id="node1" class="node">
<title>Node0</title>
<g id="a_node1"><a xlink:href="interfaceSccg_1_1Core_1_1IWriter.html" target="_top" xlink:title="Represents a writer that writes the content to some form.">
<polygon fill="white" stroke="#666666" points="92,-40 0,-40 0,-21 92,-21 92,-40"/>
<text text-anchor="middle" x="46" y="-28" font-family="Helvetica,sans-Serif" font-size="10.00">Sccg.Core.IWriter</text>
</a>
</g>
</g>
<!-- Node1 -->
<g id="node2" class="node">
<title>Node1</title>
<g id="a_node2"><a xlink:href="classSccg_1_1Builtin_1_1Writers_1_1ConsoleWriter.html" target="_top" xlink:title="A writer that writes to the console.">
<polygon fill="white" stroke="#666666" points="270.5,-67.5 131.5,-67.5 131.5,-37.5 270.5,-37.5 270.5,-67.5"/>
<text text-anchor="start" x="139.5" y="-55.5" font-family="Helvetica,sans-Serif" font-size="10.00">Sccg.Builtin.Writers.Console</text>
<text text-anchor="middle" x="201" y="-44.5" font-family="Helvetica,sans-Serif" font-size="10.00">Writer</text>
</a>
</g>
</g>
<!-- Node0&#45;&gt;Node1 -->
<g id="edge1" class="edge">
<title>Node0&#45;&gt;Node1</title>
<path fill="none" stroke="#63b8ff" d="M103.61,-38.64C112.58,-39.93 121.95,-41.28 131.17,-42.6"/>
<polygon fill="#63b8ff" stroke="#63b8ff" points="104.39,-35.22 93.99,-37.26 103.39,-42.14 104.39,-35.22"/>
</g>
<!-- Node2 -->
<g id="node3" class="node">
<title>Node2</title>
<g id="a_node3"><a xlink:href="classSccg_1_1Core_1_1Writer.html" target="_top" xlink:title="The base class of IContent.">
<polygon fill="white" stroke="#666666" points="274,-19 128,-19 128,0 274,0 274,-19"/>
<text text-anchor="middle" x="201" y="-7" font-family="Helvetica,sans-Serif" font-size="10.00">Sccg.Core.Writer&lt; TContent &gt;</text>
</a>
</g>
</g>
<!-- Node0&#45;&gt;Node2 -->
<g id="edge2" class="edge">
<title>Node0&#45;&gt;Node2</title>
<path fill="none" stroke="#63b8ff" d="M103.71,-22.72C111.55,-21.64 119.68,-20.52 127.74,-19.42"/>
<polygon fill="#63b8ff" stroke="#63b8ff" points="103.42,-19.22 93.99,-24.05 104.37,-26.16 103.42,-19.22"/>
</g>
</g>
</svg>
