<?xml version="1.0" encoding="UTF-8" standalone="no"?>
<!DOCTYPE svg PUBLIC "-//W3C//DTD SVG 1.1//EN"
 "http://www.w3.org/Graphics/SVG/1.1/DTD/svg11.dtd">
<!-- Generated by graphviz version 8.0.1 (20230327.1645)
 -->
<!-- Title: Graphical Class Hierarchy Pages: 1 -->
<svg width="276pt" height="86pt"
 viewBox="0.00 0.00 276.00 86.00" xmlns="http://www.w3.org/2000/svg" xmlns:xlink="http://www.w3.org/1999/xlink">
<g id="graph0" class="graph" transform="scale(1 1) rotate(0) translate(4 82)">
<title>Graphical Class Hierarchy</title>
<!-- Node0 -->
<g id="node1" class="node">
<title>Node0</title>
<g id="a_node1"><a xlink:href="interfaceSccg_1_1Core_1_1IContent.html" target="_top" xlink:title="Represents a content.">
<polygon fill="white" stroke="#666666" points="101,-48.5 0,-48.5 0,-29.5 101,-29.5 101,-48.5"/>
<text text-anchor="middle" x="50.5" y="-36.5" font-family="Helvetica,sans-Serif" font-size="10.00">Sccg.Core.IContent</text>
</a>
</g>
</g>
<!-- Node1 -->
<g id="node2" class="node">
<title>Node1</title>
<g id="a_node2"><a xlink:href="classSccg_1_1Builtin_1_1Writers_1_1MultiTextContent.html" target="_top" xlink:title="Represents multiple file text content.">
<polygon fill="white" stroke="#666666" points="265,-78 140,-78 140,-48 265,-48 265,-78"/>
<text text-anchor="start" x="148" y="-66" font-family="Helvetica,sans-Serif" font-size="10.00">Sccg.Builtin.Writers.Multi</text>
<text text-anchor="middle" x="202.5" y="-55" font-family="Helvetica,sans-Serif" font-size="10.00">TextContent</text>
</a>
</g>
</g>
<!-- Node0&#45;&gt;Node1 -->
<g id="edge1" class="edge">
<title>Node0&#45;&gt;Node1</title>
<path fill="none" stroke="#63b8ff" d="M112.31,-48.73C121.36,-50.18 130.69,-51.67 139.76,-53.12"/>
<polygon fill="#63b8ff" stroke="#63b8ff" points="112.88,-45.12 102.45,-46.99 111.77,-52.03 112.88,-45.12"/>
</g>
<!-- Node2 -->
<g id="node3" class="node">
<title>Node2</title>
<g id="a_node3"><a xlink:href="classSccg_1_1Builtin_1_1Writers_1_1SingleTextContent.html" target="_top" xlink:title="Represents a single file text content.">
<polygon fill="white" stroke="#666666" points="268,-30 137,-30 137,0 268,0 268,-30"/>
<text text-anchor="start" x="145" y="-18" font-family="Helvetica,sans-Serif" font-size="10.00">Sccg.Builtin.Writers.Single</text>
<text text-anchor="middle" x="202.5" y="-7" font-family="Helvetica,sans-Serif" font-size="10.00">TextContent</text>
</a>
</g>
</g>
<!-- Node0&#45;&gt;Node2 -->
<g id="edge2" class="edge">
<title>Node0&#45;&gt;Node2</title>
<path fill="none" stroke="#63b8ff" d="M112.21,-29.29C120.23,-28 128.47,-26.68 136.56,-25.39"/>
<polygon fill="#63b8ff" stroke="#63b8ff" points="111.77,-25.97 102.45,-31.01 112.88,-32.88 111.77,-25.97"/>
</g>
</g>
</svg>
