<?xml version="1.0" encoding="UTF-8" standalone="no"?>
<!DOCTYPE svg PUBLIC "-//W3C//DTD SVG 1.1//EN"
 "http://www.w3.org/Graphics/SVG/1.1/DTD/svg11.dtd">
<!-- Generated by graphviz version 7.1.0 (20230121.1956)
 -->
<!-- Title: Graphical Class Hierarchy Pages: 1 -->
<svg width="485pt" height="182pt"
 viewBox="0.00 0.00 485.00 182.00" xmlns="http://www.w3.org/2000/svg" xmlns:xlink="http://www.w3.org/1999/xlink">
<g id="graph0" class="graph" transform="scale(1 1) rotate(0) translate(4 178)">
<title>Graphical Class Hierarchy</title>
<!-- Node0 -->
<g id="node1" class="node">
<title>Node0</title>
<g id="a_node1"><a xlink:href="interfaceSccg_1_1Core_1_1ISourceItem.html" target="_top" xlink:title=" ">
<polygon fill="white" stroke="#666666" points="117,-72.5 0,-72.5 0,-53.5 117,-53.5 117,-72.5"/>
<text text-anchor="middle" x="58.5" y="-60.5" font-family="Helvetica,sans-Serif" font-size="10.00">Sccg.Core.ISourceItem</text>
</a>
</g>
</g>
<!-- Node1 -->
<g id="node2" class="node">
<title>Node1</title>
<g id="a_node2"><a xlink:href="interfaceSccg_1_1Builtin_1_1Formatters_1_1INeovimSourceItem.html" target="_top" xlink:title=" ">
<polygon fill="white" stroke="#666666" points="282.5,-126 162.5,-126 162.5,-96 282.5,-96 282.5,-126"/>
<text text-anchor="start" x="170.5" y="-114" font-family="Helvetica,sans-Serif" font-size="10.00">Sccg.Builtin.Formatters.</text>
<text text-anchor="middle" x="222.5" y="-103" font-family="Helvetica,sans-Serif" font-size="10.00">INeovimSourceItem</text>
</a>
</g>
</g>
<!-- Node0&#45;&gt;Node1 -->
<g id="edge1" class="edge">
<title>Node0&#45;&gt;Node1</title>
<path fill="none" stroke="#63b8ff" d="M103.89,-76.15C124.18,-82.16 148.34,-89.32 169.47,-95.58"/>
<polygon fill="#63b8ff" stroke="#63b8ff" points="105.1,-72.86 94.52,-73.38 103.11,-79.57 105.1,-72.86"/>
</g>
<!-- Node5 -->
<g id="node6" class="node">
<title>Node5</title>
<g id="a_node6"><a xlink:href="interfaceSccg_1_1Builtin_1_1Formatters_1_1IVimSourceItem.html" target="_top" xlink:title=" ">
<polygon fill="white" stroke="#666666" points="282.5,-78 162.5,-78 162.5,-48 282.5,-48 282.5,-78"/>
<text text-anchor="start" x="170.5" y="-66" font-family="Helvetica,sans-Serif" font-size="10.00">Sccg.Builtin.Formatters.</text>
<text text-anchor="middle" x="222.5" y="-55" font-family="Helvetica,sans-Serif" font-size="10.00">IVimSourceItem</text>
</a>
</g>
</g>
<!-- Node0&#45;&gt;Node5 -->
<g id="edge5" class="edge">
<title>Node0&#45;&gt;Node5</title>
<path fill="none" stroke="#63b8ff" d="M128.58,-63C139.77,-63 151.27,-63 162.2,-63"/>
<polygon fill="#63b8ff" stroke="#63b8ff" points="128.58,-59.5 118.58,-63 128.58,-66.5 128.58,-59.5"/>
</g>
<!-- Node7 -->
<g id="node8" class="node">
<title>Node7</title>
<g id="a_node8"><a xlink:href="classSccg_1_1Builtin_1_1Sources_1_1Ansi16ColorSource_1_1Item.html" target="_top" xlink:title=" ">
<polygon fill="white" stroke="#666666" points="292,-30 153,-30 153,0 292,0 292,-30"/>
<text text-anchor="start" x="161" y="-18" font-family="Helvetica,sans-Serif" font-size="10.00">Sccg.Builtin.Sources.Ansi16</text>
<text text-anchor="middle" x="222.5" y="-7" font-family="Helvetica,sans-Serif" font-size="10.00">ColorSource.Item</text>
</a>
</g>
</g>
<!-- Node0&#45;&gt;Node7 -->
<g id="edge8" class="edge">
<title>Node0&#45;&gt;Node7</title>
<path fill="none" stroke="#63b8ff" d="M103.89,-49.85C124.18,-43.84 148.34,-36.68 169.47,-30.42"/>
<polygon fill="#63b8ff" stroke="#63b8ff" points="103.11,-46.43 94.52,-52.62 105.1,-53.14 103.11,-46.43"/>
</g>
<!-- Node2 -->
<g id="node3" class="node">
<title>Node2</title>
<g id="a_node3"><a xlink:href="classSccg_1_1Builtin_1_1Sources_1_1NeovimEditorHighlightSource_1_1Item.html" target="_top" xlink:title=" ">
<polygon fill="white" stroke="#666666" points="474,-174 331,-174 331,-144 474,-144 474,-174"/>
<text text-anchor="start" x="339" y="-162" font-family="Helvetica,sans-Serif" font-size="10.00">Sccg.Builtin.Sources.Neovim</text>
<text text-anchor="middle" x="402.5" y="-151" font-family="Helvetica,sans-Serif" font-size="10.00">EditorHighlightSource.Item</text>
</a>
</g>
</g>
<!-- Node1&#45;&gt;Node2 -->
<g id="edge2" class="edge">
<title>Node1&#45;&gt;Node2</title>
<path fill="none" stroke="#63b8ff" d="M291.48,-129.33C308.91,-134.03 327.48,-139.04 344.31,-143.58"/>
<polygon fill="#63b8ff" stroke="#63b8ff" points="292.83,-126.07 282.26,-126.85 291.01,-132.83 292.83,-126.07"/>
</g>
<!-- Node3 -->
<g id="node4" class="node">
<title>Node3</title>
<g id="a_node4"><a xlink:href="classSccg_1_1Builtin_1_1Sources_1_1NeovimTreesitterHighlightSource_1_1Item.html" target="_top" xlink:title=" ">
<polygon fill="white" stroke="#666666" points="477,-126 328,-126 328,-96 477,-96 477,-126"/>
<text text-anchor="start" x="336" y="-114" font-family="Helvetica,sans-Serif" font-size="10.00">Sccg.Builtin.Sources.Neovim</text>
<text text-anchor="middle" x="402.5" y="-103" font-family="Helvetica,sans-Serif" font-size="10.00">TreesitterHighlightSource.Item</text>
</a>
</g>
</g>
<!-- Node1&#45;&gt;Node3 -->
<g id="edge3" class="edge">
<title>Node1&#45;&gt;Node3</title>
<path fill="none" stroke="#63b8ff" d="M294.08,-111C305.1,-111 316.51,-111 327.6,-111"/>
<polygon fill="#63b8ff" stroke="#63b8ff" points="294.28,-107.5 284.28,-111 294.28,-114.5 294.28,-107.5"/>
</g>
<!-- Node4 -->
<g id="node5" class="node">
<title>Node4</title>
<g id="a_node5"><a xlink:href="classSccg_1_1Builtin_1_1Sources_1_1VimSyntaxGroupSource_1_1Item.html" target="_top" xlink:title=" ">
<polygon fill="white" stroke="#666666" points="465.5,-78 339.5,-78 339.5,-48 465.5,-48 465.5,-78"/>
<text text-anchor="start" x="347.5" y="-66" font-family="Helvetica,sans-Serif" font-size="10.00">Sccg.Builtin.Sources.Vim</text>
<text text-anchor="middle" x="402.5" y="-55" font-family="Helvetica,sans-Serif" font-size="10.00">SyntaxGroupSource.Item</text>
</a>
</g>
</g>
<!-- Node1&#45;&gt;Node4 -->
<g id="edge4" class="edge">
<title>Node1&#45;&gt;Node4</title>
<path fill="none" stroke="#63b8ff" d="M291.48,-92.67C308.91,-87.97 327.48,-82.96 344.31,-78.42"/>
<polygon fill="#63b8ff" stroke="#63b8ff" points="291.01,-89.17 282.26,-95.15 292.83,-95.93 291.01,-89.17"/>
</g>
<!-- Node5&#45;&gt;Node4 -->
<g id="edge7" class="edge">
<title>Node5&#45;&gt;Node4</title>
<path fill="none" stroke="#63b8ff" d="M294,-63C308.91,-63 324.55,-63 339.13,-63"/>
<polygon fill="#63b8ff" stroke="#63b8ff" points="294.28,-59.5 284.28,-63 294.28,-66.5 294.28,-59.5"/>
</g>
<!-- Node6 -->
<g id="node7" class="node">
<title>Node6</title>
<g id="a_node7"><a xlink:href="classSccg_1_1Builtin_1_1Sources_1_1VimEditorHighlightSource_1_1Item.html" target="_top" xlink:title=" ">
<polygon fill="white" stroke="#666666" points="468.5,-30 336.5,-30 336.5,0 468.5,0 468.5,-30"/>
<text text-anchor="start" x="344.5" y="-18" font-family="Helvetica,sans-Serif" font-size="10.00">Sccg.Builtin.Sources.Vim</text>
<text text-anchor="middle" x="402.5" y="-7" font-family="Helvetica,sans-Serif" font-size="10.00">EditorHighlightSource.Item</text>
</a>
</g>
</g>
<!-- Node5&#45;&gt;Node6 -->
<g id="edge6" class="edge">
<title>Node5&#45;&gt;Node6</title>
<path fill="none" stroke="#63b8ff" d="M291.48,-44.67C308.91,-39.97 327.48,-34.96 344.31,-30.42"/>
<polygon fill="#63b8ff" stroke="#63b8ff" points="291.01,-41.17 282.26,-47.15 292.83,-47.93 291.01,-41.17"/>
</g>
</g>
</svg>
