<?xml version="1.0" encoding="UTF-8" standalone="no"?>
<!DOCTYPE svg PUBLIC "-//W3C//DTD SVG 1.1//EN"
 "http://www.w3.org/Graphics/SVG/1.1/DTD/svg11.dtd">
<!-- Generated by graphviz version 8.0.1 (20230327.1645)
 -->
<!-- Title: Graphical Class Hierarchy Pages: 1 -->
<svg width="701pt" height="470pt"
 viewBox="0.00 0.00 701.00 470.00" xmlns="http://www.w3.org/2000/svg" xmlns:xlink="http://www.w3.org/1999/xlink">
<g id="graph0" class="graph" transform="scale(1 1) rotate(0) translate(4 466)">
<title>Graphical Class Hierarchy</title>
<!-- Node0 -->
<g id="node1" class="node">
<title>Node0</title>
<g id="a_node1"><a xlink:title=" ">
<polygon fill="#e0e0e0" stroke="#999999" points="458.5,-453.5 360.5,-453.5 360.5,-434.5 458.5,-434.5 458.5,-453.5"/>
<text text-anchor="middle" x="409.5" y="-441.5" font-family="Helvetica,sans-Serif" font-size="10.00">IIterm2SourceItem</text>
</a>
</g>
</g>
<!-- Node1 -->
<g id="node2" class="node">
<title>Node1</title>
<g id="a_node2"><a xlink:href="classSccg_1_1Builtin_1_1Sources_1_1Ansi16ColorSource_1_1Item.html" target="_top" xlink:title="SourceItem for 16 ANSI colors.">
<polygon fill="white" stroke="#666666" points="677.5,-414 538.5,-414 538.5,-384 677.5,-384 677.5,-414"/>
<text text-anchor="start" x="546.5" y="-402" font-family="Helvetica,sans-Serif" font-size="10.00">Sccg.Builtin.Sources.Ansi16</text>
<text text-anchor="middle" x="608" y="-391" font-family="Helvetica,sans-Serif" font-size="10.00">ColorSource.Item</text>
</a>
</g>
</g>
<!-- Node0&#45;&gt;Node1 -->
<g id="edge1" class="edge">
<title>Node0&#45;&gt;Node1</title>
<path fill="none" stroke="#63b8ff" d="M464.77,-431.57C487.91,-426.27 515.16,-420.03 539.57,-414.44"/>
<polygon fill="#63b8ff" stroke="#63b8ff" points="464.08,-428.37 455.11,-434.01 465.64,-435.19 464.08,-428.37"/>
</g>
<!-- Node22 -->
<g id="node3" class="node">
<title>Node22</title>
<g id="a_node3"><a xlink:href="classSccg_1_1Builtin_1_1Sources_1_1Iterm2ColorsSource_1_1Item.html" target="_top" xlink:title="SourceItem for iTerm2.">
<polygon fill="white" stroke="#666666" points="676.5,-462 539.5,-462 539.5,-432 676.5,-432 676.5,-462"/>
<text text-anchor="start" x="547.5" y="-450" font-family="Helvetica,sans-Serif" font-size="10.00">Sccg.Builtin.Sources.Iterm2</text>
<text text-anchor="middle" x="608" y="-439" font-family="Helvetica,sans-Serif" font-size="10.00">ColorsSource.Item</text>
</a>
</g>
</g>
<!-- Node0&#45;&gt;Node22 -->
<g id="edge2" class="edge">
<title>Node0&#45;&gt;Node22</title>
<path fill="none" stroke="#63b8ff" d="M469.63,-444.9C491.55,-445.24 516.56,-445.62 539.18,-445.96"/>
<polygon fill="#63b8ff" stroke="#63b8ff" points="469.87,-441.39 459.82,-444.74 469.77,-448.39 469.87,-441.39"/>
</g>
<!-- Node4 -->
<g id="node4" class="node">
<title>Node4</title>
<g id="a_node4"><a xlink:href="interfaceSccg_1_1Core_1_1ISourceItem.html" target="_top" xlink:title="Represents a source item.">
<polygon fill="white" stroke="#666666" points="117,-247.5 0,-247.5 0,-228.5 117,-228.5 117,-247.5"/>
<text text-anchor="middle" x="58.5" y="-235.5" font-family="Helvetica,sans-Serif" font-size="10.00">Sccg.Core.ISourceItem</text>
</a>
</g>
</g>
<!-- Node2 -->
<g id="node5" class="node">
<title>Node2</title>
<g id="a_node5"><a xlink:href="interfaceSccg_1_1Builtin_1_1Formatters_1_1IAlacrittySourceItem.html" target="_top" xlink:title="SourceItem for Alacritty config.">
<polygon fill="white" stroke="#666666" points="284.5,-373 164.5,-373 164.5,-343 284.5,-343 284.5,-373"/>
<text text-anchor="start" x="172.5" y="-361" font-family="Helvetica,sans-Serif" font-size="10.00">Sccg.Builtin.Formatters.</text>
<text text-anchor="middle" x="224.5" y="-350" font-family="Helvetica,sans-Serif" font-size="10.00">IAlacrittySourceItem</text>
</a>
</g>
</g>
<!-- Node4&#45;&gt;Node2 -->
<g id="edge3" class="edge">
<title>Node4&#45;&gt;Node2</title>
<path fill="none" stroke="#63b8ff" d="M81.49,-254.09C113.21,-277.3 171.41,-319.88 202.54,-342.66"/>
<polygon fill="#63b8ff" stroke="#63b8ff" points="84.06,-250.9 73.92,-247.82 79.92,-256.55 84.06,-250.9"/>
</g>
<!-- Node5 -->
<g id="node7" class="node">
<title>Node5</title>
<g id="a_node7"><a xlink:href="interfaceSccg_1_1Builtin_1_1Sources_1_1Internal_1_1INeovimSourceItemBase.html" target="_top" xlink:title="Base SourceItem for Neovim.">
<polygon fill="white" stroke="#666666" points="296,-277 153,-277 153,-247 296,-247 296,-277"/>
<text text-anchor="start" x="161" y="-265" font-family="Helvetica,sans-Serif" font-size="10.00">Sccg.Builtin.Sources.Internal.</text>
<text text-anchor="middle" x="224.5" y="-254" font-family="Helvetica,sans-Serif" font-size="10.00">INeovimSourceItemBase</text>
</a>
</g>
</g>
<!-- Node4&#45;&gt;Node5 -->
<g id="edge6" class="edge">
<title>Node4&#45;&gt;Node5</title>
<path fill="none" stroke="#63b8ff" d="M127.94,-248.02C136.11,-249.21 144.48,-250.44 152.69,-251.64"/>
<polygon fill="#63b8ff" stroke="#63b8ff" points="128.72,-244.45 118.32,-246.46 127.71,-251.37 128.72,-244.45"/>
</g>
<!-- Node17 -->
<g id="node15" class="node">
<title>Node17</title>
<g id="a_node15"><a xlink:href="interfaceSccg_1_1Builtin_1_1Sources_1_1Internal_1_1IVSCodeSourceItemBase.html" target="_top" xlink:title="Base SourceItem for VSCode.">
<polygon fill="white" stroke="#666666" points="296,-78 153,-78 153,-48 296,-48 296,-78"/>
<text text-anchor="start" x="161" y="-66" font-family="Helvetica,sans-Serif" font-size="10.00">Sccg.Builtin.Sources.Internal.</text>
<text text-anchor="middle" x="224.5" y="-55" font-family="Helvetica,sans-Serif" font-size="10.00">IVSCodeSourceItemBase</text>
</a>
</g>
</g>
<!-- Node4&#45;&gt;Node17 -->
<g id="edge15" class="edge">
<title>Node4&#45;&gt;Node17</title>
<path fill="none" stroke="#63b8ff" d="M76.11,-220.28C108.33,-185.89 178.84,-110.66 209.16,-78.3"/>
<polygon fill="#63b8ff" stroke="#63b8ff" points="74.07,-217.4 69.79,-227.09 79.18,-222.19 74.07,-217.4"/>
</g>
<!-- Node14 -->
<g id="node20" class="node">
<title>Node14</title>
<g id="a_node20"><a xlink:href="interfaceSccg_1_1Builtin_1_1Sources_1_1Internal_1_1IVimSourceItemBase.html" target="_top" xlink:title="Base SourceItem for Vim.">
<polygon fill="white" stroke="#666666" points="296,-229 153,-229 153,-199 296,-199 296,-229"/>
<text text-anchor="start" x="161" y="-217" font-family="Helvetica,sans-Serif" font-size="10.00">Sccg.Builtin.Sources.Internal.</text>
<text text-anchor="middle" x="224.5" y="-206" font-family="Helvetica,sans-Serif" font-size="10.00">IVimSourceItemBase</text>
</a>
</g>
</g>
<!-- Node4&#45;&gt;Node14 -->
<g id="edge20" class="edge">
<title>Node4&#45;&gt;Node14</title>
<path fill="none" stroke="#63b8ff" d="M127.94,-227.98C136.11,-226.79 144.48,-225.56 152.69,-224.36"/>
<polygon fill="#63b8ff" stroke="#63b8ff" points="127.71,-224.63 118.32,-229.54 128.72,-231.55 127.71,-224.63"/>
</g>
<!-- Node2&#45;&gt;Node1 -->
<g id="edge5" class="edge">
<title>Node2&#45;&gt;Node1</title>
<path fill="none" stroke="#63b8ff" d="M295.43,-375.43C307.56,-377.97 320.1,-380.3 332,-382 401.73,-391.95 482.23,-396.08 538.03,-397.79"/>
<polygon fill="#63b8ff" stroke="#63b8ff" points="296.41,-371.84 285.9,-373.15 294.93,-378.69 296.41,-371.84"/>
</g>
<!-- Node3 -->
<g id="node6" class="node">
<title>Node3</title>
<g id="a_node6"><a xlink:href="classSccg_1_1Builtin_1_1Sources_1_1AlacrittyColorsSource_1_1Item.html" target="_top" xlink:title="SourceItem for Alacritty.">
<polygon fill="white" stroke="#666666" points="481.5,-373 337.5,-373 337.5,-343 481.5,-343 481.5,-373"/>
<text text-anchor="start" x="345.5" y="-361" font-family="Helvetica,sans-Serif" font-size="10.00">Sccg.Builtin.Sources.Alacritty</text>
<text text-anchor="middle" x="409.5" y="-350" font-family="Helvetica,sans-Serif" font-size="10.00">ColorsSource.Item</text>
</a>
</g>
</g>
<!-- Node2&#45;&gt;Node3 -->
<g id="edge4" class="edge">
<title>Node2&#45;&gt;Node3</title>
<path fill="none" stroke="#63b8ff" d="M295.67,-358C309.3,-358 323.6,-358 337.26,-358"/>
<polygon fill="#63b8ff" stroke="#63b8ff" points="295.91,-354.5 285.91,-358 295.91,-361.5 295.91,-354.5"/>
</g>
<!-- Node6 -->
<g id="node8" class="node">
<title>Node6</title>
<g id="a_node8"><a xlink:href="interfaceSccg_1_1Builtin_1_1Formatters_1_1INeovimSourceItem.html" target="_top" xlink:title="SourceItem for Neovim color scheme.">
<polygon fill="white" stroke="#666666" points="469.5,-229 349.5,-229 349.5,-199 469.5,-199 469.5,-229"/>
<text text-anchor="start" x="357.5" y="-217" font-family="Helvetica,sans-Serif" font-size="10.00">Sccg.Builtin.Formatters.</text>
<text text-anchor="middle" x="409.5" y="-206" font-family="Helvetica,sans-Serif" font-size="10.00">INeovimSourceItem</text>
</a>
</g>
</g>
<!-- Node5&#45;&gt;Node6 -->
<g id="edge7" class="edge">
<title>Node5&#45;&gt;Node6</title>
<path fill="none" stroke="#63b8ff" d="M294.88,-243.8C312.95,-239.06 332.24,-234 349.7,-229.42"/>
<polygon fill="#63b8ff" stroke="#63b8ff" points="294.19,-240.63 285.41,-246.55 295.97,-247.4 294.19,-240.63"/>
</g>
<!-- Node16 -->
<g id="node14" class="node">
<title>Node16</title>
<g id="a_node14"><a xlink:href="interfaceSccg_1_1Builtin_1_1Formatters_1_1INeovimVariableSourceItem.html" target="_top" xlink:title="SourceItem for Neovim color scheme.">
<polygon fill="white" stroke="#666666" points="479,-325 340,-325 340,-295 479,-295 479,-325"/>
<text text-anchor="start" x="348" y="-313" font-family="Helvetica,sans-Serif" font-size="10.00">Sccg.Builtin.Formatters.</text>
<text text-anchor="middle" x="409.5" y="-302" font-family="Helvetica,sans-Serif" font-size="10.00">INeovimVariableSourceItem</text>
</a>
</g>
</g>
<!-- Node5&#45;&gt;Node16 -->
<g id="edge13" class="edge">
<title>Node5&#45;&gt;Node16</title>
<path fill="none" stroke="#63b8ff" d="M294.88,-280.2C312.95,-284.94 332.24,-290 349.7,-294.58"/>
<polygon fill="#63b8ff" stroke="#63b8ff" points="295.97,-276.6 285.41,-277.45 294.19,-283.37 295.97,-276.6"/>
</g>
<!-- Node7 -->
<g id="node9" class="node">
<title>Node7</title>
<g id="a_node9"><a xlink:href="classSccg_1_1Builtin_1_1Sources_1_1NeovimEditorHighlightSource_1_1Item.html" target="_top" xlink:title="SourceItem for Neovim&#39;s editor highlight&#45;groups.">
<polygon fill="white" stroke="#666666" points="679.5,-270 536.5,-270 536.5,-240 679.5,-240 679.5,-270"/>
<text text-anchor="start" x="544.5" y="-258" font-family="Helvetica,sans-Serif" font-size="10.00">Sccg.Builtin.Sources.Neovim</text>
<text text-anchor="middle" x="608" y="-247" font-family="Helvetica,sans-Serif" font-size="10.00">EditorHighlightSource.Item</text>
</a>
</g>
</g>
<!-- Node6&#45;&gt;Node7 -->
<g id="edge8" class="edge">
<title>Node6&#45;&gt;Node7</title>
<path fill="none" stroke="#63b8ff" d="M480.73,-228.65C498.79,-232.42 518.22,-236.48 536.3,-240.25"/>
<polygon fill="#63b8ff" stroke="#63b8ff" points="481.49,-225.03 470.99,-226.41 480.06,-231.88 481.49,-225.03"/>
</g>
<!-- Node8 -->
<g id="node10" class="node">
<title>Node8</title>
<g id="a_node10"><a xlink:href="classSccg_1_1Builtin_1_1Sources_1_1NeovimLspDiagnosticHighlightSource_1_1Item.html" target="_top" xlink:title="SourceItem for Neovim LSP diagnostic highlight.">
<polygon fill="white" stroke="#666666" points="693,-366 523,-366 523,-336 693,-336 693,-366"/>
<text text-anchor="start" x="531" y="-354" font-family="Helvetica,sans-Serif" font-size="10.00">Sccg.Builtin.Sources.Neovim</text>
<text text-anchor="middle" x="608" y="-343" font-family="Helvetica,sans-Serif" font-size="10.00">LspDiagnosticHighlightSource.Item</text>
</a>
</g>
</g>
<!-- Node6&#45;&gt;Node8 -->
<g id="edge9" class="edge">
<title>Node6&#45;&gt;Node8</title>
<path fill="none" stroke="#63b8ff" d="M479.15,-231.89C481.94,-233.73 484.57,-235.76 487,-238 518.36,-266.93 491.27,-298.47 523,-327 526.72,-330.35 530.88,-333.23 535.3,-335.71"/>
<polygon fill="#63b8ff" stroke="#63b8ff" points="481.26,-228.49 470.83,-226.63 477.82,-234.59 481.26,-228.49"/>
</g>
<!-- Node9 -->
<g id="node11" class="node">
<title>Node9</title>
<g id="a_node11"><a xlink:href="classSccg_1_1Builtin_1_1Sources_1_1NeovimTreesitterHighlightSource_1_1Item.html" target="_top" xlink:title="SourceItem for Neovim Treesitter highlight.">
<polygon fill="white" stroke="#666666" points="682.5,-318 533.5,-318 533.5,-288 682.5,-288 682.5,-318"/>
<text text-anchor="start" x="541.5" y="-306" font-family="Helvetica,sans-Serif" font-size="10.00">Sccg.Builtin.Sources.Neovim</text>
<text text-anchor="middle" x="608" y="-295" font-family="Helvetica,sans-Serif" font-size="10.00">TreesitterHighlightSource.Item</text>
</a>
</g>
</g>
<!-- Node6&#45;&gt;Node9 -->
<g id="edge10" class="edge">
<title>Node6&#45;&gt;Node9</title>
<path fill="none" stroke="#63b8ff" d="M479.41,-233.54C482.03,-234.93 484.57,-236.42 487,-238 507.32,-251.23 502.51,-266.03 523,-279 528.13,-282.24 533.7,-285.06 539.46,-287.5"/>
<polygon fill="#63b8ff" stroke="#63b8ff" points="481.18,-230.03 470.65,-228.9 478.17,-236.36 481.18,-230.03"/>
</g>
<!-- Node10 -->
<g id="node12" class="node">
<title>Node10</title>
<g id="a_node12"><a xlink:href="classSccg_1_1Builtin_1_1Sources_1_1VimCustomGroupSource_1_1Item.html" target="_top" xlink:title="SourceItem for Vim/Neovim custom highlight group.">
<polygon fill="white" stroke="#666666" points="672.5,-174 543.5,-174 543.5,-144 672.5,-144 672.5,-174"/>
<text text-anchor="start" x="551.5" y="-162" font-family="Helvetica,sans-Serif" font-size="10.00">Sccg.Builtin.Sources.Vim</text>
<text text-anchor="middle" x="608" y="-151" font-family="Helvetica,sans-Serif" font-size="10.00">CustomGroupSource.Item</text>
</a>
</g>
</g>
<!-- Node6&#45;&gt;Node10 -->
<g id="edge11" class="edge">
<title>Node6&#45;&gt;Node10</title>
<path fill="none" stroke="#63b8ff" d="M476.08,-195.64C500.64,-188.77 528.28,-181.03 551.82,-174.45"/>
<polygon fill="#63b8ff" stroke="#63b8ff" points="475.45,-192.47 466.76,-198.53 477.33,-199.21 475.45,-192.47"/>
</g>
<!-- Node13 -->
<g id="node13" class="node">
<title>Node13</title>
<g id="a_node13"><a xlink:href="classSccg_1_1Builtin_1_1Sources_1_1VimSyntaxGroupSource_1_1Item.html" target="_top" xlink:title="SourceItem for Vim/Neovim syntax group.">
<polygon fill="white" stroke="#666666" points="671,-222 545,-222 545,-192 671,-192 671,-222"/>
<text text-anchor="start" x="553" y="-210" font-family="Helvetica,sans-Serif" font-size="10.00">Sccg.Builtin.Sources.Vim</text>
<text text-anchor="middle" x="608" y="-199" font-family="Helvetica,sans-Serif" font-size="10.00">SyntaxGroupSource.Item</text>
</a>
</g>
</g>
<!-- Node6&#45;&gt;Node13 -->
<g id="edge12" class="edge">
<title>Node6&#45;&gt;Node13</title>
<path fill="none" stroke="#63b8ff" d="M480.72,-211.5C501.59,-210.76 524.31,-209.95 544.65,-209.22"/>
<polygon fill="#63b8ff" stroke="#63b8ff" points="480.86,-208.03 470.99,-211.88 481.11,-215.02 480.86,-208.03"/>
</g>
<!-- Node16&#45;&gt;Node1 -->
<g id="edge14" class="edge">
<title>Node16&#45;&gt;Node1</title>
<path fill="none" stroke="#63b8ff" d="M480.67,-330.22C482.85,-331.42 484.96,-332.67 487,-334 507.32,-347.23 502.51,-362.03 523,-375 528.13,-378.24 533.7,-381.06 539.46,-383.5"/>
<polygon fill="#63b8ff" stroke="#63b8ff" points="482.35,-326.66 471.83,-325.41 479.28,-332.95 482.35,-326.66"/>
</g>
<!-- Node18 -->
<g id="node16" class="node">
<title>Node18</title>
<g id="a_node16"><a xlink:href="interfaceSccg_1_1Builtin_1_1Formatters_1_1IVSCodeColorSourceItem.html" target="_top" xlink:title="SourceItem for VSCode color theme json (colors).">
<polygon fill="white" stroke="#666666" points="473.5,-78 345.5,-78 345.5,-48 473.5,-48 473.5,-78"/>
<text text-anchor="start" x="353.5" y="-66" font-family="Helvetica,sans-Serif" font-size="10.00">Sccg.Builtin.Formatters.</text>
<text text-anchor="middle" x="409.5" y="-55" font-family="Helvetica,sans-Serif" font-size="10.00">IVSCodeColorSourceItem</text>
</a>
</g>
</g>
<!-- Node17&#45;&gt;Node18 -->
<g id="edge16" class="edge">
<title>Node17&#45;&gt;Node18</title>
<path fill="none" stroke="#63b8ff" d="M306.92,-63C319.72,-63 332.79,-63 345.11,-63"/>
<polygon fill="#63b8ff" stroke="#63b8ff" points="307.25,-59.5 297.25,-63 307.25,-66.5 307.25,-59.5"/>
</g>
<!-- Node20 -->
<g id="node18" class="node">
<title>Node20</title>
<g id="a_node18"><a xlink:href="interfaceSccg_1_1Builtin_1_1Formatters_1_1IVSCodeTokenColorSourceItem.html" target="_top" xlink:title="SourceItem for VSCode color theme json (tokenColors).">
<polygon fill="white" stroke="#666666" points="487,-30 332,-30 332,0 487,0 487,-30"/>
<text text-anchor="start" x="340" y="-18" font-family="Helvetica,sans-Serif" font-size="10.00">Sccg.Builtin.Formatters.</text>
<text text-anchor="middle" x="409.5" y="-7" font-family="Helvetica,sans-Serif" font-size="10.00">IVSCodeTokenColorSourceItem</text>
</a>
</g>
</g>
<!-- Node17&#45;&gt;Node20 -->
<g id="edge18" class="edge">
<title>Node17&#45;&gt;Node20</title>
<path fill="none" stroke="#63b8ff" d="M294.88,-44.8C312.95,-40.06 332.24,-35 349.7,-30.42"/>
<polygon fill="#63b8ff" stroke="#63b8ff" points="294.19,-41.63 285.41,-47.55 295.97,-48.4 294.19,-41.63"/>
</g>
<!-- Node19 -->
<g id="node17" class="node">
<title>Node19</title>
<g id="a_node17"><a xlink:href="classSccg_1_1Builtin_1_1Sources_1_1VSCodeEditorThemeColorSource_1_1Item.html" target="_top" xlink:title="SourceItem for VSCode editor theme color.">
<polygon fill="white" stroke="#666666" points="681,-78 535,-78 535,-48 681,-48 681,-78"/>
<text text-anchor="start" x="543" y="-66" font-family="Helvetica,sans-Serif" font-size="10.00">Sccg.Builtin.Sources.VSCode</text>
<text text-anchor="middle" x="608" y="-55" font-family="Helvetica,sans-Serif" font-size="10.00">EditorThemeColorSource.Item</text>
</a>
</g>
</g>
<!-- Node18&#45;&gt;Node19 -->
<g id="edge17" class="edge">
<title>Node18&#45;&gt;Node19</title>
<path fill="none" stroke="#63b8ff" d="M484.4,-63C500.84,-63 518.26,-63 534.64,-63"/>
<polygon fill="#63b8ff" stroke="#63b8ff" points="484.76,-59.5 474.76,-63 484.76,-66.5 484.76,-59.5"/>
</g>
<!-- Node21 -->
<g id="node19" class="node">
<title>Node21</title>
<g id="a_node19"><a xlink:href="classSccg_1_1Builtin_1_1Sources_1_1TextMateElementSource_1_1Item.html" target="_top" xlink:title="SourceItem for TextMate Element.">
<polygon fill="white" stroke="#666666" points="672,-30 544,-30 544,0 672,0 672,-30"/>
<text text-anchor="start" x="552" y="-18" font-family="Helvetica,sans-Serif" font-size="10.00">Sccg.Builtin.Sources.Text</text>
<text text-anchor="middle" x="608" y="-7" font-family="Helvetica,sans-Serif" font-size="10.00">MateElementSource.Item</text>
</a>
</g>
</g>
<!-- Node20&#45;&gt;Node21 -->
<g id="edge19" class="edge">
<title>Node20&#45;&gt;Node21</title>
<path fill="none" stroke="#63b8ff" d="M497.89,-15C513.26,-15 529,-15 543.57,-15"/>
<polygon fill="#63b8ff" stroke="#63b8ff" points="498.32,-11.5 488.32,-15 498.32,-18.5 498.32,-11.5"/>
</g>
<!-- Node15 -->
<g id="node21" class="node">
<title>Node15</title>
<g id="a_node21"><a xlink:href="interfaceSccg_1_1Builtin_1_1Formatters_1_1IVimArrayVariableSourceItem.html" target="_top" xlink:title="SourceItem for Vim color scheme.">
<polygon fill="white" stroke="#666666" points="482,-277 337,-277 337,-247 482,-247 482,-277"/>
<text text-anchor="start" x="345" y="-265" font-family="Helvetica,sans-Serif" font-size="10.00">Sccg.Builtin.Formatters.</text>
<text text-anchor="middle" x="409.5" y="-254" font-family="Helvetica,sans-Serif" font-size="10.00">IVimArrayVariableSourceItem</text>
</a>
</g>
</g>
<!-- Node14&#45;&gt;Node15 -->
<g id="edge21" class="edge">
<title>Node14&#45;&gt;Node15</title>
<path fill="none" stroke="#63b8ff" d="M294.88,-232.2C312.95,-236.94 332.24,-242 349.7,-246.58"/>
<polygon fill="#63b8ff" stroke="#63b8ff" points="295.97,-228.6 285.41,-229.45 294.19,-235.37 295.97,-228.6"/>
</g>
<!-- Node11 -->
<g id="node22" class="node">
<title>Node11</title>
<g id="a_node22"><a xlink:href="interfaceSccg_1_1Builtin_1_1Formatters_1_1IVimSourceItem.html" target="_top" xlink:title="SourceItem for Vim color scheme.">
<polygon fill="white" stroke="#666666" points="469.5,-177 349.5,-177 349.5,-147 469.5,-147 469.5,-177"/>
<text text-anchor="start" x="357.5" y="-165" font-family="Helvetica,sans-Serif" font-size="10.00">Sccg.Builtin.Formatters.</text>
<text text-anchor="middle" x="409.5" y="-154" font-family="Helvetica,sans-Serif" font-size="10.00">IVimSourceItem</text>
</a>
</g>
</g>
<!-- Node14&#45;&gt;Node11 -->
<g id="edge23" class="edge">
<title>Node14&#45;&gt;Node11</title>
<path fill="none" stroke="#63b8ff" d="M290.27,-195.59C311.11,-189.68 333.96,-183.18 353.98,-177.49"/>
<polygon fill="#63b8ff" stroke="#63b8ff" points="289.57,-192.44 280.91,-198.54 291.49,-199.17 289.57,-192.44"/>
</g>
<!-- Node15&#45;&gt;Node1 -->
<g id="edge22" class="edge">
<title>Node15&#45;&gt;Node1</title>
<path fill="none" stroke="#63b8ff" d="M483.88,-283.32C484.95,-284.18 485.99,-285.07 487,-286 518.36,-314.93 491.27,-346.47 523,-375 527.51,-379.06 532.66,-382.43 538.15,-385.24"/>
<polygon fill="#63b8ff" stroke="#63b8ff" points="486.34,-280.09 476.1,-277.39 482.43,-285.89 486.34,-280.09"/>
</g>
<!-- Node11&#45;&gt;Node10 -->
<g id="edge24" class="edge">
<title>Node11&#45;&gt;Node10</title>
<path fill="none" stroke="#63b8ff" d="M480.79,-160.93C501.17,-160.62 523.31,-160.28 543.27,-159.97"/>
<polygon fill="#63b8ff" stroke="#63b8ff" points="480.94,-157.44 470.99,-161.09 481.04,-164.44 480.94,-157.44"/>
</g>
<!-- Node11&#45;&gt;Node13 -->
<g id="edge26" class="edge">
<title>Node11&#45;&gt;Node13</title>
<path fill="none" stroke="#63b8ff" d="M480.43,-178.01C501.38,-182.81 524.21,-188.04 544.65,-192.72"/>
<polygon fill="#63b8ff" stroke="#63b8ff" points="481.52,-174.44 470.99,-175.62 479.96,-181.27 481.52,-174.44"/>
</g>
<!-- Node12 -->
<g id="node23" class="node">
<title>Node12</title>
<g id="a_node23"><a xlink:href="classSccg_1_1Builtin_1_1Sources_1_1VimEditorHighlightSource_1_1Item.html" target="_top" xlink:title="SourceItem for Vim editor highlight.">
<polygon fill="white" stroke="#666666" points="674,-126 542,-126 542,-96 674,-96 674,-126"/>
<text text-anchor="start" x="550" y="-114" font-family="Helvetica,sans-Serif" font-size="10.00">Sccg.Builtin.Sources.Vim</text>
<text text-anchor="middle" x="608" y="-103" font-family="Helvetica,sans-Serif" font-size="10.00">EditorHighlightSource.Item</text>
</a>
</g>
</g>
<!-- Node11&#45;&gt;Node12 -->
<g id="edge25" class="edge">
<title>Node11&#45;&gt;Node12</title>
<path fill="none" stroke="#63b8ff" d="M480.54,-143.82C502.4,-138.15 526.3,-131.95 547.37,-126.48"/>
<polygon fill="#63b8ff" stroke="#63b8ff" points="479.79,-140.66 470.99,-146.56 481.55,-147.44 479.79,-140.66"/>
</g>
</g>
</svg>
