<?xml version="1.0" encoding="UTF-8" standalone="no"?>
<!DOCTYPE svg PUBLIC "-//W3C//DTD SVG 1.1//EN"
 "http://www.w3.org/Graphics/SVG/1.1/DTD/svg11.dtd">
<!-- Generated by graphviz version 8.0.1 (20230327.1645)
 -->
<!-- Title: Graphical Class Hierarchy Pages: 1 -->
<svg width="282pt" height="76pt"
 viewBox="0.00 0.00 282.00 75.50" xmlns="http://www.w3.org/2000/svg" xmlns:xlink="http://www.w3.org/1999/xlink">
<g id="graph0" class="graph" transform="scale(1 1) rotate(0) translate(4 71.5)">
<title>Graphical Class Hierarchy</title>
<!-- Node0 -->
<g id="node1" class="node">
<title>Node0</title>
<g id="a_node1"><a xlink:href="interfaceSccg_1_1Core_1_1IWriter.html" target="_top" xlink:title="Represents a writer that writes the content to some form.">
<polygon fill="white" stroke="#666666" points="92,-40 0,-40 0,-21 92,-21 92,-40"/>
<text text-anchor="middle" x="46" y="-28" font-family="Helvetica,sans-Serif" font-size="10.00">Sccg.Core.IWriter</text>
</a>
</g>
</g>
<!-- Node1 -->
<g id="node2" class="node">
<title>Node1</title>
<g id="a_node2"><a xlink:href="classSccg_1_1Builtin_1_1Writers_1_1ConsoleWriter.html" target="_top" xlink:title="A writer that writes to the console.">
<polygon fill="white" stroke="#666666" points="270.5,-67.5 131.5,-67.5 131.5,-37.5 270.5,-37.5 270.5,-67.5"/>
<text text-anchor="start" x="139.5" y="-55.5" font-family="Helvetica,sans-Serif" font-size="10.00">Sccg.Builtin.Writers.Console</text>
<text text-anchor="middle" x="201" y="-44.5" font-family="Helvetica,sans-Serif" font-size="10.00">Writer</text>
</a>
</g>
</g>
<!-- Node0&#45;&gt;Node1 -->
<g id="edge1" class="edge">
<title>Node0&#45;&gt;Node1</title>
<path fill="none" stroke="#63b8ff" d="M103.31,-38.6C112.38,-39.9 121.85,-41.26 131.17,-42.6"/>
<polygon fill="#63b8ff" stroke="#63b8ff" points="103.89,-35 93.49,-37.04 102.89,-41.93 103.89,-35"/>
</g>
<!-- Node2 -->
<g id="node3" class="node">
<title>Node2</title>
<g id="a_node3"><a xlink:href="classSccg_1_1Core_1_1Writer.html" target="_top" xlink:title="The base class of IContent.">
<polygon fill="white" stroke="#666666" points="274,-19 128,-19 128,0 274,0 274,-19"/>
<text text-anchor="middle" x="201" y="-7" font-family="Helvetica,sans-Serif" font-size="10.00">Sccg.Core.Writer&lt; TContent &gt;</text>
</a>
</g>
</g>
<!-- Node0&#45;&gt;Node2 -->
<g id="edge2" class="edge">
<title>Node0&#45;&gt;Node2</title>
<path fill="none" stroke="#63b8ff" d="M103.17,-22.79C111.17,-21.69 119.49,-20.55 127.74,-19.42"/>
<polygon fill="#63b8ff" stroke="#63b8ff" points="102.92,-19.43 93.49,-24.26 103.87,-26.36 102.92,-19.43"/>
</g>
</g>
</svg>
