<?xml version="1.0" encoding="UTF-8" standalone="no"?>
<!DOCTYPE svg PUBLIC "-//W3C//DTD SVG 1.1//EN"
 "http://www.w3.org/Graphics/SVG/1.1/DTD/svg11.dtd">
<!-- Generated by graphviz version 7.1.0 (20230121.1956)
 -->
<!-- Title: Graphical Class Hierarchy Pages: 1 -->
<svg width="281pt" height="86pt"
 viewBox="0.00 0.00 281.00 86.00" xmlns="http://www.w3.org/2000/svg" xmlns:xlink="http://www.w3.org/1999/xlink">
<g id="graph0" class="graph" transform="scale(1 1) rotate(0) translate(4 82)">
<title>Graphical Class Hierarchy</title>
<!-- Node0 -->
<g id="node1" class="node">
<title>Node0</title>
<g id="a_node1"><a xlink:href="interfaceSccg_1_1Core_1_1ISource.html" target="_top" xlink:title=" ">
<polygon fill="white" stroke="#666666" points="98,-48.5 0,-48.5 0,-29.5 98,-29.5 98,-48.5"/>
<text text-anchor="middle" x="49" y="-36.5" font-family="Helvetica,sans-Serif" font-size="10.00">Sccg.Core.ISource</text>
</a>
</g>
</g>
<!-- Node1 -->
<g id="node2" class="node">
<title>Node1</title>
<g id="a_node2"><a xlink:href="classSccg_1_1Builtin_1_1Sources_1_1Ansi16ColorSource.html" target="_top" xlink:title=" ">
<polygon fill="white" stroke="#666666" points="273,-78 134,-78 134,-48 273,-48 273,-78"/>
<text text-anchor="start" x="142" y="-66" font-family="Helvetica,sans-Serif" font-size="10.00">Sccg.Builtin.Sources.Ansi16</text>
<text text-anchor="middle" x="203.5" y="-55" font-family="Helvetica,sans-Serif" font-size="10.00">ColorSource</text>
</a>
</g>
</g>
<!-- Node0&#45;&gt;Node1 -->
<g id="edge1" class="edge">
<title>Node0&#45;&gt;Node1</title>
<path fill="none" stroke="#63b8ff" d="M109.6,-48.38C117.49,-49.62 125.63,-50.9 133.67,-52.17"/>
<polygon fill="#63b8ff" stroke="#63b8ff" points="110.17,-44.93 99.75,-46.83 109.08,-51.84 110.17,-44.93"/>
</g>
<!-- Node2 -->
<g id="node3" class="node">
<title>Node2</title>
<g id="a_node3"><a xlink:href="classSccg_1_1Core_1_1Source.html" target="_top" xlink:title=" ">
<polygon fill="white" stroke="#666666" points="272.5,-30 134.5,-30 134.5,0 272.5,0 272.5,-30"/>
<text text-anchor="start" x="142.5" y="-18" font-family="Helvetica,sans-Serif" font-size="10.00">Sccg.Core.Source&lt; TGroup,</text>
<text text-anchor="middle" x="203.5" y="-7" font-family="Helvetica,sans-Serif" font-size="10.00"> TItem &gt;</text>
</a>
</g>
</g>
<!-- Node0&#45;&gt;Node2 -->
<g id="edge2" class="edge">
<title>Node0&#45;&gt;Node2</title>
<path fill="none" stroke="#63b8ff" d="M109.5,-29.64C117.6,-28.36 125.98,-27.04 134.22,-25.75"/>
<polygon fill="#63b8ff" stroke="#63b8ff" points="109.08,-26.16 99.75,-31.17 110.17,-33.07 109.08,-26.16"/>
</g>
</g>
</svg>
