<?xml version="1.0" encoding="UTF-8" standalone="no"?>
<!DOCTYPE svg PUBLIC "-//W3C//DTD SVG 1.1//EN"
 "http://www.w3.org/Graphics/SVG/1.1/DTD/svg11.dtd">
<!-- Generated by graphviz version 7.0.5 (20221223.1930)
 -->
<!-- Title: Graphical Class Hierarchy Pages: 1 -->
<svg width="170pt" height="64pt"
 viewBox="0.00 0.00 170.00 64.00" xmlns="http://www.w3.org/2000/svg" xmlns:xlink="http://www.w3.org/1999/xlink">
<g id="graph0" class="graph" transform="scale(1 1) rotate(0) translate(4 60)">
<title>Graphical Class Hierarchy</title>
<!-- Node0 -->
<g id="node1" class="node">
<title>Node0</title>
<g id="a_node1"><a xlink:title=" ">
<polygon fill="#e0e0e0" stroke="#999999" points="62,-37 0,-37 0,-18 62,-18 62,-37"/>
<text text-anchor="middle" x="31" y="-25" font-family="Helvetica,sans-Serif" font-size="10.00">IEquatable</text>
</a>
</g>
</g>
<!-- Node1 -->
<g id="node2" class="node">
<title>Node1</title>
<g id="a_node2"><a xlink:href="structSccg_1_1Color.html" target="_top" xlink:title=" ">
<polygon fill="white" stroke="#666666" points="162,-56 98,-56 98,-37 162,-37 162,-56"/>
<text text-anchor="middle" x="130" y="-44" font-family="Helvetica,sans-Serif" font-size="10.00">Sccg.Color</text>
</a>
</g>
</g>
<!-- Node0&#45;&gt;Node1 -->
<g id="edge1" class="edge">
<title>Node0&#45;&gt;Node1</title>
<path fill="none" stroke="#63b8ff" d="M73.58,-35.64C81.66,-37.23 90,-38.86 97.68,-40.37"/>
<polygon fill="#63b8ff" stroke="#63b8ff" points="74.4,-32.24 63.91,-33.75 73.05,-39.11 74.4,-32.24"/>
</g>
<!-- Node2 -->
<g id="node3" class="node">
<title>Node2</title>
<g id="a_node3"><a xlink:href="structSccg_1_1Style.html" target="_top" xlink:title=" ">
<polygon fill="white" stroke="#666666" points="161.5,-19 98.5,-19 98.5,0 161.5,0 161.5,-19"/>
<text text-anchor="middle" x="130" y="-7" font-family="Helvetica,sans-Serif" font-size="10.00">Sccg.Style</text>
</a>
</g>
</g>
<!-- Node0&#45;&gt;Node2 -->
<g id="edge2" class="edge">
<title>Node0&#45;&gt;Node2</title>
<path fill="none" stroke="#63b8ff" d="M73.69,-19.76C81.85,-18.25 90.28,-16.69 98.01,-15.25"/>
<polygon fill="#63b8ff" stroke="#63b8ff" points="73.11,-16.31 63.91,-21.58 74.38,-23.19 73.11,-16.31"/>
</g>
</g>
</svg>
