<?xml version="1.0" encoding="UTF-8" standalone="no"?>
<!DOCTYPE svg PUBLIC "-//W3C//DTD SVG 1.1//EN"
 "http://www.w3.org/Graphics/SVG/1.1/DTD/svg11.dtd">
<!-- Generated by graphviz version 7.1.0 (20230121.1956)
 -->
<!-- Title: Graphical Class Hierarchy Pages: 1 -->
<svg width="691pt" height="444pt"
 viewBox="0.00 0.00 691.00 444.00" xmlns="http://www.w3.org/2000/svg" xmlns:xlink="http://www.w3.org/1999/xlink">
<g id="graph0" class="graph" transform="scale(1 1) rotate(0) translate(4 440)">
<title>Graphical Class Hierarchy</title>
<!-- Node0 -->
<g id="node1" class="node">
<title>Node0</title>
<g id="a_node1"><a xlink:title=" ">
<polygon fill="#e0e0e0" stroke="#999999" points="453.5,-430.5 355.5,-430.5 355.5,-411.5 453.5,-411.5 453.5,-430.5"/>
<text text-anchor="middle" x="404.5" y="-418.5" font-family="Helvetica,sans-Serif" font-size="10.00">IIterm2SourceItem</text>
</a>
</g>
</g>
<!-- Node1 -->
<g id="node2" class="node">
<title>Node1</title>
<g id="a_node2"><a xlink:href="classSccg_1_1Builtin_1_1Sources_1_1Ansi16ColorSource_1_1Item.html" target="_top" xlink:title="SourceItem for 16 ANSI colors.">
<polygon fill="white" stroke="#666666" points="667.5,-339 528.5,-339 528.5,-309 667.5,-309 667.5,-339"/>
<text text-anchor="start" x="536.5" y="-327" font-family="Helvetica,sans-Serif" font-size="10.00">Sccg.Builtin.Sources.Ansi16</text>
<text text-anchor="middle" x="598" y="-316" font-family="Helvetica,sans-Serif" font-size="10.00">ColorSource.Item</text>
</a>
</g>
</g>
<!-- Node0&#45;&gt;Node1 -->
<g id="edge1" class="edge">
<title>Node0&#45;&gt;Node1</title>
<path fill="none" stroke="#63b8ff" d="M462.54,-407.61C467.5,-405.92 472.39,-404.05 477,-402 515.15,-385.05 554.91,-356.76 577.73,-339.31"/>
<polygon fill="#63b8ff" stroke="#63b8ff" points="461.56,-404.25 453.08,-410.59 463.67,-410.93 461.56,-404.25"/>
</g>
<!-- Node17 -->
<g id="node3" class="node">
<title>Node17</title>
<g id="a_node3"><a xlink:href="classSccg_1_1Builtin_1_1Sources_1_1Iterm2ColorsSource_1_1Item.html" target="_top" xlink:title="SourceItem for iTerm2.">
<polygon fill="white" stroke="#666666" points="666.5,-436 529.5,-436 529.5,-406 666.5,-406 666.5,-436"/>
<text text-anchor="start" x="537.5" y="-424" font-family="Helvetica,sans-Serif" font-size="10.00">Sccg.Builtin.Sources.Iterm2</text>
<text text-anchor="middle" x="598" y="-413" font-family="Helvetica,sans-Serif" font-size="10.00">ColorsSource.Item</text>
</a>
</g>
</g>
<!-- Node0&#45;&gt;Node17 -->
<g id="edge2" class="edge">
<title>Node0&#45;&gt;Node17</title>
<path fill="none" stroke="#63b8ff" d="M465.13,-421C485.43,-421 508.27,-421 529.16,-421"/>
<polygon fill="#63b8ff" stroke="#63b8ff" points="465.34,-417.5 455.34,-421 465.34,-424.5 465.34,-417.5"/>
</g>
<!-- Node4 -->
<g id="node4" class="node">
<title>Node4</title>
<g id="a_node4"><a xlink:href="interfaceSccg_1_1Core_1_1ISourceItem.html" target="_top" xlink:title="Represents a source item.">
<polygon fill="white" stroke="#666666" points="117,-298.5 0,-298.5 0,-279.5 117,-279.5 117,-298.5"/>
<text text-anchor="middle" x="58.5" y="-286.5" font-family="Helvetica,sans-Serif" font-size="10.00">Sccg.Core.ISourceItem</text>
</a>
</g>
</g>
<!-- Node2 -->
<g id="node5" class="node">
<title>Node2</title>
<g id="a_node5"><a xlink:href="interfaceSccg_1_1Builtin_1_1Formatters_1_1IAlacrittySourceItem.html" target="_top" xlink:title="SourceItem for Alacritty config.">
<polygon fill="white" stroke="#666666" points="284.5,-352 164.5,-352 164.5,-322 284.5,-322 284.5,-352"/>
<text text-anchor="start" x="172.5" y="-340" font-family="Helvetica,sans-Serif" font-size="10.00">Sccg.Builtin.Formatters.</text>
<text text-anchor="middle" x="224.5" y="-329" font-family="Helvetica,sans-Serif" font-size="10.00">IAlacrittySourceItem</text>
</a>
</g>
</g>
<!-- Node4&#45;&gt;Node2 -->
<g id="edge3" class="edge">
<title>Node4&#45;&gt;Node2</title>
<path fill="none" stroke="#63b8ff" d="M104.44,-302.15C124.98,-308.16 149.44,-315.32 170.83,-321.58"/>
<polygon fill="#63b8ff" stroke="#63b8ff" points="105.51,-298.82 94.93,-299.37 103.55,-305.54 105.51,-298.82"/>
</g>
<!-- Node5 -->
<g id="node7" class="node">
<title>Node5</title>
<g id="a_node7"><a xlink:href="interfaceSccg_1_1Builtin_1_1Sources_1_1Internal_1_1INeovimSourceItemBase.html" target="_top" xlink:title="Base SourceItem for Neovim.">
<polygon fill="white" stroke="#666666" points="296,-256 153,-256 153,-226 296,-226 296,-256"/>
<text text-anchor="start" x="161" y="-244" font-family="Helvetica,sans-Serif" font-size="10.00">Sccg.Builtin.Sources.Internal.</text>
<text text-anchor="middle" x="224.5" y="-233" font-family="Helvetica,sans-Serif" font-size="10.00">INeovimSourceItemBase</text>
</a>
</g>
</g>
<!-- Node4&#45;&gt;Node5 -->
<g id="edge6" class="edge">
<title>Node4&#45;&gt;Node5</title>
<path fill="none" stroke="#63b8ff" d="M104.44,-275.85C124.98,-269.84 149.44,-262.68 170.83,-256.42"/>
<polygon fill="#63b8ff" stroke="#63b8ff" points="103.55,-272.46 94.93,-278.63 105.51,-279.18 103.55,-272.46"/>
</g>
<!-- Node14 -->
<g id="node15" class="node">
<title>Node14</title>
<g id="a_node15"><a xlink:href="interfaceSccg_1_1Builtin_1_1Sources_1_1Internal_1_1IVimSourceItemBase.html" target="_top" xlink:title="Base SourceItem for Vim.">
<polygon fill="white" stroke="#666666" points="296,-304 153,-304 153,-274 296,-274 296,-304"/>
<text text-anchor="start" x="161" y="-292" font-family="Helvetica,sans-Serif" font-size="10.00">Sccg.Builtin.Sources.Internal.</text>
<text text-anchor="middle" x="224.5" y="-281" font-family="Helvetica,sans-Serif" font-size="10.00">IVimSourceItemBase</text>
</a>
</g>
</g>
<!-- Node4&#45;&gt;Node14 -->
<g id="edge15" class="edge">
<title>Node4&#45;&gt;Node14</title>
<path fill="none" stroke="#63b8ff" d="M128.76,-289C136.68,-289 144.75,-289 152.69,-289"/>
<polygon fill="#63b8ff" stroke="#63b8ff" points="128.83,-285.5 118.83,-289 128.83,-292.5 128.83,-285.5"/>
</g>
<!-- Node2&#45;&gt;Node1 -->
<g id="edge5" class="edge">
<title>Node2&#45;&gt;Node1</title>
<path fill="none" stroke="#63b8ff" d="M296,-334.53C362.66,-332.2 462.04,-328.72 528.15,-326.41"/>
<polygon fill="#63b8ff" stroke="#63b8ff" points="296.16,-331.03 286.29,-334.87 296.4,-338.02 296.16,-331.03"/>
</g>
<!-- Node3 -->
<g id="node6" class="node">
<title>Node3</title>
<g id="a_node6"><a xlink:href="classSccg_1_1Builtin_1_1Sources_1_1AlacrittyColorsSource_1_1Item.html" target="_top" xlink:title="SourceItem for Alacritty.">
<polygon fill="white" stroke="#666666" points="476.5,-393 332.5,-393 332.5,-363 476.5,-363 476.5,-393"/>
<text text-anchor="start" x="340.5" y="-381" font-family="Helvetica,sans-Serif" font-size="10.00">Sccg.Builtin.Sources.Alacritty</text>
<text text-anchor="middle" x="404.5" y="-370" font-family="Helvetica,sans-Serif" font-size="10.00">ColorsSource.Item</text>
</a>
</g>
</g>
<!-- Node2&#45;&gt;Node3 -->
<g id="edge4" class="edge">
<title>Node2&#45;&gt;Node3</title>
<path fill="none" stroke="#63b8ff" d="M295.85,-353.2C309.24,-356.29 323.22,-359.51 336.5,-362.57"/>
<polygon fill="#63b8ff" stroke="#63b8ff" points="296.78,-349.83 286.25,-350.99 295.21,-356.65 296.78,-349.83"/>
</g>
<!-- Node6 -->
<g id="node8" class="node">
<title>Node6</title>
<g id="a_node8"><a xlink:href="interfaceSccg_1_1Builtin_1_1Formatters_1_1INeovimSourceItem.html" target="_top" xlink:title="SourceItem for Neovim color scheme.">
<polygon fill="white" stroke="#666666" points="464.5,-150 344.5,-150 344.5,-120 464.5,-120 464.5,-150"/>
<text text-anchor="start" x="352.5" y="-138" font-family="Helvetica,sans-Serif" font-size="10.00">Sccg.Builtin.Formatters.</text>
<text text-anchor="middle" x="404.5" y="-127" font-family="Helvetica,sans-Serif" font-size="10.00">INeovimSourceItem</text>
</a>
</g>
</g>
<!-- Node5&#45;&gt;Node6 -->
<g id="edge7" class="edge">
<title>Node5&#45;&gt;Node6</title>
<path fill="none" stroke="#63b8ff" d="M257.3,-219.24C278.21,-205.22 306.34,-186.9 332,-172 344.93,-164.49 359.54,-156.79 372.17,-150.38"/>
<polygon fill="#63b8ff" stroke="#63b8ff" points="255.54,-216.2 249.21,-224.7 259.45,-222.01 255.54,-216.2"/>
</g>
<!-- Node16 -->
<g id="node14" class="node">
<title>Node16</title>
<g id="a_node14"><a xlink:href="interfaceSccg_1_1Builtin_1_1Formatters_1_1INeovimVariableSourceItem.html" target="_top" xlink:title="SourceItem for Neovim color scheme.">
<polygon fill="white" stroke="#666666" points="474,-259 335,-259 335,-229 474,-229 474,-259"/>
<text text-anchor="start" x="343" y="-247" font-family="Helvetica,sans-Serif" font-size="10.00">Sccg.Builtin.Formatters.</text>
<text text-anchor="middle" x="404.5" y="-236" font-family="Helvetica,sans-Serif" font-size="10.00">INeovimVariableSourceItem</text>
</a>
</g>
</g>
<!-- Node5&#45;&gt;Node16 -->
<g id="edge13" class="edge">
<title>Node5&#45;&gt;Node16</title>
<path fill="none" stroke="#63b8ff" d="M307.69,-242.39C316.7,-242.54 325.8,-242.69 334.62,-242.84"/>
<polygon fill="#63b8ff" stroke="#63b8ff" points="307.93,-238.89 297.88,-242.22 307.81,-245.89 307.93,-238.89"/>
</g>
<!-- Node7 -->
<g id="node9" class="node">
<title>Node7</title>
<g id="a_node9"><a xlink:href="classSccg_1_1Builtin_1_1Sources_1_1NeovimEditorHighlightSource_1_1Item.html" target="_top" xlink:title="SourceItem for Neovim&#39;s editor highlight&#45;groups.">
<polygon fill="white" stroke="#666666" points="669.5,-78 526.5,-78 526.5,-48 669.5,-48 669.5,-78"/>
<text text-anchor="start" x="534.5" y="-66" font-family="Helvetica,sans-Serif" font-size="10.00">Sccg.Builtin.Sources.Neovim</text>
<text text-anchor="middle" x="598" y="-55" font-family="Helvetica,sans-Serif" font-size="10.00">EditorHighlightSource.Item</text>
</a>
</g>
</g>
<!-- Node6&#45;&gt;Node7 -->
<g id="edge8" class="edge">
<title>Node6&#45;&gt;Node7</title>
<path fill="none" stroke="#63b8ff" d="M447.17,-114.74C466.86,-105.59 490.86,-95.06 513,-87 521.27,-83.99 530.1,-81.11 538.82,-78.46"/>
<polygon fill="#63b8ff" stroke="#63b8ff" points="445.93,-111.45 438.37,-118.87 448.91,-117.79 445.93,-111.45"/>
</g>
<!-- Node8 -->
<g id="node10" class="node">
<title>Node8</title>
<g id="a_node10"><a xlink:href="classSccg_1_1Builtin_1_1Sources_1_1NeovimLspDiagnosticHighlightSource_1_1Item.html" target="_top" xlink:title="SourceItem for Neovim LSP diagnostic highlight.">
<polygon fill="white" stroke="#666666" points="683,-30 513,-30 513,0 683,0 683,-30"/>
<text text-anchor="start" x="521" y="-18" font-family="Helvetica,sans-Serif" font-size="10.00">Sccg.Builtin.Sources.Neovim</text>
<text text-anchor="middle" x="598" y="-7" font-family="Helvetica,sans-Serif" font-size="10.00">LspDiagnosticHighlightSource.Item</text>
</a>
</g>
</g>
<!-- Node6&#45;&gt;Node8 -->
<g id="edge9" class="edge">
<title>Node6&#45;&gt;Node8</title>
<path fill="none" stroke="#63b8ff" d="M426.07,-111.31C446.19,-89.55 478.71,-57.89 513,-39 518.84,-35.78 525.16,-32.96 531.62,-30.49"/>
<polygon fill="#63b8ff" stroke="#63b8ff" points="423.63,-108.8 419.51,-118.56 428.82,-113.49 423.63,-108.8"/>
</g>
<!-- Node9 -->
<g id="node11" class="node">
<title>Node9</title>
<g id="a_node11"><a xlink:href="classSccg_1_1Builtin_1_1Sources_1_1NeovimTreesitterHighlightSource_1_1Item.html" target="_top" xlink:title="SourceItem for Neovim Treesitter highlight.">
<polygon fill="white" stroke="#666666" points="672.5,-126 523.5,-126 523.5,-96 672.5,-96 672.5,-126"/>
<text text-anchor="start" x="531.5" y="-114" font-family="Helvetica,sans-Serif" font-size="10.00">Sccg.Builtin.Sources.Neovim</text>
<text text-anchor="middle" x="598" y="-103" font-family="Helvetica,sans-Serif" font-size="10.00">TreesitterHighlightSource.Item</text>
</a>
</g>
</g>
<!-- Node6&#45;&gt;Node9 -->
<g id="edge10" class="edge">
<title>Node6&#45;&gt;Node9</title>
<path fill="none" stroke="#63b8ff" d="M475.81,-126.19C491.23,-124.26 507.59,-122.21 523.14,-120.26"/>
<polygon fill="#63b8ff" stroke="#63b8ff" points="475.77,-122.67 466.28,-127.38 476.64,-129.61 475.77,-122.67"/>
</g>
<!-- Node10 -->
<g id="node12" class="node">
<title>Node10</title>
<g id="a_node12"><a xlink:href="classSccg_1_1Builtin_1_1Sources_1_1VimCustomGroupSource_1_1Item.html" target="_top" xlink:title="SourceItem for Vim/Neovim custom highlight group.">
<polygon fill="white" stroke="#666666" points="662.5,-174 533.5,-174 533.5,-144 662.5,-144 662.5,-174"/>
<text text-anchor="start" x="541.5" y="-162" font-family="Helvetica,sans-Serif" font-size="10.00">Sccg.Builtin.Sources.Vim</text>
<text text-anchor="middle" x="598" y="-151" font-family="Helvetica,sans-Serif" font-size="10.00">CustomGroupSource.Item</text>
</a>
</g>
</g>
<!-- Node6&#45;&gt;Node10 -->
<g id="edge11" class="edge">
<title>Node6&#45;&gt;Node10</title>
<path fill="none" stroke="#63b8ff" d="M476.17,-143.86C494.79,-146.19 514.77,-148.69 533.01,-150.98"/>
<polygon fill="#63b8ff" stroke="#63b8ff" points="476.64,-140.39 466.28,-142.62 475.77,-147.33 476.64,-140.39"/>
</g>
<!-- Node13 -->
<g id="node13" class="node">
<title>Node13</title>
<g id="a_node13"><a xlink:href="classSccg_1_1Builtin_1_1Sources_1_1VimSyntaxGroupSource_1_1Item.html" target="_top" xlink:title="SourceItem for Vim/Neovim syntax group.">
<polygon fill="white" stroke="#666666" points="661,-222 535,-222 535,-192 661,-192 661,-222"/>
<text text-anchor="start" x="543" y="-210" font-family="Helvetica,sans-Serif" font-size="10.00">Sccg.Builtin.Sources.Vim</text>
<text text-anchor="middle" x="598" y="-199" font-family="Helvetica,sans-Serif" font-size="10.00">SyntaxGroupSource.Item</text>
</a>
</g>
</g>
<!-- Node6&#45;&gt;Node13 -->
<g id="edge12" class="edge">
<title>Node6&#45;&gt;Node13</title>
<path fill="none" stroke="#63b8ff" d="M447.17,-155.26C466.86,-164.41 490.86,-174.94 513,-183 521.27,-186.01 530.1,-188.89 538.82,-191.54"/>
<polygon fill="#63b8ff" stroke="#63b8ff" points="448.91,-152.21 438.37,-151.13 445.93,-158.55 448.91,-152.21"/>
</g>
<!-- Node16&#45;&gt;Node1 -->
<g id="edge14" class="edge">
<title>Node16&#45;&gt;Node1</title>
<path fill="none" stroke="#63b8ff" d="M464.47,-263.21C468.73,-264.77 472.94,-266.38 477,-268 507.95,-280.37 542.34,-296.69 566.34,-308.52"/>
<polygon fill="#63b8ff" stroke="#63b8ff" points="465.87,-259.99 455.27,-259.91 463.51,-266.58 465.87,-259.99"/>
</g>
<!-- Node15 -->
<g id="node16" class="node">
<title>Node15</title>
<g id="a_node16"><a xlink:href="interfaceSccg_1_1Builtin_1_1Formatters_1_1IVimArrayVariableSourceItem.html" target="_top" xlink:title="SourceItem for Vim color scheme.">
<polygon fill="white" stroke="#666666" points="477,-307 332,-307 332,-277 477,-277 477,-307"/>
<text text-anchor="start" x="340" y="-295" font-family="Helvetica,sans-Serif" font-size="10.00">Sccg.Builtin.Formatters.</text>
<text text-anchor="middle" x="404.5" y="-284" font-family="Helvetica,sans-Serif" font-size="10.00">IVimArrayVariableSourceItem</text>
</a>
</g>
</g>
<!-- Node14&#45;&gt;Node15 -->
<g id="edge16" class="edge">
<title>Node14&#45;&gt;Node15</title>
<path fill="none" stroke="#63b8ff" d="M307.65,-290.38C315.68,-290.52 323.8,-290.66 331.72,-290.79"/>
<polygon fill="#63b8ff" stroke="#63b8ff" points="307.93,-286.89 297.88,-290.22 307.81,-293.89 307.93,-286.89"/>
</g>
<!-- Node11 -->
<g id="node17" class="node">
<title>Node11</title>
<g id="a_node17"><a xlink:href="interfaceSccg_1_1Builtin_1_1Formatters_1_1IVimSourceItem.html" target="_top" xlink:title="SourceItem for Vim color scheme.">
<polygon fill="white" stroke="#666666" points="464.5,-211 344.5,-211 344.5,-181 464.5,-181 464.5,-211"/>
<text text-anchor="start" x="352.5" y="-199" font-family="Helvetica,sans-Serif" font-size="10.00">Sccg.Builtin.Formatters.</text>
<text text-anchor="middle" x="404.5" y="-188" font-family="Helvetica,sans-Serif" font-size="10.00">IVimSourceItem</text>
</a>
</g>
</g>
<!-- Node14&#45;&gt;Node11 -->
<g id="edge18" class="edge">
<title>Node14&#45;&gt;Node11</title>
<path fill="none" stroke="#63b8ff" d="M291.04,-268.23C292.74,-267.2 294.4,-266.12 296,-265 316.96,-250.28 311.01,-234.67 332,-220 336.62,-216.77 341.7,-213.96 346.96,-211.5"/>
<polygon fill="#63b8ff" stroke="#63b8ff" points="289.42,-265.12 282.23,-272.9 292.7,-271.31 289.42,-265.12"/>
</g>
<!-- Node15&#45;&gt;Node1 -->
<g id="edge17" class="edge">
<title>Node15&#45;&gt;Node1</title>
<path fill="none" stroke="#63b8ff" d="M488.41,-305.85C501.7,-308.08 515.32,-310.35 528.24,-312.51"/>
<polygon fill="#63b8ff" stroke="#63b8ff" points="489.29,-302.45 478.85,-304.26 488.13,-309.36 489.29,-302.45"/>
</g>
<!-- Node11&#45;&gt;Node10 -->
<g id="edge19" class="edge">
<title>Node11&#45;&gt;Node10</title>
<path fill="none" stroke="#63b8ff" d="M475.91,-182.4C494.6,-178.78 514.68,-174.9 533.01,-171.36"/>
<polygon fill="#63b8ff" stroke="#63b8ff" points="475.42,-178.93 466.27,-184.26 476.75,-185.8 475.42,-178.93"/>
</g>
<!-- Node11&#45;&gt;Node13 -->
<g id="edge21" class="edge">
<title>Node11&#45;&gt;Node13</title>
<path fill="none" stroke="#63b8ff" d="M476.19,-200.06C495.38,-201.16 516,-202.35 534.69,-203.42"/>
<polygon fill="#63b8ff" stroke="#63b8ff" points="476.48,-196.57 466.29,-199.49 476.07,-203.56 476.48,-196.57"/>
</g>
<!-- Node12 -->
<g id="node18" class="node">
<title>Node12</title>
<g id="a_node18"><a xlink:href="classSccg_1_1Builtin_1_1Sources_1_1VimEditorHighlightSource_1_1Item.html" target="_top" xlink:title="SourceItem for Vim editor highlight.">
<polygon fill="white" stroke="#666666" points="664,-270 532,-270 532,-240 664,-240 664,-270"/>
<text text-anchor="start" x="540" y="-258" font-family="Helvetica,sans-Serif" font-size="10.00">Sccg.Builtin.Sources.Vim</text>
<text text-anchor="middle" x="598" y="-247" font-family="Helvetica,sans-Serif" font-size="10.00">EditorHighlightSource.Item</text>
</a>
</g>
</g>
<!-- Node11&#45;&gt;Node12 -->
<g id="edge20" class="edge">
<title>Node11&#45;&gt;Node12</title>
<path fill="none" stroke="#63b8ff" d="M462.18,-214.88C478.54,-220.22 496.45,-225.94 513,-231 522.28,-233.84 532.17,-236.75 541.79,-239.54"/>
<polygon fill="#63b8ff" stroke="#63b8ff" points="463.71,-211.7 453.12,-211.92 461.54,-218.35 463.71,-211.7"/>
</g>
</g>
</svg>
