<?xml version="1.0" encoding="UTF-8" standalone="no"?>
<!DOCTYPE svg PUBLIC "-//W3C//DTD SVG 1.1//EN"
 "http://www.w3.org/Graphics/SVG/1.1/DTD/svg11.dtd">
<!-- Generated by graphviz version 8.0.1 (20230327.1645)
 -->
<!-- Title: Sccg.Builtin.Formatters.IVSCodeTokenColorSourceItem Pages: 1 -->
<svg width="163pt" height="148pt"
 viewBox="0.00 0.00 163.00 148.00" xmlns="http://www.w3.org/2000/svg" xmlns:xlink="http://www.w3.org/1999/xlink">
<g id="graph0" class="graph" transform="scale(1 1) rotate(0) translate(4 144)">
<title>Sccg.Builtin.Formatters.IVSCodeTokenColorSourceItem</title>
<!-- Node1 -->
<g id="node1" class="node">
<title>Node1</title>
<g id="a_node1"><a xlink:title="SourceItem for VSCode color theme json (tokenColors).">
<polygon fill="#999999" stroke="#666666" points="155,-30 0,-30 0,0 155,0 155,-30"/>
<text text-anchor="start" x="8" y="-18" font-family="Helvetica,sans-Serif" font-size="10.00">Sccg.Builtin.Formatters.</text>
<text text-anchor="middle" x="77.5" y="-7" font-family="Helvetica,sans-Serif" font-size="10.00">IVSCodeTokenColorSourceItem</text>
</a>
</g>
</g>
<!-- Node2 -->
<g id="node2" class="node">
<title>Node2</title>
<g id="a_node2"><a xlink:href="interfaceSccg_1_1Builtin_1_1Sources_1_1Internal_1_1IVSCodeSourceItemBase.html" target="_top" xlink:title="Base SourceItem for VSCode.">
<polygon fill="white" stroke="#666666" points="141.5,-85 13.5,-85 13.5,-66 141.5,-66 141.5,-85"/>
<text text-anchor="middle" x="77.5" y="-73" font-family="Helvetica,sans-Serif" font-size="10.00">IVSCodeSourceItemBase</text>
</a>
</g>
</g>
<!-- Node2&#45;&gt;Node1 -->
<g id="edge1" class="edge">
<title>Node2&#45;&gt;Node1</title>
<path fill="none" stroke="#63b8ff" d="M77.5,-55.08C77.5,-46.92 77.5,-37.6 77.5,-30.11"/>
<polygon fill="#63b8ff" stroke="#63b8ff" points="74,-54.87 77.5,-64.87 81,-54.87 74,-54.87"/>
</g>
<!-- Node3 -->
<g id="node3" class="node">
<title>Node3</title>
<g id="a_node3"><a xlink:href="interfaceSccg_1_1Core_1_1ISourceItem.html" target="_top" xlink:title="Represents a source item.">
<polygon fill="white" stroke="#666666" points="112.5,-140 42.5,-140 42.5,-121 112.5,-121 112.5,-140"/>
<text text-anchor="middle" x="77.5" y="-128" font-family="Helvetica,sans-Serif" font-size="10.00">ISourceItem</text>
</a>
</g>
</g>
<!-- Node3&#45;&gt;Node2 -->
<g id="edge2" class="edge">
<title>Node3&#45;&gt;Node2</title>
<path fill="none" stroke="#63b8ff" d="M77.5,-109.93C77.5,-101.53 77.5,-92.13 77.5,-85.44"/>
<polygon fill="#63b8ff" stroke="#63b8ff" points="74,-109.75 77.5,-119.75 81,-109.75 74,-109.75"/>
</g>
</g>
</svg>
