<?xml version="1.0" encoding="UTF-8" standalone="no"?>
<!DOCTYPE svg PUBLIC "-//W3C//DTD SVG 1.1//EN"
 "http://www.w3.org/Graphics/SVG/1.1/DTD/svg11.dtd">
<!-- Generated by graphviz version 8.0.1 (20230327.1645)
 -->
<!-- Title: Sccg.Core.ISourceItem Pages: 1 -->
<svg width="701pt" height="464pt"
 viewBox="0.00 0.00 701.00 464.00" xmlns="http://www.w3.org/2000/svg" xmlns:xlink="http://www.w3.org/1999/xlink">
<g id="graph0" class="graph" transform="scale(1 1) rotate(0) translate(4 460)">
<title>Sccg.Core.ISourceItem</title>
<!-- Node1 -->
<g id="node1" class="node">
<title>Node1</title>
<g id="a_node1"><a xlink:title="Represents a source item.">
<polygon fill="#999999" stroke="#666666" points="117,-290.5 0,-290.5 0,-271.5 117,-271.5 117,-290.5"/>
<text text-anchor="middle" x="58.5" y="-278.5" font-family="Helvetica,sans-Serif" font-size="10.00">Sccg.Core.ISourceItem</text>
</a>
</g>
</g>
<!-- Node2 -->
<g id="node2" class="node">
<title>Node2</title>
<g id="a_node2"><a xlink:href="interfaceSccg_1_1Builtin_1_1Formatters_1_1IAlacrittySourceItem.html" target="_top" xlink:title="SourceItem for Alacritty config.">
<polygon fill="white" stroke="#666666" points="284.5,-413 164.5,-413 164.5,-383 284.5,-383 284.5,-413"/>
<text text-anchor="start" x="172.5" y="-401" font-family="Helvetica,sans-Serif" font-size="10.00">Sccg.Builtin.Formatters.</text>
<text text-anchor="middle" x="224.5" y="-390" font-family="Helvetica,sans-Serif" font-size="10.00">IAlacrittySourceItem</text>
</a>
</g>
</g>
<!-- Node1&#45;&gt;Node2 -->
<g id="edge1" class="edge">
<title>Node1&#45;&gt;Node2</title>
<path fill="none" stroke="#63b8ff" d="M82.05,-297.09C113.67,-319.65 170.79,-360.4 201.9,-382.59"/>
<polygon fill="#63b8ff" stroke="#63b8ff" points="84.66,-293.93 74.48,-290.98 80.59,-299.63 84.66,-293.93"/>
</g>
<!-- Node5 -->
<g id="node5" class="node">
<title>Node5</title>
<g id="a_node5"><a xlink:href="interfaceSccg_1_1Builtin_1_1Sources_1_1Internal_1_1INeovimSourceItemBase.html" target="_top" xlink:title="Base SourceItem for Neovim.">
<polygon fill="white" stroke="#666666" points="296,-320 153,-320 153,-290 296,-290 296,-320"/>
<text text-anchor="start" x="161" y="-308" font-family="Helvetica,sans-Serif" font-size="10.00">Sccg.Builtin.Sources.Internal.</text>
<text text-anchor="middle" x="224.5" y="-297" font-family="Helvetica,sans-Serif" font-size="10.00">INeovimSourceItemBase</text>
</a>
</g>
</g>
<!-- Node1&#45;&gt;Node5 -->
<g id="edge4" class="edge">
<title>Node1&#45;&gt;Node5</title>
<path fill="none" stroke="#63b8ff" d="M127.94,-291.02C136.11,-292.21 144.48,-293.44 152.69,-294.64"/>
<polygon fill="#63b8ff" stroke="#63b8ff" points="128.72,-287.45 118.32,-289.46 127.71,-294.37 128.72,-287.45"/>
</g>
<!-- Node13 -->
<g id="node13" class="node">
<title>Node13</title>
<g id="a_node13"><a xlink:href="interfaceSccg_1_1Builtin_1_1Sources_1_1Internal_1_1IVSCodeSourceItemBase.html" target="_top" xlink:title="Base SourceItem for VSCode.">
<polygon fill="white" stroke="#666666" points="296,-78 153,-78 153,-48 296,-48 296,-78"/>
<text text-anchor="start" x="161" y="-66" font-family="Helvetica,sans-Serif" font-size="10.00">Sccg.Builtin.Sources.Internal.</text>
<text text-anchor="middle" x="224.5" y="-55" font-family="Helvetica,sans-Serif" font-size="10.00">IVSCodeSourceItemBase</text>
</a>
</g>
</g>
<!-- Node1&#45;&gt;Node13 -->
<g id="edge13" class="edge">
<title>Node1&#45;&gt;Node13</title>
<path fill="none" stroke="#63b8ff" d="M73.55,-262.32C105.44,-219.93 182.78,-117.13 212.03,-78.24"/>
<polygon fill="#63b8ff" stroke="#63b8ff" points="70.19,-259.97 66.97,-270.07 75.78,-264.18 70.19,-259.97"/>
</g>
<!-- Node18 -->
<g id="node18" class="node">
<title>Node18</title>
<g id="a_node18"><a xlink:href="interfaceSccg_1_1Builtin_1_1Sources_1_1Internal_1_1IVimSourceItemBase.html" target="_top" xlink:title="Base SourceItem for Vim.">
<polygon fill="white" stroke="#666666" points="296,-272 153,-272 153,-242 296,-242 296,-272"/>
<text text-anchor="start" x="161" y="-260" font-family="Helvetica,sans-Serif" font-size="10.00">Sccg.Builtin.Sources.Internal.</text>
<text text-anchor="middle" x="224.5" y="-249" font-family="Helvetica,sans-Serif" font-size="10.00">IVimSourceItemBase</text>
</a>
</g>
</g>
<!-- Node1&#45;&gt;Node18 -->
<g id="edge18" class="edge">
<title>Node1&#45;&gt;Node18</title>
<path fill="none" stroke="#63b8ff" d="M127.94,-270.98C136.11,-269.79 144.48,-268.56 152.69,-267.36"/>
<polygon fill="#63b8ff" stroke="#63b8ff" points="127.71,-267.63 118.32,-272.54 128.72,-274.55 127.71,-267.63"/>
</g>
<!-- Node3 -->
<g id="node3" class="node">
<title>Node3</title>
<g id="a_node3"><a xlink:href="classSccg_1_1Builtin_1_1Sources_1_1AlacrittyColorsSource_1_1Item.html" target="_top" xlink:title="SourceItem for Alacritty.">
<polygon fill="white" stroke="#666666" points="481.5,-456 337.5,-456 337.5,-426 481.5,-426 481.5,-456"/>
<text text-anchor="start" x="345.5" y="-444" font-family="Helvetica,sans-Serif" font-size="10.00">Sccg.Builtin.Sources.Alacritty</text>
<text text-anchor="middle" x="409.5" y="-433" font-family="Helvetica,sans-Serif" font-size="10.00">ColorsSource.Item</text>
</a>
</g>
</g>
<!-- Node2&#45;&gt;Node3 -->
<g id="edge2" class="edge">
<title>Node2&#45;&gt;Node3</title>
<path fill="none" stroke="#63b8ff" d="M295.49,-414.45C311.01,-418.09 327.4,-421.94 342.74,-425.55"/>
<polygon fill="#63b8ff" stroke="#63b8ff" points="296.45,-410.84 285.91,-411.96 294.85,-417.66 296.45,-410.84"/>
</g>
<!-- Node4 -->
<g id="node4" class="node">
<title>Node4</title>
<g id="a_node4"><a xlink:href="classSccg_1_1Builtin_1_1Sources_1_1Ansi16ColorSource_1_1Item.html" target="_top" xlink:title="SourceItem for 16 ANSI colors.">
<polygon fill="white" stroke="#666666" points="677.5,-414 538.5,-414 538.5,-384 677.5,-384 677.5,-414"/>
<text text-anchor="start" x="546.5" y="-402" font-family="Helvetica,sans-Serif" font-size="10.00">Sccg.Builtin.Sources.Ansi16</text>
<text text-anchor="middle" x="608" y="-391" font-family="Helvetica,sans-Serif" font-size="10.00">ColorSource.Item</text>
</a>
</g>
</g>
<!-- Node2&#45;&gt;Node4 -->
<g id="edge3" class="edge">
<title>Node2&#45;&gt;Node4</title>
<path fill="none" stroke="#63b8ff" d="M295.46,-398.18C364.58,-398.36 469.64,-398.64 538.31,-398.82"/>
<polygon fill="#63b8ff" stroke="#63b8ff" points="295.7,-394.68 285.69,-398.16 295.68,-401.68 295.7,-394.68"/>
</g>
<!-- Node6 -->
<g id="node6" class="node">
<title>Node6</title>
<g id="a_node6"><a xlink:href="interfaceSccg_1_1Builtin_1_1Formatters_1_1INeovimSourceItem.html" target="_top" xlink:title="SourceItem for Neovim color scheme.">
<polygon fill="white" stroke="#666666" points="469.5,-272 349.5,-272 349.5,-242 469.5,-242 469.5,-272"/>
<text text-anchor="start" x="357.5" y="-260" font-family="Helvetica,sans-Serif" font-size="10.00">Sccg.Builtin.Formatters.</text>
<text text-anchor="middle" x="409.5" y="-249" font-family="Helvetica,sans-Serif" font-size="10.00">INeovimSourceItem</text>
</a>
</g>
</g>
<!-- Node5&#45;&gt;Node6 -->
<g id="edge5" class="edge">
<title>Node5&#45;&gt;Node6</title>
<path fill="none" stroke="#63b8ff" d="M294.88,-286.8C312.95,-282.06 332.24,-277 349.7,-272.42"/>
<polygon fill="#63b8ff" stroke="#63b8ff" points="294.19,-283.63 285.41,-289.55 295.97,-290.4 294.19,-283.63"/>
</g>
<!-- Node12 -->
<g id="node12" class="node">
<title>Node12</title>
<g id="a_node12"><a xlink:href="interfaceSccg_1_1Builtin_1_1Formatters_1_1INeovimVariableSourceItem.html" target="_top" xlink:title="SourceItem for Neovim color scheme.">
<polygon fill="white" stroke="#666666" points="479,-370 340,-370 340,-340 479,-340 479,-370"/>
<text text-anchor="start" x="348" y="-358" font-family="Helvetica,sans-Serif" font-size="10.00">Sccg.Builtin.Formatters.</text>
<text text-anchor="middle" x="409.5" y="-347" font-family="Helvetica,sans-Serif" font-size="10.00">INeovimVariableSourceItem</text>
</a>
</g>
</g>
<!-- Node5&#45;&gt;Node12 -->
<g id="edge11" class="edge">
<title>Node5&#45;&gt;Node12</title>
<path fill="none" stroke="#63b8ff" d="M292.28,-323.25C311.87,-328.6 333.09,-334.4 351.97,-339.56"/>
<polygon fill="#63b8ff" stroke="#63b8ff" points="293.47,-319.67 282.9,-320.41 291.62,-326.42 293.47,-319.67"/>
</g>
<!-- Node7 -->
<g id="node7" class="node">
<title>Node7</title>
<g id="a_node7"><a xlink:href="classSccg_1_1Builtin_1_1Sources_1_1NeovimEditorHighlightSource_1_1Item.html" target="_top" xlink:title="SourceItem for Neovim&#39;s editor highlight&#45;groups.">
<polygon fill="white" stroke="#666666" points="679.5,-366 536.5,-366 536.5,-336 679.5,-336 679.5,-366"/>
<text text-anchor="start" x="544.5" y="-354" font-family="Helvetica,sans-Serif" font-size="10.00">Sccg.Builtin.Sources.Neovim</text>
<text text-anchor="middle" x="608" y="-343" font-family="Helvetica,sans-Serif" font-size="10.00">EditorHighlightSource.Item</text>
</a>
</g>
</g>
<!-- Node6&#45;&gt;Node7 -->
<g id="edge6" class="edge">
<title>Node6&#45;&gt;Node7</title>
<path fill="none" stroke="#63b8ff" d="M479.5,-277.33C482.09,-278.79 484.61,-280.34 487,-282 508.05,-296.59 501.68,-312.81 523,-327 527.92,-330.28 533.3,-333.11 538.87,-335.57"/>
<polygon fill="#63b8ff" stroke="#63b8ff" points="481.32,-273.83 470.81,-272.48 478.19,-280.09 481.32,-273.83"/>
</g>
<!-- Node8 -->
<g id="node8" class="node">
<title>Node8</title>
<g id="a_node8"><a xlink:href="classSccg_1_1Builtin_1_1Sources_1_1NeovimLspDiagnosticHighlightSource_1_1Item.html" target="_top" xlink:title="SourceItem for Neovim LSP diagnostic highlight.">
<polygon fill="white" stroke="#666666" points="693,-318 523,-318 523,-288 693,-288 693,-318"/>
<text text-anchor="start" x="531" y="-306" font-family="Helvetica,sans-Serif" font-size="10.00">Sccg.Builtin.Sources.Neovim</text>
<text text-anchor="middle" x="608" y="-295" font-family="Helvetica,sans-Serif" font-size="10.00">LspDiagnosticHighlightSource.Item</text>
</a>
</g>
</g>
<!-- Node6&#45;&gt;Node8 -->
<g id="edge7" class="edge">
<title>Node6&#45;&gt;Node8</title>
<path fill="none" stroke="#63b8ff" d="M480.69,-273.43C500.28,-278.02 521.5,-282.98 540.85,-287.51"/>
<polygon fill="#63b8ff" stroke="#63b8ff" points="481.52,-269.8 470.99,-270.93 479.93,-276.61 481.52,-269.8"/>
</g>
<!-- Node9 -->
<g id="node9" class="node">
<title>Node9</title>
<g id="a_node9"><a xlink:href="classSccg_1_1Builtin_1_1Sources_1_1NeovimTreesitterHighlightSource_1_1Item.html" target="_top" xlink:title="SourceItem for Neovim Treesitter highlight.">
<polygon fill="white" stroke="#666666" points="682.5,-270 533.5,-270 533.5,-240 682.5,-240 682.5,-270"/>
<text text-anchor="start" x="541.5" y="-258" font-family="Helvetica,sans-Serif" font-size="10.00">Sccg.Builtin.Sources.Neovim</text>
<text text-anchor="middle" x="608" y="-247" font-family="Helvetica,sans-Serif" font-size="10.00">TreesitterHighlightSource.Item</text>
</a>
</g>
</g>
<!-- Node6&#45;&gt;Node9 -->
<g id="edge8" class="edge">
<title>Node6&#45;&gt;Node9</title>
<path fill="none" stroke="#63b8ff" d="M480.93,-256.28C497.87,-256.11 516.02,-255.93 533.11,-255.75"/>
<polygon fill="#63b8ff" stroke="#63b8ff" points="480.95,-252.79 470.99,-256.39 481.02,-259.79 480.95,-252.79"/>
</g>
<!-- Node10 -->
<g id="node10" class="node">
<title>Node10</title>
<g id="a_node10"><a xlink:href="classSccg_1_1Builtin_1_1Sources_1_1VimCustomGroupSource_1_1Item.html" target="_top" xlink:title="SourceItem for Vim/Neovim custom highlight group.">
<polygon fill="white" stroke="#666666" points="672.5,-222 543.5,-222 543.5,-192 672.5,-192 672.5,-222"/>
<text text-anchor="start" x="551.5" y="-210" font-family="Helvetica,sans-Serif" font-size="10.00">Sccg.Builtin.Sources.Vim</text>
<text text-anchor="middle" x="608" y="-199" font-family="Helvetica,sans-Serif" font-size="10.00">CustomGroupSource.Item</text>
</a>
</g>
</g>
<!-- Node6&#45;&gt;Node10 -->
<g id="edge9" class="edge">
<title>Node6&#45;&gt;Node10</title>
<path fill="none" stroke="#63b8ff" d="M480.39,-239.22C501.94,-233.73 525.48,-227.74 546.35,-222.43"/>
<polygon fill="#63b8ff" stroke="#63b8ff" points="479.82,-236 470.99,-241.86 481.54,-242.79 479.82,-236"/>
</g>
<!-- Node11 -->
<g id="node11" class="node">
<title>Node11</title>
<g id="a_node11"><a xlink:href="classSccg_1_1Builtin_1_1Sources_1_1VimSyntaxGroupSource_1_1Item.html" target="_top" xlink:title="SourceItem for Vim/Neovim syntax group.">
<polygon fill="white" stroke="#666666" points="671,-174 545,-174 545,-144 671,-144 671,-174"/>
<text text-anchor="start" x="553" y="-162" font-family="Helvetica,sans-Serif" font-size="10.00">Sccg.Builtin.Sources.Vim</text>
<text text-anchor="middle" x="608" y="-151" font-family="Helvetica,sans-Serif" font-size="10.00">SyntaxGroupSource.Item</text>
</a>
</g>
</g>
<!-- Node6&#45;&gt;Node11 -->
<g id="edge10" class="edge">
<title>Node6&#45;&gt;Node11</title>
<path fill="none" stroke="#63b8ff" d="M443.28,-235.67C456.83,-226.83 472.69,-216.45 487,-207 503.05,-196.41 505.55,-191.07 523,-183 529.88,-179.82 537.28,-176.96 544.73,-174.43"/>
<polygon fill="#63b8ff" stroke="#63b8ff" points="441.78,-233.12 435.31,-241.52 445.6,-238.99 441.78,-233.12"/>
</g>
<!-- Node12&#45;&gt;Node4 -->
<g id="edge12" class="edge">
<title>Node12&#45;&gt;Node4</title>
<path fill="none" stroke="#63b8ff" d="M489.69,-372.73C505.79,-376.34 522.61,-380.1 538.31,-383.62"/>
<polygon fill="#63b8ff" stroke="#63b8ff" points="490.75,-369.16 480.23,-370.39 489.22,-375.99 490.75,-369.16"/>
</g>
<!-- Node14 -->
<g id="node14" class="node">
<title>Node14</title>
<g id="a_node14"><a xlink:href="interfaceSccg_1_1Builtin_1_1Formatters_1_1IVSCodeColorSourceItem.html" target="_top" xlink:title="SourceItem for VSCode color theme json (colors).">
<polygon fill="white" stroke="#666666" points="473.5,-78 345.5,-78 345.5,-48 473.5,-48 473.5,-78"/>
<text text-anchor="start" x="353.5" y="-66" font-family="Helvetica,sans-Serif" font-size="10.00">Sccg.Builtin.Formatters.</text>
<text text-anchor="middle" x="409.5" y="-55" font-family="Helvetica,sans-Serif" font-size="10.00">IVSCodeColorSourceItem</text>
</a>
</g>
</g>
<!-- Node13&#45;&gt;Node14 -->
<g id="edge14" class="edge">
<title>Node13&#45;&gt;Node14</title>
<path fill="none" stroke="#63b8ff" d="M306.92,-63C319.72,-63 332.79,-63 345.11,-63"/>
<polygon fill="#63b8ff" stroke="#63b8ff" points="307.25,-59.5 297.25,-63 307.25,-66.5 307.25,-59.5"/>
</g>
<!-- Node16 -->
<g id="node16" class="node">
<title>Node16</title>
<g id="a_node16"><a xlink:href="interfaceSccg_1_1Builtin_1_1Formatters_1_1IVSCodeTokenColorSourceItem.html" target="_top" xlink:title="SourceItem for VSCode color theme json (tokenColors).">
<polygon fill="white" stroke="#666666" points="487,-30 332,-30 332,0 487,0 487,-30"/>
<text text-anchor="start" x="340" y="-18" font-family="Helvetica,sans-Serif" font-size="10.00">Sccg.Builtin.Formatters.</text>
<text text-anchor="middle" x="409.5" y="-7" font-family="Helvetica,sans-Serif" font-size="10.00">IVSCodeTokenColorSourceItem</text>
</a>
</g>
</g>
<!-- Node13&#45;&gt;Node16 -->
<g id="edge16" class="edge">
<title>Node13&#45;&gt;Node16</title>
<path fill="none" stroke="#63b8ff" d="M294.88,-44.8C312.95,-40.06 332.24,-35 349.7,-30.42"/>
<polygon fill="#63b8ff" stroke="#63b8ff" points="294.19,-41.63 285.41,-47.55 295.97,-48.4 294.19,-41.63"/>
</g>
<!-- Node15 -->
<g id="node15" class="node">
<title>Node15</title>
<g id="a_node15"><a xlink:href="classSccg_1_1Builtin_1_1Sources_1_1VSCodeEditorThemeColorSource_1_1Item.html" target="_top" xlink:title="SourceItem for VSCode editor theme color.">
<polygon fill="white" stroke="#666666" points="681,-78 535,-78 535,-48 681,-48 681,-78"/>
<text text-anchor="start" x="543" y="-66" font-family="Helvetica,sans-Serif" font-size="10.00">Sccg.Builtin.Sources.VSCode</text>
<text text-anchor="middle" x="608" y="-55" font-family="Helvetica,sans-Serif" font-size="10.00">EditorThemeColorSource.Item</text>
</a>
</g>
</g>
<!-- Node14&#45;&gt;Node15 -->
<g id="edge15" class="edge">
<title>Node14&#45;&gt;Node15</title>
<path fill="none" stroke="#63b8ff" d="M484.4,-63C500.84,-63 518.26,-63 534.64,-63"/>
<polygon fill="#63b8ff" stroke="#63b8ff" points="484.76,-59.5 474.76,-63 484.76,-66.5 484.76,-59.5"/>
</g>
<!-- Node17 -->
<g id="node17" class="node">
<title>Node17</title>
<g id="a_node17"><a xlink:href="classSccg_1_1Builtin_1_1Sources_1_1TextMateElementSource_1_1Item.html" target="_top" xlink:title="SourceItem for TextMate Element.">
<polygon fill="white" stroke="#666666" points="672,-30 544,-30 544,0 672,0 672,-30"/>
<text text-anchor="start" x="552" y="-18" font-family="Helvetica,sans-Serif" font-size="10.00">Sccg.Builtin.Sources.Text</text>
<text text-anchor="middle" x="608" y="-7" font-family="Helvetica,sans-Serif" font-size="10.00">MateElementSource.Item</text>
</a>
</g>
</g>
<!-- Node16&#45;&gt;Node17 -->
<g id="edge17" class="edge">
<title>Node16&#45;&gt;Node17</title>
<path fill="none" stroke="#63b8ff" d="M497.89,-15C513.26,-15 529,-15 543.57,-15"/>
<polygon fill="#63b8ff" stroke="#63b8ff" points="498.32,-11.5 488.32,-15 498.32,-18.5 498.32,-11.5"/>
</g>
<!-- Node19 -->
<g id="node19" class="node">
<title>Node19</title>
<g id="a_node19"><a xlink:href="interfaceSccg_1_1Builtin_1_1Formatters_1_1IVimArrayVariableSourceItem.html" target="_top" xlink:title="SourceItem for Vim color scheme.">
<polygon fill="white" stroke="#666666" points="482,-321 337,-321 337,-291 482,-291 482,-321"/>
<text text-anchor="start" x="345" y="-309" font-family="Helvetica,sans-Serif" font-size="10.00">Sccg.Builtin.Formatters.</text>
<text text-anchor="middle" x="409.5" y="-298" font-family="Helvetica,sans-Serif" font-size="10.00">IVimArrayVariableSourceItem</text>
</a>
</g>
</g>
<!-- Node18&#45;&gt;Node19 -->
<g id="edge19" class="edge">
<title>Node18&#45;&gt;Node19</title>
<path fill="none" stroke="#63b8ff" d="M293.72,-275.27C312.51,-280.3 332.7,-285.7 350.82,-290.56"/>
<polygon fill="#63b8ff" stroke="#63b8ff" points="294.72,-271.64 284.15,-272.44 292.91,-278.4 294.72,-271.64"/>
</g>
<!-- Node20 -->
<g id="node20" class="node">
<title>Node20</title>
<g id="a_node20"><a xlink:href="interfaceSccg_1_1Builtin_1_1Formatters_1_1IVimSourceItem.html" target="_top" xlink:title="SourceItem for Vim color scheme.">
<polygon fill="white" stroke="#666666" points="469.5,-198 349.5,-198 349.5,-168 469.5,-168 469.5,-198"/>
<text text-anchor="start" x="357.5" y="-186" font-family="Helvetica,sans-Serif" font-size="10.00">Sccg.Builtin.Formatters.</text>
<text text-anchor="middle" x="409.5" y="-175" font-family="Helvetica,sans-Serif" font-size="10.00">IVimSourceItem</text>
</a>
</g>
</g>
<!-- Node18&#45;&gt;Node20 -->
<g id="edge21" class="edge">
<title>Node18&#45;&gt;Node20</title>
<path fill="none" stroke="#63b8ff" d="M273.33,-237.66C303.57,-225.43 342.13,-209.84 370.32,-198.44"/>
<polygon fill="#63b8ff" stroke="#63b8ff" points="272.38,-234.67 264.42,-241.67 275,-241.16 272.38,-234.67"/>
</g>
<!-- Node19&#45;&gt;Node4 -->
<g id="edge20" class="edge">
<title>Node19&#45;&gt;Node4</title>
<path fill="none" stroke="#63b8ff" d="M479.03,-326.12C481.79,-327.64 484.46,-329.26 487,-331 507.85,-345.28 501.89,-361.12 523,-375 527.94,-378.25 533.33,-381.07 538.91,-383.51"/>
<polygon fill="#63b8ff" stroke="#63b8ff" points="480.89,-322.64 470.38,-321.36 477.8,-328.92 480.89,-322.64"/>
</g>
<!-- Node20&#45;&gt;Node10 -->
<g id="edge22" class="edge">
<title>Node20&#45;&gt;Node10</title>
<path fill="none" stroke="#63b8ff" d="M480.79,-191.58C501.17,-194.07 523.31,-196.78 543.27,-199.22"/>
<polygon fill="#63b8ff" stroke="#63b8ff" points="481.34,-188 470.99,-190.27 480.49,-194.95 481.34,-188"/>
</g>
<!-- Node20&#45;&gt;Node11 -->
<g id="edge24" class="edge">
<title>Node20&#45;&gt;Node11</title>
<path fill="none" stroke="#63b8ff" d="M480.72,-174.42C501.59,-171.87 524.31,-169.1 544.65,-166.62"/>
<polygon fill="#63b8ff" stroke="#63b8ff" points="480.49,-171.05 470.99,-175.73 481.34,-178 480.49,-171.05"/>
</g>
<!-- Node21 -->
<g id="node21" class="node">
<title>Node21</title>
<g id="a_node21"><a xlink:href="classSccg_1_1Builtin_1_1Sources_1_1VimEditorHighlightSource_1_1Item.html" target="_top" xlink:title="SourceItem for Vim editor highlight.">
<polygon fill="white" stroke="#666666" points="674,-126 542,-126 542,-96 674,-96 674,-126"/>
<text text-anchor="start" x="550" y="-114" font-family="Helvetica,sans-Serif" font-size="10.00">Sccg.Builtin.Sources.Vim</text>
<text text-anchor="middle" x="608" y="-103" font-family="Helvetica,sans-Serif" font-size="10.00">EditorHighlightSource.Item</text>
</a>
</g>
</g>
<!-- Node20&#45;&gt;Node21 -->
<g id="edge23" class="edge">
<title>Node20&#45;&gt;Node21</title>
<path fill="none" stroke="#63b8ff" d="M453.34,-163.23C474.13,-154.02 499.61,-143.3 523,-135 531.43,-132.01 540.44,-129.12 549.31,-126.45"/>
<polygon fill="#63b8ff" stroke="#63b8ff" points="452.24,-160.33 444.54,-167.61 455.1,-166.72 452.24,-160.33"/>
</g>
</g>
</svg>
