<?xml version="1.0" encoding="UTF-8" standalone="no"?>
<!DOCTYPE svg PUBLIC "-//W3C//DTD SVG 1.1//EN"
 "http://www.w3.org/Graphics/SVG/1.1/DTD/svg11.dtd">
<!-- Generated by graphviz version 8.0.1 (20230327.1645)
 -->
<!-- Title: Sccg.Builtin.Sources.Internal.IVSCodeSourceItemBase Pages: 1 -->
<svg width="630pt" height="86pt"
 viewBox="0.00 0.00 630.00 86.00" xmlns="http://www.w3.org/2000/svg" xmlns:xlink="http://www.w3.org/1999/xlink">
<g id="graph0" class="graph" transform="scale(1 1) rotate(0) translate(4 82)">
<title>Sccg.Builtin.Sources.Internal.IVSCodeSourceItemBase</title>
<!-- Node1 -->
<g id="node1" class="node">
<title>Node1</title>
<g id="a_node1"><a xlink:title="Base SourceItem for VSCode.">
<polygon fill="#999999" stroke="#666666" points="249,-54 106,-54 106,-24 249,-24 249,-54"/>
<text text-anchor="start" x="114" y="-42" font-family="Helvetica,sans-Serif" font-size="10.00">Sccg.Builtin.Sources.Internal.</text>
<text text-anchor="middle" x="177.5" y="-31" font-family="Helvetica,sans-Serif" font-size="10.00">IVSCodeSourceItemBase</text>
</a>
</g>
</g>
<!-- Node3 -->
<g id="node3" class="node">
<title>Node3</title>
<g id="a_node3"><a xlink:href="interfaceSccg_1_1Builtin_1_1Formatters_1_1IVSCodeColorSourceItem.html" target="_top" xlink:title="SourceItem for VSCode color theme json (colors).">
<polygon fill="white" stroke="#666666" points="426.5,-78 298.5,-78 298.5,-48 426.5,-48 426.5,-78"/>
<text text-anchor="start" x="306.5" y="-66" font-family="Helvetica,sans-Serif" font-size="10.00">Sccg.Builtin.Formatters.</text>
<text text-anchor="middle" x="362.5" y="-55" font-family="Helvetica,sans-Serif" font-size="10.00">IVSCodeColorSourceItem</text>
</a>
</g>
</g>
<!-- Node1&#45;&gt;Node3 -->
<g id="edge2" class="edge">
<title>Node1&#45;&gt;Node3</title>
<path fill="none" stroke="#63b8ff" d="M259.92,-49.68C272.72,-51.36 285.79,-53.07 298.11,-54.69"/>
<polygon fill="#63b8ff" stroke="#63b8ff" points="260.62,-46.11 250.25,-48.28 259.71,-53.05 260.62,-46.11"/>
</g>
<!-- Node5 -->
<g id="node5" class="node">
<title>Node5</title>
<g id="a_node5"><a xlink:href="interfaceSccg_1_1Builtin_1_1Formatters_1_1IVSCodeTokenColorSourceItem.html" target="_top" xlink:title="SourceItem for VSCode color theme json (tokenColors).">
<polygon fill="white" stroke="#666666" points="440,-30 285,-30 285,0 440,0 440,-30"/>
<text text-anchor="start" x="293" y="-18" font-family="Helvetica,sans-Serif" font-size="10.00">Sccg.Builtin.Formatters.</text>
<text text-anchor="middle" x="362.5" y="-7" font-family="Helvetica,sans-Serif" font-size="10.00">IVSCodeTokenColorSourceItem</text>
</a>
</g>
</g>
<!-- Node1&#45;&gt;Node5 -->
<g id="edge4" class="edge">
<title>Node1&#45;&gt;Node5</title>
<path fill="none" stroke="#63b8ff" d="M259.93,-28.32C268.12,-27.25 276.42,-26.16 284.56,-25.09"/>
<polygon fill="#63b8ff" stroke="#63b8ff" points="259.71,-24.95 250.25,-29.72 260.62,-31.89 259.71,-24.95"/>
</g>
<!-- Node2 -->
<g id="node2" class="node">
<title>Node2</title>
<g id="a_node2"><a xlink:href="interfaceSccg_1_1Core_1_1ISourceItem.html" target="_top" xlink:title="Represents a source item.">
<polygon fill="white" stroke="#666666" points="70,-48.5 0,-48.5 0,-29.5 70,-29.5 70,-48.5"/>
<text text-anchor="middle" x="35" y="-36.5" font-family="Helvetica,sans-Serif" font-size="10.00">ISourceItem</text>
</a>
</g>
</g>
<!-- Node2&#45;&gt;Node1 -->
<g id="edge1" class="edge">
<title>Node2&#45;&gt;Node1</title>
<path fill="none" stroke="#63b8ff" d="M81.37,-39C89.13,-39 97.37,-39 105.62,-39"/>
<polygon fill="#63b8ff" stroke="#63b8ff" points="81.37,-35.5 71.37,-39 81.37,-42.5 81.37,-35.5"/>
</g>
<!-- Node4 -->
<g id="node4" class="node">
<title>Node4</title>
<g id="a_node4"><a xlink:href="classSccg_1_1Builtin_1_1Sources_1_1VSCodeEditorThemeColorSource_1_1Item.html" target="_top" xlink:title="SourceItem for VSCode editor theme color.">
<polygon fill="white" stroke="#666666" points="622,-78 476,-78 476,-48 622,-48 622,-78"/>
<text text-anchor="start" x="484" y="-66" font-family="Helvetica,sans-Serif" font-size="10.00">Sccg.Builtin.Sources.VSCode</text>
<text text-anchor="middle" x="549" y="-55" font-family="Helvetica,sans-Serif" font-size="10.00">EditorThemeColorSource.Item</text>
</a>
</g>
</g>
<!-- Node3&#45;&gt;Node4 -->
<g id="edge3" class="edge">
<title>Node3&#45;&gt;Node4</title>
<path fill="none" stroke="#63b8ff" d="M437.79,-63C450.23,-63 463.12,-63 475.52,-63"/>
<polygon fill="#63b8ff" stroke="#63b8ff" points="437.99,-59.5 427.99,-63 437.99,-66.5 437.99,-59.5"/>
</g>
<!-- Node6 -->
<g id="node6" class="node">
<title>Node6</title>
<g id="a_node6"><a xlink:href="classSccg_1_1Builtin_1_1Sources_1_1TextMateElementSource_1_1Item.html" target="_top" xlink:title="SourceItem for TextMate Element.">
<polygon fill="white" stroke="#666666" points="613,-30 485,-30 485,0 613,0 613,-30"/>
<text text-anchor="start" x="493" y="-18" font-family="Helvetica,sans-Serif" font-size="10.00">Sccg.Builtin.Sources.Text</text>
<text text-anchor="middle" x="549" y="-7" font-family="Helvetica,sans-Serif" font-size="10.00">MateElementSource.Item</text>
</a>
</g>
</g>
<!-- Node5&#45;&gt;Node6 -->
<g id="edge5" class="edge">
<title>Node5&#45;&gt;Node6</title>
<path fill="none" stroke="#63b8ff" d="M451.19,-15C462.48,-15 473.86,-15 484.66,-15"/>
<polygon fill="#63b8ff" stroke="#63b8ff" points="451.41,-11.5 441.41,-15 451.41,-18.5 451.41,-11.5"/>
</g>
</g>
</svg>
