<?xml version="1.0" encoding="UTF-8" standalone="no"?>
<!DOCTYPE svg PUBLIC "-//W3C//DTD SVG 1.1//EN"
 "http://www.w3.org/Graphics/SVG/1.1/DTD/svg11.dtd">
<!-- Generated by graphviz version 7.1.0 (20230121.1956)
 -->
<!-- Title: Sccg.Core.ISourceItem Pages: 1 -->
<svg width="691pt" height="278pt"
 viewBox="0.00 0.00 691.00 278.00" xmlns="http://www.w3.org/2000/svg" xmlns:xlink="http://www.w3.org/1999/xlink">
<g id="graph0" class="graph" transform="scale(1 1) rotate(0) translate(4 274)">
<title>Sccg.Core.ISourceItem</title>
<!-- Node1 -->
<g id="node1" class="node">
<title>Node1</title>
<g id="a_node1"><a xlink:title=" ">
<polygon fill="#999999" stroke="#666666" points="117,-96.5 0,-96.5 0,-77.5 117,-77.5 117,-96.5"/>
<text text-anchor="middle" x="58.5" y="-84.5" font-family="Helvetica,sans-Serif" font-size="10.00">Sccg.Core.ISourceItem</text>
</a>
</g>
</g>
<!-- Node2 -->
<g id="node2" class="node">
<title>Node2</title>
<g id="a_node2"><a xlink:href="interfaceSccg_1_1Builtin_1_1Sources_1_1Internal_1_1INeovimSourceItemBase.html" target="_top" xlink:title=" ">
<polygon fill="white" stroke="#666666" points="296,-126 153,-126 153,-96 296,-96 296,-126"/>
<text text-anchor="start" x="161" y="-114" font-family="Helvetica,sans-Serif" font-size="10.00">Sccg.Builtin.Sources.Internal.</text>
<text text-anchor="middle" x="224.5" y="-103" font-family="Helvetica,sans-Serif" font-size="10.00">INeovimSourceItemBase</text>
</a>
</g>
</g>
<!-- Node1&#45;&gt;Node2 -->
<g id="edge1" class="edge">
<title>Node1&#45;&gt;Node2</title>
<path fill="none" stroke="#63b8ff" d="M128.49,-97.1C136.49,-98.27 144.66,-99.46 152.69,-100.64"/>
<polygon fill="#63b8ff" stroke="#63b8ff" points="129.22,-93.67 118.82,-95.68 128.21,-100.59 129.22,-93.67"/>
</g>
<!-- Node10 -->
<g id="node10" class="node">
<title>Node10</title>
<g id="a_node10"><a xlink:href="interfaceSccg_1_1Builtin_1_1Sources_1_1Internal_1_1IVimSourceItemBase.html" target="_top" xlink:title=" ">
<polygon fill="white" stroke="#666666" points="296,-78 153,-78 153,-48 296,-48 296,-78"/>
<text text-anchor="start" x="161" y="-66" font-family="Helvetica,sans-Serif" font-size="10.00">Sccg.Builtin.Sources.Internal.</text>
<text text-anchor="middle" x="224.5" y="-55" font-family="Helvetica,sans-Serif" font-size="10.00">IVimSourceItemBase</text>
</a>
</g>
</g>
<!-- Node1&#45;&gt;Node10 -->
<g id="edge9" class="edge">
<title>Node1&#45;&gt;Node10</title>
<path fill="none" stroke="#63b8ff" d="M128.49,-76.9C136.49,-75.73 144.66,-74.54 152.69,-73.36"/>
<polygon fill="#63b8ff" stroke="#63b8ff" points="128.21,-73.41 118.82,-78.32 129.22,-80.33 128.21,-73.41"/>
</g>
<!-- Node3 -->
<g id="node3" class="node">
<title>Node3</title>
<g id="a_node3"><a xlink:href="interfaceSccg_1_1Builtin_1_1Formatters_1_1INeovimSourceItem.html" target="_top" xlink:title=" ">
<polygon fill="white" stroke="#666666" points="464.5,-174 344.5,-174 344.5,-144 464.5,-144 464.5,-174"/>
<text text-anchor="start" x="352.5" y="-162" font-family="Helvetica,sans-Serif" font-size="10.00">Sccg.Builtin.Formatters.</text>
<text text-anchor="middle" x="404.5" y="-151" font-family="Helvetica,sans-Serif" font-size="10.00">INeovimSourceItem</text>
</a>
</g>
</g>
<!-- Node2&#45;&gt;Node3 -->
<g id="edge2" class="edge">
<title>Node2&#45;&gt;Node3</title>
<path fill="none" stroke="#63b8ff" d="M293.48,-129.33C310.91,-134.03 329.48,-139.04 346.31,-143.58"/>
<polygon fill="#63b8ff" stroke="#63b8ff" points="294.83,-126.07 284.26,-126.85 293.01,-132.83 294.83,-126.07"/>
</g>
<!-- Node8 -->
<g id="node8" class="node">
<title>Node8</title>
<g id="a_node8"><a xlink:href="interfaceSccg_1_1Builtin_1_1Formatters_1_1INeovimVariableSourceItem.html" target="_top" xlink:title=" ">
<polygon fill="white" stroke="#666666" points="474,-78 335,-78 335,-48 474,-48 474,-78"/>
<text text-anchor="start" x="343" y="-66" font-family="Helvetica,sans-Serif" font-size="10.00">Sccg.Builtin.Formatters.</text>
<text text-anchor="middle" x="404.5" y="-55" font-family="Helvetica,sans-Serif" font-size="10.00">INeovimVariableSourceItem</text>
</a>
</g>
</g>
<!-- Node2&#45;&gt;Node8 -->
<g id="edge7" class="edge">
<title>Node2&#45;&gt;Node8</title>
<path fill="none" stroke="#63b8ff" d="M293.48,-92.67C310.91,-87.97 329.48,-82.96 346.31,-78.42"/>
<polygon fill="#63b8ff" stroke="#63b8ff" points="293.01,-89.17 284.26,-95.15 294.83,-95.93 293.01,-89.17"/>
</g>
<!-- Node4 -->
<g id="node4" class="node">
<title>Node4</title>
<g id="a_node4"><a xlink:href="classSccg_1_1Builtin_1_1Sources_1_1NeovimEditorHighlightSource_1_1Item.html" target="_top" xlink:title=" ">
<polygon fill="white" stroke="#666666" points="669.5,-270 526.5,-270 526.5,-240 669.5,-240 669.5,-270"/>
<text text-anchor="start" x="534.5" y="-258" font-family="Helvetica,sans-Serif" font-size="10.00">Sccg.Builtin.Sources.Neovim</text>
<text text-anchor="middle" x="598" y="-247" font-family="Helvetica,sans-Serif" font-size="10.00">EditorHighlightSource.Item</text>
</a>
</g>
</g>
<!-- Node3&#45;&gt;Node4 -->
<g id="edge3" class="edge">
<title>Node3&#45;&gt;Node4</title>
<path fill="none" stroke="#63b8ff" d="M433.16,-181.06C454.06,-196.83 484.02,-217.56 513,-231 519.88,-234.19 527.28,-237.05 534.73,-239.59"/>
<polygon fill="#63b8ff" stroke="#63b8ff" points="435.49,-178.44 425.42,-175.13 431.23,-183.99 435.49,-178.44"/>
</g>
<!-- Node5 -->
<g id="node5" class="node">
<title>Node5</title>
<g id="a_node5"><a xlink:href="classSccg_1_1Builtin_1_1Sources_1_1NeovimLspDiagnosticHighlightSource_1_1Item.html" target="_top" xlink:title=" ">
<polygon fill="white" stroke="#666666" points="683,-222 513,-222 513,-192 683,-192 683,-222"/>
<text text-anchor="start" x="521" y="-210" font-family="Helvetica,sans-Serif" font-size="10.00">Sccg.Builtin.Sources.Neovim</text>
<text text-anchor="middle" x="598" y="-199" font-family="Helvetica,sans-Serif" font-size="10.00">LspDiagnosticHighlightSource.Item</text>
</a>
</g>
</g>
<!-- Node3&#45;&gt;Node5 -->
<g id="edge4" class="edge">
<title>Node3&#45;&gt;Node5</title>
<path fill="none" stroke="#63b8ff" d="M475.76,-176.61C495.3,-181.51 516.35,-186.79 535.35,-191.55"/>
<polygon fill="#63b8ff" stroke="#63b8ff" points="476.8,-173.26 466.25,-174.23 475.1,-180.05 476.8,-173.26"/>
</g>
<!-- Node6 -->
<g id="node6" class="node">
<title>Node6</title>
<g id="a_node6"><a xlink:href="classSccg_1_1Builtin_1_1Sources_1_1NeovimTreesitterHighlightSource_1_1Item.html" target="_top" xlink:title=" ">
<polygon fill="white" stroke="#666666" points="672.5,-174 523.5,-174 523.5,-144 672.5,-144 672.5,-174"/>
<text text-anchor="start" x="531.5" y="-162" font-family="Helvetica,sans-Serif" font-size="10.00">Sccg.Builtin.Sources.Neovim</text>
<text text-anchor="middle" x="598" y="-151" font-family="Helvetica,sans-Serif" font-size="10.00">TreesitterHighlightSource.Item</text>
</a>
</g>
</g>
<!-- Node3&#45;&gt;Node6 -->
<g id="edge5" class="edge">
<title>Node3&#45;&gt;Node6</title>
<path fill="none" stroke="#63b8ff" d="M476.26,-159C491.54,-159 507.74,-159 523.14,-159"/>
<polygon fill="#63b8ff" stroke="#63b8ff" points="476.29,-155.5 466.29,-159 476.29,-162.5 476.29,-155.5"/>
</g>
<!-- Node7 -->
<g id="node7" class="node">
<title>Node7</title>
<g id="a_node7"><a xlink:href="classSccg_1_1Builtin_1_1Sources_1_1VimSyntaxGroupSource_1_1Item.html" target="_top" xlink:title=" ">
<polygon fill="white" stroke="#666666" points="661,-126 535,-126 535,-96 661,-96 661,-126"/>
<text text-anchor="start" x="543" y="-114" font-family="Helvetica,sans-Serif" font-size="10.00">Sccg.Builtin.Sources.Vim</text>
<text text-anchor="middle" x="598" y="-103" font-family="Helvetica,sans-Serif" font-size="10.00">SyntaxGroupSource.Item</text>
</a>
</g>
</g>
<!-- Node3&#45;&gt;Node7 -->
<g id="edge6" class="edge">
<title>Node3&#45;&gt;Node7</title>
<path fill="none" stroke="#63b8ff" d="M475.76,-141.39C495.3,-136.49 516.35,-131.21 535.35,-126.45"/>
<polygon fill="#63b8ff" stroke="#63b8ff" points="475.1,-137.95 466.25,-143.77 476.8,-144.74 475.1,-137.95"/>
</g>
<!-- Node9 -->
<g id="node9" class="node">
<title>Node9</title>
<g id="a_node9"><a xlink:href="classSccg_1_1Builtin_1_1Sources_1_1Ansi16ColorSource_1_1Item.html" target="_top" xlink:title=" ">
<polygon fill="white" stroke="#666666" points="667.5,-30 528.5,-30 528.5,0 667.5,0 667.5,-30"/>
<text text-anchor="start" x="536.5" y="-18" font-family="Helvetica,sans-Serif" font-size="10.00">Sccg.Builtin.Sources.Ansi16</text>
<text text-anchor="middle" x="598" y="-7" font-family="Helvetica,sans-Serif" font-size="10.00">ColorSource.Item</text>
</a>
</g>
</g>
<!-- Node8&#45;&gt;Node9 -->
<g id="edge8" class="edge">
<title>Node8&#45;&gt;Node9</title>
<path fill="none" stroke="#63b8ff" d="M478.11,-44.8C497.01,-40.06 517.2,-35 535.47,-30.42"/>
<polygon fill="#63b8ff" stroke="#63b8ff" points="477.46,-41.35 468.61,-47.18 479.16,-48.14 477.46,-41.35"/>
</g>
<!-- Node11 -->
<g id="node11" class="node">
<title>Node11</title>
<g id="a_node11"><a xlink:href="interfaceSccg_1_1Builtin_1_1Formatters_1_1IVimArrayVariableSourceItem.html" target="_top" xlink:title=" ">
<polygon fill="white" stroke="#666666" points="477,-30 332,-30 332,0 477,0 477,-30"/>
<text text-anchor="start" x="340" y="-18" font-family="Helvetica,sans-Serif" font-size="10.00">Sccg.Builtin.Formatters.</text>
<text text-anchor="middle" x="404.5" y="-7" font-family="Helvetica,sans-Serif" font-size="10.00">IVimArrayVariableSourceItem</text>
</a>
</g>
</g>
<!-- Node10&#45;&gt;Node11 -->
<g id="edge10" class="edge">
<title>Node10&#45;&gt;Node11</title>
<path fill="none" stroke="#63b8ff" d="M293.48,-44.67C310.91,-39.97 329.48,-34.96 346.31,-30.42"/>
<polygon fill="#63b8ff" stroke="#63b8ff" points="293.01,-41.17 284.26,-47.15 294.83,-47.93 293.01,-41.17"/>
</g>
<!-- Node12 -->
<g id="node12" class="node">
<title>Node12</title>
<g id="a_node12"><a xlink:href="interfaceSccg_1_1Builtin_1_1Formatters_1_1IVimSourceItem.html" target="_top" xlink:title=" ">
<polygon fill="white" stroke="#666666" points="464.5,-126 344.5,-126 344.5,-96 464.5,-96 464.5,-126"/>
<text text-anchor="start" x="352.5" y="-114" font-family="Helvetica,sans-Serif" font-size="10.00">Sccg.Builtin.Formatters.</text>
<text text-anchor="middle" x="404.5" y="-103" font-family="Helvetica,sans-Serif" font-size="10.00">IVimSourceItem</text>
</a>
</g>
</g>
<!-- Node10&#45;&gt;Node12 -->
<g id="edge12" class="edge">
<title>Node10&#45;&gt;Node12</title>
<path fill="none" stroke="#63b8ff" d="M293.48,-81.33C310.91,-86.03 329.48,-91.04 346.31,-95.58"/>
<polygon fill="#63b8ff" stroke="#63b8ff" points="294.83,-78.07 284.26,-78.85 293.01,-84.83 294.83,-78.07"/>
</g>
<!-- Node11&#45;&gt;Node9 -->
<g id="edge11" class="edge">
<title>Node11&#45;&gt;Node9</title>
<path fill="none" stroke="#63b8ff" d="M488.81,-15C501.97,-15 515.45,-15 528.24,-15"/>
<polygon fill="#63b8ff" stroke="#63b8ff" points="488.87,-11.5 478.87,-15 488.87,-18.5 488.87,-11.5"/>
</g>
<!-- Node12&#45;&gt;Node7 -->
<g id="edge14" class="edge">
<title>Node12&#45;&gt;Node7</title>
<path fill="none" stroke="#63b8ff" d="M476.19,-111C495.38,-111 516,-111 534.69,-111"/>
<polygon fill="#63b8ff" stroke="#63b8ff" points="476.29,-107.5 466.29,-111 476.29,-114.5 476.29,-107.5"/>
</g>
<!-- Node13 -->
<g id="node13" class="node">
<title>Node13</title>
<g id="a_node13"><a xlink:href="classSccg_1_1Builtin_1_1Sources_1_1VimEditorHighlightSource_1_1Item.html" target="_top" xlink:title=" ">
<polygon fill="white" stroke="#666666" points="664,-78 532,-78 532,-48 664,-48 664,-78"/>
<text text-anchor="start" x="540" y="-66" font-family="Helvetica,sans-Serif" font-size="10.00">Sccg.Builtin.Sources.Vim</text>
<text text-anchor="middle" x="598" y="-55" font-family="Helvetica,sans-Serif" font-size="10.00">EditorHighlightSource.Item</text>
</a>
</g>
</g>
<!-- Node12&#45;&gt;Node13 -->
<g id="edge13" class="edge">
<title>Node12&#45;&gt;Node13</title>
<path fill="none" stroke="#63b8ff" d="M475.76,-93.39C495.3,-88.49 516.35,-83.21 535.35,-78.45"/>
<polygon fill="#63b8ff" stroke="#63b8ff" points="475.1,-89.95 466.25,-95.77 476.8,-96.74 475.1,-89.95"/>
</g>
</g>
</svg>
