<?xml version="1.0" encoding="UTF-8" standalone="no"?>
<!DOCTYPE svg PUBLIC "-//W3C//DTD SVG 1.1//EN"
 "http://www.w3.org/Graphics/SVG/1.1/DTD/svg11.dtd">
<!-- Generated by graphviz version 7.1.0 (20230121.1956)
 -->
<!-- Title: Sccg.Core.ISourceItem Pages: 1 -->
<!--zoomable 342 -->
<svg id="main" version="1.1" xmlns="http://www.w3.org/2000/svg" xmlns:xlink="http://www.w3.org/1999/xlink" xml:space="preserve" onload="init(evt)">
<style type="text/css"><![CDATA[
.edge:hover path { stroke: red; }
.edge:hover polygon { stroke: red; fill: red; }
]]></style>
<script type="text/javascript"><![CDATA[
var edges = document.getElementsByTagName('g');
if (edges && edges.length) {
  for (var i=0;i<edges.length;i++) {
    if (edges[i].id.substr(0,4)=='edge') {
      edges[i].setAttribute('class','edge');
    }
  }
}
]]></script>
        <defs>
                <circle id="rim" cx="0" cy="0" r="7"/>
                <circle id="rim2" cx="0" cy="0" r="3.5"/>
                <g id="zoomPlus">
                        <use xlink:href="#rim" fill="#404040">
                                <set attributeName="fill" to="#808080" begin="zoomplus.mouseover" end="zoomplus.mouseout"/>
                        </use>
                        <path d="M-4,0h8M0,-4v8" fill="none" stroke="white" stroke-width="1.5" pointer-events="none"/>
                </g>
                <g id="zoomMin">
                        <use xlink:href="#rim" fill="#404040">
                                <set attributeName="fill" to="#808080" begin="zoomminus.mouseover" end="zoomminus.mouseout"/>
                        </use>
                        <path d="M-4,0h8" fill="none" stroke="white" stroke-width="1.5" pointer-events="none"/>
                </g>
                <g id="dirArrow">
                        <path fill="none" stroke="white" stroke-width="1.5" d="M0,-3.0v7 M-2.5,-0.5L0,-3.0L2.5,-0.5"/>
                </g>
               <g id="resetDef">
                       <use xlink:href="#rim2" fill="#404040">
                               <set attributeName="fill" to="#808080" begin="reset.mouseover" end="reset.mouseout"/>
                       </use>
               </g>
        </defs>

<script type="text/javascript">
var viewWidth = 691;
var viewHeight = 342;
var sectionId = 'dynsection-0';
</script>
<script xlink:href="svgpan.js"/>
<svg id="graph" class="graph">
<g id="viewport">
<title>Sccg.Core.ISourceItem</title>
<!-- Node1 -->
<g id="node1" class="node">
<title>Node1</title>
<g id="a_node1"><a xlink:title="Represents a source item.">
<polygon fill="#999999" stroke="#666666" points="117,-239.5 0,-239.5 0,-220.5 117,-220.5 117,-239.5"/>
<text text-anchor="middle" x="58.5" y="-227.5" font-family="Helvetica,sans-Serif" font-size="10.00">Sccg.Core.ISourceItem</text>
</a>
</g>
</g>
<!-- Node2 -->
<g id="node2" class="node">
<title>Node2</title>
<g id="a_node2"><a xlink:href="interfaceSccg_1_1Builtin_1_1Formatters_1_1IAlacrittySourceItem.html" target="_top" xlink:title="SourceItem for Alacritty config.">
<polygon fill="white" stroke="#666666" points="284.5,-293 164.5,-293 164.5,-263 284.5,-263 284.5,-293"/>
<text text-anchor="start" x="172.5" y="-281" font-family="Helvetica,sans-Serif" font-size="10.00">Sccg.Builtin.Formatters.</text>
<text text-anchor="middle" x="224.5" y="-270" font-family="Helvetica,sans-Serif" font-size="10.00">IAlacrittySourceItem</text>
</a>
</g>
</g>
<!-- Node1&#45;&gt;Node2 -->
<g id="edge1" class="edge">
<title>Node1&#45;&gt;Node2</title>
<path fill="none" stroke="#63b8ff" d="M104.44,-243.15C124.98,-249.16 149.44,-256.32 170.83,-262.58"/>
<polygon fill="#63b8ff" stroke="#63b8ff" points="105.51,-239.82 94.93,-240.37 103.55,-246.54 105.51,-239.82"/>
</g>
<!-- Node5 -->
<g id="node5" class="node">
<title>Node5</title>
<g id="a_node5"><a xlink:href="interfaceSccg_1_1Builtin_1_1Sources_1_1Internal_1_1INeovimSourceItemBase.html" target="_top" xlink:title="Base SourceItem for Neovim.">
<polygon fill="white" stroke="#666666" points="296,-245 153,-245 153,-215 296,-215 296,-245"/>
<text text-anchor="start" x="161" y="-233" font-family="Helvetica,sans-Serif" font-size="10.00">Sccg.Builtin.Sources.Internal.</text>
<text text-anchor="middle" x="224.5" y="-222" font-family="Helvetica,sans-Serif" font-size="10.00">INeovimSourceItemBase</text>
</a>
</g>
</g>
<!-- Node1&#45;&gt;Node5 -->
<g id="edge4" class="edge">
<title>Node1&#45;&gt;Node5</title>
<path fill="none" stroke="#63b8ff" d="M128.76,-230C136.68,-230 144.75,-230 152.69,-230"/>
<polygon fill="#63b8ff" stroke="#63b8ff" points="128.83,-226.5 118.83,-230 128.83,-233.5 128.83,-226.5"/>
</g>
<!-- Node12 -->
<g id="node12" class="node">
<title>Node12</title>
<g id="a_node12"><a xlink:href="interfaceSccg_1_1Builtin_1_1Sources_1_1Internal_1_1IVimSourceItemBase.html" target="_top" xlink:title="Base SourceItem for Vim.">
<polygon fill="white" stroke="#666666" points="296,-197 153,-197 153,-167 296,-167 296,-197"/>
<text text-anchor="start" x="161" y="-185" font-family="Helvetica,sans-Serif" font-size="10.00">Sccg.Builtin.Sources.Internal.</text>
<text text-anchor="middle" x="224.5" y="-174" font-family="Helvetica,sans-Serif" font-size="10.00">IVimSourceItemBase</text>
</a>
</g>
</g>
<!-- Node1&#45;&gt;Node12 -->
<g id="edge12" class="edge">
<title>Node1&#45;&gt;Node12</title>
<path fill="none" stroke="#63b8ff" d="M104.44,-216.85C124.98,-210.84 149.44,-203.68 170.83,-197.42"/>
<polygon fill="#63b8ff" stroke="#63b8ff" points="103.55,-213.46 94.93,-219.63 105.51,-220.18 103.55,-213.46"/>
</g>
<!-- Node3 -->
<g id="node3" class="node">
<title>Node3</title>
<g id="a_node3"><a xlink:href="classSccg_1_1Builtin_1_1Sources_1_1AlacrittyColorsSource_1_1Item.html" target="_top" xlink:title="SourceItem for Alacritty.">
<polygon fill="white" stroke="#666666" points="476.5,-334 332.5,-334 332.5,-304 476.5,-304 476.5,-334"/>
<text text-anchor="start" x="340.5" y="-322" font-family="Helvetica,sans-Serif" font-size="10.00">Sccg.Builtin.Sources.Alacritty</text>
<text text-anchor="middle" x="404.5" y="-311" font-family="Helvetica,sans-Serif" font-size="10.00">ColorsSource.Item</text>
</a>
</g>
</g>
<!-- Node2&#45;&gt;Node3 -->
<g id="edge2" class="edge">
<title>Node2&#45;&gt;Node3</title>
<path fill="none" stroke="#63b8ff" d="M295.85,-294.2C309.24,-297.29 323.22,-300.51 336.5,-303.57"/>
<polygon fill="#63b8ff" stroke="#63b8ff" points="296.78,-290.83 286.25,-291.99 295.21,-297.65 296.78,-290.83"/>
</g>
<!-- Node4 -->
<g id="node4" class="node">
<title>Node4</title>
<g id="a_node4"><a xlink:href="classSccg_1_1Builtin_1_1Sources_1_1Ansi16ColorSource_1_1Item.html" target="_top" xlink:title="SourceItem for 16 ANSI colors.">
<polygon fill="white" stroke="#666666" points="667.5,-270 528.5,-270 528.5,-240 667.5,-240 667.5,-270"/>
<text text-anchor="start" x="536.5" y="-258" font-family="Helvetica,sans-Serif" font-size="10.00">Sccg.Builtin.Sources.Ansi16</text>
<text text-anchor="middle" x="598" y="-247" font-family="Helvetica,sans-Serif" font-size="10.00">ColorSource.Item</text>
</a>
</g>
</g>
<!-- Node2&#45;&gt;Node4 -->
<g id="edge3" class="edge">
<title>Node2&#45;&gt;Node4</title>
<path fill="none" stroke="#63b8ff" d="M296,-273.64C362.66,-269.51 462.04,-263.36 528.15,-259.26"/>
<polygon fill="#63b8ff" stroke="#63b8ff" points="296.05,-270.13 286.29,-274.24 296.48,-277.11 296.05,-270.13"/>
</g>
<!-- Node6 -->
<g id="node6" class="node">
<title>Node6</title>
<g id="a_node6"><a xlink:href="interfaceSccg_1_1Builtin_1_1Formatters_1_1INeovimSourceItem.html" target="_top" xlink:title="SourceItem for Neovim color scheme.">
<polygon fill="white" stroke="#666666" points="464.5,-152 344.5,-152 344.5,-122 464.5,-122 464.5,-152"/>
<text text-anchor="start" x="352.5" y="-140" font-family="Helvetica,sans-Serif" font-size="10.00">Sccg.Builtin.Formatters.</text>
<text text-anchor="middle" x="404.5" y="-129" font-family="Helvetica,sans-Serif" font-size="10.00">INeovimSourceItem</text>
</a>
</g>
</g>
<!-- Node5&#45;&gt;Node6 -->
<g id="edge5" class="edge">
<title>Node5&#45;&gt;Node6</title>
<path fill="none" stroke="#63b8ff" d="M291.04,-209.23C292.74,-208.2 294.4,-207.12 296,-206 316.96,-191.28 311.01,-175.67 332,-161 336.62,-157.77 341.7,-154.96 346.96,-152.5"/>
<polygon fill="#63b8ff" stroke="#63b8ff" points="289.42,-206.12 282.23,-213.9 292.7,-212.31 289.42,-206.12"/>
</g>
<!-- Node11 -->
<g id="node11" class="node">
<title>Node11</title>
<g id="a_node11"><a xlink:href="interfaceSccg_1_1Builtin_1_1Formatters_1_1INeovimVariableSourceItem.html" target="_top" xlink:title="SourceItem for Neovim color scheme.">
<polygon fill="white" stroke="#666666" points="474,-248 335,-248 335,-218 474,-218 474,-248"/>
<text text-anchor="start" x="343" y="-236" font-family="Helvetica,sans-Serif" font-size="10.00">Sccg.Builtin.Formatters.</text>
<text text-anchor="middle" x="404.5" y="-225" font-family="Helvetica,sans-Serif" font-size="10.00">INeovimVariableSourceItem</text>
</a>
</g>
</g>
<!-- Node5&#45;&gt;Node11 -->
<g id="edge10" class="edge">
<title>Node5&#45;&gt;Node11</title>
<path fill="none" stroke="#63b8ff" d="M307.69,-231.39C316.7,-231.54 325.8,-231.69 334.62,-231.84"/>
<polygon fill="#63b8ff" stroke="#63b8ff" points="307.93,-227.89 297.88,-231.22 307.81,-234.89 307.93,-227.89"/>
</g>
<!-- Node7 -->
<g id="node7" class="node">
<title>Node7</title>
<g id="a_node7"><a xlink:href="classSccg_1_1Builtin_1_1Sources_1_1NeovimEditorHighlightSource_1_1Item.html" target="_top" xlink:title="SourceItem for Neovim&#39;s editor highlight&#45;groups.">
<polygon fill="white" stroke="#666666" points="669.5,-222 526.5,-222 526.5,-192 669.5,-192 669.5,-222"/>
<text text-anchor="start" x="534.5" y="-210" font-family="Helvetica,sans-Serif" font-size="10.00">Sccg.Builtin.Sources.Neovim</text>
<text text-anchor="middle" x="598" y="-199" font-family="Helvetica,sans-Serif" font-size="10.00">EditorHighlightSource.Item</text>
</a>
</g>
</g>
<!-- Node6&#45;&gt;Node7 -->
<g id="edge6" class="edge">
<title>Node6&#45;&gt;Node7</title>
<path fill="none" stroke="#63b8ff" d="M466.71,-156.52C470.23,-157.95 473.68,-159.45 477,-161 494,-168.92 495.83,-175.47 513,-183 520.22,-186.17 527.98,-189.04 535.75,-191.6"/>
<polygon fill="#63b8ff" stroke="#63b8ff" points="468.06,-153.29 457.47,-152.93 465.53,-159.81 468.06,-153.29"/>
</g>
<!-- Node8 -->
<g id="node8" class="node">
<title>Node8</title>
<g id="a_node8"><a xlink:href="classSccg_1_1Builtin_1_1Sources_1_1NeovimLspDiagnosticHighlightSource_1_1Item.html" target="_top" xlink:title="SourceItem for Neovim LSP diagnostic highlight.">
<polygon fill="white" stroke="#666666" points="683,-174 513,-174 513,-144 683,-144 683,-174"/>
<text text-anchor="start" x="521" y="-162" font-family="Helvetica,sans-Serif" font-size="10.00">Sccg.Builtin.Sources.Neovim</text>
<text text-anchor="middle" x="598" y="-151" font-family="Helvetica,sans-Serif" font-size="10.00">LspDiagnosticHighlightSource.Item</text>
</a>
</g>
</g>
<!-- Node6&#45;&gt;Node8 -->
<g id="edge7" class="edge">
<title>Node6&#45;&gt;Node8</title>
<path fill="none" stroke="#63b8ff" d="M476.02,-145.1C487.95,-146.47 500.44,-147.91 512.68,-149.31"/>
<polygon fill="#63b8ff" stroke="#63b8ff" points="476.62,-141.65 466.28,-143.98 475.82,-148.6 476.62,-141.65"/>
</g>
<!-- Node9 -->
<g id="node9" class="node">
<title>Node9</title>
<g id="a_node9"><a xlink:href="classSccg_1_1Builtin_1_1Sources_1_1NeovimTreesitterHighlightSource_1_1Item.html" target="_top" xlink:title="SourceItem for Neovim Treesitter highlight.">
<polygon fill="white" stroke="#666666" points="672.5,-126 523.5,-126 523.5,-96 672.5,-96 672.5,-126"/>
<text text-anchor="start" x="531.5" y="-114" font-family="Helvetica,sans-Serif" font-size="10.00">Sccg.Builtin.Sources.Neovim</text>
<text text-anchor="middle" x="598" y="-103" font-family="Helvetica,sans-Serif" font-size="10.00">TreesitterHighlightSource.Item</text>
</a>
</g>
</g>
<!-- Node6&#45;&gt;Node9 -->
<g id="edge8" class="edge">
<title>Node6&#45;&gt;Node9</title>
<path fill="none" stroke="#63b8ff" d="M475.81,-127.45C491.23,-125.36 507.59,-123.14 523.14,-121.03"/>
<polygon fill="#63b8ff" stroke="#63b8ff" points="475.72,-123.93 466.28,-128.75 476.66,-130.87 475.72,-123.93"/>
</g>
<!-- Node10 -->
<g id="node10" class="node">
<title>Node10</title>
<g id="a_node10"><a xlink:href="classSccg_1_1Builtin_1_1Sources_1_1VimSyntaxGroupSource_1_1Item.html" target="_top" xlink:title="SourceItem for Vim/Neovim syntax group.">
<polygon fill="white" stroke="#666666" points="661,-78 535,-78 535,-48 661,-48 661,-78"/>
<text text-anchor="start" x="543" y="-66" font-family="Helvetica,sans-Serif" font-size="10.00">Sccg.Builtin.Sources.Vim</text>
<text text-anchor="middle" x="598" y="-55" font-family="Helvetica,sans-Serif" font-size="10.00">SyntaxGroupSource.Item</text>
</a>
</g>
</g>
<!-- Node6&#45;&gt;Node10 -->
<g id="edge9" class="edge">
<title>Node6&#45;&gt;Node10</title>
<path fill="none" stroke="#63b8ff" d="M445.36,-116.64C465.34,-106.9 490.11,-95.53 513,-87 521.1,-83.98 529.76,-81.12 538.32,-78.49"/>
<polygon fill="#63b8ff" stroke="#63b8ff" points="443.86,-113.47 436.44,-121.04 446.96,-119.75 443.86,-113.47"/>
</g>
<!-- Node11&#45;&gt;Node4 -->
<g id="edge11" class="edge">
<title>Node11&#45;&gt;Node4</title>
<path fill="none" stroke="#63b8ff" d="M485.58,-242.2C499.71,-243.82 514.31,-245.5 528.1,-247.08"/>
<polygon fill="#63b8ff" stroke="#63b8ff" points="486.2,-238.75 475.87,-241.08 485.4,-245.7 486.2,-238.75"/>
</g>
<!-- Node13 -->
<g id="node13" class="node">
<title>Node13</title>
<g id="a_node13"><a xlink:href="interfaceSccg_1_1Builtin_1_1Formatters_1_1IVimArrayVariableSourceItem.html" target="_top" xlink:title="SourceItem for Vim color scheme.">
<polygon fill="white" stroke="#666666" points="477,-200 332,-200 332,-170 477,-170 477,-200"/>
<text text-anchor="start" x="340" y="-188" font-family="Helvetica,sans-Serif" font-size="10.00">Sccg.Builtin.Formatters.</text>
<text text-anchor="middle" x="404.5" y="-177" font-family="Helvetica,sans-Serif" font-size="10.00">IVimArrayVariableSourceItem</text>
</a>
</g>
</g>
<!-- Node12&#45;&gt;Node13 -->
<g id="edge13" class="edge">
<title>Node12&#45;&gt;Node13</title>
<path fill="none" stroke="#63b8ff" d="M307.65,-183.38C315.68,-183.52 323.8,-183.66 331.72,-183.79"/>
<polygon fill="#63b8ff" stroke="#63b8ff" points="307.93,-179.89 297.88,-183.22 307.81,-186.89 307.93,-179.89"/>
</g>
<!-- Node14 -->
<g id="node14" class="node">
<title>Node14</title>
<g id="a_node14"><a xlink:href="interfaceSccg_1_1Builtin_1_1Formatters_1_1IVimSourceItem.html" target="_top" xlink:title="SourceItem for Vim color scheme.">
<polygon fill="white" stroke="#666666" points="464.5,-78 344.5,-78 344.5,-48 464.5,-48 464.5,-78"/>
<text text-anchor="start" x="352.5" y="-66" font-family="Helvetica,sans-Serif" font-size="10.00">Sccg.Builtin.Formatters.</text>
<text text-anchor="middle" x="404.5" y="-55" font-family="Helvetica,sans-Serif" font-size="10.00">IVimSourceItem</text>
</a>
</g>
</g>
<!-- Node12&#45;&gt;Node14 -->
<g id="edge15" class="edge">
<title>Node12&#45;&gt;Node14</title>
<path fill="none" stroke="#63b8ff" d="M257.81,-160.4C293.22,-136.72 349.14,-99.34 380.4,-78.44"/>
<polygon fill="#63b8ff" stroke="#63b8ff" points="256.03,-157.38 249.66,-165.85 259.92,-163.2 256.03,-157.38"/>
</g>
<!-- Node13&#45;&gt;Node4 -->
<g id="edge14" class="edge">
<title>Node13&#45;&gt;Node4</title>
<path fill="none" stroke="#63b8ff" d="M466.71,-204.52C470.23,-205.95 473.68,-207.45 477,-209 494,-216.92 495.83,-223.47 513,-231 520.22,-234.17 527.98,-237.04 535.75,-239.6"/>
<polygon fill="#63b8ff" stroke="#63b8ff" points="468.06,-201.29 457.47,-200.93 465.53,-207.81 468.06,-201.29"/>
</g>
<!-- Node14&#45;&gt;Node10 -->
<g id="edge17" class="edge">
<title>Node14&#45;&gt;Node10</title>
<path fill="none" stroke="#63b8ff" d="M476.19,-63C495.38,-63 516,-63 534.69,-63"/>
<polygon fill="#63b8ff" stroke="#63b8ff" points="476.29,-59.5 466.29,-63 476.29,-66.5 476.29,-59.5"/>
</g>
<!-- Node15 -->
<g id="node15" class="node">
<title>Node15</title>
<g id="a_node15"><a xlink:href="classSccg_1_1Builtin_1_1Sources_1_1VimEditorHighlightSource_1_1Item.html" target="_top" xlink:title="SourceItem for Vim editor highlight.">
<polygon fill="white" stroke="#666666" points="664,-30 532,-30 532,0 664,0 664,-30"/>
<text text-anchor="start" x="540" y="-18" font-family="Helvetica,sans-Serif" font-size="10.00">Sccg.Builtin.Sources.Vim</text>
<text text-anchor="middle" x="598" y="-7" font-family="Helvetica,sans-Serif" font-size="10.00">EditorHighlightSource.Item</text>
</a>
</g>
</g>
<!-- Node14&#45;&gt;Node15 -->
<g id="edge16" class="edge">
<title>Node14&#45;&gt;Node15</title>
<path fill="none" stroke="#63b8ff" d="M475.76,-45.39C495.3,-40.49 516.35,-35.21 535.35,-30.45"/>
<polygon fill="#63b8ff" stroke="#63b8ff" points="475.1,-41.95 466.25,-47.77 476.8,-48.74 475.1,-41.95"/>
</g>
</g>
</svg>
        <g id="navigator" transform="translate(0 0)" fill="#404254">
                <rect fill="#f2f5e9" fill-opacity="0.5" stroke="#606060" stroke-width=".5" x="0" y="0" width="60" height="60"/>
                <use id="zoomplus" xlink:href="#zoomPlus" x="17" y="9" onmousedown="handleZoom(evt,'in')"/>
                <use id="zoomminus" xlink:href="#zoomMin" x="42" y="9" onmousedown="handleZoom(evt,'out')"/>
                <use id="reset" xlink:href="#resetDef" x="30" y="36" onmousedown="handleReset()"/>
                <g id="arrowUp" xlink:href="#dirArrow" transform="translate(30 24)" onmousedown="handlePan(0,-1)">
                  <use xlink:href="#rim" fill="#404040">
                        <set attributeName="fill" to="#808080" begin="arrowUp.mouseover" end="arrowUp.mouseout"/>
                  </use>
                  <path fill="none" stroke="white" stroke-width="1.5" d="M0,-3.0v7 M-2.5,-0.5L0,-3.0L2.5,-0.5"/>
                </g>
                <g id="arrowRight" xlink:href="#dirArrow" transform="rotate(90) translate(36 -43)" onmousedown="handlePan(1,0)">
                  <use xlink:href="#rim" fill="#404040">
                        <set attributeName="fill" to="#808080" begin="arrowRight.mouseover" end="arrowRight.mouseout"/>
                  </use>
                  <path fill="none" stroke="white" stroke-width="1.5" d="M0,-3.0v7 M-2.5,-0.5L0,-3.0L2.5,-0.5"/>
                </g>
                <g id="arrowDown" xlink:href="#dirArrow" transform="rotate(180) translate(-30 -48)" onmousedown="handlePan(0,1)">
                  <use xlink:href="#rim" fill="#404040">
                        <set attributeName="fill" to="#808080" begin="arrowDown.mouseover" end="arrowDown.mouseout"/>
                  </use>
                  <path fill="none" stroke="white" stroke-width="1.5" d="M0,-3.0v7 M-2.5,-0.5L0,-3.0L2.5,-0.5"/>
                </g>
                <g id="arrowLeft" xlink:href="#dirArrow" transform="rotate(270) translate(-36 17)" onmousedown="handlePan(-1,0)">
                  <use xlink:href="#rim" fill="#404040">
                        <set attributeName="fill" to="#808080" begin="arrowLeft.mouseover" end="arrowLeft.mouseout"/>
                  </use>
                  <path fill="none" stroke="white" stroke-width="1.5" d="M0,-3.0v7 M-2.5,-0.5L0,-3.0L2.5,-0.5"/>
                </g>
        </g>
        <svg viewBox="0 0 15 15" width="100%" height="30px" preserveAspectRatio="xMaxYMin meet">
         <g id="arrow_out" transform="scale(0.3 0.3)">
          <a xlink:href="interfaceSccg_1_1Core_1_1ISourceItem__inherit__graph_org.svg" target="_base">
           <rect id="button" ry="5" rx="5" y="6" x="6" height="38" width="38"
                fill="#f2f5e9" fill-opacity="0.5" stroke="#606060" stroke-width="1.0"/>
           <path id="arrow"
             d="M 11.500037,31.436501 C 11.940474,20.09759 22.043105,11.32322 32.158766,21.979434 L 37.068811,17.246167 C 37.068811,17.246167 37.088388,32 37.088388,32 L 22.160133,31.978069 C 22.160133,31.978069 26.997745,27.140456 26.997745,27.140456 C 18.528582,18.264221 13.291696,25.230495 11.500037,31.436501 z"
             style="fill:#404040;"/>
          </a>
         </g>
        </svg>
</svg>
