<?xml version="1.0" encoding="UTF-8" standalone="no"?>
<!DOCTYPE svg PUBLIC "-//W3C//DTD SVG 1.1//EN"
 "http://www.w3.org/Graphics/SVG/1.1/DTD/svg11.dtd">
<!-- Generated by graphviz version 7.0.5 (20221223.1930)
 -->
<!-- Title: INeovimSourceItem Pages: 1 -->
<svg width="420pt" height="113pt"
 viewBox="0.00 0.00 420.00 113.00" xmlns="http://www.w3.org/2000/svg" xmlns:xlink="http://www.w3.org/1999/xlink">
<g id="graph0" class="graph" transform="scale(1 1) rotate(0) translate(4 109)">
<title>INeovimSourceItem</title>
<!-- Node1 -->
<g id="node1" class="node">
<title>Node1</title>
<g id="a_node1"><a xlink:title=" ">
<polygon fill="#999999" stroke="#666666" points="210,-62 106,-62 106,-43 210,-43 210,-62"/>
<text text-anchor="middle" x="158" y="-50" font-family="Helvetica,sans-Serif" font-size="10.00">INeovimSourceItem</text>
</a>
</g>
</g>
<!-- Node3 -->
<g id="node3" class="node">
<title>Node3</title>
<g id="a_node3"><a xlink:href="classNeovimEditorHighlightSource_1_1Item.html" target="_top" xlink:title=" ">
<polygon fill="white" stroke="#666666" points="412,-105 246,-105 246,-86 412,-86 412,-105"/>
<text text-anchor="middle" x="329" y="-93" font-family="Helvetica,sans-Serif" font-size="10.00">NeovimEditorHighlightSource.Item</text>
</a>
</g>
</g>
<!-- Node1&#45;&gt;Node3 -->
<g id="edge2" class="edge">
<title>Node1&#45;&gt;Node3</title>
<path fill="none" stroke="#63b8ff" d="M204.48,-65.43C217.83,-69.12 232.47,-73.07 246,-76.5 258.18,-79.59 271.43,-82.75 283.66,-85.58"/>
<polygon fill="#63b8ff" stroke="#63b8ff" points="205.66,-62.12 195.09,-62.81 203.78,-68.87 205.66,-62.12"/>
</g>
<!-- Node4 -->
<g id="node4" class="node">
<title>Node4</title>
<g id="a_node4"><a xlink:href="classNeovimTreesitterHighlightSource_1_1Item.html" target="_top" xlink:title=" ">
<polygon fill="white" stroke="#666666" points="394,-67.5 264,-67.5 264,-37.5 394,-37.5 394,-67.5"/>
<text text-anchor="start" x="272" y="-55.5" font-family="Helvetica,sans-Serif" font-size="10.00">NeovimTreesitterHighlight</text>
<text text-anchor="middle" x="329" y="-44.5" font-family="Helvetica,sans-Serif" font-size="10.00">Source.Item</text>
</a>
</g>
</g>
<!-- Node1&#45;&gt;Node4 -->
<g id="edge3" class="edge">
<title>Node1&#45;&gt;Node4</title>
<path fill="none" stroke="#63b8ff" d="M221.46,-52.5C235.18,-52.5 249.74,-52.5 263.54,-52.5"/>
<polygon fill="#63b8ff" stroke="#63b8ff" points="221.68,-49 211.68,-52.5 221.68,-56 221.68,-49"/>
</g>
<!-- Node5 -->
<g id="node5" class="node">
<title>Node5</title>
<g id="a_node5"><a xlink:href="classVimSyntaxGroupSource_1_1Item.html" target="_top" xlink:title=" ">
<polygon fill="white" stroke="#666666" points="400,-19 258,-19 258,0 400,0 400,-19"/>
<text text-anchor="middle" x="329" y="-7" font-family="Helvetica,sans-Serif" font-size="10.00">VimSyntaxGroupSource.Item</text>
</a>
</g>
</g>
<!-- Node1&#45;&gt;Node5 -->
<g id="edge4" class="edge">
<title>Node1&#45;&gt;Node5</title>
<path fill="none" stroke="#63b8ff" d="M204.48,-39.57C217.83,-35.88 232.47,-31.93 246,-28.5 258.18,-25.41 271.43,-22.25 283.66,-19.42"/>
<polygon fill="#63b8ff" stroke="#63b8ff" points="203.78,-36.13 195.09,-42.19 205.66,-42.88 203.78,-36.13"/>
</g>
<!-- Node2 -->
<g id="node2" class="node">
<title>Node2</title>
<g id="a_node2"><a xlink:href="interfaceISourceItem.html" target="_top" xlink:title=" ">
<polygon fill="white" stroke="#666666" points="70,-62 0,-62 0,-43 70,-43 70,-62"/>
<text text-anchor="middle" x="35" y="-50" font-family="Helvetica,sans-Serif" font-size="10.00">ISourceItem</text>
</a>
</g>
</g>
<!-- Node2&#45;&gt;Node1 -->
<g id="edge1" class="edge">
<title>Node2&#45;&gt;Node1</title>
<path fill="none" stroke="#63b8ff" d="M81.61,-52.5C89.52,-52.5 97.8,-52.5 105.84,-52.5"/>
<polygon fill="#63b8ff" stroke="#63b8ff" points="81.86,-49 71.86,-52.5 81.86,-56 81.86,-49"/>
</g>
</g>
</svg>
