<?xml version="1.0" encoding="UTF-8" standalone="no"?>
<!DOCTYPE svg PUBLIC "-//W3C//DTD SVG 1.1//EN"
 "http://www.w3.org/Graphics/SVG/1.1/DTD/svg11.dtd">
<!-- Generated by graphviz version 7.1.0 (20230121.1956)
 -->
<!-- Title: Sccg.Core.ISourceItem Pages: 1 -->
<svg width="691pt" height="369pt"
 viewBox="0.00 0.00 691.00 369.00" xmlns="http://www.w3.org/2000/svg" xmlns:xlink="http://www.w3.org/1999/xlink">
<g id="graph0" class="graph" transform="scale(1 1) rotate(0) translate(4 365)">
<title>Sccg.Core.ISourceItem</title>
<!-- Node1 -->
<g id="node1" class="node">
<title>Node1</title>
<g id="a_node1"><a xlink:title="Represents a source item.">
<polygon fill="#999999" stroke="#666666" points="117,-266.5 0,-266.5 0,-247.5 117,-247.5 117,-266.5"/>
<text text-anchor="middle" x="58.5" y="-254.5" font-family="Helvetica,sans-Serif" font-size="10.00">Sccg.Core.ISourceItem</text>
</a>
</g>
</g>
<!-- Node2 -->
<g id="node2" class="node">
<title>Node2</title>
<g id="a_node2"><a xlink:href="interfaceSccg_1_1Builtin_1_1Formatters_1_1IAlacrittySourceItem.html" target="_top" xlink:title="SourceItem for Alacritty config.">
<polygon fill="white" stroke="#666666" points="284.5,-320 164.5,-320 164.5,-290 284.5,-290 284.5,-320"/>
<text text-anchor="start" x="172.5" y="-308" font-family="Helvetica,sans-Serif" font-size="10.00">Sccg.Builtin.Formatters.</text>
<text text-anchor="middle" x="224.5" y="-297" font-family="Helvetica,sans-Serif" font-size="10.00">IAlacrittySourceItem</text>
</a>
</g>
</g>
<!-- Node1&#45;&gt;Node2 -->
<g id="edge1" class="edge">
<title>Node1&#45;&gt;Node2</title>
<path fill="none" stroke="#63b8ff" d="M104.44,-270.15C124.98,-276.16 149.44,-283.32 170.83,-289.58"/>
<polygon fill="#63b8ff" stroke="#63b8ff" points="105.51,-266.82 94.93,-267.37 103.55,-273.54 105.51,-266.82"/>
</g>
<!-- Node5 -->
<g id="node5" class="node">
<title>Node5</title>
<g id="a_node5"><a xlink:href="interfaceSccg_1_1Builtin_1_1Sources_1_1Internal_1_1INeovimSourceItemBase.html" target="_top" xlink:title="Base SourceItem for Neovim.">
<polygon fill="white" stroke="#666666" points="296,-272 153,-272 153,-242 296,-242 296,-272"/>
<text text-anchor="start" x="161" y="-260" font-family="Helvetica,sans-Serif" font-size="10.00">Sccg.Builtin.Sources.Internal.</text>
<text text-anchor="middle" x="224.5" y="-249" font-family="Helvetica,sans-Serif" font-size="10.00">INeovimSourceItemBase</text>
</a>
</g>
</g>
<!-- Node1&#45;&gt;Node5 -->
<g id="edge4" class="edge">
<title>Node1&#45;&gt;Node5</title>
<path fill="none" stroke="#63b8ff" d="M128.76,-257C136.68,-257 144.75,-257 152.69,-257"/>
<polygon fill="#63b8ff" stroke="#63b8ff" points="128.83,-253.5 118.83,-257 128.83,-260.5 128.83,-253.5"/>
</g>
<!-- Node13 -->
<g id="node13" class="node">
<title>Node13</title>
<g id="a_node13"><a xlink:href="interfaceSccg_1_1Builtin_1_1Sources_1_1Internal_1_1IVimSourceItemBase.html" target="_top" xlink:title="Base SourceItem for Vim.">
<polygon fill="white" stroke="#666666" points="296,-224 153,-224 153,-194 296,-194 296,-224"/>
<text text-anchor="start" x="161" y="-212" font-family="Helvetica,sans-Serif" font-size="10.00">Sccg.Builtin.Sources.Internal.</text>
<text text-anchor="middle" x="224.5" y="-201" font-family="Helvetica,sans-Serif" font-size="10.00">IVimSourceItemBase</text>
</a>
</g>
</g>
<!-- Node1&#45;&gt;Node13 -->
<g id="edge13" class="edge">
<title>Node1&#45;&gt;Node13</title>
<path fill="none" stroke="#63b8ff" d="M104.44,-243.85C124.98,-237.84 149.44,-230.68 170.83,-224.42"/>
<polygon fill="#63b8ff" stroke="#63b8ff" points="103.55,-240.46 94.93,-246.63 105.51,-247.18 103.55,-240.46"/>
</g>
<!-- Node3 -->
<g id="node3" class="node">
<title>Node3</title>
<g id="a_node3"><a xlink:href="classSccg_1_1Builtin_1_1Sources_1_1AlacrittyColorsSource_1_1Item.html" target="_top" xlink:title="SourceItem for Alacritty.">
<polygon fill="white" stroke="#666666" points="476.5,-361 332.5,-361 332.5,-331 476.5,-331 476.5,-361"/>
<text text-anchor="start" x="340.5" y="-349" font-family="Helvetica,sans-Serif" font-size="10.00">Sccg.Builtin.Sources.Alacritty</text>
<text text-anchor="middle" x="404.5" y="-338" font-family="Helvetica,sans-Serif" font-size="10.00">ColorsSource.Item</text>
</a>
</g>
</g>
<!-- Node2&#45;&gt;Node3 -->
<g id="edge2" class="edge">
<title>Node2&#45;&gt;Node3</title>
<path fill="none" stroke="#63b8ff" d="M295.85,-321.2C309.24,-324.29 323.22,-327.51 336.5,-330.57"/>
<polygon fill="#63b8ff" stroke="#63b8ff" points="296.78,-317.83 286.25,-318.99 295.21,-324.65 296.78,-317.83"/>
</g>
<!-- Node4 -->
<g id="node4" class="node">
<title>Node4</title>
<g id="a_node4"><a xlink:href="classSccg_1_1Builtin_1_1Sources_1_1Ansi16ColorSource_1_1Item.html" target="_top" xlink:title="SourceItem for 16 ANSI colors.">
<polygon fill="white" stroke="#666666" points="667.5,-318 528.5,-318 528.5,-288 667.5,-288 667.5,-318"/>
<text text-anchor="start" x="536.5" y="-306" font-family="Helvetica,sans-Serif" font-size="10.00">Sccg.Builtin.Sources.Ansi16</text>
<text text-anchor="middle" x="598" y="-295" font-family="Helvetica,sans-Serif" font-size="10.00">ColorSource.Item</text>
</a>
</g>
</g>
<!-- Node2&#45;&gt;Node4 -->
<g id="edge3" class="edge">
<title>Node2&#45;&gt;Node4</title>
<path fill="none" stroke="#63b8ff" d="M296,-304.62C362.66,-304.26 462.04,-303.73 528.15,-303.37"/>
<polygon fill="#63b8ff" stroke="#63b8ff" points="296.27,-301.12 286.29,-304.67 296.31,-308.12 296.27,-301.12"/>
</g>
<!-- Node6 -->
<g id="node6" class="node">
<title>Node6</title>
<g id="a_node6"><a xlink:href="interfaceSccg_1_1Builtin_1_1Formatters_1_1INeovimSourceItem.html" target="_top" xlink:title="SourceItem for Neovim color scheme.">
<polygon fill="white" stroke="#666666" points="464.5,-176 344.5,-176 344.5,-146 464.5,-146 464.5,-176"/>
<text text-anchor="start" x="352.5" y="-164" font-family="Helvetica,sans-Serif" font-size="10.00">Sccg.Builtin.Formatters.</text>
<text text-anchor="middle" x="404.5" y="-153" font-family="Helvetica,sans-Serif" font-size="10.00">INeovimSourceItem</text>
</a>
</g>
</g>
<!-- Node5&#45;&gt;Node6 -->
<g id="edge5" class="edge">
<title>Node5&#45;&gt;Node6</title>
<path fill="none" stroke="#63b8ff" d="M291.19,-236.2C292.84,-235.18 294.45,-234.11 296,-233 317.37,-217.66 310.69,-201.43 332,-186 337.11,-182.3 342.82,-179.11 348.72,-176.36"/>
<polygon fill="#63b8ff" stroke="#63b8ff" points="289.78,-232.98 282.65,-240.82 293.11,-239.14 289.78,-232.98"/>
</g>
<!-- Node12 -->
<g id="node12" class="node">
<title>Node12</title>
<g id="a_node12"><a xlink:href="interfaceSccg_1_1Builtin_1_1Formatters_1_1INeovimVariableSourceItem.html" target="_top" xlink:title="SourceItem for Neovim color scheme.">
<polygon fill="white" stroke="#666666" points="474,-274 335,-274 335,-244 474,-244 474,-274"/>
<text text-anchor="start" x="343" y="-262" font-family="Helvetica,sans-Serif" font-size="10.00">Sccg.Builtin.Formatters.</text>
<text text-anchor="middle" x="404.5" y="-251" font-family="Helvetica,sans-Serif" font-size="10.00">INeovimVariableSourceItem</text>
</a>
</g>
</g>
<!-- Node5&#45;&gt;Node12 -->
<g id="edge11" class="edge">
<title>Node5&#45;&gt;Node12</title>
<path fill="none" stroke="#63b8ff" d="M307.69,-257.92C316.7,-258.02 325.8,-258.13 334.62,-258.23"/>
<polygon fill="#63b8ff" stroke="#63b8ff" points="307.91,-254.43 297.88,-257.81 307.84,-261.43 307.91,-254.43"/>
</g>
<!-- Node7 -->
<g id="node7" class="node">
<title>Node7</title>
<g id="a_node7"><a xlink:href="classSccg_1_1Builtin_1_1Sources_1_1NeovimEditorHighlightSource_1_1Item.html" target="_top" xlink:title="SourceItem for Neovim&#39;s editor highlight&#45;groups.">
<polygon fill="white" stroke="#666666" points="669.5,-270 526.5,-270 526.5,-240 669.5,-240 669.5,-270"/>
<text text-anchor="start" x="534.5" y="-258" font-family="Helvetica,sans-Serif" font-size="10.00">Sccg.Builtin.Sources.Neovim</text>
<text text-anchor="middle" x="598" y="-247" font-family="Helvetica,sans-Serif" font-size="10.00">EditorHighlightSource.Item</text>
</a>
</g>
</g>
<!-- Node6&#45;&gt;Node7 -->
<g id="edge6" class="edge">
<title>Node6&#45;&gt;Node7</title>
<path fill="none" stroke="#63b8ff" d="M470.2,-181.64C472.55,-183.01 474.83,-184.46 477,-186 497.9,-200.8 491.68,-216.81 513,-231 517.92,-234.28 523.3,-237.11 528.87,-239.57"/>
<polygon fill="#63b8ff" stroke="#63b8ff" points="472.03,-178.65 461.54,-177.16 468.82,-184.87 472.03,-178.65"/>
</g>
<!-- Node8 -->
<g id="node8" class="node">
<title>Node8</title>
<g id="a_node8"><a xlink:href="classSccg_1_1Builtin_1_1Sources_1_1NeovimLspDiagnosticHighlightSource_1_1Item.html" target="_top" xlink:title="SourceItem for Neovim LSP diagnostic highlight.">
<polygon fill="white" stroke="#666666" points="683,-222 513,-222 513,-192 683,-192 683,-222"/>
<text text-anchor="start" x="521" y="-210" font-family="Helvetica,sans-Serif" font-size="10.00">Sccg.Builtin.Sources.Neovim</text>
<text text-anchor="middle" x="598" y="-199" font-family="Helvetica,sans-Serif" font-size="10.00">LspDiagnosticHighlightSource.Item</text>
</a>
</g>
</g>
<!-- Node6&#45;&gt;Node8 -->
<g id="edge7" class="edge">
<title>Node6&#45;&gt;Node8</title>
<path fill="none" stroke="#63b8ff" d="M475.85,-177.9C494.44,-182.37 514.42,-187.16 532.68,-191.55"/>
<polygon fill="#63b8ff" stroke="#63b8ff" points="476.79,-174.53 466.25,-175.59 475.16,-181.33 476.79,-174.53"/>
</g>
<!-- Node9 -->
<g id="node9" class="node">
<title>Node9</title>
<g id="a_node9"><a xlink:href="classSccg_1_1Builtin_1_1Sources_1_1NeovimTreesitterHighlightSource_1_1Item.html" target="_top" xlink:title="SourceItem for Neovim Treesitter highlight.">
<polygon fill="white" stroke="#666666" points="672.5,-174 523.5,-174 523.5,-144 672.5,-144 672.5,-174"/>
<text text-anchor="start" x="531.5" y="-162" font-family="Helvetica,sans-Serif" font-size="10.00">Sccg.Builtin.Sources.Neovim</text>
<text text-anchor="middle" x="598" y="-151" font-family="Helvetica,sans-Serif" font-size="10.00">TreesitterHighlightSource.Item</text>
</a>
</g>
</g>
<!-- Node6&#45;&gt;Node9 -->
<g id="edge8" class="edge">
<title>Node6&#45;&gt;Node9</title>
<path fill="none" stroke="#63b8ff" d="M476.26,-160.26C491.54,-160.1 507.74,-159.93 523.14,-159.77"/>
<polygon fill="#63b8ff" stroke="#63b8ff" points="476.26,-156.76 466.29,-160.37 476.33,-163.76 476.26,-156.76"/>
</g>
<!-- Node10 -->
<g id="node10" class="node">
<title>Node10</title>
<g id="a_node10"><a xlink:href="classSccg_1_1Builtin_1_1Sources_1_1VimCustomGroupSource_1_1Item.html" target="_top" xlink:title="SourceItem for Vim/Neovim custom highlight group.">
<polygon fill="white" stroke="#666666" points="662.5,-126 533.5,-126 533.5,-96 662.5,-96 662.5,-126"/>
<text text-anchor="start" x="541.5" y="-114" font-family="Helvetica,sans-Serif" font-size="10.00">Sccg.Builtin.Sources.Vim</text>
<text text-anchor="middle" x="598" y="-103" font-family="Helvetica,sans-Serif" font-size="10.00">CustomGroupSource.Item</text>
</a>
</g>
</g>
<!-- Node6&#45;&gt;Node10 -->
<g id="edge9" class="edge">
<title>Node6&#45;&gt;Node10</title>
<path fill="none" stroke="#63b8ff" d="M475.86,-142.63C496.17,-137.33 518.11,-131.6 537.67,-126.49"/>
<polygon fill="#63b8ff" stroke="#63b8ff" points="475.04,-139.23 466.24,-145.14 476.8,-146 475.04,-139.23"/>
</g>
<!-- Node11 -->
<g id="node11" class="node">
<title>Node11</title>
<g id="a_node11"><a xlink:href="classSccg_1_1Builtin_1_1Sources_1_1VimSyntaxGroupSource_1_1Item.html" target="_top" xlink:title="SourceItem for Vim/Neovim syntax group.">
<polygon fill="white" stroke="#666666" points="661,-78 535,-78 535,-48 661,-48 661,-78"/>
<text text-anchor="start" x="543" y="-66" font-family="Helvetica,sans-Serif" font-size="10.00">Sccg.Builtin.Sources.Vim</text>
<text text-anchor="middle" x="598" y="-55" font-family="Helvetica,sans-Serif" font-size="10.00">SyntaxGroupSource.Item</text>
</a>
</g>
</g>
<!-- Node6&#45;&gt;Node11 -->
<g id="edge10" class="edge">
<title>Node6&#45;&gt;Node11</title>
<path fill="none" stroke="#63b8ff" d="M436.93,-139C467.15,-117.9 508.86,-88.95 513,-87 519.86,-83.77 527.24,-80.88 534.69,-78.33"/>
<polygon fill="#63b8ff" stroke="#63b8ff" points="435.01,-136.07 428.82,-144.66 439.02,-141.8 435.01,-136.07"/>
</g>
<!-- Node12&#45;&gt;Node4 -->
<g id="edge12" class="edge">
<title>Node12&#45;&gt;Node4</title>
<path fill="none" stroke="#63b8ff" d="M483.7,-276.97C498.92,-280.46 514.76,-284.1 529.59,-287.51"/>
<polygon fill="#63b8ff" stroke="#63b8ff" points="484.75,-273.62 474.22,-274.79 483.18,-280.44 484.75,-273.62"/>
</g>
<!-- Node14 -->
<g id="node14" class="node">
<title>Node14</title>
<g id="a_node14"><a xlink:href="interfaceSccg_1_1Builtin_1_1Formatters_1_1IVimArrayVariableSourceItem.html" target="_top" xlink:title="SourceItem for Vim color scheme.">
<polygon fill="white" stroke="#666666" points="477,-225 332,-225 332,-195 477,-195 477,-225"/>
<text text-anchor="start" x="340" y="-213" font-family="Helvetica,sans-Serif" font-size="10.00">Sccg.Builtin.Formatters.</text>
<text text-anchor="middle" x="404.5" y="-202" font-family="Helvetica,sans-Serif" font-size="10.00">IVimArrayVariableSourceItem</text>
</a>
</g>
</g>
<!-- Node13&#45;&gt;Node14 -->
<g id="edge14" class="edge">
<title>Node13&#45;&gt;Node14</title>
<path fill="none" stroke="#63b8ff" d="M307.65,-209.46C315.68,-209.51 323.8,-209.55 331.72,-209.6"/>
<polygon fill="#63b8ff" stroke="#63b8ff" points="307.89,-205.96 297.88,-209.41 307.86,-212.96 307.89,-205.96"/>
</g>
<!-- Node15 -->
<g id="node15" class="node">
<title>Node15</title>
<g id="a_node15"><a xlink:href="interfaceSccg_1_1Builtin_1_1Formatters_1_1IVimSourceItem.html" target="_top" xlink:title="SourceItem for Vim color scheme.">
<polygon fill="white" stroke="#666666" points="464.5,-102 344.5,-102 344.5,-72 464.5,-72 464.5,-102"/>
<text text-anchor="start" x="352.5" y="-90" font-family="Helvetica,sans-Serif" font-size="10.00">Sccg.Builtin.Formatters.</text>
<text text-anchor="middle" x="404.5" y="-79" font-family="Helvetica,sans-Serif" font-size="10.00">IVimSourceItem</text>
</a>
</g>
</g>
<!-- Node13&#45;&gt;Node15 -->
<g id="edge16" class="edge">
<title>Node13&#45;&gt;Node15</title>
<path fill="none" stroke="#63b8ff" d="M257.51,-187.06C293.18,-162.61 349.94,-123.71 381.14,-102.33"/>
<polygon fill="#63b8ff" stroke="#63b8ff" points="255.56,-184.15 249.29,-192.69 259.52,-189.93 255.56,-184.15"/>
</g>
<!-- Node14&#45;&gt;Node4 -->
<g id="edge15" class="edge">
<title>Node14&#45;&gt;Node4</title>
<path fill="none" stroke="#63b8ff" d="M470.03,-230.59C472.44,-231.97 474.77,-233.44 477,-235 497.7,-249.49 491.89,-265.12 513,-279 517.94,-282.25 523.33,-285.07 528.91,-287.51"/>
<polygon fill="#63b8ff" stroke="#63b8ff" points="471.64,-227.47 461.14,-226.04 468.45,-233.71 471.64,-227.47"/>
</g>
<!-- Node15&#45;&gt;Node10 -->
<g id="edge17" class="edge">
<title>Node15&#45;&gt;Node10</title>
<path fill="none" stroke="#63b8ff" d="M476.17,-95.86C494.79,-98.19 514.77,-100.69 533.01,-102.98"/>
<polygon fill="#63b8ff" stroke="#63b8ff" points="476.64,-92.39 466.28,-94.62 475.77,-99.33 476.64,-92.39"/>
</g>
<!-- Node15&#45;&gt;Node11 -->
<g id="edge19" class="edge">
<title>Node15&#45;&gt;Node11</title>
<path fill="none" stroke="#63b8ff" d="M476.19,-78.14C495.38,-75.74 516,-73.15 534.69,-70.81"/>
<polygon fill="#63b8ff" stroke="#63b8ff" points="475.77,-74.67 466.28,-79.38 476.64,-81.61 475.77,-74.67"/>
</g>
<!-- Node16 -->
<g id="node16" class="node">
<title>Node16</title>
<g id="a_node16"><a xlink:href="classSccg_1_1Builtin_1_1Sources_1_1VimEditorHighlightSource_1_1Item.html" target="_top" xlink:title="SourceItem for Vim editor highlight.">
<polygon fill="white" stroke="#666666" points="664,-30 532,-30 532,0 664,0 664,-30"/>
<text text-anchor="start" x="540" y="-18" font-family="Helvetica,sans-Serif" font-size="10.00">Sccg.Builtin.Sources.Vim</text>
<text text-anchor="middle" x="598" y="-7" font-family="Helvetica,sans-Serif" font-size="10.00">EditorHighlightSource.Item</text>
</a>
</g>
</g>
<!-- Node15&#45;&gt;Node16 -->
<g id="edge18" class="edge">
<title>Node15&#45;&gt;Node16</title>
<path fill="none" stroke="#63b8ff" d="M447.17,-66.74C466.86,-57.59 490.86,-47.06 513,-39 521.27,-35.99 530.1,-33.11 538.82,-30.46"/>
<polygon fill="#63b8ff" stroke="#63b8ff" points="445.93,-63.45 438.37,-70.87 448.91,-69.79 445.93,-63.45"/>
</g>
</g>
</svg>
