<?xml version="1.0" encoding="UTF-8" standalone="no"?>
<!DOCTYPE svg PUBLIC "-//W3C//DTD SVG 1.1//EN"
 "http://www.w3.org/Graphics/SVG/1.1/DTD/svg11.dtd">
<!-- Generated by graphviz version 7.1.0 (20230121.1956)
 -->
<!-- Title: Sccg.Builtin.Sources.Internal.INeovimSourceItemBase Pages: 1 -->
<svg width="638pt" height="230pt"
 viewBox="0.00 0.00 638.00 230.00" xmlns="http://www.w3.org/2000/svg" xmlns:xlink="http://www.w3.org/1999/xlink">
<g id="graph0" class="graph" transform="scale(1 1) rotate(0) translate(4 226)">
<title>Sccg.Builtin.Sources.Internal.INeovimSourceItemBase</title>
<!-- Node1 -->
<g id="node1" class="node">
<title>Node1</title>
<g id="a_node1"><a xlink:title="Base SourceItem for Neovim.">
<polygon fill="#999999" stroke="#666666" points="249,-102 106,-102 106,-72 249,-72 249,-102"/>
<text text-anchor="start" x="114" y="-90" font-family="Helvetica,sans-Serif" font-size="10.00">Sccg.Builtin.Sources.Internal.</text>
<text text-anchor="middle" x="177.5" y="-79" font-family="Helvetica,sans-Serif" font-size="10.00">INeovimSourceItemBase</text>
</a>
</g>
</g>
<!-- Node3 -->
<g id="node3" class="node">
<title>Node3</title>
<g id="a_node3"><a xlink:href="interfaceSccg_1_1Builtin_1_1Formatters_1_1INeovimSourceItem.html" target="_top" xlink:title="SourceItem for Neovim color scheme.">
<polygon fill="white" stroke="#666666" points="414.5,-126 294.5,-126 294.5,-96 414.5,-96 414.5,-126"/>
<text text-anchor="start" x="302.5" y="-114" font-family="Helvetica,sans-Serif" font-size="10.00">Sccg.Builtin.Formatters.</text>
<text text-anchor="middle" x="354.5" y="-103" font-family="Helvetica,sans-Serif" font-size="10.00">INeovimSourceItem</text>
</a>
</g>
</g>
<!-- Node1&#45;&gt;Node3 -->
<g id="edge2" class="edge">
<title>Node1&#45;&gt;Node3</title>
<path fill="none" stroke="#63b8ff" d="M260.68,-98.27C272,-99.82 283.44,-101.39 294.24,-102.87"/>
<polygon fill="#63b8ff" stroke="#63b8ff" points="261.31,-94.82 250.93,-96.93 260.36,-101.76 261.31,-94.82"/>
</g>
<!-- Node8 -->
<g id="node8" class="node">
<title>Node8</title>
<g id="a_node8"><a xlink:href="interfaceSccg_1_1Builtin_1_1Formatters_1_1INeovimVariableSourceItem.html" target="_top" xlink:title="SourceItem for Neovim color scheme.">
<polygon fill="white" stroke="#666666" points="424,-54 285,-54 285,-24 424,-24 424,-54"/>
<text text-anchor="start" x="293" y="-42" font-family="Helvetica,sans-Serif" font-size="10.00">Sccg.Builtin.Formatters.</text>
<text text-anchor="middle" x="354.5" y="-31" font-family="Helvetica,sans-Serif" font-size="10.00">INeovimVariableSourceItem</text>
</a>
</g>
</g>
<!-- Node1&#45;&gt;Node8 -->
<g id="edge7" class="edge">
<title>Node1&#45;&gt;Node8</title>
<path fill="none" stroke="#63b8ff" d="M245.82,-68.54C262.82,-63.87 280.89,-58.92 297.27,-54.42"/>
<polygon fill="#63b8ff" stroke="#63b8ff" points="245.01,-65.13 236.29,-71.15 246.86,-71.88 245.01,-65.13"/>
</g>
<!-- Node2 -->
<g id="node2" class="node">
<title>Node2</title>
<g id="a_node2"><a xlink:href="interfaceSccg_1_1Core_1_1ISourceItem.html" target="_top" xlink:title="Represents a source item.">
<polygon fill="white" stroke="#666666" points="70,-96.5 0,-96.5 0,-77.5 70,-77.5 70,-96.5"/>
<text text-anchor="middle" x="35" y="-84.5" font-family="Helvetica,sans-Serif" font-size="10.00">ISourceItem</text>
</a>
</g>
</g>
<!-- Node2&#45;&gt;Node1 -->
<g id="edge1" class="edge">
<title>Node2&#45;&gt;Node1</title>
<path fill="none" stroke="#63b8ff" d="M81.64,-87C89.33,-87 97.47,-87 105.62,-87"/>
<polygon fill="#63b8ff" stroke="#63b8ff" points="81.88,-83.5 71.88,-87 81.88,-90.5 81.88,-83.5"/>
</g>
<!-- Node4 -->
<g id="node4" class="node">
<title>Node4</title>
<g id="a_node4"><a xlink:href="classSccg_1_1Builtin_1_1Sources_1_1NeovimEditorHighlightSource_1_1Item.html" target="_top" xlink:title="SourceItem for Neovim&#39;s editor highlight&#45;groups.">
<polygon fill="white" stroke="#666666" points="616.5,-222 473.5,-222 473.5,-192 616.5,-192 616.5,-222"/>
<text text-anchor="start" x="481.5" y="-210" font-family="Helvetica,sans-Serif" font-size="10.00">Sccg.Builtin.Sources.Neovim</text>
<text text-anchor="middle" x="545" y="-199" font-family="Helvetica,sans-Serif" font-size="10.00">EditorHighlightSource.Item</text>
</a>
</g>
</g>
<!-- Node3&#45;&gt;Node4 -->
<g id="edge3" class="edge">
<title>Node3&#45;&gt;Node4</title>
<path fill="none" stroke="#63b8ff" d="M382.56,-133.32C402.82,-149.08 431.79,-169.69 460,-183 466.72,-186.17 473.95,-189.01 481.24,-191.52"/>
<polygon fill="#63b8ff" stroke="#63b8ff" points="384.83,-130.65 374.81,-127.18 380.48,-136.13 384.83,-130.65"/>
</g>
<!-- Node5 -->
<g id="node5" class="node">
<title>Node5</title>
<g id="a_node5"><a xlink:href="classSccg_1_1Builtin_1_1Sources_1_1NeovimLspDiagnosticHighlightSource_1_1Item.html" target="_top" xlink:title="SourceItem for Neovim LSP diagnostic highlight.">
<polygon fill="white" stroke="#666666" points="630,-174 460,-174 460,-144 630,-144 630,-174"/>
<text text-anchor="start" x="468" y="-162" font-family="Helvetica,sans-Serif" font-size="10.00">Sccg.Builtin.Sources.Neovim</text>
<text text-anchor="middle" x="545" y="-151" font-family="Helvetica,sans-Serif" font-size="10.00">LspDiagnosticHighlightSource.Item</text>
</a>
</g>
</g>
<!-- Node3&#45;&gt;Node5 -->
<g id="edge4" class="edge">
<title>Node3&#45;&gt;Node5</title>
<path fill="none" stroke="#63b8ff" d="M425.82,-128.91C444.71,-133.72 464.97,-138.88 483.29,-143.54"/>
<polygon fill="#63b8ff" stroke="#63b8ff" points="426.91,-125.57 416.35,-126.5 425.18,-132.35 426.91,-125.57"/>
</g>
<!-- Node6 -->
<g id="node6" class="node">
<title>Node6</title>
<g id="a_node6"><a xlink:href="classSccg_1_1Builtin_1_1Sources_1_1NeovimTreesitterHighlightSource_1_1Item.html" target="_top" xlink:title="SourceItem for Neovim Treesitter highlight.">
<polygon fill="white" stroke="#666666" points="619.5,-126 470.5,-126 470.5,-96 619.5,-96 619.5,-126"/>
<text text-anchor="start" x="478.5" y="-114" font-family="Helvetica,sans-Serif" font-size="10.00">Sccg.Builtin.Sources.Neovim</text>
<text text-anchor="middle" x="545" y="-103" font-family="Helvetica,sans-Serif" font-size="10.00">TreesitterHighlightSource.Item</text>
</a>
</g>
</g>
<!-- Node3&#45;&gt;Node6 -->
<g id="edge5" class="edge">
<title>Node3&#45;&gt;Node6</title>
<path fill="none" stroke="#63b8ff" d="M426.24,-111C440.64,-111 455.83,-111 470.33,-111"/>
<polygon fill="#63b8ff" stroke="#63b8ff" points="426.4,-107.5 416.4,-111 426.4,-114.5 426.4,-107.5"/>
</g>
<!-- Node7 -->
<g id="node7" class="node">
<title>Node7</title>
<g id="a_node7"><a xlink:href="classSccg_1_1Builtin_1_1Sources_1_1VimSyntaxGroupSource_1_1Item.html" target="_top" xlink:title="SourceItem for Vim/Neovim syntax group.">
<polygon fill="white" stroke="#666666" points="608,-78 482,-78 482,-48 608,-48 608,-78"/>
<text text-anchor="start" x="490" y="-66" font-family="Helvetica,sans-Serif" font-size="10.00">Sccg.Builtin.Sources.Vim</text>
<text text-anchor="middle" x="545" y="-55" font-family="Helvetica,sans-Serif" font-size="10.00">SyntaxGroupSource.Item</text>
</a>
</g>
</g>
<!-- Node3&#45;&gt;Node7 -->
<g id="edge6" class="edge">
<title>Node3&#45;&gt;Node7</title>
<path fill="none" stroke="#63b8ff" d="M425.82,-93.09C444.71,-88.28 464.97,-83.12 483.29,-78.46"/>
<polygon fill="#63b8ff" stroke="#63b8ff" points="425.18,-89.65 416.35,-95.5 426.91,-96.43 425.18,-89.65"/>
</g>
<!-- Node9 -->
<g id="node9" class="node">
<title>Node9</title>
<g id="a_node9"><a xlink:href="classSccg_1_1Builtin_1_1Sources_1_1Ansi16ColorSource_1_1Item.html" target="_top" xlink:title="SourceItem for 16 ANSI colors.">
<polygon fill="white" stroke="#666666" points="614.5,-30 475.5,-30 475.5,0 614.5,0 614.5,-30"/>
<text text-anchor="start" x="483.5" y="-18" font-family="Helvetica,sans-Serif" font-size="10.00">Sccg.Builtin.Sources.Ansi16</text>
<text text-anchor="middle" x="545" y="-7" font-family="Helvetica,sans-Serif" font-size="10.00">ColorSource.Item</text>
</a>
</g>
</g>
<!-- Node8&#45;&gt;Node9 -->
<g id="edge8" class="edge">
<title>Node8&#45;&gt;Node9</title>
<path fill="none" stroke="#63b8ff" d="M435.72,-28.79C448.8,-27.12 462.24,-25.41 475.02,-23.78"/>
<polygon fill="#63b8ff" stroke="#63b8ff" points="435.33,-25.31 425.85,-30.04 436.22,-32.25 435.33,-25.31"/>
</g>
</g>
</svg>
