<?xml version="1.0" encoding="UTF-8" standalone="no"?>
<!DOCTYPE svg PUBLIC "-//W3C//DTD SVG 1.1//EN"
 "http://www.w3.org/Graphics/SVG/1.1/DTD/svg11.dtd">
<!-- Generated by graphviz version 7.1.0 (20230121.1956)
 -->
<!-- Title: Sccg.Core.ISourceItem Pages: 1 -->
<svg width="670pt" height="230pt"
 viewBox="0.00 0.00 670.00 230.00" xmlns="http://www.w3.org/2000/svg" xmlns:xlink="http://www.w3.org/1999/xlink">
<g id="graph0" class="graph" transform="scale(1 1) rotate(0) translate(4 226)">
<title>Sccg.Core.ISourceItem</title>
<!-- Node1 -->
<g id="node1" class="node">
<title>Node1</title>
<g id="a_node1"><a xlink:title=" ">
<polygon fill="#999999" stroke="#666666" points="117,-96.5 0,-96.5 0,-77.5 117,-77.5 117,-96.5"/>
<text text-anchor="middle" x="58.5" y="-84.5" font-family="Helvetica,sans-Serif" font-size="10.00">Sccg.Core.ISourceItem</text>
</a>
</g>
</g>
<!-- Node2 -->
<g id="node2" class="node">
<title>Node2</title>
<g id="a_node2"><a xlink:href="interfaceSccg_1_1Builtin_1_1Sources_1_1Internal_1_1INeovimSourceItemBase.html" target="_top" xlink:title=" ">
<polygon fill="white" stroke="#666666" points="296,-126 153,-126 153,-96 296,-96 296,-126"/>
<text text-anchor="start" x="161" y="-114" font-family="Helvetica,sans-Serif" font-size="10.00">Sccg.Builtin.Sources.Internal.</text>
<text text-anchor="middle" x="224.5" y="-103" font-family="Helvetica,sans-Serif" font-size="10.00">INeovimSourceItemBase</text>
</a>
</g>
</g>
<!-- Node1&#45;&gt;Node2 -->
<g id="edge1" class="edge">
<title>Node1&#45;&gt;Node2</title>
<path fill="none" stroke="#63b8ff" d="M128.49,-97.1C136.49,-98.27 144.66,-99.46 152.69,-100.64"/>
<polygon fill="#63b8ff" stroke="#63b8ff" points="129.22,-93.67 118.82,-95.68 128.21,-100.59 129.22,-93.67"/>
</g>
<!-- Node9 -->
<g id="node9" class="node">
<title>Node9</title>
<g id="a_node9"><a xlink:href="interfaceSccg_1_1Builtin_1_1Sources_1_1Internal_1_1IVimSourceItemBase.html" target="_top" xlink:title=" ">
<polygon fill="white" stroke="#666666" points="296,-78 153,-78 153,-48 296,-48 296,-78"/>
<text text-anchor="start" x="161" y="-66" font-family="Helvetica,sans-Serif" font-size="10.00">Sccg.Builtin.Sources.Internal.</text>
<text text-anchor="middle" x="224.5" y="-55" font-family="Helvetica,sans-Serif" font-size="10.00">IVimSourceItemBase</text>
</a>
</g>
</g>
<!-- Node1&#45;&gt;Node9 -->
<g id="edge8" class="edge">
<title>Node1&#45;&gt;Node9</title>
<path fill="none" stroke="#63b8ff" d="M128.49,-76.9C136.49,-75.73 144.66,-74.54 152.69,-73.36"/>
<polygon fill="#63b8ff" stroke="#63b8ff" points="128.21,-73.41 118.82,-78.32 129.22,-80.33 128.21,-73.41"/>
</g>
<!-- Node3 -->
<g id="node3" class="node">
<title>Node3</title>
<g id="a_node3"><a xlink:href="interfaceSccg_1_1Builtin_1_1Formatters_1_1INeovimSourceItem.html" target="_top" xlink:title=" ">
<polygon fill="white" stroke="#666666" points="464.5,-174 344.5,-174 344.5,-144 464.5,-144 464.5,-174"/>
<text text-anchor="start" x="352.5" y="-162" font-family="Helvetica,sans-Serif" font-size="10.00">Sccg.Builtin.Formatters.</text>
<text text-anchor="middle" x="404.5" y="-151" font-family="Helvetica,sans-Serif" font-size="10.00">INeovimSourceItem</text>
</a>
</g>
</g>
<!-- Node2&#45;&gt;Node3 -->
<g id="edge2" class="edge">
<title>Node2&#45;&gt;Node3</title>
<path fill="none" stroke="#63b8ff" d="M293.48,-129.33C310.91,-134.03 329.48,-139.04 346.31,-143.58"/>
<polygon fill="#63b8ff" stroke="#63b8ff" points="294.83,-126.07 284.26,-126.85 293.01,-132.83 294.83,-126.07"/>
</g>
<!-- Node7 -->
<g id="node7" class="node">
<title>Node7</title>
<g id="a_node7"><a xlink:href="interfaceSccg_1_1Builtin_1_1Formatters_1_1INeovimVariableSourceItem.html" target="_top" xlink:title=" ">
<polygon fill="white" stroke="#666666" points="474,-78 335,-78 335,-48 474,-48 474,-78"/>
<text text-anchor="start" x="343" y="-66" font-family="Helvetica,sans-Serif" font-size="10.00">Sccg.Builtin.Formatters.</text>
<text text-anchor="middle" x="404.5" y="-55" font-family="Helvetica,sans-Serif" font-size="10.00">INeovimVariableSourceItem</text>
</a>
</g>
</g>
<!-- Node2&#45;&gt;Node7 -->
<g id="edge6" class="edge">
<title>Node2&#45;&gt;Node7</title>
<path fill="none" stroke="#63b8ff" d="M293.48,-92.67C310.91,-87.97 329.48,-82.96 346.31,-78.42"/>
<polygon fill="#63b8ff" stroke="#63b8ff" points="293.01,-89.17 284.26,-95.15 294.83,-95.93 293.01,-89.17"/>
</g>
<!-- Node4 -->
<g id="node4" class="node">
<title>Node4</title>
<g id="a_node4"><a xlink:href="classSccg_1_1Builtin_1_1Sources_1_1NeovimEditorHighlightSource_1_1Item.html" target="_top" xlink:title=" ">
<polygon fill="white" stroke="#666666" points="659,-222 516,-222 516,-192 659,-192 659,-222"/>
<text text-anchor="start" x="524" y="-210" font-family="Helvetica,sans-Serif" font-size="10.00">Sccg.Builtin.Sources.Neovim</text>
<text text-anchor="middle" x="587.5" y="-199" font-family="Helvetica,sans-Serif" font-size="10.00">EditorHighlightSource.Item</text>
</a>
</g>
</g>
<!-- Node3&#45;&gt;Node4 -->
<g id="edge3" class="edge">
<title>Node3&#45;&gt;Node4</title>
<path fill="none" stroke="#63b8ff" d="M474.88,-177.4C492.53,-182.08 511.32,-187.06 528.34,-191.58"/>
<polygon fill="#63b8ff" stroke="#63b8ff" points="475.79,-174.02 465.23,-174.84 474,-180.79 475.79,-174.02"/>
</g>
<!-- Node5 -->
<g id="node5" class="node">
<title>Node5</title>
<g id="a_node5"><a xlink:href="classSccg_1_1Builtin_1_1Sources_1_1NeovimTreesitterHighlightSource_1_1Item.html" target="_top" xlink:title=" ">
<polygon fill="white" stroke="#666666" points="662,-174 513,-174 513,-144 662,-144 662,-174"/>
<text text-anchor="start" x="521" y="-162" font-family="Helvetica,sans-Serif" font-size="10.00">Sccg.Builtin.Sources.Neovim</text>
<text text-anchor="middle" x="587.5" y="-151" font-family="Helvetica,sans-Serif" font-size="10.00">TreesitterHighlightSource.Item</text>
</a>
</g>
</g>
<!-- Node3&#45;&gt;Node5 -->
<g id="edge4" class="edge">
<title>Node3&#45;&gt;Node5</title>
<path fill="none" stroke="#63b8ff" d="M476.06,-159C488.03,-159 500.49,-159 512.54,-159"/>
<polygon fill="#63b8ff" stroke="#63b8ff" points="476.28,-155.5 466.28,-159 476.28,-162.5 476.28,-155.5"/>
</g>
<!-- Node6 -->
<g id="node6" class="node">
<title>Node6</title>
<g id="a_node6"><a xlink:href="classSccg_1_1Builtin_1_1Sources_1_1VimSyntaxGroupSource_1_1Item.html" target="_top" xlink:title=" ">
<polygon fill="white" stroke="#666666" points="650.5,-126 524.5,-126 524.5,-96 650.5,-96 650.5,-126"/>
<text text-anchor="start" x="532.5" y="-114" font-family="Helvetica,sans-Serif" font-size="10.00">Sccg.Builtin.Sources.Vim</text>
<text text-anchor="middle" x="587.5" y="-103" font-family="Helvetica,sans-Serif" font-size="10.00">SyntaxGroupSource.Item</text>
</a>
</g>
</g>
<!-- Node3&#45;&gt;Node6 -->
<g id="edge5" class="edge">
<title>Node3&#45;&gt;Node6</title>
<path fill="none" stroke="#63b8ff" d="M474.88,-140.6C492.53,-135.92 511.32,-130.94 528.34,-126.42"/>
<polygon fill="#63b8ff" stroke="#63b8ff" points="474,-137.21 465.23,-143.16 475.79,-143.98 474,-137.21"/>
</g>
<!-- Node8 -->
<g id="node8" class="node">
<title>Node8</title>
<g id="a_node8"><a xlink:href="classSccg_1_1Builtin_1_1Sources_1_1Ansi16ColorSource_1_1Item.html" target="_top" xlink:title=" ">
<polygon fill="white" stroke="#666666" points="657,-30 518,-30 518,0 657,0 657,-30"/>
<text text-anchor="start" x="526" y="-18" font-family="Helvetica,sans-Serif" font-size="10.00">Sccg.Builtin.Sources.Ansi16</text>
<text text-anchor="middle" x="587.5" y="-7" font-family="Helvetica,sans-Serif" font-size="10.00">ColorSource.Item</text>
</a>
</g>
</g>
<!-- Node7&#45;&gt;Node8 -->
<g id="edge7" class="edge">
<title>Node7&#45;&gt;Node8</title>
<path fill="none" stroke="#63b8ff" d="M474.88,-44.6C492.53,-39.92 511.32,-34.94 528.34,-30.42"/>
<polygon fill="#63b8ff" stroke="#63b8ff" points="474,-41.21 465.23,-47.16 475.79,-47.98 474,-41.21"/>
</g>
<!-- Node10 -->
<g id="node10" class="node">
<title>Node10</title>
<g id="a_node10"><a xlink:href="interfaceSccg_1_1Builtin_1_1Formatters_1_1IVimArrayVariableSourceItem.html" target="_top" xlink:title=" ">
<polygon fill="white" stroke="#666666" points="477,-30 332,-30 332,0 477,0 477,-30"/>
<text text-anchor="start" x="340" y="-18" font-family="Helvetica,sans-Serif" font-size="10.00">Sccg.Builtin.Formatters.</text>
<text text-anchor="middle" x="404.5" y="-7" font-family="Helvetica,sans-Serif" font-size="10.00">IVimArrayVariableSourceItem</text>
</a>
</g>
</g>
<!-- Node9&#45;&gt;Node10 -->
<g id="edge9" class="edge">
<title>Node9&#45;&gt;Node10</title>
<path fill="none" stroke="#63b8ff" d="M293.48,-44.67C310.91,-39.97 329.48,-34.96 346.31,-30.42"/>
<polygon fill="#63b8ff" stroke="#63b8ff" points="293.01,-41.17 284.26,-47.15 294.83,-47.93 293.01,-41.17"/>
</g>
<!-- Node11 -->
<g id="node11" class="node">
<title>Node11</title>
<g id="a_node11"><a xlink:href="interfaceSccg_1_1Builtin_1_1Formatters_1_1IVimSourceItem.html" target="_top" xlink:title=" ">
<polygon fill="white" stroke="#666666" points="464.5,-126 344.5,-126 344.5,-96 464.5,-96 464.5,-126"/>
<text text-anchor="start" x="352.5" y="-114" font-family="Helvetica,sans-Serif" font-size="10.00">Sccg.Builtin.Formatters.</text>
<text text-anchor="middle" x="404.5" y="-103" font-family="Helvetica,sans-Serif" font-size="10.00">IVimSourceItem</text>
</a>
</g>
</g>
<!-- Node9&#45;&gt;Node11 -->
<g id="edge11" class="edge">
<title>Node9&#45;&gt;Node11</title>
<path fill="none" stroke="#63b8ff" d="M293.48,-81.33C310.91,-86.03 329.48,-91.04 346.31,-95.58"/>
<polygon fill="#63b8ff" stroke="#63b8ff" points="294.83,-78.07 284.26,-78.85 293.01,-84.83 294.83,-78.07"/>
</g>
<!-- Node10&#45;&gt;Node8 -->
<g id="edge10" class="edge">
<title>Node10&#45;&gt;Node8</title>
<path fill="none" stroke="#63b8ff" d="M488.65,-15C498.38,-15 508.23,-15 517.74,-15"/>
<polygon fill="#63b8ff" stroke="#63b8ff" points="488.81,-11.5 478.81,-15 488.81,-18.5 488.81,-11.5"/>
</g>
<!-- Node11&#45;&gt;Node6 -->
<g id="edge13" class="edge">
<title>Node11&#45;&gt;Node6</title>
<path fill="none" stroke="#63b8ff" d="M476.15,-111C492.04,-111 508.79,-111 524.3,-111"/>
<polygon fill="#63b8ff" stroke="#63b8ff" points="476.28,-107.5 466.28,-111 476.28,-114.5 476.28,-107.5"/>
</g>
<!-- Node12 -->
<g id="node12" class="node">
<title>Node12</title>
<g id="a_node12"><a xlink:href="classSccg_1_1Builtin_1_1Sources_1_1VimEditorHighlightSource_1_1Item.html" target="_top" xlink:title=" ">
<polygon fill="white" stroke="#666666" points="653.5,-78 521.5,-78 521.5,-48 653.5,-48 653.5,-78"/>
<text text-anchor="start" x="529.5" y="-66" font-family="Helvetica,sans-Serif" font-size="10.00">Sccg.Builtin.Sources.Vim</text>
<text text-anchor="middle" x="587.5" y="-55" font-family="Helvetica,sans-Serif" font-size="10.00">EditorHighlightSource.Item</text>
</a>
</g>
</g>
<!-- Node11&#45;&gt;Node12 -->
<g id="edge12" class="edge">
<title>Node11&#45;&gt;Node12</title>
<path fill="none" stroke="#63b8ff" d="M474.88,-92.6C492.53,-87.92 511.32,-82.94 528.34,-78.42"/>
<polygon fill="#63b8ff" stroke="#63b8ff" points="474,-89.21 465.23,-95.16 475.79,-95.98 474,-89.21"/>
</g>
</g>
</svg>
