<?xml version="1.0" encoding="UTF-8" standalone="no"?>
<!DOCTYPE svg PUBLIC "-//W3C//DTD SVG 1.1//EN"
 "http://www.w3.org/Graphics/SVG/1.1/DTD/svg11.dtd">
<!-- Generated by graphviz version 7.1.0 (20230121.1956)
 -->
<!-- Title: Sccg.Builtin.Formatters.IVimSourceItem Pages: 1 -->
<svg width="402pt" height="86pt"
 viewBox="0.00 0.00 402.00 86.00" xmlns="http://www.w3.org/2000/svg" xmlns:xlink="http://www.w3.org/1999/xlink">
<g id="graph0" class="graph" transform="scale(1 1) rotate(0) translate(4 82)">
<title>Sccg.Builtin.Formatters.IVimSourceItem</title>
<!-- Node1 -->
<g id="node1" class="node">
<title>Node1</title>
<g id="a_node1"><a xlink:title=" ">
<polygon fill="#999999" stroke="#666666" points="226,-54 106,-54 106,-24 226,-24 226,-54"/>
<text text-anchor="start" x="114" y="-42" font-family="Helvetica,sans-Serif" font-size="10.00">Sccg.Builtin.Formatters.</text>
<text text-anchor="middle" x="166" y="-31" font-family="Helvetica,sans-Serif" font-size="10.00">IVimSourceItem</text>
</a>
</g>
</g>
<!-- Node3 -->
<g id="node3" class="node">
<title>Node3</title>
<g id="a_node3"><a xlink:href="classSccg_1_1Builtin_1_1Sources_1_1VimEditorHighlightSource_1_1Item.html" target="_top" xlink:title=" ">
<polygon fill="white" stroke="#666666" points="394,-78 262,-78 262,-48 394,-48 394,-78"/>
<text text-anchor="start" x="270" y="-66" font-family="Helvetica,sans-Serif" font-size="10.00">Sccg.Builtin.Sources.Vim</text>
<text text-anchor="middle" x="328" y="-55" font-family="Helvetica,sans-Serif" font-size="10.00">EditorHighlightSource.Item</text>
</a>
</g>
</g>
<!-- Node1&#45;&gt;Node3 -->
<g id="edge2" class="edge">
<title>Node1&#45;&gt;Node3</title>
<path fill="none" stroke="#63b8ff" d="M237.4,-49.56C245.47,-50.77 253.66,-52 261.66,-53.2"/>
<polygon fill="#63b8ff" stroke="#63b8ff" points="238.03,-46.12 227.62,-48.09 236.99,-53.04 238.03,-46.12"/>
</g>
<!-- Node4 -->
<g id="node4" class="node">
<title>Node4</title>
<g id="a_node4"><a xlink:href="classSccg_1_1Builtin_1_1Sources_1_1VimSyntaxGroupSource_1_1Item.html" target="_top" xlink:title=" ">
<polygon fill="white" stroke="#666666" points="391,-30 265,-30 265,0 391,0 391,-30"/>
<text text-anchor="start" x="273" y="-18" font-family="Helvetica,sans-Serif" font-size="10.00">Sccg.Builtin.Sources.Vim</text>
<text text-anchor="middle" x="328" y="-7" font-family="Helvetica,sans-Serif" font-size="10.00">SyntaxGroupSource.Item</text>
</a>
</g>
</g>
<!-- Node1&#45;&gt;Node4 -->
<g id="edge3" class="edge">
<title>Node1&#45;&gt;Node4</title>
<path fill="none" stroke="#63b8ff" d="M237.46,-28.43C246.51,-27.07 255.73,-25.69 264.63,-24.36"/>
<polygon fill="#63b8ff" stroke="#63b8ff" points="236.99,-24.96 227.62,-29.91 238.03,-31.88 236.99,-24.96"/>
</g>
<!-- Node2 -->
<g id="node2" class="node">
<title>Node2</title>
<g id="a_node2"><a xlink:href="interfaceSccg_1_1Core_1_1ISourceItem.html" target="_top" xlink:title=" ">
<polygon fill="white" stroke="#666666" points="70,-48.5 0,-48.5 0,-29.5 70,-29.5 70,-48.5"/>
<text text-anchor="middle" x="35" y="-36.5" font-family="Helvetica,sans-Serif" font-size="10.00">ISourceItem</text>
</a>
</g>
</g>
<!-- Node2&#45;&gt;Node1 -->
<g id="edge1" class="edge">
<title>Node2&#45;&gt;Node1</title>
<path fill="none" stroke="#63b8ff" d="M81.65,-39C89.42,-39 97.6,-39 105.66,-39"/>
<polygon fill="#63b8ff" stroke="#63b8ff" points="81.74,-35.5 71.74,-39 81.74,-42.5 81.74,-35.5"/>
</g>
</g>
</svg>
