<?xml version="1.0" encoding="UTF-8" standalone="no"?>
<!DOCTYPE svg PUBLIC "-//W3C//DTD SVG 1.1//EN"
 "http://www.w3.org/Graphics/SVG/1.1/DTD/svg11.dtd">
<!-- Generated by graphviz version 8.0.1 (20230327.1645)
 -->
<!-- Title: Sccg.Builtin.Formatters.IVimSourceItem Pages: 1 -->
<svg width="548pt" height="134pt"
 viewBox="0.00 0.00 548.00 134.00" xmlns="http://www.w3.org/2000/svg" xmlns:xlink="http://www.w3.org/1999/xlink">
<g id="graph0" class="graph" transform="scale(1 1) rotate(0) translate(4 130)">
<title>Sccg.Builtin.Formatters.IVimSourceItem</title>
<!-- Node1 -->
<g id="node1" class="node">
<title>Node1</title>
<g id="a_node1"><a xlink:title="SourceItem for Vim color scheme.">
<polygon fill="#999999" stroke="#666666" points="372,-78 252,-78 252,-48 372,-48 372,-78"/>
<text text-anchor="start" x="260" y="-66" font-family="Helvetica,sans-Serif" font-size="10.00">Sccg.Builtin.Formatters.</text>
<text text-anchor="middle" x="312" y="-55" font-family="Helvetica,sans-Serif" font-size="10.00">IVimSourceItem</text>
</a>
</g>
</g>
<!-- Node4 -->
<g id="node4" class="node">
<title>Node4</title>
<g id="a_node4"><a xlink:href="classSccg_1_1Builtin_1_1Sources_1_1VimCustomGroupSource_1_1Item.html" target="_top" xlink:title="SourceItem for Vim/Neovim custom highlight group.">
<polygon fill="white" stroke="#666666" points="538.5,-126 409.5,-126 409.5,-96 538.5,-96 538.5,-126"/>
<text text-anchor="start" x="417.5" y="-114" font-family="Helvetica,sans-Serif" font-size="10.00">Sccg.Builtin.Sources.Vim</text>
<text text-anchor="middle" x="474" y="-103" font-family="Helvetica,sans-Serif" font-size="10.00">CustomGroupSource.Item</text>
</a>
</g>
</g>
<!-- Node1&#45;&gt;Node4 -->
<g id="edge3" class="edge">
<title>Node1&#45;&gt;Node4</title>
<path fill="none" stroke="#63b8ff" d="M374.99,-81.6C390.4,-86.22 406.75,-91.13 421.59,-95.58"/>
<polygon fill="#63b8ff" stroke="#63b8ff" points="376.09,-77.97 365.51,-78.45 374.08,-84.68 376.09,-77.97"/>
</g>
<!-- Node5 -->
<g id="node5" class="node">
<title>Node5</title>
<g id="a_node5"><a xlink:href="classSccg_1_1Builtin_1_1Sources_1_1VimEditorHighlightSource_1_1Item.html" target="_top" xlink:title="SourceItem for Vim editor highlight.">
<polygon fill="white" stroke="#666666" points="540,-78 408,-78 408,-48 540,-48 540,-78"/>
<text text-anchor="start" x="416" y="-66" font-family="Helvetica,sans-Serif" font-size="10.00">Sccg.Builtin.Sources.Vim</text>
<text text-anchor="middle" x="474" y="-55" font-family="Helvetica,sans-Serif" font-size="10.00">EditorHighlightSource.Item</text>
</a>
</g>
</g>
<!-- Node1&#45;&gt;Node5 -->
<g id="edge4" class="edge">
<title>Node1&#45;&gt;Node5</title>
<path fill="none" stroke="#63b8ff" d="M382.85,-63C391.09,-63 399.48,-63 407.66,-63"/>
<polygon fill="#63b8ff" stroke="#63b8ff" points="383.12,-59.5 373.12,-63 383.12,-66.5 383.12,-59.5"/>
</g>
<!-- Node6 -->
<g id="node6" class="node">
<title>Node6</title>
<g id="a_node6"><a xlink:href="classSccg_1_1Builtin_1_1Sources_1_1VimSyntaxGroupSource_1_1Item.html" target="_top" xlink:title="SourceItem for Vim/Neovim syntax group.">
<polygon fill="white" stroke="#666666" points="537,-30 411,-30 411,0 537,0 537,-30"/>
<text text-anchor="start" x="419" y="-18" font-family="Helvetica,sans-Serif" font-size="10.00">Sccg.Builtin.Sources.Vim</text>
<text text-anchor="middle" x="474" y="-7" font-family="Helvetica,sans-Serif" font-size="10.00">SyntaxGroupSource.Item</text>
</a>
</g>
</g>
<!-- Node1&#45;&gt;Node6 -->
<g id="edge5" class="edge">
<title>Node1&#45;&gt;Node6</title>
<path fill="none" stroke="#63b8ff" d="M374.99,-44.4C390.4,-39.78 406.75,-34.87 421.59,-30.42"/>
<polygon fill="#63b8ff" stroke="#63b8ff" points="374.08,-41.32 365.51,-47.55 376.09,-48.03 374.08,-41.32"/>
</g>
<!-- Node2 -->
<g id="node2" class="node">
<title>Node2</title>
<g id="a_node2"><a xlink:href="interfaceSccg_1_1Builtin_1_1Sources_1_1Internal_1_1IVimSourceItemBase.html" target="_top" xlink:title="Base SourceItem for Vim.">
<polygon fill="white" stroke="#666666" points="216,-72.5 106,-72.5 106,-53.5 216,-53.5 216,-72.5"/>
<text text-anchor="middle" x="161" y="-60.5" font-family="Helvetica,sans-Serif" font-size="10.00">IVimSourceItemBase</text>
</a>
</g>
</g>
<!-- Node2&#45;&gt;Node1 -->
<g id="edge1" class="edge">
<title>Node2&#45;&gt;Node1</title>
<path fill="none" stroke="#63b8ff" d="M227.15,-63C235.26,-63 243.52,-63 251.54,-63"/>
<polygon fill="#63b8ff" stroke="#63b8ff" points="227.21,-59.5 217.21,-63 227.21,-66.5 227.21,-59.5"/>
</g>
<!-- Node3 -->
<g id="node3" class="node">
<title>Node3</title>
<g id="a_node3"><a xlink:href="interfaceSccg_1_1Core_1_1ISourceItem.html" target="_top" xlink:title="Represents a source item.">
<polygon fill="white" stroke="#666666" points="70,-72.5 0,-72.5 0,-53.5 70,-53.5 70,-72.5"/>
<text text-anchor="middle" x="35" y="-60.5" font-family="Helvetica,sans-Serif" font-size="10.00">ISourceItem</text>
</a>
</g>
</g>
<!-- Node3&#45;&gt;Node2 -->
<g id="edge2" class="edge">
<title>Node3&#45;&gt;Node2</title>
<path fill="none" stroke="#63b8ff" d="M80.94,-63C89.04,-63 97.56,-63 105.89,-63"/>
<polygon fill="#63b8ff" stroke="#63b8ff" points="81.21,-59.5 71.21,-63 81.21,-66.5 81.21,-59.5"/>
</g>
</g>
</svg>
