<?xml version="1.0" encoding="UTF-8" standalone="no"?>
<!DOCTYPE svg PUBLIC "-//W3C//DTD SVG 1.1//EN"
 "http://www.w3.org/Graphics/SVG/1.1/DTD/svg11.dtd">
<!-- Generated by graphviz version 7.1.0 (20230121.1956)
 -->
<!-- Title: Sccg.Core.IWriter Pages: 1 -->
<svg width="312pt" height="93pt"
 viewBox="0.00 0.00 311.50 93.00" xmlns="http://www.w3.org/2000/svg" xmlns:xlink="http://www.w3.org/1999/xlink">
<g id="graph0" class="graph" transform="scale(1 1) rotate(0) translate(4 89)">
<title>Sccg.Core.IWriter</title>
<!-- Node1 -->
<g id="node1" class="node">
<title>Node1</title>
<g id="a_node1"><a xlink:title=" ">
<polygon fill="#999999" stroke="#666666" points="195.5,-85 103.5,-85 103.5,-66 195.5,-66 195.5,-85"/>
<text text-anchor="middle" x="149.5" y="-73" font-family="Helvetica,sans-Serif" font-size="10.00">Sccg.Core.IWriter</text>
</a>
</g>
</g>
<!-- Node2 -->
<g id="node2" class="node">
<title>Node2</title>
<g id="a_node2"><a xlink:href="classSccg_1_1Builtin_1_1Writers_1_1ConsoleWriter.html" target="_top" xlink:title=" ">
<polygon fill="white" stroke="#666666" points="139,-30 0,-30 0,0 139,0 139,-30"/>
<text text-anchor="start" x="8" y="-18" font-family="Helvetica,sans-Serif" font-size="10.00">Sccg.Builtin.Writers.Console</text>
<text text-anchor="middle" x="69.5" y="-7" font-family="Helvetica,sans-Serif" font-size="10.00">Writer</text>
</a>
</g>
</g>
<!-- Node1&#45;&gt;Node2 -->
<g id="edge1" class="edge">
<title>Node1&#45;&gt;Node2</title>
<path fill="none" stroke="#63b8ff" d="M128.39,-59.06C116.27,-50.2 101.13,-39.13 89.25,-30.44"/>
<polygon fill="#63b8ff" stroke="#63b8ff" points="125.99,-61.64 136.13,-64.72 130.12,-55.99 125.99,-61.64"/>
</g>
<!-- Node3 -->
<g id="node3" class="node">
<title>Node3</title>
<g id="a_node3"><a xlink:href="classSccg_1_1Core_1_1Writer.html" target="_top" xlink:title=" ">
<polygon fill="white" stroke="#666666" points="303.5,-24.5 157.5,-24.5 157.5,-5.5 303.5,-5.5 303.5,-24.5"/>
<text text-anchor="middle" x="230.5" y="-12.5" font-family="Helvetica,sans-Serif" font-size="10.00">Sccg.Core.Writer&lt; TContent &gt;</text>
</a>
</g>
</g>
<!-- Node1&#45;&gt;Node3 -->
<g id="edge2" class="edge">
<title>Node1&#45;&gt;Node3</title>
<path fill="none" stroke="#63b8ff" d="M170.91,-59.04C185.95,-48.17 205.55,-34.02 218.08,-24.97"/>
<polygon fill="#63b8ff" stroke="#63b8ff" points="169.09,-56.04 163.03,-64.73 173.19,-61.71 169.09,-56.04"/>
</g>
</g>
</svg>
