<?xml version="1.0" encoding="UTF-8" standalone="no"?>
<!DOCTYPE svg PUBLIC "-//W3C//DTD SVG 1.1//EN"
 "http://www.w3.org/Graphics/SVG/1.1/DTD/svg11.dtd">
<!-- Generated by graphviz version 2.43.0 (0)
 -->
<!-- Title: ISourceItem Pages: 1 -->
<svg width="454pt" height="192pt"
 viewBox="0.00 0.00 454.00 192.00" xmlns="http://www.w3.org/2000/svg" xmlns:xlink="http://www.w3.org/1999/xlink">
<g id="graph0" class="graph" transform="scale(1 1) rotate(0) translate(4 188)">
<title>ISourceItem</title>
<polygon fill="white" stroke="transparent" points="-4,4 -4,-188 450,-188 450,4 -4,4"/>
<!-- Node1 -->
<g id="node1" class="node">
<title>Node1</title>
<g id="a_node1"><a xlink:title=" ">
<polygon fill="#bfbfbf" stroke="black" points="0,-82.5 0,-101.5 75,-101.5 75,-82.5 0,-82.5"/>
<text text-anchor="middle" x="37.5" y="-89.5" font-family="Helvetica,sans-Serif" font-size="10.00">ISourceItem</text>
</a>
</g>
</g>
<!-- Node2 -->
<g id="node2" class="node">
<title>Node2</title>
<g id="a_node2"><a xlink:href="interfaceIIterm2SourceItem.html" target="_top" xlink:title=" ">
<polygon fill="white" stroke="black" points="114,-142.5 114,-161.5 221,-161.5 221,-142.5 114,-142.5"/>
<text text-anchor="middle" x="167.5" y="-149.5" font-family="Helvetica,sans-Serif" font-size="10.00">IIterm2SourceItem</text>
</a>
</g>
</g>
<!-- Node1&#45;&gt;Node2 -->
<g id="edge1" class="edge">
<title>Node1&#45;&gt;Node2</title>
<path fill="none" stroke="midnightblue" d="M68.06,-105.86C91.9,-117.03 124.82,-132.46 145.89,-142.34"/>
<polygon fill="midnightblue" stroke="midnightblue" points="69.32,-102.58 58.78,-101.51 66.35,-108.92 69.32,-102.58"/>
</g>
<!-- Node4 -->
<g id="node4" class="node">
<title>Node4</title>
<g id="a_node4"><a xlink:href="interfaceINeovimSourceItem.html" target="_top" xlink:title=" ">
<polygon fill="white" stroke="black" points="111,-82.5 111,-101.5 224,-101.5 224,-82.5 111,-82.5"/>
<text text-anchor="middle" x="167.5" y="-89.5" font-family="Helvetica,sans-Serif" font-size="10.00">INeovimSourceItem</text>
</a>
</g>
</g>
<!-- Node1&#45;&gt;Node4 -->
<g id="edge3" class="edge">
<title>Node1&#45;&gt;Node4</title>
<path fill="none" stroke="midnightblue" d="M85.36,-92C93.6,-92 102.26,-92 110.72,-92"/>
<polygon fill="midnightblue" stroke="midnightblue" points="85.18,-88.5 75.18,-92 85.18,-95.5 85.18,-88.5"/>
</g>
<!-- Node8 -->
<g id="node8" class="node">
<title>Node8</title>
<g id="a_node8"><a xlink:href="interfaceIVimSourceItem.html" target="_top" xlink:title=" ">
<polygon fill="white" stroke="black" points="120,-38.5 120,-57.5 215,-57.5 215,-38.5 120,-38.5"/>
<text text-anchor="middle" x="167.5" y="-45.5" font-family="Helvetica,sans-Serif" font-size="10.00">IVimSourceItem</text>
</a>
</g>
</g>
<!-- Node1&#45;&gt;Node8 -->
<g id="edge7" class="edge">
<title>Node1&#45;&gt;Node8</title>
<path fill="none" stroke="midnightblue" d="M75.77,-79.19C95.9,-72.27 120.34,-63.87 138.78,-57.53"/>
<polygon fill="midnightblue" stroke="midnightblue" points="74.59,-75.89 66.27,-82.45 76.87,-82.51 74.59,-75.89"/>
</g>
<!-- Node3 -->
<g id="node3" class="node">
<title>Node3</title>
<g id="a_node3"><a xlink:href="classIterm2ColorsSource_1_1Item.html" target="_top" xlink:title=" ">
<polygon fill="white" stroke="black" points="284,-164.5 284,-183.5 422,-183.5 422,-164.5 284,-164.5"/>
<text text-anchor="middle" x="353" y="-171.5" font-family="Helvetica,sans-Serif" font-size="10.00">Iterm2ColorsSource.Item</text>
</a>
</g>
</g>
<!-- Node2&#45;&gt;Node3 -->
<g id="edge2" class="edge">
<title>Node2&#45;&gt;Node3</title>
<path fill="none" stroke="midnightblue" d="M231.42,-159.54C248.37,-161.58 266.77,-163.78 283.98,-165.85"/>
<polygon fill="midnightblue" stroke="midnightblue" points="231.43,-156.02 221.08,-158.3 230.6,-162.97 231.43,-156.02"/>
</g>
<!-- Node5 -->
<g id="node5" class="node">
<title>Node5</title>
<g id="a_node5"><a xlink:href="classNeovimEditorHighlightSource_1_1Item.html" target="_top" xlink:title=" ">
<polygon fill="white" stroke="black" points="260,-126.5 260,-145.5 446,-145.5 446,-126.5 260,-126.5"/>
<text text-anchor="middle" x="353" y="-133.5" font-family="Helvetica,sans-Serif" font-size="10.00">NeovimEditorHighlightSource.Item</text>
</a>
</g>
</g>
<!-- Node4&#45;&gt;Node5 -->
<g id="edge4" class="edge">
<title>Node4&#45;&gt;Node5</title>
<path fill="none" stroke="midnightblue" d="M211.15,-104.25C226.49,-108.5 243.97,-113.16 260,-117 273.8,-120.31 288.84,-123.56 302.69,-126.41"/>
<polygon fill="midnightblue" stroke="midnightblue" points="211.98,-100.85 201.41,-101.53 210.09,-107.59 211.98,-100.85"/>
</g>
<!-- Node6 -->
<g id="node6" class="node">
<title>Node6</title>
<g id="a_node6"><a xlink:href="classNeovimTreesitterHighlightSource_1_1Item.html" target="_top" xlink:title=" ">
<polygon fill="white" stroke="black" points="280.5,-77 280.5,-107 425.5,-107 425.5,-77 280.5,-77"/>
<text text-anchor="start" x="288.5" y="-95" font-family="Helvetica,sans-Serif" font-size="10.00">NeovimTreesitterHighlight</text>
<text text-anchor="middle" x="353" y="-84" font-family="Helvetica,sans-Serif" font-size="10.00">Source.Item</text>
</a>
</g>
</g>
<!-- Node4&#45;&gt;Node6 -->
<g id="edge5" class="edge">
<title>Node4&#45;&gt;Node6</title>
<path fill="none" stroke="midnightblue" d="M234.23,-92C249.18,-92 265.15,-92 280.34,-92"/>
<polygon fill="midnightblue" stroke="midnightblue" points="234.05,-88.5 224.05,-92 234.05,-95.5 234.05,-88.5"/>
</g>
<!-- Node7 -->
<g id="node7" class="node">
<title>Node7</title>
<g id="a_node7"><a xlink:href="classVimSyntaxGroupSource_1_1Item.html" target="_top" xlink:title=" ">
<polygon fill="white" stroke="black" points="274,-38.5 274,-57.5 432,-57.5 432,-38.5 274,-38.5"/>
<text text-anchor="middle" x="353" y="-45.5" font-family="Helvetica,sans-Serif" font-size="10.00">VimSyntaxGroupSource.Item</text>
</a>
</g>
</g>
<!-- Node4&#45;&gt;Node7 -->
<g id="edge6" class="edge">
<title>Node4&#45;&gt;Node7</title>
<path fill="none" stroke="midnightblue" d="M213.52,-79.79C228.29,-75.89 244.82,-71.64 260,-68 274.94,-64.42 291.31,-60.77 306.05,-57.59"/>
<polygon fill="midnightblue" stroke="midnightblue" points="212.37,-76.47 203.61,-82.42 214.17,-83.23 212.37,-76.47"/>
</g>
<!-- Node8&#45;&gt;Node7 -->
<g id="edge9" class="edge">
<title>Node8&#45;&gt;Node7</title>
<path fill="none" stroke="midnightblue" d="M225.61,-48C240.91,-48 257.71,-48 273.94,-48"/>
<polygon fill="midnightblue" stroke="midnightblue" points="225.28,-44.5 215.28,-48 225.28,-51.5 225.28,-44.5"/>
</g>
<!-- Node9 -->
<g id="node9" class="node">
<title>Node9</title>
<g id="a_node9"><a xlink:href="classVimEditorHighlightSource_1_1Item.html" target="_top" xlink:title=" ">
<polygon fill="white" stroke="black" points="269.5,-0.5 269.5,-19.5 436.5,-19.5 436.5,-0.5 269.5,-0.5"/>
<text text-anchor="middle" x="353" y="-7.5" font-family="Helvetica,sans-Serif" font-size="10.00">VimEditorHighlightSource.Item</text>
</a>
</g>
</g>
<!-- Node8&#45;&gt;Node9 -->
<g id="edge8" class="edge">
<title>Node8&#45;&gt;Node9</title>
<path fill="none" stroke="midnightblue" d="M224.66,-36.33C236.34,-33.9 248.57,-31.37 260,-29 274.85,-25.92 291.06,-22.58 305.67,-19.56"/>
<polygon fill="midnightblue" stroke="midnightblue" points="223.66,-32.96 214.58,-38.42 225.08,-39.82 223.66,-32.96"/>
</g>
</g>
</svg>
