<?xml version="1.0" encoding="UTF-8" standalone="no"?>
<!DOCTYPE svg PUBLIC "-//W3C//DTD SVG 1.1//EN"
 "http://www.w3.org/Graphics/SVG/1.1/DTD/svg11.dtd">
<!-- Generated by graphviz version 7.1.0 (20230121.1956)
 -->
<!-- Title: Sccg.Core.ISourceItem Pages: 1 -->
<svg width="466pt" height="182pt"
 viewBox="0.00 0.00 466.00 182.00" xmlns="http://www.w3.org/2000/svg" xmlns:xlink="http://www.w3.org/1999/xlink">
<g id="graph0" class="graph" transform="scale(1 1) rotate(0) translate(4 178)">
<title>Sccg.Core.ISourceItem</title>
<!-- Node1 -->
<g id="node1" class="node">
<title>Node1</title>
<g id="a_node1"><a xlink:title=" ">
<polygon fill="#999999" stroke="#666666" points="117,-96.5 0,-96.5 0,-77.5 117,-77.5 117,-96.5"/>
<text text-anchor="middle" x="58.5" y="-84.5" font-family="Helvetica,sans-Serif" font-size="10.00">Sccg.Core.ISourceItem</text>
</a>
</g>
</g>
<!-- Node2 -->
<g id="node2" class="node">
<title>Node2</title>
<g id="a_node2"><a xlink:href="interfaceSccg_1_1Builtin_1_1Formatters_1_1INeovimSourceItem.html" target="_top" xlink:title=" ">
<polygon fill="white" stroke="#666666" points="273,-126 153,-126 153,-96 273,-96 273,-126"/>
<text text-anchor="start" x="161" y="-114" font-family="Helvetica,sans-Serif" font-size="10.00">Sccg.Builtin.Formatters.</text>
<text text-anchor="middle" x="213" y="-103" font-family="Helvetica,sans-Serif" font-size="10.00">INeovimSourceItem</text>
</a>
</g>
</g>
<!-- Node1&#45;&gt;Node2 -->
<g id="edge1" class="edge">
<title>Node1&#45;&gt;Node2</title>
<path fill="none" stroke="#63b8ff" d="M128.49,-97.86C136.59,-99.13 144.79,-100.42 152.74,-101.67"/>
<polygon fill="#63b8ff" stroke="#63b8ff" points="129.07,-94.41 118.65,-96.31 127.98,-101.32 129.07,-94.41"/>
</g>
<!-- Node6 -->
<g id="node6" class="node">
<title>Node6</title>
<g id="a_node6"><a xlink:href="interfaceSccg_1_1Builtin_1_1Formatters_1_1IVimSourceItem.html" target="_top" xlink:title=" ">
<polygon fill="white" stroke="#666666" points="273,-78 153,-78 153,-48 273,-48 273,-78"/>
<text text-anchor="start" x="161" y="-66" font-family="Helvetica,sans-Serif" font-size="10.00">Sccg.Builtin.Formatters.</text>
<text text-anchor="middle" x="213" y="-55" font-family="Helvetica,sans-Serif" font-size="10.00">IVimSourceItem</text>
</a>
</g>
</g>
<!-- Node1&#45;&gt;Node6 -->
<g id="edge5" class="edge">
<title>Node1&#45;&gt;Node6</title>
<path fill="none" stroke="#63b8ff" d="M128.49,-76.14C136.59,-74.87 144.79,-73.58 152.74,-72.33"/>
<polygon fill="#63b8ff" stroke="#63b8ff" points="127.98,-72.68 118.65,-77.69 129.07,-79.59 127.98,-72.68"/>
</g>
<!-- Node3 -->
<g id="node3" class="node">
<title>Node3</title>
<g id="a_node3"><a xlink:href="classSccg_1_1Builtin_1_1Sources_1_1NeovimEditorHighlightSource_1_1Item.html" target="_top" xlink:title=" ">
<polygon fill="white" stroke="#666666" points="455,-174 312,-174 312,-144 455,-144 455,-174"/>
<text text-anchor="start" x="320" y="-162" font-family="Helvetica,sans-Serif" font-size="10.00">Sccg.Builtin.Sources.Neovim</text>
<text text-anchor="middle" x="383.5" y="-151" font-family="Helvetica,sans-Serif" font-size="10.00">EditorHighlightSource.Item</text>
</a>
</g>
</g>
<!-- Node2&#45;&gt;Node3 -->
<g id="edge2" class="edge">
<title>Node2&#45;&gt;Node3</title>
<path fill="none" stroke="#63b8ff" d="M279.29,-129.6C295.51,-134.22 312.73,-139.13 328.36,-143.58"/>
<polygon fill="#63b8ff" stroke="#63b8ff" points="280.27,-126.24 269.7,-126.87 278.36,-132.97 280.27,-126.24"/>
</g>
<!-- Node4 -->
<g id="node4" class="node">
<title>Node4</title>
<g id="a_node4"><a xlink:href="classSccg_1_1Builtin_1_1Sources_1_1NeovimTreesitterHighlightSource_1_1Item.html" target="_top" xlink:title=" ">
<polygon fill="white" stroke="#666666" points="458,-126 309,-126 309,-96 458,-96 458,-126"/>
<text text-anchor="start" x="317" y="-114" font-family="Helvetica,sans-Serif" font-size="10.00">Sccg.Builtin.Sources.Neovim</text>
<text text-anchor="middle" x="383.5" y="-103" font-family="Helvetica,sans-Serif" font-size="10.00">TreesitterHighlightSource.Item</text>
</a>
</g>
</g>
<!-- Node2&#45;&gt;Node4 -->
<g id="edge3" class="edge">
<title>Node2&#45;&gt;Node4</title>
<path fill="none" stroke="#63b8ff" d="M284.78,-111C292.64,-111 300.67,-111 308.57,-111"/>
<polygon fill="#63b8ff" stroke="#63b8ff" points="284.92,-107.5 274.92,-111 284.92,-114.5 284.92,-107.5"/>
</g>
<!-- Node5 -->
<g id="node5" class="node">
<title>Node5</title>
<g id="a_node5"><a xlink:href="classSccg_1_1Builtin_1_1Sources_1_1VimSyntaxGroupSource_1_1Item.html" target="_top" xlink:title=" ">
<polygon fill="white" stroke="#666666" points="446.5,-78 320.5,-78 320.5,-48 446.5,-48 446.5,-78"/>
<text text-anchor="start" x="328.5" y="-66" font-family="Helvetica,sans-Serif" font-size="10.00">Sccg.Builtin.Sources.Vim</text>
<text text-anchor="middle" x="383.5" y="-55" font-family="Helvetica,sans-Serif" font-size="10.00">SyntaxGroupSource.Item</text>
</a>
</g>
</g>
<!-- Node2&#45;&gt;Node5 -->
<g id="edge4" class="edge">
<title>Node2&#45;&gt;Node5</title>
<path fill="none" stroke="#63b8ff" d="M279.29,-92.4C295.51,-87.78 312.73,-82.87 328.36,-78.42"/>
<polygon fill="#63b8ff" stroke="#63b8ff" points="278.36,-89.03 269.7,-95.13 280.27,-95.76 278.36,-89.03"/>
</g>
<!-- Node6&#45;&gt;Node5 -->
<g id="edge7" class="edge">
<title>Node6&#45;&gt;Node5</title>
<path fill="none" stroke="#63b8ff" d="M284.6,-63C296.42,-63 308.61,-63 320.21,-63"/>
<polygon fill="#63b8ff" stroke="#63b8ff" points="284.92,-59.5 274.92,-63 284.92,-66.5 284.92,-59.5"/>
</g>
<!-- Node7 -->
<g id="node7" class="node">
<title>Node7</title>
<g id="a_node7"><a xlink:href="classSccg_1_1Builtin_1_1Sources_1_1VimEditorHighlightSource_1_1Item.html" target="_top" xlink:title=" ">
<polygon fill="white" stroke="#666666" points="449.5,-30 317.5,-30 317.5,0 449.5,0 449.5,-30"/>
<text text-anchor="start" x="325.5" y="-18" font-family="Helvetica,sans-Serif" font-size="10.00">Sccg.Builtin.Sources.Vim</text>
<text text-anchor="middle" x="383.5" y="-7" font-family="Helvetica,sans-Serif" font-size="10.00">EditorHighlightSource.Item</text>
</a>
</g>
</g>
<!-- Node6&#45;&gt;Node7 -->
<g id="edge6" class="edge">
<title>Node6&#45;&gt;Node7</title>
<path fill="none" stroke="#63b8ff" d="M279.29,-44.4C295.51,-39.78 312.73,-34.87 328.36,-30.42"/>
<polygon fill="#63b8ff" stroke="#63b8ff" points="278.36,-41.03 269.7,-47.13 280.27,-47.76 278.36,-41.03"/>
</g>
</g>
</svg>
