<?xml version="1.0" encoding="UTF-8" standalone="no"?>
<!DOCTYPE svg PUBLIC "-//W3C//DTD SVG 1.1//EN"
 "http://www.w3.org/Graphics/SVG/1.1/DTD/svg11.dtd">
<!-- Generated by graphviz version 7.1.0 (20230121.1956)
 -->
<!-- Title: Sccg.Builtin.Formatters.INeovimSourceItem Pages: 1 -->
<svg width="581pt" height="134pt"
 viewBox="0.00 0.00 581.00 134.00" xmlns="http://www.w3.org/2000/svg" xmlns:xlink="http://www.w3.org/1999/xlink">
<g id="graph0" class="graph" transform="scale(1 1) rotate(0) translate(4 130)">
<title>Sccg.Builtin.Formatters.INeovimSourceItem</title>
<!-- Node1 -->
<g id="node1" class="node">
<title>Node1</title>
<g id="a_node1"><a xlink:title=" ">
<polygon fill="#999999" stroke="#666666" points="388,-78 268,-78 268,-48 388,-48 388,-78"/>
<text text-anchor="start" x="276" y="-66" font-family="Helvetica,sans-Serif" font-size="10.00">Sccg.Builtin.Formatters.</text>
<text text-anchor="middle" x="328" y="-55" font-family="Helvetica,sans-Serif" font-size="10.00">INeovimSourceItem</text>
</a>
</g>
</g>
<!-- Node4 -->
<g id="node4" class="node">
<title>Node4</title>
<g id="a_node4"><a xlink:href="classSccg_1_1Builtin_1_1Sources_1_1NeovimEditorHighlightSource_1_1Item.html" target="_top" xlink:title=" ">
<polygon fill="white" stroke="#666666" points="570,-126 427,-126 427,-96 570,-96 570,-126"/>
<text text-anchor="start" x="435" y="-114" font-family="Helvetica,sans-Serif" font-size="10.00">Sccg.Builtin.Sources.Neovim</text>
<text text-anchor="middle" x="498.5" y="-103" font-family="Helvetica,sans-Serif" font-size="10.00">EditorHighlightSource.Item</text>
</a>
</g>
</g>
<!-- Node1&#45;&gt;Node4 -->
<g id="edge3" class="edge">
<title>Node1&#45;&gt;Node4</title>
<path fill="none" stroke="#63b8ff" d="M394.29,-81.6C410.51,-86.22 427.73,-91.13 443.36,-95.58"/>
<polygon fill="#63b8ff" stroke="#63b8ff" points="395.27,-78.24 384.7,-78.87 393.36,-84.97 395.27,-78.24"/>
</g>
<!-- Node5 -->
<g id="node5" class="node">
<title>Node5</title>
<g id="a_node5"><a xlink:href="classSccg_1_1Builtin_1_1Sources_1_1NeovimTreesitterHighlightSource_1_1Item.html" target="_top" xlink:title=" ">
<polygon fill="white" stroke="#666666" points="573,-78 424,-78 424,-48 573,-48 573,-78"/>
<text text-anchor="start" x="432" y="-66" font-family="Helvetica,sans-Serif" font-size="10.00">Sccg.Builtin.Sources.Neovim</text>
<text text-anchor="middle" x="498.5" y="-55" font-family="Helvetica,sans-Serif" font-size="10.00">TreesitterHighlightSource.Item</text>
</a>
</g>
</g>
<!-- Node1&#45;&gt;Node5 -->
<g id="edge4" class="edge">
<title>Node1&#45;&gt;Node5</title>
<path fill="none" stroke="#63b8ff" d="M399.78,-63C407.64,-63 415.67,-63 423.57,-63"/>
<polygon fill="#63b8ff" stroke="#63b8ff" points="399.92,-59.5 389.92,-63 399.92,-66.5 399.92,-59.5"/>
</g>
<!-- Node6 -->
<g id="node6" class="node">
<title>Node6</title>
<g id="a_node6"><a xlink:href="classSccg_1_1Builtin_1_1Sources_1_1VimSyntaxGroupSource_1_1Item.html" target="_top" xlink:title=" ">
<polygon fill="white" stroke="#666666" points="561.5,-30 435.5,-30 435.5,0 561.5,0 561.5,-30"/>
<text text-anchor="start" x="443.5" y="-18" font-family="Helvetica,sans-Serif" font-size="10.00">Sccg.Builtin.Sources.Vim</text>
<text text-anchor="middle" x="498.5" y="-7" font-family="Helvetica,sans-Serif" font-size="10.00">SyntaxGroupSource.Item</text>
</a>
</g>
</g>
<!-- Node1&#45;&gt;Node6 -->
<g id="edge5" class="edge">
<title>Node1&#45;&gt;Node6</title>
<path fill="none" stroke="#63b8ff" d="M394.29,-44.4C410.51,-39.78 427.73,-34.87 443.36,-30.42"/>
<polygon fill="#63b8ff" stroke="#63b8ff" points="393.36,-41.03 384.7,-47.13 395.27,-47.76 393.36,-41.03"/>
</g>
<!-- Node2 -->
<g id="node2" class="node">
<title>Node2</title>
<g id="a_node2"><a xlink:href="interfaceSccg_1_1Builtin_1_1Sources_1_1Internal_1_1INeovimSourceItemBase.html" target="_top" xlink:title=" ">
<polygon fill="white" stroke="#666666" points="232,-72.5 106,-72.5 106,-53.5 232,-53.5 232,-72.5"/>
<text text-anchor="middle" x="169" y="-60.5" font-family="Helvetica,sans-Serif" font-size="10.00">INeovimSourceItemBase</text>
</a>
</g>
</g>
<!-- Node2&#45;&gt;Node1 -->
<g id="edge1" class="edge">
<title>Node2&#45;&gt;Node1</title>
<path fill="none" stroke="#63b8ff" d="M243.46,-63C251.58,-63 259.78,-63 267.7,-63"/>
<polygon fill="#63b8ff" stroke="#63b8ff" points="243.56,-59.5 233.56,-63 243.56,-66.5 243.56,-59.5"/>
</g>
<!-- Node3 -->
<g id="node3" class="node">
<title>Node3</title>
<g id="a_node3"><a xlink:href="interfaceSccg_1_1Core_1_1ISourceItem.html" target="_top" xlink:title=" ">
<polygon fill="white" stroke="#666666" points="70,-72.5 0,-72.5 0,-53.5 70,-53.5 70,-72.5"/>
<text text-anchor="middle" x="35" y="-60.5" font-family="Helvetica,sans-Serif" font-size="10.00">ISourceItem</text>
</a>
</g>
</g>
<!-- Node3&#45;&gt;Node2 -->
<g id="edge2" class="edge">
<title>Node3&#45;&gt;Node2</title>
<path fill="none" stroke="#63b8ff" d="M81.71,-63C89.46,-63 97.62,-63 105.7,-63"/>
<polygon fill="#63b8ff" stroke="#63b8ff" points="81.85,-59.5 71.85,-63 81.85,-66.5 81.85,-59.5"/>
</g>
</g>
</svg>
