<?xml version="1.0" encoding="UTF-8" standalone="no"?>
<!DOCTYPE svg PUBLIC "-//W3C//DTD SVG 1.1//EN"
 "http://www.w3.org/Graphics/SVG/1.1/DTD/svg11.dtd">
<!-- Generated by graphviz version 7.0.5 (20221223.1930)
 -->
<!-- Title: IVimSourceItem Pages: 1 -->
<svg width="318pt" height="137pt"
 viewBox="0.00 0.00 317.50 137.00" xmlns="http://www.w3.org/2000/svg" xmlns:xlink="http://www.w3.org/1999/xlink">
<g id="graph0" class="graph" transform="scale(1 1) rotate(0) translate(4 133)">
<title>IVimSourceItem</title>
<!-- Node1 -->
<g id="node1" class="node">
<title>Node1</title>
<g id="a_node1"><a xlink:title=" ">
<polygon fill="#999999" stroke="#666666" points="200,-74 113,-74 113,-55 200,-55 200,-74"/>
<text text-anchor="middle" x="156.5" y="-62" font-family="Helvetica,sans-Serif" font-size="10.00">IVimSourceItem</text>
</a>
</g>
</g>
<!-- Node3 -->
<g id="node3" class="node">
<title>Node3</title>
<g id="a_node3"><a xlink:href="classVimEditorHighlightSource_1_1Item.html" target="_top" xlink:title=" ">
<polygon fill="white" stroke="#666666" points="149,-19 0,-19 0,0 149,0 149,-19"/>
<text text-anchor="middle" x="74.5" y="-7" font-family="Helvetica,sans-Serif" font-size="10.00">VimEditorHighlightSource.Item</text>
</a>
</g>
</g>
<!-- Node1&#45;&gt;Node3 -->
<g id="edge2" class="edge">
<title>Node1&#45;&gt;Node3</title>
<path fill="none" stroke="#63b8ff" d="M133.23,-48.46C118.69,-39.06 100.46,-27.28 88.2,-19.36"/>
<polygon fill="#63b8ff" stroke="#63b8ff" points="131.02,-51.2 141.32,-53.69 134.82,-45.32 131.02,-51.2"/>
</g>
<!-- Node4 -->
<g id="node4" class="node">
<title>Node4</title>
<g id="a_node4"><a xlink:href="classVimSyntaxGroupSource_1_1Item.html" target="_top" xlink:title=" ">
<polygon fill="white" stroke="#666666" points="309.5,-19 167.5,-19 167.5,0 309.5,0 309.5,-19"/>
<text text-anchor="middle" x="238.5" y="-7" font-family="Helvetica,sans-Serif" font-size="10.00">VimSyntaxGroupSource.Item</text>
</a>
</g>
</g>
<!-- Node1&#45;&gt;Node4 -->
<g id="edge3" class="edge">
<title>Node1&#45;&gt;Node4</title>
<path fill="none" stroke="#63b8ff" d="M179.77,-48.46C194.31,-39.06 212.54,-27.28 224.8,-19.36"/>
<polygon fill="#63b8ff" stroke="#63b8ff" points="178.18,-45.32 171.68,-53.69 181.98,-51.2 178.18,-45.32"/>
</g>
<!-- Node2 -->
<g id="node2" class="node">
<title>Node2</title>
<g id="a_node2"><a xlink:href="interfaceISourceItem.html" target="_top" xlink:title=" ">
<polygon fill="white" stroke="#666666" points="191.5,-129 121.5,-129 121.5,-110 191.5,-110 191.5,-129"/>
<text text-anchor="middle" x="156.5" y="-117" font-family="Helvetica,sans-Serif" font-size="10.00">ISourceItem</text>
</a>
</g>
</g>
<!-- Node2&#45;&gt;Node1 -->
<g id="edge1" class="edge">
<title>Node2&#45;&gt;Node1</title>
<path fill="none" stroke="#63b8ff" d="M156.5,-98.35C156.5,-90.1 156.5,-80.97 156.5,-74.44"/>
<polygon fill="#63b8ff" stroke="#63b8ff" points="153,-98.23 156.5,-108.23 160,-98.23 153,-98.23"/>
</g>
</g>
</svg>
