<?xml version="1.0" encoding="UTF-8" standalone="no"?>
<!DOCTYPE svg PUBLIC "-//W3C//DTD SVG 1.1//EN"
 "http://www.w3.org/Graphics/SVG/1.1/DTD/svg11.dtd">
<!-- Generated by graphviz version 7.1.0 (20230121.1956)
 -->
<!-- Title: Sccg.Builtin.Sources.Internal.INeovimSourceItemBase Pages: 1 -->
<svg width="638pt" height="278pt"
 viewBox="0.00 0.00 638.00 278.00" xmlns="http://www.w3.org/2000/svg" xmlns:xlink="http://www.w3.org/1999/xlink">
<g id="graph0" class="graph" transform="scale(1 1) rotate(0) translate(4 274)">
<title>Sccg.Builtin.Sources.Internal.INeovimSourceItemBase</title>
<!-- Node1 -->
<g id="node1" class="node">
<title>Node1</title>
<g id="a_node1"><a xlink:title="Base SourceItem for Neovim.">
<polygon fill="#999999" stroke="#666666" points="249,-102 106,-102 106,-72 249,-72 249,-102"/>
<text text-anchor="start" x="114" y="-90" font-family="Helvetica,sans-Serif" font-size="10.00">Sccg.Builtin.Sources.Internal.</text>
<text text-anchor="middle" x="177.5" y="-79" font-family="Helvetica,sans-Serif" font-size="10.00">INeovimSourceItemBase</text>
</a>
</g>
</g>
<!-- Node3 -->
<g id="node3" class="node">
<title>Node3</title>
<g id="a_node3"><a xlink:href="interfaceSccg_1_1Builtin_1_1Formatters_1_1INeovimSourceItem.html" target="_top" xlink:title="SourceItem for Neovim color scheme.">
<polygon fill="white" stroke="#666666" points="414.5,-150 294.5,-150 294.5,-120 414.5,-120 414.5,-150"/>
<text text-anchor="start" x="302.5" y="-138" font-family="Helvetica,sans-Serif" font-size="10.00">Sccg.Builtin.Formatters.</text>
<text text-anchor="middle" x="354.5" y="-127" font-family="Helvetica,sans-Serif" font-size="10.00">INeovimSourceItem</text>
</a>
</g>
</g>
<!-- Node1&#45;&gt;Node3 -->
<g id="edge2" class="edge">
<title>Node1&#45;&gt;Node3</title>
<path fill="none" stroke="#63b8ff" d="M245.82,-105.46C262.82,-110.13 280.89,-115.08 297.27,-119.58"/>
<polygon fill="#63b8ff" stroke="#63b8ff" points="246.86,-102.12 236.29,-102.85 245.01,-108.87 246.86,-102.12"/>
</g>
<!-- Node9 -->
<g id="node9" class="node">
<title>Node9</title>
<g id="a_node9"><a xlink:href="interfaceSccg_1_1Builtin_1_1Formatters_1_1INeovimVariableSourceItem.html" target="_top" xlink:title="SourceItem for Neovim color scheme.">
<polygon fill="white" stroke="#666666" points="424,-54 285,-54 285,-24 424,-24 424,-54"/>
<text text-anchor="start" x="293" y="-42" font-family="Helvetica,sans-Serif" font-size="10.00">Sccg.Builtin.Formatters.</text>
<text text-anchor="middle" x="354.5" y="-31" font-family="Helvetica,sans-Serif" font-size="10.00">INeovimVariableSourceItem</text>
</a>
</g>
</g>
<!-- Node1&#45;&gt;Node9 -->
<g id="edge8" class="edge">
<title>Node1&#45;&gt;Node9</title>
<path fill="none" stroke="#63b8ff" d="M245.82,-68.54C262.82,-63.87 280.89,-58.92 297.27,-54.42"/>
<polygon fill="#63b8ff" stroke="#63b8ff" points="245.01,-65.13 236.29,-71.15 246.86,-71.88 245.01,-65.13"/>
</g>
<!-- Node2 -->
<g id="node2" class="node">
<title>Node2</title>
<g id="a_node2"><a xlink:href="interfaceSccg_1_1Core_1_1ISourceItem.html" target="_top" xlink:title="Represents a source item.">
<polygon fill="white" stroke="#666666" points="70,-96.5 0,-96.5 0,-77.5 70,-77.5 70,-96.5"/>
<text text-anchor="middle" x="35" y="-84.5" font-family="Helvetica,sans-Serif" font-size="10.00">ISourceItem</text>
</a>
</g>
</g>
<!-- Node2&#45;&gt;Node1 -->
<g id="edge1" class="edge">
<title>Node2&#45;&gt;Node1</title>
<path fill="none" stroke="#63b8ff" d="M81.64,-87C89.33,-87 97.47,-87 105.62,-87"/>
<polygon fill="#63b8ff" stroke="#63b8ff" points="81.88,-83.5 71.88,-87 81.88,-90.5 81.88,-83.5"/>
</g>
<!-- Node4 -->
<g id="node4" class="node">
<title>Node4</title>
<g id="a_node4"><a xlink:href="classSccg_1_1Builtin_1_1Sources_1_1NeovimEditorHighlightSource_1_1Item.html" target="_top" xlink:title="SourceItem for Neovim&#39;s editor highlight&#45;groups.">
<polygon fill="white" stroke="#666666" points="616.5,-270 473.5,-270 473.5,-240 616.5,-240 616.5,-270"/>
<text text-anchor="start" x="481.5" y="-258" font-family="Helvetica,sans-Serif" font-size="10.00">Sccg.Builtin.Sources.Neovim</text>
<text text-anchor="middle" x="545" y="-247" font-family="Helvetica,sans-Serif" font-size="10.00">EditorHighlightSource.Item</text>
</a>
</g>
</g>
<!-- Node3&#45;&gt;Node4 -->
<g id="edge3" class="edge">
<title>Node3&#45;&gt;Node4</title>
<path fill="none" stroke="#63b8ff" d="M375.36,-158.72C394.82,-180.5 426.38,-212.16 460,-231 465.82,-234.26 472.12,-237.11 478.57,-239.59"/>
<polygon fill="#63b8ff" stroke="#63b8ff" points="378.25,-156.7 369.03,-151.48 372.98,-161.31 378.25,-156.7"/>
</g>
<!-- Node5 -->
<g id="node5" class="node">
<title>Node5</title>
<g id="a_node5"><a xlink:href="classSccg_1_1Builtin_1_1Sources_1_1NeovimLspDiagnosticHighlightSource_1_1Item.html" target="_top" xlink:title="SourceItem for Neovim LSP diagnostic highlight.">
<polygon fill="white" stroke="#666666" points="630,-222 460,-222 460,-192 630,-192 630,-222"/>
<text text-anchor="start" x="468" y="-210" font-family="Helvetica,sans-Serif" font-size="10.00">Sccg.Builtin.Sources.Neovim</text>
<text text-anchor="middle" x="545" y="-199" font-family="Helvetica,sans-Serif" font-size="10.00">LspDiagnosticHighlightSource.Item</text>
</a>
</g>
</g>
<!-- Node3&#45;&gt;Node5 -->
<g id="edge4" class="edge">
<title>Node3&#45;&gt;Node5</title>
<path fill="none" stroke="#63b8ff" d="M395.79,-155.25C414.95,-164.43 438.36,-174.99 460,-183 468.25,-186.05 477.07,-188.95 485.79,-191.62"/>
<polygon fill="#63b8ff" stroke="#63b8ff" points="397.51,-152.19 386.98,-150.98 394.45,-158.49 397.51,-152.19"/>
</g>
<!-- Node6 -->
<g id="node6" class="node">
<title>Node6</title>
<g id="a_node6"><a xlink:href="classSccg_1_1Builtin_1_1Sources_1_1NeovimTreesitterHighlightSource_1_1Item.html" target="_top" xlink:title="SourceItem for Neovim Treesitter highlight.">
<polygon fill="white" stroke="#666666" points="619.5,-174 470.5,-174 470.5,-144 619.5,-144 619.5,-174"/>
<text text-anchor="start" x="478.5" y="-162" font-family="Helvetica,sans-Serif" font-size="10.00">Sccg.Builtin.Sources.Neovim</text>
<text text-anchor="middle" x="545" y="-151" font-family="Helvetica,sans-Serif" font-size="10.00">TreesitterHighlightSource.Item</text>
</a>
</g>
</g>
<!-- Node3&#45;&gt;Node6 -->
<g id="edge5" class="edge">
<title>Node3&#45;&gt;Node6</title>
<path fill="none" stroke="#63b8ff" d="M426.24,-144.01C440.64,-145.84 455.83,-147.77 470.33,-149.62"/>
<polygon fill="#63b8ff" stroke="#63b8ff" points="426.75,-140.54 416.39,-142.75 425.86,-147.49 426.75,-140.54"/>
</g>
<!-- Node7 -->
<g id="node7" class="node">
<title>Node7</title>
<g id="a_node7"><a xlink:href="classSccg_1_1Builtin_1_1Sources_1_1VimCustomGroupSource_1_1Item.html" target="_top" xlink:title="SourceItem for Vim/Neovim custom highlight group.">
<polygon fill="white" stroke="#666666" points="609.5,-126 480.5,-126 480.5,-96 609.5,-96 609.5,-126"/>
<text text-anchor="start" x="488.5" y="-114" font-family="Helvetica,sans-Serif" font-size="10.00">Sccg.Builtin.Sources.Vim</text>
<text text-anchor="middle" x="545" y="-103" font-family="Helvetica,sans-Serif" font-size="10.00">CustomGroupSource.Item</text>
</a>
</g>
</g>
<!-- Node3&#45;&gt;Node7 -->
<g id="edge6" class="edge">
<title>Node3&#45;&gt;Node7</title>
<path fill="none" stroke="#63b8ff" d="M426.28,-125.99C443.92,-123.74 462.73,-121.35 480.02,-119.15"/>
<polygon fill="#63b8ff" stroke="#63b8ff" points="425.86,-122.51 416.39,-127.25 426.75,-129.46 425.86,-122.51"/>
</g>
<!-- Node8 -->
<g id="node8" class="node">
<title>Node8</title>
<g id="a_node8"><a xlink:href="classSccg_1_1Builtin_1_1Sources_1_1VimSyntaxGroupSource_1_1Item.html" target="_top" xlink:title="SourceItem for Vim/Neovim syntax group.">
<polygon fill="white" stroke="#666666" points="608,-78 482,-78 482,-48 608,-48 608,-78"/>
<text text-anchor="start" x="490" y="-66" font-family="Helvetica,sans-Serif" font-size="10.00">Sccg.Builtin.Sources.Vim</text>
<text text-anchor="middle" x="545" y="-55" font-family="Helvetica,sans-Serif" font-size="10.00">SyntaxGroupSource.Item</text>
</a>
</g>
</g>
<!-- Node3&#45;&gt;Node8 -->
<g id="edge7" class="edge">
<title>Node3&#45;&gt;Node8</title>
<path fill="none" stroke="#63b8ff" d="M395.79,-114.75C414.95,-105.57 438.36,-95.01 460,-87 468.25,-83.95 477.07,-81.05 485.79,-78.38"/>
<polygon fill="#63b8ff" stroke="#63b8ff" points="394.45,-111.51 386.98,-119.02 397.51,-117.81 394.45,-111.51"/>
</g>
<!-- Node10 -->
<g id="node10" class="node">
<title>Node10</title>
<g id="a_node10"><a xlink:href="classSccg_1_1Builtin_1_1Sources_1_1Ansi16ColorSource_1_1Item.html" target="_top" xlink:title="SourceItem for 16 ANSI colors.">
<polygon fill="white" stroke="#666666" points="614.5,-30 475.5,-30 475.5,0 614.5,0 614.5,-30"/>
<text text-anchor="start" x="483.5" y="-18" font-family="Helvetica,sans-Serif" font-size="10.00">Sccg.Builtin.Sources.Ansi16</text>
<text text-anchor="middle" x="545" y="-7" font-family="Helvetica,sans-Serif" font-size="10.00">ColorSource.Item</text>
</a>
</g>
</g>
<!-- Node9&#45;&gt;Node10 -->
<g id="edge9" class="edge">
<title>Node9&#45;&gt;Node10</title>
<path fill="none" stroke="#63b8ff" d="M435.72,-28.79C448.8,-27.12 462.24,-25.41 475.02,-23.78"/>
<polygon fill="#63b8ff" stroke="#63b8ff" points="435.33,-25.31 425.85,-30.04 436.22,-32.25 435.33,-25.31"/>
</g>
</g>
</svg>
