<?xml version="1.0" encoding="UTF-8" standalone="no"?>
<!DOCTYPE svg PUBLIC "-//W3C//DTD SVG 1.1//EN"
 "http://www.w3.org/Graphics/SVG/1.1/DTD/svg11.dtd">
<!-- Generated by graphviz version 8.0.1 (20230327.1645)
 -->
<!-- Title: Sccg.Builtin.Sources.Internal.INeovimSourceItemBase Pages: 1 -->
<svg width="638pt" height="278pt"
 viewBox="0.00 0.00 638.00 278.00" xmlns="http://www.w3.org/2000/svg" xmlns:xlink="http://www.w3.org/1999/xlink">
<g id="graph0" class="graph" transform="scale(1 1) rotate(0) translate(4 274)">
<title>Sccg.Builtin.Sources.Internal.INeovimSourceItemBase</title>
<!-- Node1 -->
<g id="node1" class="node">
<title>Node1</title>
<g id="a_node1"><a xlink:title="Base SourceItem for Neovim.">
<polygon fill="#999999" stroke="#666666" points="249,-102 106,-102 106,-72 249,-72 249,-102"/>
<text text-anchor="start" x="114" y="-90" font-family="Helvetica,sans-Serif" font-size="10.00">Sccg.Builtin.Sources.Internal.</text>
<text text-anchor="middle" x="177.5" y="-79" font-family="Helvetica,sans-Serif" font-size="10.00">INeovimSourceItemBase</text>
</a>
</g>
</g>
<!-- Node3 -->
<g id="node3" class="node">
<title>Node3</title>
<g id="a_node3"><a xlink:href="interfaceSccg_1_1Builtin_1_1Formatters_1_1INeovimSourceItem.html" target="_top" xlink:title="SourceItem for Neovim color scheme.">
<polygon fill="white" stroke="#666666" points="414.5,-150 294.5,-150 294.5,-120 414.5,-120 414.5,-150"/>
<text text-anchor="start" x="302.5" y="-138" font-family="Helvetica,sans-Serif" font-size="10.00">Sccg.Builtin.Formatters.</text>
<text text-anchor="middle" x="354.5" y="-127" font-family="Helvetica,sans-Serif" font-size="10.00">INeovimSourceItem</text>
</a>
</g>
</g>
<!-- Node1&#45;&gt;Node3 -->
<g id="edge2" class="edge">
<title>Node1&#45;&gt;Node3</title>
<path fill="none" stroke="#63b8ff" d="M245.33,-105.33C262.47,-110.03 280.73,-115.04 297.27,-119.58"/>
<polygon fill="#63b8ff" stroke="#63b8ff" points="246.4,-101.72 235.83,-102.45 244.55,-108.47 246.4,-101.72"/>
</g>
<!-- Node9 -->
<g id="node9" class="node">
<title>Node9</title>
<g id="a_node9"><a xlink:href="interfaceSccg_1_1Builtin_1_1Formatters_1_1INeovimVariableSourceItem.html" target="_top" xlink:title="SourceItem for Neovim color scheme.">
<polygon fill="white" stroke="#666666" points="424,-54 285,-54 285,-24 424,-24 424,-54"/>
<text text-anchor="start" x="293" y="-42" font-family="Helvetica,sans-Serif" font-size="10.00">Sccg.Builtin.Formatters.</text>
<text text-anchor="middle" x="354.5" y="-31" font-family="Helvetica,sans-Serif" font-size="10.00">INeovimVariableSourceItem</text>
</a>
</g>
</g>
<!-- Node1&#45;&gt;Node9 -->
<g id="edge8" class="edge">
<title>Node1&#45;&gt;Node9</title>
<path fill="none" stroke="#63b8ff" d="M245.33,-68.67C262.47,-63.97 280.73,-58.96 297.27,-54.42"/>
<polygon fill="#63b8ff" stroke="#63b8ff" points="244.55,-65.53 235.83,-71.55 246.4,-72.28 244.55,-65.53"/>
</g>
<!-- Node2 -->
<g id="node2" class="node">
<title>Node2</title>
<g id="a_node2"><a xlink:href="interfaceSccg_1_1Core_1_1ISourceItem.html" target="_top" xlink:title="Represents a source item.">
<polygon fill="white" stroke="#666666" points="70,-96.5 0,-96.5 0,-77.5 70,-77.5 70,-96.5"/>
<text text-anchor="middle" x="35" y="-84.5" font-family="Helvetica,sans-Serif" font-size="10.00">ISourceItem</text>
</a>
</g>
</g>
<!-- Node2&#45;&gt;Node1 -->
<g id="edge1" class="edge">
<title>Node2&#45;&gt;Node1</title>
<path fill="none" stroke="#63b8ff" d="M81.37,-87C89.13,-87 97.37,-87 105.62,-87"/>
<polygon fill="#63b8ff" stroke="#63b8ff" points="81.37,-83.5 71.37,-87 81.37,-90.5 81.37,-83.5"/>
</g>
<!-- Node4 -->
<g id="node4" class="node">
<title>Node4</title>
<g id="a_node4"><a xlink:href="classSccg_1_1Builtin_1_1Sources_1_1NeovimEditorHighlightSource_1_1Item.html" target="_top" xlink:title="SourceItem for Neovim&#39;s editor highlight&#45;groups.">
<polygon fill="white" stroke="#666666" points="616.5,-270 473.5,-270 473.5,-240 616.5,-240 616.5,-270"/>
<text text-anchor="start" x="481.5" y="-258" font-family="Helvetica,sans-Serif" font-size="10.00">Sccg.Builtin.Sources.Neovim</text>
<text text-anchor="middle" x="545" y="-247" font-family="Helvetica,sans-Serif" font-size="10.00">EditorHighlightSource.Item</text>
</a>
</g>
</g>
<!-- Node3&#45;&gt;Node4 -->
<g id="edge3" class="edge">
<title>Node3&#45;&gt;Node4</title>
<path fill="none" stroke="#63b8ff" d="M375.11,-158.43C394.54,-180.21 426.23,-212.08 460,-231 465.82,-234.26 472.12,-237.11 478.57,-239.59"/>
<polygon fill="#63b8ff" stroke="#63b8ff" points="377.25,-156.56 368.04,-151.34 371.98,-161.17 377.25,-156.56"/>
</g>
<!-- Node5 -->
<g id="node5" class="node">
<title>Node5</title>
<g id="a_node5"><a xlink:href="classSccg_1_1Builtin_1_1Sources_1_1NeovimLspDiagnosticHighlightSource_1_1Item.html" target="_top" xlink:title="SourceItem for Neovim LSP diagnostic highlight.">
<polygon fill="white" stroke="#666666" points="630,-222 460,-222 460,-192 630,-192 630,-222"/>
<text text-anchor="start" x="468" y="-210" font-family="Helvetica,sans-Serif" font-size="10.00">Sccg.Builtin.Sources.Neovim</text>
<text text-anchor="middle" x="545" y="-199" font-family="Helvetica,sans-Serif" font-size="10.00">LspDiagnosticHighlightSource.Item</text>
</a>
</g>
</g>
<!-- Node3&#45;&gt;Node5 -->
<g id="edge4" class="edge">
<title>Node3&#45;&gt;Node5</title>
<path fill="none" stroke="#63b8ff" d="M395.26,-155C414.52,-164.23 438.16,-174.92 460,-183 468.25,-186.05 477.07,-188.95 485.79,-191.62"/>
<polygon fill="#63b8ff" stroke="#63b8ff" points="397.14,-151.53 386.62,-150.32 394.09,-157.83 397.14,-151.53"/>
</g>
<!-- Node6 -->
<g id="node6" class="node">
<title>Node6</title>
<g id="a_node6"><a xlink:href="classSccg_1_1Builtin_1_1Sources_1_1NeovimTreesitterHighlightSource_1_1Item.html" target="_top" xlink:title="SourceItem for Neovim Treesitter highlight.">
<polygon fill="white" stroke="#666666" points="619.5,-174 470.5,-174 470.5,-144 619.5,-144 619.5,-174"/>
<text text-anchor="start" x="478.5" y="-162" font-family="Helvetica,sans-Serif" font-size="10.00">Sccg.Builtin.Sources.Neovim</text>
<text text-anchor="middle" x="545" y="-151" font-family="Helvetica,sans-Serif" font-size="10.00">TreesitterHighlightSource.Item</text>
</a>
</g>
</g>
<!-- Node3&#45;&gt;Node6 -->
<g id="edge5" class="edge">
<title>Node3&#45;&gt;Node6</title>
<path fill="none" stroke="#63b8ff" d="M425.38,-143.9C440.04,-145.76 455.54,-147.74 470.33,-149.62"/>
<polygon fill="#63b8ff" stroke="#63b8ff" points="426.25,-140.35 415.88,-142.56 425.36,-147.3 426.25,-140.35"/>
</g>
<!-- Node7 -->
<g id="node7" class="node">
<title>Node7</title>
<g id="a_node7"><a xlink:href="classSccg_1_1Builtin_1_1Sources_1_1VimCustomGroupSource_1_1Item.html" target="_top" xlink:title="SourceItem for Vim/Neovim custom highlight group.">
<polygon fill="white" stroke="#666666" points="609.5,-126 480.5,-126 480.5,-96 609.5,-96 609.5,-126"/>
<text text-anchor="start" x="488.5" y="-114" font-family="Helvetica,sans-Serif" font-size="10.00">Sccg.Builtin.Sources.Vim</text>
<text text-anchor="middle" x="545" y="-103" font-family="Helvetica,sans-Serif" font-size="10.00">CustomGroupSource.Item</text>
</a>
</g>
</g>
<!-- Node3&#45;&gt;Node7 -->
<g id="edge6" class="edge">
<title>Node3&#45;&gt;Node7</title>
<path fill="none" stroke="#63b8ff" d="M425.77,-126.05C443.56,-123.79 462.56,-121.37 480.02,-119.15"/>
<polygon fill="#63b8ff" stroke="#63b8ff" points="425.36,-122.7 415.88,-127.44 426.25,-129.65 425.36,-122.7"/>
</g>
<!-- Node8 -->
<g id="node8" class="node">
<title>Node8</title>
<g id="a_node8"><a xlink:href="classSccg_1_1Builtin_1_1Sources_1_1VimSyntaxGroupSource_1_1Item.html" target="_top" xlink:title="SourceItem for Vim/Neovim syntax group.">
<polygon fill="white" stroke="#666666" points="608,-78 482,-78 482,-48 608,-48 608,-78"/>
<text text-anchor="start" x="490" y="-66" font-family="Helvetica,sans-Serif" font-size="10.00">Sccg.Builtin.Sources.Vim</text>
<text text-anchor="middle" x="545" y="-55" font-family="Helvetica,sans-Serif" font-size="10.00">SyntaxGroupSource.Item</text>
</a>
</g>
</g>
<!-- Node3&#45;&gt;Node8 -->
<g id="edge7" class="edge">
<title>Node3&#45;&gt;Node8</title>
<path fill="none" stroke="#63b8ff" d="M395.26,-115C414.52,-105.77 438.16,-95.08 460,-87 468.25,-83.95 477.07,-81.05 485.79,-78.38"/>
<polygon fill="#63b8ff" stroke="#63b8ff" points="394.09,-112.17 386.62,-119.68 397.14,-118.47 394.09,-112.17"/>
</g>
<!-- Node10 -->
<g id="node10" class="node">
<title>Node10</title>
<g id="a_node10"><a xlink:href="classSccg_1_1Builtin_1_1Sources_1_1Ansi16ColorSource_1_1Item.html" target="_top" xlink:title="SourceItem for 16 ANSI colors.">
<polygon fill="white" stroke="#666666" points="614.5,-30 475.5,-30 475.5,0 614.5,0 614.5,-30"/>
<text text-anchor="start" x="483.5" y="-18" font-family="Helvetica,sans-Serif" font-size="10.00">Sccg.Builtin.Sources.Ansi16</text>
<text text-anchor="middle" x="545" y="-7" font-family="Helvetica,sans-Serif" font-size="10.00">ColorSource.Item</text>
</a>
</g>
</g>
<!-- Node9&#45;&gt;Node10 -->
<g id="edge9" class="edge">
<title>Node9&#45;&gt;Node10</title>
<path fill="none" stroke="#63b8ff" d="M434.93,-28.89C448.26,-27.19 461.98,-25.44 475.02,-23.78"/>
<polygon fill="#63b8ff" stroke="#63b8ff" points="434.83,-25.5 425.35,-30.23 435.71,-32.44 434.83,-25.5"/>
</g>
</g>
</svg>
