<?xml version="1.0" encoding="UTF-8" standalone="no"?>
<!DOCTYPE svg PUBLIC "-//W3C//DTD SVG 1.1//EN"
 "http://www.w3.org/Graphics/SVG/1.1/DTD/svg11.dtd">
<!-- Generated by graphviz version 7.1.0 (20230121.1956)
 -->
<!-- Title: Sccg.Builtin.Sources.Internal.IVimSourceItemBase Pages: 1 -->
<svg width="613pt" height="182pt"
 viewBox="0.00 0.00 613.00 182.00" xmlns="http://www.w3.org/2000/svg" xmlns:xlink="http://www.w3.org/1999/xlink">
<g id="graph0" class="graph" transform="scale(1 1) rotate(0) translate(4 178)">
<title>Sccg.Builtin.Sources.Internal.IVimSourceItemBase</title>
<!-- Node1 -->
<g id="node1" class="node">
<title>Node1</title>
<g id="a_node1"><a xlink:title="Base SourceItem for Vim.">
<polygon fill="#999999" stroke="#666666" points="249,-126 106,-126 106,-96 249,-96 249,-126"/>
<text text-anchor="start" x="114" y="-114" font-family="Helvetica,sans-Serif" font-size="10.00">Sccg.Builtin.Sources.Internal.</text>
<text text-anchor="middle" x="177.5" y="-103" font-family="Helvetica,sans-Serif" font-size="10.00">IVimSourceItemBase</text>
</a>
</g>
</g>
<!-- Node3 -->
<g id="node3" class="node">
<title>Node3</title>
<g id="a_node3"><a xlink:href="interfaceSccg_1_1Builtin_1_1Formatters_1_1IVimArrayVariableSourceItem.html" target="_top" xlink:title="SourceItem for Vim color scheme.">
<polygon fill="white" stroke="#666666" points="430,-162 285,-162 285,-132 430,-132 430,-162"/>
<text text-anchor="start" x="293" y="-150" font-family="Helvetica,sans-Serif" font-size="10.00">Sccg.Builtin.Formatters.</text>
<text text-anchor="middle" x="357.5" y="-139" font-family="Helvetica,sans-Serif" font-size="10.00">IVimArrayVariableSourceItem</text>
</a>
</g>
</g>
<!-- Node1&#45;&gt;Node3 -->
<g id="edge2" class="edge">
<title>Node1&#45;&gt;Node3</title>
<path fill="none" stroke="#63b8ff" d="M260.65,-127.61C268.68,-129.24 276.8,-130.88 284.72,-132.48"/>
<polygon fill="#63b8ff" stroke="#63b8ff" points="261.34,-124.18 250.85,-125.63 259.95,-131.04 261.34,-124.18"/>
</g>
<!-- Node5 -->
<g id="node5" class="node">
<title>Node5</title>
<g id="a_node5"><a xlink:href="interfaceSccg_1_1Builtin_1_1Formatters_1_1IVimSourceItem.html" target="_top" xlink:title="SourceItem for Vim color scheme.">
<polygon fill="white" stroke="#666666" points="417.5,-102 297.5,-102 297.5,-72 417.5,-72 417.5,-102"/>
<text text-anchor="start" x="305.5" y="-90" font-family="Helvetica,sans-Serif" font-size="10.00">Sccg.Builtin.Formatters.</text>
<text text-anchor="middle" x="357.5" y="-79" font-family="Helvetica,sans-Serif" font-size="10.00">IVimSourceItem</text>
</a>
</g>
</g>
<!-- Node1&#45;&gt;Node5 -->
<g id="edge4" class="edge">
<title>Node1&#45;&gt;Node5</title>
<path fill="none" stroke="#63b8ff" d="M260.58,-99.93C272.87,-98.28 285.35,-96.59 297.05,-95.02"/>
<polygon fill="#63b8ff" stroke="#63b8ff" points="260.3,-96.44 250.86,-101.24 261.24,-103.38 260.3,-96.44"/>
</g>
<!-- Node2 -->
<g id="node2" class="node">
<title>Node2</title>
<g id="a_node2"><a xlink:href="interfaceSccg_1_1Core_1_1ISourceItem.html" target="_top" xlink:title="Represents a source item.">
<polygon fill="white" stroke="#666666" points="70,-120.5 0,-120.5 0,-101.5 70,-101.5 70,-120.5"/>
<text text-anchor="middle" x="35" y="-108.5" font-family="Helvetica,sans-Serif" font-size="10.00">ISourceItem</text>
</a>
</g>
</g>
<!-- Node2&#45;&gt;Node1 -->
<g id="edge1" class="edge">
<title>Node2&#45;&gt;Node1</title>
<path fill="none" stroke="#63b8ff" d="M81.64,-111C89.33,-111 97.47,-111 105.62,-111"/>
<polygon fill="#63b8ff" stroke="#63b8ff" points="81.88,-107.5 71.88,-111 81.88,-114.5 81.88,-107.5"/>
</g>
<!-- Node4 -->
<g id="node4" class="node">
<title>Node4</title>
<g id="a_node4"><a xlink:href="classSccg_1_1Builtin_1_1Sources_1_1Ansi16ColorSource_1_1Item.html" target="_top" xlink:title="SourceItem for 16 ANSI colors.">
<polygon fill="white" stroke="#666666" points="605,-174 466,-174 466,-144 605,-144 605,-174"/>
<text text-anchor="start" x="474" y="-162" font-family="Helvetica,sans-Serif" font-size="10.00">Sccg.Builtin.Sources.Ansi16</text>
<text text-anchor="middle" x="535.5" y="-151" font-family="Helvetica,sans-Serif" font-size="10.00">ColorSource.Item</text>
</a>
</g>
</g>
<!-- Node3&#45;&gt;Node4 -->
<g id="edge3" class="edge">
<title>Node3&#45;&gt;Node4</title>
<path fill="none" stroke="#63b8ff" d="M441.67,-152.67C449.72,-153.22 457.84,-153.77 465.73,-154.31"/>
<polygon fill="#63b8ff" stroke="#63b8ff" points="442.06,-149.19 431.85,-152 441.59,-156.17 442.06,-149.19"/>
</g>
<!-- Node6 -->
<g id="node6" class="node">
<title>Node6</title>
<g id="a_node6"><a xlink:href="classSccg_1_1Builtin_1_1Sources_1_1VimCustomGroupSource_1_1Item.html" target="_top" xlink:title="SourceItem for Vim/Neovim custom highlight group.">
<polygon fill="white" stroke="#666666" points="600,-126 471,-126 471,-96 600,-96 600,-126"/>
<text text-anchor="start" x="479" y="-114" font-family="Helvetica,sans-Serif" font-size="10.00">Sccg.Builtin.Sources.Vim</text>
<text text-anchor="middle" x="535.5" y="-103" font-family="Helvetica,sans-Serif" font-size="10.00">CustomGroupSource.Item</text>
</a>
</g>
</g>
<!-- Node5&#45;&gt;Node6 -->
<g id="edge5" class="edge">
<title>Node5&#45;&gt;Node6</title>
<path fill="none" stroke="#63b8ff" d="M428.59,-96.56C442.5,-98.46 457.04,-100.44 470.73,-102.3"/>
<polygon fill="#63b8ff" stroke="#63b8ff" points="429.48,-93.15 419.09,-95.26 428.53,-100.08 429.48,-93.15"/>
</g>
<!-- Node7 -->
<g id="node7" class="node">
<title>Node7</title>
<g id="a_node7"><a xlink:href="classSccg_1_1Builtin_1_1Sources_1_1VimEditorHighlightSource_1_1Item.html" target="_top" xlink:title="SourceItem for Vim editor highlight.">
<polygon fill="white" stroke="#666666" points="601.5,-78 469.5,-78 469.5,-48 601.5,-48 601.5,-78"/>
<text text-anchor="start" x="477.5" y="-66" font-family="Helvetica,sans-Serif" font-size="10.00">Sccg.Builtin.Sources.Vim</text>
<text text-anchor="middle" x="535.5" y="-55" font-family="Helvetica,sans-Serif" font-size="10.00">EditorHighlightSource.Item</text>
</a>
</g>
</g>
<!-- Node5&#45;&gt;Node7 -->
<g id="edge6" class="edge">
<title>Node5&#45;&gt;Node7</title>
<path fill="none" stroke="#63b8ff" d="M428.67,-77.43C442.04,-75.61 455.99,-73.71 469.2,-71.9"/>
<polygon fill="#63b8ff" stroke="#63b8ff" points="428.53,-73.92 419.09,-78.74 429.48,-80.85 428.53,-73.92"/>
</g>
<!-- Node8 -->
<g id="node8" class="node">
<title>Node8</title>
<g id="a_node8"><a xlink:href="classSccg_1_1Builtin_1_1Sources_1_1VimSyntaxGroupSource_1_1Item.html" target="_top" xlink:title="SourceItem for Vim/Neovim syntax group.">
<polygon fill="white" stroke="#666666" points="598.5,-30 472.5,-30 472.5,0 598.5,0 598.5,-30"/>
<text text-anchor="start" x="480.5" y="-18" font-family="Helvetica,sans-Serif" font-size="10.00">Sccg.Builtin.Sources.Vim</text>
<text text-anchor="middle" x="535.5" y="-7" font-family="Helvetica,sans-Serif" font-size="10.00">SyntaxGroupSource.Item</text>
</a>
</g>
</g>
<!-- Node5&#45;&gt;Node8 -->
<g id="edge7" class="edge">
<title>Node5&#45;&gt;Node8</title>
<path fill="none" stroke="#63b8ff" d="M401.53,-66.8C421.05,-57.9 444.53,-47.54 466,-39 473.26,-36.11 481.02,-33.22 488.61,-30.49"/>
<polygon fill="#63b8ff" stroke="#63b8ff" points="400.13,-63.59 392.51,-70.95 403.06,-69.96 400.13,-63.59"/>
</g>
</g>
</svg>
