<?xml version="1.0" encoding="UTF-8" standalone="no"?>
<!DOCTYPE svg PUBLIC "-//W3C//DTD SVG 1.1//EN"
 "http://www.w3.org/Graphics/SVG/1.1/DTD/svg11.dtd">
<!-- Generated by graphviz version 7.0.5 (20221223.1930)
 -->
<!-- Title: ISourceItem Pages: 1 -->
<svg width="420pt" height="187pt"
 viewBox="0.00 0.00 420.00 187.00" xmlns="http://www.w3.org/2000/svg" xmlns:xlink="http://www.w3.org/1999/xlink">
<g id="graph0" class="graph" transform="scale(1 1) rotate(0) translate(4 183)">
<title>ISourceItem</title>
<!-- Node1 -->
<g id="node1" class="node">
<title>Node1</title>
<g id="a_node1"><a xlink:title=" ">
<polygon fill="#999999" stroke="#666666" points="70,-99 0,-99 0,-80 70,-80 70,-99"/>
<text text-anchor="middle" x="35" y="-87" font-family="Helvetica,sans-Serif" font-size="10.00">ISourceItem</text>
</a>
</g>
</g>
<!-- Node2 -->
<g id="node2" class="node">
<title>Node2</title>
<g id="a_node2"><a xlink:href="interfaceIIterm2SourceItem.html" target="_top" xlink:title=" ">
<polygon fill="white" stroke="#666666" points="207,-157 109,-157 109,-138 207,-138 207,-157"/>
<text text-anchor="middle" x="158" y="-145" font-family="Helvetica,sans-Serif" font-size="10.00">IIterm2SourceItem</text>
</a>
</g>
</g>
<!-- Node1&#45;&gt;Node2 -->
<g id="edge1" class="edge">
<title>Node1&#45;&gt;Node2</title>
<path fill="none" stroke="#63b8ff" d="M66.9,-104.31C88.74,-114.78 117.4,-128.52 136.47,-137.66"/>
<polygon fill="#63b8ff" stroke="#63b8ff" points="68.7,-101.29 58.17,-100.12 65.67,-107.6 68.7,-101.29"/>
</g>
<!-- Node4 -->
<g id="node4" class="node">
<title>Node4</title>
<g id="a_node4"><a xlink:href="interfaceINeovimSourceItem.html" target="_top" xlink:title=" ">
<polygon fill="white" stroke="#666666" points="210,-99 106,-99 106,-80 210,-80 210,-99"/>
<text text-anchor="middle" x="158" y="-87" font-family="Helvetica,sans-Serif" font-size="10.00">INeovimSourceItem</text>
</a>
</g>
</g>
<!-- Node1&#45;&gt;Node4 -->
<g id="edge3" class="edge">
<title>Node1&#45;&gt;Node4</title>
<path fill="none" stroke="#63b8ff" d="M81.61,-89.5C89.52,-89.5 97.8,-89.5 105.84,-89.5"/>
<polygon fill="#63b8ff" stroke="#63b8ff" points="81.86,-86 71.86,-89.5 81.86,-93 81.86,-86"/>
</g>
<!-- Node8 -->
<g id="node8" class="node">
<title>Node8</title>
<g id="a_node8"><a xlink:href="interfaceIVimSourceItem.html" target="_top" xlink:title=" ">
<polygon fill="white" stroke="#666666" points="201.5,-56 114.5,-56 114.5,-37 201.5,-37 201.5,-56"/>
<text text-anchor="middle" x="158" y="-44" font-family="Helvetica,sans-Serif" font-size="10.00">IVimSourceItem</text>
</a>
</g>
</g>
<!-- Node1&#45;&gt;Node8 -->
<g id="edge7" class="edge">
<title>Node1&#45;&gt;Node8</title>
<path fill="none" stroke="#63b8ff" d="M74.9,-75.68C92.54,-69.41 113,-62.13 129.09,-56.42"/>
<polygon fill="#63b8ff" stroke="#63b8ff" points="73.74,-72.37 65.49,-79.02 76.08,-78.97 73.74,-72.37"/>
</g>
<!-- Node3 -->
<g id="node3" class="node">
<title>Node3</title>
<g id="a_node3"><a xlink:href="classIterm2ColorsSource_1_1Item.html" target="_top" xlink:title=" ">
<polygon fill="white" stroke="#666666" points="391.5,-179 266.5,-179 266.5,-160 391.5,-160 391.5,-179"/>
<text text-anchor="middle" x="329" y="-167" font-family="Helvetica,sans-Serif" font-size="10.00">Iterm2ColorsSource.Item</text>
</a>
</g>
</g>
<!-- Node2&#45;&gt;Node3 -->
<g id="edge2" class="edge">
<title>Node2&#45;&gt;Node3</title>
<path fill="none" stroke="#63b8ff" d="M218.46,-155.24C233.95,-157.26 250.68,-159.43 266.29,-161.47"/>
<polygon fill="#63b8ff" stroke="#63b8ff" points="219.3,-151.82 208.93,-154 218.39,-158.76 219.3,-151.82"/>
</g>
<!-- Node5 -->
<g id="node5" class="node">
<title>Node5</title>
<g id="a_node5"><a xlink:href="classNeovimEditorHighlightSource_1_1Item.html" target="_top" xlink:title=" ">
<polygon fill="white" stroke="#666666" points="412,-142 246,-142 246,-123 412,-123 412,-142"/>
<text text-anchor="middle" x="329" y="-130" font-family="Helvetica,sans-Serif" font-size="10.00">NeovimEditorHighlightSource.Item</text>
</a>
</g>
</g>
<!-- Node4&#45;&gt;Node5 -->
<g id="edge4" class="edge">
<title>Node4&#45;&gt;Node5</title>
<path fill="none" stroke="#63b8ff" d="M204.48,-102.43C217.83,-106.12 232.47,-110.07 246,-113.5 258.18,-116.59 271.43,-119.75 283.66,-122.58"/>
<polygon fill="#63b8ff" stroke="#63b8ff" points="205.66,-99.12 195.09,-99.81 203.78,-105.87 205.66,-99.12"/>
</g>
<!-- Node6 -->
<g id="node6" class="node">
<title>Node6</title>
<g id="a_node6"><a xlink:href="classNeovimTreesitterHighlightSource_1_1Item.html" target="_top" xlink:title=" ">
<polygon fill="white" stroke="#666666" points="394,-104.5 264,-104.5 264,-74.5 394,-74.5 394,-104.5"/>
<text text-anchor="start" x="272" y="-92.5" font-family="Helvetica,sans-Serif" font-size="10.00">NeovimTreesitterHighlight</text>
<text text-anchor="middle" x="329" y="-81.5" font-family="Helvetica,sans-Serif" font-size="10.00">Source.Item</text>
</a>
</g>
</g>
<!-- Node4&#45;&gt;Node6 -->
<g id="edge5" class="edge">
<title>Node4&#45;&gt;Node6</title>
<path fill="none" stroke="#63b8ff" d="M221.46,-89.5C235.18,-89.5 249.74,-89.5 263.54,-89.5"/>
<polygon fill="#63b8ff" stroke="#63b8ff" points="221.68,-86 211.68,-89.5 221.68,-93 221.68,-86"/>
</g>
<!-- Node7 -->
<g id="node7" class="node">
<title>Node7</title>
<g id="a_node7"><a xlink:href="classVimSyntaxGroupSource_1_1Item.html" target="_top" xlink:title=" ">
<polygon fill="white" stroke="#666666" points="400,-56 258,-56 258,-37 400,-37 400,-56"/>
<text text-anchor="middle" x="329" y="-44" font-family="Helvetica,sans-Serif" font-size="10.00">VimSyntaxGroupSource.Item</text>
</a>
</g>
</g>
<!-- Node4&#45;&gt;Node7 -->
<g id="edge6" class="edge">
<title>Node4&#45;&gt;Node7</title>
<path fill="none" stroke="#63b8ff" d="M204.48,-76.57C217.83,-72.88 232.47,-68.93 246,-65.5 258.18,-62.41 271.43,-59.25 283.66,-56.42"/>
<polygon fill="#63b8ff" stroke="#63b8ff" points="203.78,-73.13 195.09,-79.19 205.66,-79.88 203.78,-73.13"/>
</g>
<!-- Node8&#45;&gt;Node7 -->
<g id="edge9" class="edge">
<title>Node8&#45;&gt;Node7</title>
<path fill="none" stroke="#63b8ff" d="M212.78,-46.5C227.07,-46.5 242.72,-46.5 257.75,-46.5"/>
<polygon fill="#63b8ff" stroke="#63b8ff" points="213.16,-43 203.16,-46.5 213.16,-50 213.16,-43"/>
</g>
<!-- Node9 -->
<g id="node9" class="node">
<title>Node9</title>
<g id="a_node9"><a xlink:href="classVimEditorHighlightSource_1_1Item.html" target="_top" xlink:title=" ">
<polygon fill="white" stroke="#666666" points="403.5,-19 254.5,-19 254.5,0 403.5,0 403.5,-19"/>
<text text-anchor="middle" x="329" y="-7" font-family="Helvetica,sans-Serif" font-size="10.00">VimEditorHighlightSource.Item</text>
</a>
</g>
</g>
<!-- Node8&#45;&gt;Node9 -->
<g id="edge8" class="edge">
<title>Node8&#45;&gt;Node9</title>
<path fill="none" stroke="#63b8ff" d="M212.69,-34.75C235.12,-29.83 260.91,-24.19 282.41,-19.48"/>
<polygon fill="#63b8ff" stroke="#63b8ff" points="212.14,-31.28 203.12,-36.84 213.64,-38.12 212.14,-31.28"/>
</g>
</g>
</svg>
