<?xml version="1.0" encoding="UTF-8" standalone="no"?>
<!DOCTYPE svg PUBLIC "-//W3C//DTD SVG 1.1//EN"
 "http://www.w3.org/Graphics/SVG/1.1/DTD/svg11.dtd">
<!-- Generated by graphviz version 2.43.0 (0)
 -->
<!-- Title: IVimSourceItem Pages: 1 -->
<svg width="351pt" height="140pt"
 viewBox="0.00 0.00 350.50 140.00" xmlns="http://www.w3.org/2000/svg" xmlns:xlink="http://www.w3.org/1999/xlink">
<g id="graph0" class="graph" transform="scale(1 1) rotate(0) translate(4 136)">
<title>IVimSourceItem</title>
<polygon fill="white" stroke="transparent" points="-4,4 -4,-136 346.5,-136 346.5,4 -4,4"/>
<!-- Node1 -->
<g id="node1" class="node">
<title>Node1</title>
<g id="a_node1"><a xlink:title=" ">
<polygon fill="#bfbfbf" stroke="black" points="126,-56.5 126,-75.5 221,-75.5 221,-56.5 126,-56.5"/>
<text text-anchor="middle" x="173.5" y="-63.5" font-family="Helvetica,sans-Serif" font-size="10.00">IVimSourceItem</text>
</a>
</g>
</g>
<!-- Node3 -->
<g id="node3" class="node">
<title>Node3</title>
<g id="a_node3"><a xlink:href="classVimEditorHighlightSource_1_1Item.html" target="_top" xlink:title=" ">
<polygon fill="white" stroke="black" points="0,-0.5 0,-19.5 167,-19.5 167,-0.5 0,-0.5"/>
<text text-anchor="middle" x="83.5" y="-7.5" font-family="Helvetica,sans-Serif" font-size="10.00">VimEditorHighlightSource.Item</text>
</a>
</g>
</g>
<!-- Node1&#45;&gt;Node3 -->
<g id="edge2" class="edge">
<title>Node1&#45;&gt;Node3</title>
<path fill="none" stroke="midnightblue" d="M150.46,-51.18C133.9,-41.24 112.08,-28.15 97.92,-19.65"/>
<polygon fill="midnightblue" stroke="midnightblue" points="148.66,-54.18 159.04,-56.32 152.27,-48.18 148.66,-54.18"/>
</g>
<!-- Node4 -->
<g id="node4" class="node">
<title>Node4</title>
<g id="a_node4"><a xlink:href="classVimSyntaxGroupSource_1_1Item.html" target="_top" xlink:title=" ">
<polygon fill="white" stroke="black" points="184.5,-0.5 184.5,-19.5 342.5,-19.5 342.5,-0.5 184.5,-0.5"/>
<text text-anchor="middle" x="263.5" y="-7.5" font-family="Helvetica,sans-Serif" font-size="10.00">VimSyntaxGroupSource.Item</text>
</a>
</g>
</g>
<!-- Node1&#45;&gt;Node4 -->
<g id="edge3" class="edge">
<title>Node1&#45;&gt;Node4</title>
<path fill="none" stroke="midnightblue" d="M196.54,-51.18C213.1,-41.24 234.92,-28.15 249.08,-19.65"/>
<polygon fill="midnightblue" stroke="midnightblue" points="194.73,-48.18 187.96,-56.32 198.34,-54.18 194.73,-48.18"/>
</g>
<!-- Node2 -->
<g id="node2" class="node">
<title>Node2</title>
<g id="a_node2"><a xlink:href="interfaceISourceItem.html" target="_top" xlink:title=" ">
<polygon fill="white" stroke="black" points="136,-112.5 136,-131.5 211,-131.5 211,-112.5 136,-112.5"/>
<text text-anchor="middle" x="173.5" y="-119.5" font-family="Helvetica,sans-Serif" font-size="10.00">ISourceItem</text>
</a>
</g>
</g>
<!-- Node2&#45;&gt;Node1 -->
<g id="edge1" class="edge">
<title>Node2&#45;&gt;Node1</title>
<path fill="none" stroke="midnightblue" d="M173.5,-101.8C173.5,-92.91 173.5,-82.78 173.5,-75.75"/>
<polygon fill="midnightblue" stroke="midnightblue" points="170,-102.08 173.5,-112.08 177,-102.08 170,-102.08"/>
</g>
</g>
</svg>
