<?xml version="1.0" encoding="UTF-8" standalone="no"?>
<!DOCTYPE svg PUBLIC "-//W3C//DTD SVG 1.1//EN"
 "http://www.w3.org/Graphics/SVG/1.1/DTD/svg11.dtd">
<!-- Generated by graphviz version 7.1.0 (20230121.1956)
 -->
<!-- Title: Sccg.Builtin.Formatters.IVimArrayVariableSourceItem Pages: 1 -->
<svg width="153pt" height="214pt"
 viewBox="0.00 0.00 153.00 214.00" xmlns="http://www.w3.org/2000/svg" xmlns:xlink="http://www.w3.org/1999/xlink">
<g id="graph0" class="graph" transform="scale(1 1) rotate(0) translate(4 210)">
<title>Sccg.Builtin.Formatters.IVimArrayVariableSourceItem</title>
<!-- Node1 -->
<g id="node1" class="node">
<title>Node1</title>
<g id="a_node1"><a xlink:title="SourceItem for Vim color scheme.">
<polygon fill="#999999" stroke="#666666" points="145,-96 0,-96 0,-66 145,-66 145,-96"/>
<text text-anchor="start" x="8" y="-84" font-family="Helvetica,sans-Serif" font-size="10.00">Sccg.Builtin.Formatters.</text>
<text text-anchor="middle" x="72.5" y="-73" font-family="Helvetica,sans-Serif" font-size="10.00">IVimArrayVariableSourceItem</text>
</a>
</g>
</g>
<!-- Node4 -->
<g id="node4" class="node">
<title>Node4</title>
<g id="a_node4"><a xlink:href="classSccg_1_1Builtin_1_1Sources_1_1Ansi16ColorSource_1_1Item.html" target="_top" xlink:title=" ">
<polygon fill="white" stroke="#666666" points="142,-30 3,-30 3,0 142,0 142,-30"/>
<text text-anchor="start" x="11" y="-18" font-family="Helvetica,sans-Serif" font-size="10.00">Sccg.Builtin.Sources.Ansi16</text>
<text text-anchor="middle" x="72.5" y="-7" font-family="Helvetica,sans-Serif" font-size="10.00">ColorSource.Item</text>
</a>
</g>
</g>
<!-- Node1&#45;&gt;Node4 -->
<g id="edge3" class="edge">
<title>Node1&#45;&gt;Node4</title>
<path fill="none" stroke="#63b8ff" d="M72.5,-54.39C72.5,-46.13 72.5,-37.28 72.5,-30.16"/>
<polygon fill="#63b8ff" stroke="#63b8ff" points="69,-54.28 72.5,-64.28 76,-54.28 69,-54.28"/>
</g>
<!-- Node2 -->
<g id="node2" class="node">
<title>Node2</title>
<g id="a_node2"><a xlink:href="interfaceSccg_1_1Builtin_1_1Sources_1_1Internal_1_1IVimSourceItemBase.html" target="_top" xlink:title="Base SourceItem for Vim.">
<polygon fill="white" stroke="#666666" points="127.5,-151 17.5,-151 17.5,-132 127.5,-132 127.5,-151"/>
<text text-anchor="middle" x="72.5" y="-139" font-family="Helvetica,sans-Serif" font-size="10.00">IVimSourceItemBase</text>
</a>
</g>
</g>
<!-- Node2&#45;&gt;Node1 -->
<g id="edge1" class="edge">
<title>Node2&#45;&gt;Node1</title>
<path fill="none" stroke="#63b8ff" d="M72.5,-120.51C72.5,-112.49 72.5,-103.43 72.5,-96.11"/>
<polygon fill="#63b8ff" stroke="#63b8ff" points="69,-120.35 72.5,-130.35 76,-120.35 69,-120.35"/>
</g>
<!-- Node3 -->
<g id="node3" class="node">
<title>Node3</title>
<g id="a_node3"><a xlink:href="interfaceSccg_1_1Core_1_1ISourceItem.html" target="_top" xlink:title="Represents a source item.">
<polygon fill="white" stroke="#666666" points="107.5,-206 37.5,-206 37.5,-187 107.5,-187 107.5,-206"/>
<text text-anchor="middle" x="72.5" y="-194" font-family="Helvetica,sans-Serif" font-size="10.00">ISourceItem</text>
</a>
</g>
</g>
<!-- Node3&#45;&gt;Node2 -->
<g id="edge2" class="edge">
<title>Node3&#45;&gt;Node2</title>
<path fill="none" stroke="#63b8ff" d="M72.5,-175.35C72.5,-167.1 72.5,-157.97 72.5,-151.44"/>
<polygon fill="#63b8ff" stroke="#63b8ff" points="69,-175.23 72.5,-185.23 76,-175.23 69,-175.23"/>
</g>
</g>
</svg>
