<?xml version="1.0" encoding="UTF-8" standalone="no"?>
<!DOCTYPE svg PUBLIC "-//W3C//DTD SVG 1.1//EN"
 "http://www.w3.org/Graphics/SVG/1.1/DTD/svg11.dtd">
<!-- Generated by graphviz version 8.0.1 (20230327.1645)
 -->
<!-- Title: Sccg.Core.ISource Pages: 1 -->
<svg width="302pt" height="93pt"
 viewBox="0.00 0.00 301.50 93.00" xmlns="http://www.w3.org/2000/svg" xmlns:xlink="http://www.w3.org/1999/xlink">
<g id="graph0" class="graph" transform="scale(1 1) rotate(0) translate(4 89)">
<title>Sccg.Core.ISource</title>
<!-- Node1 -->
<g id="node1" class="node">
<title>Node1</title>
<g id="a_node1"><a xlink:title="Represents a source that provides source items.">
<polygon fill="#999999" stroke="#666666" points="196,-85 98,-85 98,-66 196,-66 196,-85"/>
<text text-anchor="middle" x="147" y="-73" font-family="Helvetica,sans-Serif" font-size="10.00">Sccg.Core.ISource</text>
</a>
</g>
</g>
<!-- Node2 -->
<g id="node2" class="node">
<title>Node2</title>
<g id="a_node2"><a xlink:href="classSccg_1_1Core_1_1Source.html" target="_top" xlink:title="The base class of the ISource. This class provides some helper methods and standard implementation of...">
<polygon fill="white" stroke="#666666" points="138,-30 0,-30 0,0 138,0 138,-30"/>
<text text-anchor="start" x="8" y="-18" font-family="Helvetica,sans-Serif" font-size="10.00">Sccg.Core.Source&lt; TGroup,</text>
<text text-anchor="middle" x="69" y="-7" font-family="Helvetica,sans-Serif" font-size="10.00"> TItem &gt;</text>
</a>
</g>
</g>
<!-- Node1&#45;&gt;Node2 -->
<g id="edge1" class="edge">
<title>Node1&#45;&gt;Node2</title>
<path fill="none" stroke="#63b8ff" d="M126.42,-59.06C114.6,-50.2 99.84,-39.13 88.25,-30.44"/>
<polygon fill="#63b8ff" stroke="#63b8ff" points="124.05,-62.42 134.15,-65.62 128.25,-56.82 124.05,-62.42"/>
</g>
<!-- Node3 -->
<g id="node3" class="node">
<title>Node3</title>
<g id="a_node3"><a xlink:href="classSccg_1_1Core_1_1SourceColorOnly.html" target="_top" xlink:title="The base class of the ISource. This class provides some helper methods and standard implementation of...">
<polygon fill="white" stroke="#666666" points="293.5,-30 156.5,-30 156.5,0 293.5,0 293.5,-30"/>
<text text-anchor="start" x="164.5" y="-18" font-family="Helvetica,sans-Serif" font-size="10.00">Sccg.Core.SourceColorOnly</text>
<text text-anchor="middle" x="225" y="-7" font-family="Helvetica,sans-Serif" font-size="10.00">&lt; TGroup, TItem &gt;</text>
</a>
</g>
</g>
<!-- Node1&#45;&gt;Node3 -->
<g id="edge2" class="edge">
<title>Node1&#45;&gt;Node3</title>
<path fill="none" stroke="#63b8ff" d="M167.58,-59.06C179.4,-50.2 194.16,-39.13 205.75,-30.44"/>
<polygon fill="#63b8ff" stroke="#63b8ff" points="165.75,-56.82 159.85,-65.62 169.95,-62.42 165.75,-56.82"/>
</g>
</g>
</svg>
