<?xml version="1.0" encoding="UTF-8" standalone="no"?>
<!DOCTYPE svg PUBLIC "-//W3C//DTD SVG 1.1//EN"
 "http://www.w3.org/Graphics/SVG/1.1/DTD/svg11.dtd">
<!-- Generated by graphviz version 7.1.0 (20230121.1956)
 -->
<!-- Title: Sccg.Builtin.Formatters.IVimSourceItem Pages: 1 -->
<svg width="548pt" height="134pt"
 viewBox="0.00 0.00 548.00 134.00" xmlns="http://www.w3.org/2000/svg" xmlns:xlink="http://www.w3.org/1999/xlink">
<g id="graph0" class="graph" transform="scale(1 1) rotate(0) translate(4 130)">
<title>Sccg.Builtin.Formatters.IVimSourceItem</title>
<!-- Node1 -->
<g id="node1" class="node">
<title>Node1</title>
<g id="a_node1"><a xlink:title="SourceItem for Vim color scheme.">
<polygon fill="#999999" stroke="#666666" points="372,-78 252,-78 252,-48 372,-48 372,-78"/>
<text text-anchor="start" x="260" y="-66" font-family="Helvetica,sans-Serif" font-size="10.00">Sccg.Builtin.Formatters.</text>
<text text-anchor="middle" x="312" y="-55" font-family="Helvetica,sans-Serif" font-size="10.00">IVimSourceItem</text>
</a>
</g>
</g>
<!-- Node4 -->
<g id="node4" class="node">
<title>Node4</title>
<g id="a_node4"><a xlink:href="classSccg_1_1Builtin_1_1Sources_1_1VimCustomGroupSource_1_1Item.html" target="_top" xlink:title="SourceItem for Vim/Neovim custom highlight group.">
<polygon fill="white" stroke="#666666" points="538.5,-126 409.5,-126 409.5,-96 538.5,-96 538.5,-126"/>
<text text-anchor="start" x="417.5" y="-114" font-family="Helvetica,sans-Serif" font-size="10.00">Sccg.Builtin.Sources.Vim</text>
<text text-anchor="middle" x="474" y="-103" font-family="Helvetica,sans-Serif" font-size="10.00">CustomGroupSource.Item</text>
</a>
</g>
</g>
<!-- Node1&#45;&gt;Node4 -->
<g id="edge3" class="edge">
<title>Node1&#45;&gt;Node4</title>
<path fill="none" stroke="#63b8ff" d="M375.44,-81.73C390.72,-86.32 406.9,-91.17 421.59,-95.58"/>
<polygon fill="#63b8ff" stroke="#63b8ff" points="376.54,-78.41 365.96,-78.89 374.53,-85.11 376.54,-78.41"/>
</g>
<!-- Node5 -->
<g id="node5" class="node">
<title>Node5</title>
<g id="a_node5"><a xlink:href="classSccg_1_1Builtin_1_1Sources_1_1VimEditorHighlightSource_1_1Item.html" target="_top" xlink:title="SourceItem for Vim editor highlight.">
<polygon fill="white" stroke="#666666" points="540,-78 408,-78 408,-48 540,-48 540,-78"/>
<text text-anchor="start" x="416" y="-66" font-family="Helvetica,sans-Serif" font-size="10.00">Sccg.Builtin.Sources.Vim</text>
<text text-anchor="middle" x="474" y="-55" font-family="Helvetica,sans-Serif" font-size="10.00">EditorHighlightSource.Item</text>
</a>
</g>
</g>
<!-- Node1&#45;&gt;Node5 -->
<g id="edge4" class="edge">
<title>Node1&#45;&gt;Node5</title>
<path fill="none" stroke="#63b8ff" d="M383.4,-63C391.47,-63 399.66,-63 407.66,-63"/>
<polygon fill="#63b8ff" stroke="#63b8ff" points="383.64,-59.5 373.64,-63 383.64,-66.5 383.64,-59.5"/>
</g>
<!-- Node6 -->
<g id="node6" class="node">
<title>Node6</title>
<g id="a_node6"><a xlink:href="classSccg_1_1Builtin_1_1Sources_1_1VimSyntaxGroupSource_1_1Item.html" target="_top" xlink:title="SourceItem for Vim/Neovim syntax group.">
<polygon fill="white" stroke="#666666" points="537,-30 411,-30 411,0 537,0 537,-30"/>
<text text-anchor="start" x="419" y="-18" font-family="Helvetica,sans-Serif" font-size="10.00">Sccg.Builtin.Sources.Vim</text>
<text text-anchor="middle" x="474" y="-7" font-family="Helvetica,sans-Serif" font-size="10.00">SyntaxGroupSource.Item</text>
</a>
</g>
</g>
<!-- Node1&#45;&gt;Node6 -->
<g id="edge5" class="edge">
<title>Node1&#45;&gt;Node6</title>
<path fill="none" stroke="#63b8ff" d="M375.44,-44.27C390.72,-39.68 406.9,-34.83 421.59,-30.42"/>
<polygon fill="#63b8ff" stroke="#63b8ff" points="374.53,-40.89 365.96,-47.11 376.54,-47.59 374.53,-40.89"/>
</g>
<!-- Node2 -->
<g id="node2" class="node">
<title>Node2</title>
<g id="a_node2"><a xlink:href="interfaceSccg_1_1Builtin_1_1Sources_1_1Internal_1_1IVimSourceItemBase.html" target="_top" xlink:title="Base SourceItem for Vim.">
<polygon fill="white" stroke="#666666" points="216,-72.5 106,-72.5 106,-53.5 216,-53.5 216,-72.5"/>
<text text-anchor="middle" x="161" y="-60.5" font-family="Helvetica,sans-Serif" font-size="10.00">IVimSourceItemBase</text>
</a>
</g>
</g>
<!-- Node2&#45;&gt;Node1 -->
<g id="edge1" class="edge">
<title>Node2&#45;&gt;Node1</title>
<path fill="none" stroke="#63b8ff" d="M227.7,-63C235.63,-63 243.7,-63 251.54,-63"/>
<polygon fill="#63b8ff" stroke="#63b8ff" points="227.73,-59.5 217.73,-63 227.73,-66.5 227.73,-59.5"/>
</g>
<!-- Node3 -->
<g id="node3" class="node">
<title>Node3</title>
<g id="a_node3"><a xlink:href="interfaceSccg_1_1Core_1_1ISourceItem.html" target="_top" xlink:title="Represents a source item.">
<polygon fill="white" stroke="#666666" points="70,-72.5 0,-72.5 0,-53.5 70,-53.5 70,-72.5"/>
<text text-anchor="middle" x="35" y="-60.5" font-family="Helvetica,sans-Serif" font-size="10.00">ISourceItem</text>
</a>
</g>
</g>
<!-- Node3&#45;&gt;Node2 -->
<g id="edge2" class="edge">
<title>Node3&#45;&gt;Node2</title>
<path fill="none" stroke="#63b8ff" d="M81.49,-63C89.42,-63 97.75,-63 105.89,-63"/>
<polygon fill="#63b8ff" stroke="#63b8ff" points="81.73,-59.5 71.73,-63 81.73,-66.5 81.73,-59.5"/>
</g>
</g>
</svg>
