<?xml version="1.0" encoding="UTF-8" standalone="no"?>
<!DOCTYPE svg PUBLIC "-//W3C//DTD SVG 1.1//EN"
 "http://www.w3.org/Graphics/SVG/1.1/DTD/svg11.dtd">
<!-- Generated by graphviz version 2.43.0 (0)
 -->
<!-- Title: INeovimSourceItem Pages: 1 -->
<svg width="454pt" height="116pt"
 viewBox="0.00 0.00 454.00 116.00" xmlns="http://www.w3.org/2000/svg" xmlns:xlink="http://www.w3.org/1999/xlink">
<g id="graph0" class="graph" transform="scale(1 1) rotate(0) translate(4 112)">
<title>INeovimSourceItem</title>
<polygon fill="white" stroke="transparent" points="-4,4 -4,-112 450,-112 450,4 -4,4"/>
<!-- Node1 -->
<g id="node1" class="node">
<title>Node1</title>
<g id="a_node1"><a xlink:title=" ">
<polygon fill="#bfbfbf" stroke="black" points="111,-44.5 111,-63.5 224,-63.5 224,-44.5 111,-44.5"/>
<text text-anchor="middle" x="167.5" y="-51.5" font-family="Helvetica,sans-Serif" font-size="10.00">INeovimSourceItem</text>
</a>
</g>
</g>
<!-- Node3 -->
<g id="node3" class="node">
<title>Node3</title>
<g id="a_node3"><a xlink:href="classNeovimEditorHighlightSource_1_1Item.html" target="_top" xlink:title=" ">
<polygon fill="white" stroke="black" points="260,-88.5 260,-107.5 446,-107.5 446,-88.5 260,-88.5"/>
<text text-anchor="middle" x="353" y="-95.5" font-family="Helvetica,sans-Serif" font-size="10.00">NeovimEditorHighlightSource.Item</text>
</a>
</g>
</g>
<!-- Node1&#45;&gt;Node3 -->
<g id="edge2" class="edge">
<title>Node1&#45;&gt;Node3</title>
<path fill="none" stroke="midnightblue" d="M211.15,-66.25C226.49,-70.5 243.97,-75.16 260,-79 273.8,-82.31 288.84,-85.56 302.69,-88.41"/>
<polygon fill="midnightblue" stroke="midnightblue" points="211.98,-62.85 201.41,-63.53 210.09,-69.59 211.98,-62.85"/>
</g>
<!-- Node4 -->
<g id="node4" class="node">
<title>Node4</title>
<g id="a_node4"><a xlink:href="classNeovimTreesitterHighlightSource_1_1Item.html" target="_top" xlink:title=" ">
<polygon fill="white" stroke="black" points="280.5,-39 280.5,-69 425.5,-69 425.5,-39 280.5,-39"/>
<text text-anchor="start" x="288.5" y="-57" font-family="Helvetica,sans-Serif" font-size="10.00">NeovimTreesitterHighlight</text>
<text text-anchor="middle" x="353" y="-46" font-family="Helvetica,sans-Serif" font-size="10.00">Source.Item</text>
</a>
</g>
</g>
<!-- Node1&#45;&gt;Node4 -->
<g id="edge3" class="edge">
<title>Node1&#45;&gt;Node4</title>
<path fill="none" stroke="midnightblue" d="M234.23,-54C249.18,-54 265.15,-54 280.34,-54"/>
<polygon fill="midnightblue" stroke="midnightblue" points="234.05,-50.5 224.05,-54 234.05,-57.5 234.05,-50.5"/>
</g>
<!-- Node5 -->
<g id="node5" class="node">
<title>Node5</title>
<g id="a_node5"><a xlink:href="classVimSyntaxGroupSource_1_1Item.html" target="_top" xlink:title=" ">
<polygon fill="white" stroke="black" points="274,-0.5 274,-19.5 432,-19.5 432,-0.5 274,-0.5"/>
<text text-anchor="middle" x="353" y="-7.5" font-family="Helvetica,sans-Serif" font-size="10.00">VimSyntaxGroupSource.Item</text>
</a>
</g>
</g>
<!-- Node1&#45;&gt;Node5 -->
<g id="edge4" class="edge">
<title>Node1&#45;&gt;Node5</title>
<path fill="none" stroke="midnightblue" d="M211.15,-41.75C226.49,-37.5 243.97,-32.84 260,-29 273.8,-25.69 288.84,-22.44 302.69,-19.59"/>
<polygon fill="midnightblue" stroke="midnightblue" points="210.09,-38.41 201.41,-44.47 211.98,-45.15 210.09,-38.41"/>
</g>
<!-- Node2 -->
<g id="node2" class="node">
<title>Node2</title>
<g id="a_node2"><a xlink:href="interfaceISourceItem.html" target="_top" xlink:title=" ">
<polygon fill="white" stroke="black" points="0,-44.5 0,-63.5 75,-63.5 75,-44.5 0,-44.5"/>
<text text-anchor="middle" x="37.5" y="-51.5" font-family="Helvetica,sans-Serif" font-size="10.00">ISourceItem</text>
</a>
</g>
</g>
<!-- Node2&#45;&gt;Node1 -->
<g id="edge1" class="edge">
<title>Node2&#45;&gt;Node1</title>
<path fill="none" stroke="midnightblue" d="M85.36,-54C93.6,-54 102.26,-54 110.72,-54"/>
<polygon fill="midnightblue" stroke="midnightblue" points="85.18,-50.5 75.18,-54 85.18,-57.5 85.18,-50.5"/>
</g>
</g>
</svg>
