<?xml version="1.0" encoding="UTF-8" standalone="no"?>
<!DOCTYPE svg PUBLIC "-//W3C//DTD SVG 1.1//EN"
 "http://www.w3.org/Graphics/SVG/1.1/DTD/svg11.dtd">
<!-- Generated by graphviz version 2.43.0 (0)
 -->
<!-- Title: Style.Equals Pages: 1 -->
<svg width="223pt" height="66pt"
 viewBox="0.00 0.00 223.00 66.00" xmlns="http://www.w3.org/2000/svg" xmlns:xlink="http://www.w3.org/1999/xlink">
<g id="graph0" class="graph" transform="scale(1 1) rotate(0) translate(4 62)">
<title>Style.Equals</title>
<polygon fill="white" stroke="transparent" points="-4,4 -4,-62 219,-62 219,4 -4,4"/>
<!-- Node1 -->
<g id="node1" class="node">
<title>Node1</title>
<g id="a_node1"><a xlink:title=" ">
<polygon fill="#bfbfbf" stroke="black" points="138,-19.5 138,-38.5 215,-38.5 215,-19.5 138,-19.5"/>
<text text-anchor="middle" x="176.5" y="-26.5" font-family="Helvetica,sans-Serif" font-size="10.00">Style.Equals</text>
</a>
</g>
</g>
<!-- Node2 -->
<g id="node2" class="node">
<title>Node2</title>
<g id="a_node2"><a xlink:href="structStyle.html#af92834bebe156e3b9e3e1a5ad36f194c" target="_top" xlink:title=" ">
<polygon fill="white" stroke="black" points="12.5,-38.5 12.5,-57.5 89.5,-57.5 89.5,-38.5 12.5,-38.5"/>
<text text-anchor="middle" x="51" y="-45.5" font-family="Helvetica,sans-Serif" font-size="10.00">Style.Equals</text>
</a>
</g>
</g>
<!-- Node1&#45;&gt;Node2 -->
<g id="edge1" class="edge">
<title>Node1&#45;&gt;Node2</title>
<path fill="none" stroke="midnightblue" d="M127.53,-36.38C115.06,-38.3 101.79,-40.34 89.92,-42.17"/>
<polygon fill="midnightblue" stroke="midnightblue" points="128.42,-39.78 137.77,-34.8 127.36,-32.87 128.42,-39.78"/>
</g>
<!-- Node3 -->
<g id="node3" class="node">
<title>Node3</title>
<g id="a_node3"><a xlink:href="structStyle.html#a1ad5285f8961f80c3d687d420062fb5a" target="_top" xlink:title=" ">
<polygon fill="white" stroke="black" points="0,-0.5 0,-19.5 102,-19.5 102,-0.5 0,-0.5"/>
<text text-anchor="middle" x="51" y="-7.5" font-family="Helvetica,sans-Serif" font-size="10.00">Style.operator==</text>
</a>
</g>
</g>
<!-- Node1&#45;&gt;Node3 -->
<g id="edge2" class="edge">
<title>Node1&#45;&gt;Node3</title>
<path fill="none" stroke="midnightblue" d="M127.79,-21.66C119.41,-20.37 110.68,-19.03 102.24,-17.73"/>
<polygon fill="midnightblue" stroke="midnightblue" points="127.36,-25.13 137.77,-23.2 128.42,-18.22 127.36,-25.13"/>
</g>
</g>
</svg>
