<?xml version="1.0" encoding="UTF-8" standalone="no"?>
<!DOCTYPE svg PUBLIC "-//W3C//DTD SVG 1.1//EN"
 "http://www.w3.org/Graphics/SVG/1.1/DTD/svg11.dtd">
<!-- Generated by graphviz version 7.0.5 (20221223.1930)
 -->
<!-- Title: Sccg.Style.operator== Pages: 1 -->
<svg width="383pt" height="27pt"
 viewBox="0.00 0.00 383.00 27.00" xmlns="http://www.w3.org/2000/svg" xmlns:xlink="http://www.w3.org/1999/xlink">
<g id="graph0" class="graph" transform="scale(1 1) rotate(0) translate(4 23)">
<title>Sccg.Style.operator==</title>
<!-- Node1 -->
<g id="node1" class="node">
<title>Node1</title>
<g id="a_node1"><a xlink:title=" ">
<polygon fill="#999999" stroke="#666666" points="113,-19 0,-19 0,0 113,0 113,-19"/>
<text text-anchor="middle" x="56.5" y="-7" font-family="Helvetica,sans-Serif" font-size="10.00">Sccg.Style.operator==</text>
</a>
</g>
</g>
<!-- Node2 -->
<g id="node2" class="node">
<title>Node2</title>
<g id="a_node2"><a xlink:href="structSccg_1_1Style.html#a1ff46a3851fb3b6f939a01fa1299d28f" target="_top" xlink:title=" ">
<polygon fill="white" stroke="#666666" points="244,-19 149,-19 149,0 244,0 244,-19"/>
<text text-anchor="middle" x="196.5" y="-7" font-family="Helvetica,sans-Serif" font-size="10.00">Sccg.Style.Equals</text>
</a>
</g>
</g>
<!-- Node1&#45;&gt;Node2 -->
<g id="edge1" class="edge">
<title>Node1&#45;&gt;Node2</title>
<path fill="none" stroke="#63b8ff" d="M113.23,-9.5C121.17,-9.5 129.36,-9.5 137.34,-9.5"/>
<polygon fill="#63b8ff" stroke="#63b8ff" points="137.34,-13 147.34,-9.5 137.34,-6 137.34,-13"/>
</g>
<!-- Node3 -->
<g id="node3" class="node">
<title>Node3</title>
<g id="a_node3"><a xlink:href="structSccg_1_1Color.html#a28cc7250c64e43a009b9c9699274a6ce" target="_top" xlink:title=" ">
<polygon fill="white" stroke="#666666" points="375,-19 280,-19 280,0 375,0 375,-19"/>
<text text-anchor="middle" x="327.5" y="-7" font-family="Helvetica,sans-Serif" font-size="10.00">Sccg.Color.Equals</text>
</a>
</g>
</g>
<!-- Node2&#45;&gt;Node3 -->
<g id="edge2" class="edge">
<title>Node2&#45;&gt;Node3</title>
<path fill="none" stroke="#63b8ff" d="M244.44,-9.5C252.27,-9.5 260.48,-9.5 268.55,-9.5"/>
<polygon fill="#63b8ff" stroke="#63b8ff" points="268.3,-13 278.3,-9.5 268.3,-6 268.3,-13"/>
</g>
</g>
</svg>
