<?xml version="1.0" encoding="UTF-8" standalone="no"?>
<!DOCTYPE svg PUBLIC "-//W3C//DTD SVG 1.1//EN"
 "http://www.w3.org/Graphics/SVG/1.1/DTD/svg11.dtd">
<!-- Generated by graphviz version 2.43.0 (0)
 -->
<!-- Title: Color.Equals Pages: 1 -->
<svg width="336pt" height="85pt"
 viewBox="0.00 0.00 336.00 85.00" xmlns="http://www.w3.org/2000/svg" xmlns:xlink="http://www.w3.org/1999/xlink">
<g id="graph0" class="graph" transform="scale(1 1) rotate(0) translate(4 81)">
<title>Color.Equals</title>
<polygon fill="white" stroke="transparent" points="-4,4 -4,-81 332,-81 332,4 -4,4"/>
<!-- Node1 -->
<g id="node1" class="node">
<title>Node1</title>
<g id="a_node1"><a xlink:title=" ">
<polygon fill="#bfbfbf" stroke="black" points="251,-38.5 251,-57.5 328,-57.5 328,-38.5 251,-38.5"/>
<text text-anchor="middle" x="289.5" y="-45.5" font-family="Helvetica,sans-Serif" font-size="10.00">Color.Equals</text>
</a>
</g>
</g>
<!-- Node2 -->
<g id="node2" class="node">
<title>Node2</title>
<g id="a_node2"><a xlink:href="structColor.html#ac389f5099b217c1642826c3ed870116f" target="_top" xlink:title=" ">
<polygon fill="white" stroke="black" points="138,-57.5 138,-76.5 215,-76.5 215,-57.5 138,-57.5"/>
<text text-anchor="middle" x="176.5" y="-64.5" font-family="Helvetica,sans-Serif" font-size="10.00">Color.Equals</text>
</a>
</g>
</g>
<!-- Node1&#45;&gt;Node2 -->
<g id="edge1" class="edge">
<title>Node1&#45;&gt;Node2</title>
<path fill="none" stroke="midnightblue" d="M240.93,-56.14C232.28,-57.62 223.36,-59.15 215.04,-60.57"/>
<polygon fill="midnightblue" stroke="midnightblue" points="241.65,-59.57 250.92,-54.43 240.47,-52.67 241.65,-59.57"/>
</g>
<!-- Node3 -->
<g id="node3" class="node">
<title>Node3</title>
<g id="a_node3"><a xlink:href="structStyle.html#a59a665997393959d12e257c52bcc8750" target="_top" xlink:title=" ">
<polygon fill="white" stroke="black" points="138,-19.5 138,-38.5 215,-38.5 215,-19.5 138,-19.5"/>
<text text-anchor="middle" x="176.5" y="-26.5" font-family="Helvetica,sans-Serif" font-size="10.00">Style.Equals</text>
</a>
</g>
</g>
<!-- Node1&#45;&gt;Node3 -->
<g id="edge2" class="edge">
<title>Node1&#45;&gt;Node3</title>
<path fill="none" stroke="midnightblue" d="M240.93,-39.86C232.28,-38.38 223.36,-36.85 215.04,-35.43"/>
<polygon fill="midnightblue" stroke="midnightblue" points="240.47,-43.33 250.92,-41.57 241.65,-36.43 240.47,-43.33"/>
</g>
<!-- Node4 -->
<g id="node4" class="node">
<title>Node4</title>
<g id="a_node4"><a xlink:href="structStyle.html#af92834bebe156e3b9e3e1a5ad36f194c" target="_top" xlink:title=" ">
<polygon fill="white" stroke="black" points="12.5,-38.5 12.5,-57.5 89.5,-57.5 89.5,-38.5 12.5,-38.5"/>
<text text-anchor="middle" x="51" y="-45.5" font-family="Helvetica,sans-Serif" font-size="10.00">Style.Equals</text>
</a>
</g>
</g>
<!-- Node3&#45;&gt;Node4 -->
<g id="edge3" class="edge">
<title>Node3&#45;&gt;Node4</title>
<path fill="none" stroke="midnightblue" d="M127.53,-36.38C115.06,-38.3 101.79,-40.34 89.92,-42.17"/>
<polygon fill="midnightblue" stroke="midnightblue" points="128.42,-39.78 137.77,-34.8 127.36,-32.87 128.42,-39.78"/>
</g>
<!-- Node5 -->
<g id="node5" class="node">
<title>Node5</title>
<g id="a_node5"><a xlink:href="structStyle.html#a1ad5285f8961f80c3d687d420062fb5a" target="_top" xlink:title=" ">
<polygon fill="white" stroke="black" points="0,-0.5 0,-19.5 102,-19.5 102,-0.5 0,-0.5"/>
<text text-anchor="middle" x="51" y="-7.5" font-family="Helvetica,sans-Serif" font-size="10.00">Style.operator==</text>
</a>
</g>
</g>
<!-- Node3&#45;&gt;Node5 -->
<g id="edge4" class="edge">
<title>Node3&#45;&gt;Node5</title>
<path fill="none" stroke="midnightblue" d="M127.79,-21.66C119.41,-20.37 110.68,-19.03 102.24,-17.73"/>
<polygon fill="midnightblue" stroke="midnightblue" points="127.36,-25.13 137.77,-23.2 128.42,-18.22 127.36,-25.13"/>
</g>
</g>
</svg>
