<?xml version="1.0" encoding="UTF-8" standalone="no"?>
<!DOCTYPE svg PUBLIC "-//W3C//DTD SVG 1.1//EN"
 "http://www.w3.org/Graphics/SVG/1.1/DTD/svg11.dtd">
<!-- Generated by graphviz version 7.0.5 (20221223.1930)
 -->
<!-- Title: Sccg.Color.Equals Pages: 1 -->
<svg width="383pt" height="82pt"
 viewBox="0.00 0.00 383.00 82.00" xmlns="http://www.w3.org/2000/svg" xmlns:xlink="http://www.w3.org/1999/xlink">
<g id="graph0" class="graph" transform="scale(1 1) rotate(0) translate(4 78)">
<title>Sccg.Color.Equals</title>
<!-- Node1 -->
<g id="node1" class="node">
<title>Node1</title>
<g id="a_node1"><a xlink:title=" ">
<polygon fill="#999999" stroke="#666666" points="375,-55 280,-55 280,-36 375,-36 375,-55"/>
<text text-anchor="middle" x="327.5" y="-43" font-family="Helvetica,sans-Serif" font-size="10.00">Sccg.Color.Equals</text>
</a>
</g>
</g>
<!-- Node2 -->
<g id="node2" class="node">
<title>Node2</title>
<g id="a_node2"><a xlink:href="structSccg_1_1Color.html#a4e2fafab3b0befe70a05792826fb3002" target="_top" xlink:title=" ">
<polygon fill="white" stroke="#666666" points="244,-74 149,-74 149,-55 244,-55 244,-74"/>
<text text-anchor="middle" x="196.5" y="-62" font-family="Helvetica,sans-Serif" font-size="10.00">Sccg.Color.Equals</text>
</a>
</g>
</g>
<!-- Node1&#45;&gt;Node2 -->
<g id="edge1" class="edge">
<title>Node1&#45;&gt;Node2</title>
<path fill="none" stroke="#63b8ff" d="M268.29,-54.07C260.22,-55.26 252.01,-56.47 244.19,-57.62"/>
<polygon fill="#63b8ff" stroke="#63b8ff" points="268.68,-57.55 278.07,-52.63 267.66,-50.63 268.68,-57.55"/>
</g>
<!-- Node3 -->
<g id="node3" class="node">
<title>Node3</title>
<g id="a_node3"><a xlink:href="structSccg_1_1Style.html#a1ff46a3851fb3b6f939a01fa1299d28f" target="_top" xlink:title=" ">
<polygon fill="white" stroke="#666666" points="244,-37 149,-37 149,-18 244,-18 244,-37"/>
<text text-anchor="middle" x="196.5" y="-25" font-family="Helvetica,sans-Serif" font-size="10.00">Sccg.Style.Equals</text>
</a>
</g>
</g>
<!-- Node1&#45;&gt;Node3 -->
<g id="edge2" class="edge">
<title>Node1&#45;&gt;Node3</title>
<path fill="none" stroke="#63b8ff" d="M268.29,-37.38C260.22,-36.25 252.01,-35.11 244.19,-34.01"/>
<polygon fill="#63b8ff" stroke="#63b8ff" points="267.68,-40.83 278.06,-38.74 268.64,-33.89 267.68,-40.83"/>
</g>
<!-- Node4 -->
<g id="node4" class="node">
<title>Node4</title>
<g id="a_node4"><a xlink:href="structSccg_1_1Style.html#a60b1750604d5de7e6ee756478e006283" target="_top" xlink:title=" ">
<polygon fill="white" stroke="#666666" points="104,-56 9,-56 9,-37 104,-37 104,-56"/>
<text text-anchor="middle" x="56.5" y="-44" font-family="Helvetica,sans-Serif" font-size="10.00">Sccg.Style.Equals</text>
</a>
</g>
</g>
<!-- Node3&#45;&gt;Node4 -->
<g id="edge3" class="edge">
<title>Node3&#45;&gt;Node4</title>
<path fill="none" stroke="#63b8ff" d="M137.41,-35.5C126.32,-37.02 114.85,-38.6 104.17,-40.07"/>
<polygon fill="#63b8ff" stroke="#63b8ff" points="137.85,-38.97 147.28,-34.14 136.9,-32.04 137.85,-38.97"/>
</g>
<!-- Node5 -->
<g id="node5" class="node">
<title>Node5</title>
<g id="a_node5"><a xlink:href="structSccg_1_1Style.html#adf499e9138045f0e89ea896cafcd8a27" target="_top" xlink:title=" ">
<polygon fill="white" stroke="#666666" points="113,-19 0,-19 0,0 113,0 113,-19"/>
<text text-anchor="middle" x="56.5" y="-7" font-family="Helvetica,sans-Serif" font-size="10.00">Sccg.Style.operator==</text>
</a>
</g>
</g>
<!-- Node3&#45;&gt;Node5 -->
<g id="edge4" class="edge">
<title>Node3&#45;&gt;Node5</title>
<path fill="none" stroke="#63b8ff" d="M137.58,-19.94C129.52,-18.89 121.26,-17.82 113.24,-16.77"/>
<polygon fill="#63b8ff" stroke="#63b8ff" points="136.91,-23.39 147.28,-21.21 137.82,-16.45 136.91,-23.39"/>
</g>
</g>
</svg>
