<?xml version="1.0" encoding="UTF-8" standalone="no"?>
<!DOCTYPE svg PUBLIC "-//W3C//DTD SVG 1.1//EN"
 "http://www.w3.org/Graphics/SVG/1.1/DTD/svg11.dtd">
<!-- Generated by graphviz version 8.0.1 (20230327.1645)
 -->
<!-- Title: Sccg.Style.Equals Pages: 1 -->
<svg width="252pt" height="64pt"
 viewBox="0.00 0.00 252.00 64.00" xmlns="http://www.w3.org/2000/svg" xmlns:xlink="http://www.w3.org/1999/xlink">
<g id="graph0" class="graph" transform="scale(1 1) rotate(0) translate(4 60)">
<title>Sccg.Style.Equals</title>
<!-- Node1 -->
<g id="node1" class="node">
<title>Node1</title>
<g id="a_node1"><a xlink:title=" ">
<polygon fill="#999999" stroke="#666666" points="244,-37 149,-37 149,-18 244,-18 244,-37"/>
<text text-anchor="middle" x="196.5" y="-25" font-family="Helvetica,sans-Serif" font-size="10.00">Sccg.Style.Equals</text>
</a>
</g>
</g>
<!-- Node2 -->
<g id="node2" class="node">
<title>Node2</title>
<g id="a_node2"><a xlink:href="structSccg_1_1Style.html#a60b1750604d5de7e6ee756478e006283" target="_top" xlink:title=" ">
<polygon fill="white" stroke="#666666" points="104,-56 9,-56 9,-37 104,-37 104,-56"/>
<text text-anchor="middle" x="56.5" y="-44" font-family="Helvetica,sans-Serif" font-size="10.00">Sccg.Style.Equals</text>
</a>
</g>
</g>
<!-- Node1&#45;&gt;Node2 -->
<g id="edge1" class="edge">
<title>Node1&#45;&gt;Node2</title>
<path fill="none" stroke="#63b8ff" d="M138.11,-35.4C126.81,-36.96 115.07,-38.57 104.17,-40.07"/>
<polygon fill="#63b8ff" stroke="#63b8ff" points="138.35,-38.76 147.78,-33.93 137.4,-31.83 138.35,-38.76"/>
</g>
<!-- Node3 -->
<g id="node3" class="node">
<title>Node3</title>
<g id="a_node3"><a xlink:href="structSccg_1_1Style.html#adf499e9138045f0e89ea896cafcd8a27" target="_top" xlink:title="Tests whether two specified Style structures are equivalent.">
<polygon fill="white" stroke="#666666" points="113,-19 0,-19 0,0 113,0 113,-19"/>
<text text-anchor="middle" x="56.5" y="-7" font-family="Helvetica,sans-Serif" font-size="10.00">Sccg.Style.operator==</text>
</a>
</g>
</g>
<!-- Node1&#45;&gt;Node3 -->
<g id="edge2" class="edge">
<title>Node1&#45;&gt;Node3</title>
<path fill="none" stroke="#63b8ff" d="M138.13,-20.02C129.9,-18.94 121.44,-17.84 113.24,-16.77"/>
<polygon fill="#63b8ff" stroke="#63b8ff" points="137.41,-23.58 147.78,-21.41 138.32,-16.64 137.41,-23.58"/>
</g>
</g>
</svg>
